<?xml version="1.0" standalone="no"?>
<!DOCTYPE svg PUBLIC "-//W3C//DTD SVG 1.1//EN" "http://www.w3.org/Graphics/SVG/1.1/DTD/svg11.dtd" >
<svg xmlns="http://www.w3.org/2000/svg">
<metadata></metadata>
<defs>
<font id="europabolditalic" horiz-adv-x="1064" >
<font-face units-per-em="2048" ascent="1548" descent="-500" />
<missing-glyph horiz-adv-x="602" />
<glyph horiz-adv-x="0" />
<glyph horiz-adv-x="682" />
<glyph unicode=" "  horiz-adv-x="602" />
<glyph unicode="&#x09;" horiz-adv-x="602" />
<glyph unicode="&#xa0;" horiz-adv-x="602" />
<glyph unicode="!" horiz-adv-x="626" d="M184 137q0 68 47 115t115 47t115 -47t47 -115q0 -67 -47 -114q-48 -48 -115 -48t-115 48q-47 47 -47 114zM268 410l170 1024h254l-190 -1024h-234z" />
<glyph unicode="&#x22;" horiz-adv-x="819" d="M285 926l90 508h217l-90 -508h-217zM641 926l90 508h217l-90 -508h-217z" />
<glyph unicode="#" horiz-adv-x="1298" d="M156 430l30 180h265l77 246h-237l33 180h262l141 445l170 -49l-125 -396h219l142 445l170 -49l-125 -396h237l-33 -180h-262l-78 -246h236l-31 -180h-262l-149 -477l-172 49l135 428h-219l-150 -477l-172 49l135 428h-237zM637 610h219l78 246h-219z" />
<glyph unicode="$" horiz-adv-x="1187" d="M127 258l184 168q34 -54 76 -96q39 -39 88 -72q51 -34 117 -45l70 399q-69 30 -125 61q-64 36 -111 83q-49 49 -79 113q-30 65 -30 153q0 78 36 155q36 76 101 138q63 60 155 101t202 42l31 168h129l-33 -178q94 -17 160 -52t110 -73q54 -46 86 -92l-172 -162 q-27 33 -61 61q-31 26 -71 49q-38 22 -93 38l-70 -396l19 -6q76 -32 128 -62q62 -36 105 -80q45 -47 72 -109q27 -63 27 -148q0 -104 -42 -184q-40 -76 -112 -134q-67 -54 -160 -85q-90 -30 -186 -36l-29 -170h-129l31 175q-106 16 -185 61q-81 46 -133 92q-62 54 -106 123z M571 1022q0 -57 36 -90q37 -34 102 -62l61 349q-85 -15 -142 -69t-57 -128zM721 215q35 5 75 22q37 16 64 38q28 23 46 57q18 33 18 78q0 61 -37 95q-35 33 -105 62z" />
<glyph unicode="%" horiz-adv-x="1458" d="M184 18l1223 1483l104 -90l-1224 -1483zM221 1102q0 72 33 136t84 114q51 49 116 78q63 28 130 28q76 0 133 -24q56 -23 95 -66q37 -40 57 -94t20 -111q0 -71 -33 -136t-84 -114q-49 -48 -117 -77q-67 -29 -129 -29q-76 0 -133 24q-56 23 -95 66q-37 40 -57 94t-20 111z M385 1102q0 -58 38 -98q38 -39 103 -39q43 0 79 15q34 14 63 43q27 27 42 63t15 77q0 59 -38 99q-37 38 -103 38q-44 0 -80 -16q-38 -16 -64 -43q-26 -26 -41 -63q-14 -35 -14 -76zM819 270q0 72 33 137q32 63 84 113q51 49 116 78q66 29 130 29q74 0 133 -25q57 -24 95 -65 q36 -39 57 -95q20 -54 20 -110q0 -72 -33 -136t-84 -114t-117 -78q-67 -29 -129 -29q-74 0 -133 25q-56 23 -95 66q-37 40 -57 94t-20 110zM983 270q0 -58 38 -98q37 -39 103 -39q43 0 79 15q34 14 63 43q26 26 42 64q15 36 15 77q0 58 -38 98q-37 39 -103 39q-44 0 -80 -16 q-38 -16 -64 -43q-26 -26 -41 -64q-14 -35 -14 -76z" />
<glyph unicode="&#x26;" horiz-adv-x="1423" d="M166 315q0 74 32 138q30 61 83 118t114 104q58 44 129 91q-72 84 -108 154q-35 68 -35 145q0 85 36 157q37 74 94 125q56 50 133 81q75 30 153 30q73 0 141 -21q65 -20 120 -64q54 -43 83 -101q30 -60 30 -135q0 -65 -21 -117t-59 -101q-37 -47 -93 -94q-58 -49 -119 -90 l215 -225q15 19 30 57q13 35 27 85t25 134h239q-17 -118 -43 -200q-29 -91 -53 -137q-29 -61 -64 -107l193 -199l-170 -163l-174 184q-44 -43 -104 -78q-63 -37 -122 -59q-68 -25 -130 -38q-68 -14 -125 -14q-109 0 -194 27t-143 73q-60 48 -89 107q-31 64 -31 133zM418 340 q0 -34 17 -58q19 -26 45 -44q29 -19 65 -28q37 -9 78 -9q90 0 180 38q88 37 145 87l-272 282q-19 -14 -69 -47q-46 -30 -86 -63q-42 -34 -72 -75q-31 -42 -31 -83zM618 1069q0 -45 30 -83q20 -25 83 -97q26 19 59 41q33 21 64 51q33 32 52 61q22 35 22 74q0 56 -42 86 q-43 31 -89 31q-77 0 -127 -46q-52 -47 -52 -118z" />
<glyph unicode="'" horiz-adv-x="380" d="M246 930l88 504h217l-88 -504h-217z" />
<glyph unicode="(" horiz-adv-x="638" d="M182 362q0 168 36 329q37 164 100 311q64 149 155 290q89 138 201 262l180 -145q-94 -103 -168 -216q-79 -119 -135 -250q-56 -129 -91 -276q-34 -142 -34 -294q0 -138 20 -244q21 -109 48 -188q29 -95 67 -166l-211 -123q-46 88 -84 201q-32 93 -58 224q-26 133 -26 285 z" />
<glyph unicode=")" horiz-adv-x="638" d="M-4 -203q90 101 166 216q77 117 136 250q56 126 92 277q34 142 34 294q0 128 -22 241q-20 103 -46 189q-31 95 -67 168l211 122q47 -92 84 -200q29 -94 57 -226q27 -129 27 -284q0 -168 -36 -329q-36 -159 -101 -311q-66 -154 -154 -290q-89 -138 -201 -262z" />
<glyph unicode="*" horiz-adv-x="815" d="M217 1108l64 168l247 -88l47 270h177l-47 -270l258 80l41 -168l-275 -82l123 -203l-152 -96l-118 209l-189 -215l-131 112l187 203z" />
<glyph unicode="+" d="M115 389l41 229h362l66 377h245l-65 -377h362l-41 -229h-362l-68 -389h-245l67 389h-362z" />
<glyph unicode="," horiz-adv-x="493" d="M-8 -274l246 483l190 -94l-262 -477z" />
<glyph unicode="-" horiz-adv-x="681" d="M135 389l41 234h547l-41 -234h-547z" />
<glyph unicode="." horiz-adv-x="536" d="M129 137q0 68 47 115t115 47t115 -47t47 -115q0 -67 -47 -114q-48 -48 -115 -48t-115 48q-47 47 -47 114z" />
<glyph unicode="/" d="M-25 -188l1143 1839l185 -113l-1143 -1839z" />
<glyph unicode="0" horiz-adv-x="1241" d="M188 537q0 102 20 213q20 110 57 211q37 102 93 192q55 89 128 159q70 67 161 107q89 39 191 39q128 0 216 -42t144 -117t81 -177q26 -104 26 -221q0 -157 -43 -319q-44 -164 -126 -299q-84 -137 -203 -222q-121 -86 -276 -86q-129 0 -216 43q-88 43 -145 118 q-56 74 -82 177q-26 104 -26 224zM436 537q0 -70 14 -134q14 -65 39 -105q28 -46 69 -69q42 -24 99 -24q95 0 169 67q75 67 126 170q51 101 78 226q27 123 27 233q0 144 -53 236t-166 92q-95 0 -170 -67q-73 -65 -126 -169q-51 -100 -79 -224q-27 -121 -27 -232z" />
<glyph unicode="1" horiz-adv-x="909" d="M203 1090l493 344h228l-252 -1434h-246l195 1106l-289 -201z" />
<glyph unicode="2" horiz-adv-x="1136" d="M82 0l643 668l77 81q35 36 74 89q32 43 56 99q22 51 22 114q0 73 -49 125q-50 53 -139 53q-80 0 -134 -33t-87 -72q-40 -47 -62 -104l-215 88q38 96 105 174q30 35 66 65q38 32 86 56q51 25 109 40q60 15 132 15q119 0 203 -36q86 -37 137 -94q53 -59 77 -131 q23 -69 23 -146q0 -94 -47 -197q-47 -102 -129 -192l-137 -149l-131 -138l-135 -142h440l-41 -233h-944z" />
<glyph unicode="3" horiz-adv-x="1167" d="M129 293l203 125q24 -63 59 -107q32 -40 87 -73q54 -33 134 -33q55 0 103 14q53 16 93 44q43 31 68 75t25 104q0 90 -71 125q-72 35 -185 35h-72l41 225h48q48 0 106 14q56 13 99 42q45 30 73 72q29 44 29 108q0 73 -57 120q-56 46 -142 46q-68 0 -118 -28 q-48 -27 -81 -60q-37 -37 -61 -86l-203 106q40 81 107 148q57 57 143 102q89 47 213 47q100 0 179 -26q85 -28 144 -78q58 -50 94 -124q34 -71 34 -167q0 -118 -61 -202q-60 -83 -165 -138q46 -22 78 -57q30 -34 53 -87q25 -56 25 -137q0 -115 -49 -201q-50 -87 -126 -147 q-74 -58 -173 -89q-96 -30 -191 -30q-138 0 -232 50q-97 51 -149 108q-67 68 -102 160z" />
<glyph unicode="4" horiz-adv-x="1214" d="M45 311l928 1123h274l-157 -893h178l-41 -230h-178l-54 -311h-245l53 311h-758zM498 541h350l96 542z" />
<glyph unicode="5" horiz-adv-x="1198" d="M152 293l206 125q24 -60 62 -107q33 -40 85 -73q53 -33 130 -33q64 0 121 24q55 23 100 68t68 101q24 58 24 126q0 94 -71 153q-72 60 -211 60q-73 0 -144 -25q-65 -23 -129 -55q-77 -43 -127 -79l150 856h889l-41 -234h-643l-46 -260l46 10q8 2 57 8q38 5 82 5 q213 0 327 -120q115 -121 115 -319q0 -117 -44 -219q-43 -99 -121 -174t-180 -115q-105 -41 -222 -41q-146 0 -238 50q-94 51 -147 108q-64 67 -98 160z" />
<glyph unicode="6" horiz-adv-x="1155" d="M152 410q0 98 45 193q46 97 106 183l32 43l65 86l89 115l101 129l266 342l188 -143l-331 -418q8 0 18 2q19 4 35 4q94 0 169 -36q74 -36 127 -96q52 -60 81 -138q28 -77 28 -162q0 -113 -46 -211q-47 -100 -124 -171q-80 -74 -178 -115q-101 -42 -207 -42q-123 0 -213 38 q-85 36 -144 100q-56 61 -82 139q-25 76 -25 158zM403 410q0 -97 63 -151t157 -54q62 0 112 23q54 25 94 66q44 46 66 98q25 59 25 122q0 95 -63 149t-157 54q-59 0 -114 -25q-54 -25 -94 -66q-41 -43 -65 -98q-24 -56 -24 -118z" />
<glyph unicode="7" horiz-adv-x="1077" d="M125 82l780 1118h-620l41 234h1024l-1031 -1483z" />
<glyph unicode="8" horiz-adv-x="1179" d="M164 385q0 60 18 117q19 59 52 107q35 51 82 90q49 41 108 65q-33 30 -53 63q-19 27 -37 76q-17 46 -17 105q0 93 37 174q36 80 104 143q65 60 155 97q88 36 194 36q105 0 185 -27q78 -26 132 -79q53 -51 80 -121q27 -69 27 -152q0 -54 -19 -108q-17 -47 -49 -94 q-29 -43 -68 -75q-37 -31 -77 -48q40 -21 72 -58q26 -32 49 -88q22 -54 22 -141q0 -107 -44 -200q-42 -88 -118 -155q-74 -65 -171 -101q-98 -36 -203 -36q-129 0 -218 36q-92 37 -143 93q-53 57 -77 132q-23 70 -23 149zM416 385q0 -76 51 -130t158 -54q54 0 105 19t92 54 t65 84q24 50 24 109q0 75 -51 127q-51 53 -158 53q-52 0 -105 -18q-48 -16 -92 -54q-42 -36 -65 -82q-24 -48 -24 -108zM561 1008q0 -72 50 -114t128 -42q47 0 89 16q44 17 79 47q34 30 56 73q20 40 20 91q0 73 -49 113q-50 41 -127 41q-47 0 -89 -16q-44 -17 -79 -47 q-36 -32 -56 -71q-22 -44 -22 -91z" />
<glyph unicode="9" horiz-adv-x="1155" d="M233 922q0 111 47 211q48 101 123 171q77 71 178 114q99 42 207 42q124 0 214 -38t145 -99q56 -62 81 -139q25 -76 25 -158q0 -98 -45 -193q-48 -100 -106 -184l-32 -43l-64 -86l-88 -113l-99 -126l-262 -336l-188 143l323 408q-4 -1 -10.5 -2.5t-7.5 -1.5q-15 -3 -18 -3 h-17q-81 0 -156 32q-73 31 -129 89q-55 56 -88 136t-33 176zM485 922q0 -95 63 -149t157 -54q61 0 114 24t94 67q42 43 65 97q23 53 23 119q0 98 -62 151q-63 54 -157 54q-60 0 -112 -24q-58 -26 -95 -65q-41 -43 -65 -99q-25 -59 -25 -121z" />
<glyph unicode=":" horiz-adv-x="561" d="M141 137q0 68 47 115t115 47t115 -47t47 -115q0 -67 -47 -114q-48 -48 -115 -48t-115 48q-47 47 -47 114zM264 834q0 67 47 114t115 47t115 -47t47 -114q0 -68 -47 -115t-115 -47t-115 47t-47 115z" />
<glyph unicode=";" horiz-adv-x="497" d="M-8 -274l246 483l190 -94l-262 -477zM233 831q0 67 48 115q47 47 114 47q68 0 115 -47t47 -115q0 -67 -47 -114t-115 -47q-67 0 -114 47q-48 48 -48 114z" />
<glyph unicode="&#x3c;" d="M115 453l37 204l1017 404l-45 -262l-675 -254l585 -256l-43 -242z" />
<glyph unicode="=" d="M133 238l39 225h881l-39 -225h-881zM201 618l39 226h880l-39 -226h-880z" />
<glyph unicode="&#x3e;" d="M98 47l45 262l668 256l-578 254l43 242l875 -404l-37 -204z" />
<glyph unicode="?" horiz-adv-x="1001" d="M215 1128q40 91 107 164q56 62 144 114t220 52q94 0 170 -25t134 -75q57 -49 88 -121q32 -73 32 -162q0 -122 -74 -222q-73 -98 -227 -198q-35 -22 -51 -37q-22 -20 -28 -30q-8 -13 -13 -30q-4 -15 -6 -34l-19 -104h-246l27 151q7 50 20 87t33 61q22 26 60 52 q46 31 98 63q44 28 65 43q33 23 56 51q26 31 40 64q15 36 15 83q0 63 -47 107q-46 43 -127 43q-72 0 -125 -31q-52 -31 -82 -68q-36 -41 -57 -98zM367 137q0 68 47 115t114 47q68 0 115 -47t47 -115q0 -67 -47 -114q-48 -48 -115 -48q-66 0 -114 48q-47 47 -47 114z" />
<glyph unicode="@" horiz-adv-x="1636" d="M211 614q0 175 69 328q70 156 184 268q119 117 269 182q153 66 324 66q150 0 266 -46q118 -47 197 -126q80 -80 120 -189q41 -111 41 -237q0 -143 -34 -245q-34 -101 -91 -171q-55 -67 -122 -100q-68 -33 -136 -33q-62 0 -120 32t-74 103q-27 -36 -72 -67 q-31 -24 -85 -47q-49 -21 -113 -21q-58 0 -106 20t-78 53q-32 35 -48 79t-16 96q0 68 29 116q31 51 78 85q48 35 109 53q60 18 120 18q51 0 85 -11q44 -14 64 -23q31 -17 55 -35l7 35q1 7 3 17q1 5 1 15q0 66 -42 96q-41 29 -96 29q-47 0 -89 -9q-46 -10 -76 -19 q-37 -12 -74 -29l-53 152q36 17 92 36q33 12 93 26q48 11 107 11q143 0 231 -63q89 -63 89 -176q0 -28 -6 -58l-45 -247q-2 -14 -3 -20t-1 -19q0 -33 13 -50q13 -18 46 -18t65 27t57 76q26 51 41 122q15 72 15 164q0 91 -31 172q-29 75 -88 134q-56 56 -139 88 q-84 32 -186 32q-139 0 -260 -51q-120 -50 -211 -140q-92 -90 -142 -213q-51 -125 -51 -268q0 -100 33 -185q32 -84 94 -147q61 -63 149 -99q87 -36 195 -36q114 0 198 25q79 23 138 53l62 -159q-76 -38 -168 -63q-103 -28 -230 -28q-150 0 -274 52q-120 50 -206 138 q-85 87 -129 203q-44 117 -44 246zM772 559q0 -36 33 -60t98 -24q45 0 80 12q34 12 59 29q28 17 50 43l10 60q-11 15 -35 28q-19 11 -50 20t-77 9q-75 0 -122 -32q-46 -31 -46 -85z" />
<glyph unicode="A" horiz-adv-x="1388" d="M12 0l809 1434h250l305 -1434h-241l-72 340h-598l-191 -340h-262zM592 565h422l-115 553z" />
<glyph unicode="B" horiz-adv-x="1208" d="M152 0l251 1434h455q184 0 294 -99t110 -276q0 -76 -28 -135q-27 -57 -64 -97q-38 -41 -69 -60q-38 -23 -44 -24q17 -7 38 -19q27 -15 57 -48q28 -31 53 -85q24 -53 24 -128q0 -96 -39 -180t-108 -147q-67 -61 -164 -99q-95 -37 -209 -37h-557zM438 233h262h11 q50 0 101 16q47 15 84 44q35 28 57 73q22 46 22 99q0 80 -59 115q-58 34 -150 34h-262zM545 848h211q110 0 181 51t71 160q0 72 -54 107q-52 34 -135 34h-211z" />
<glyph unicode="C" horiz-adv-x="1384" d="M182 637q0 172 69 322q70 152 183 262q114 111 264 174t314 63q136 0 237 -36t166 -76q77 -50 129 -113l-162 -162q-40 43 -96 78q-44 27 -117 54q-70 26 -157 26q-124 0 -229 -48q-107 -49 -182 -130q-78 -84 -121 -189q-44 -108 -44 -225q0 -82 25 -165q23 -76 74 -138 q50 -60 123 -94q76 -35 173 -35t171 26q79 28 131 62q63 37 112 88l144 -180q-67 -63 -154 -113q-73 -43 -176 -78t-228 -35q-159 0 -283 55q-123 55 -203 145q-82 93 -122 211q-41 121 -41 251z" />
<glyph unicode="D" horiz-adv-x="1392" d="M152 0l251 1434h463q140 0 252 -50q113 -50 188 -133q75 -82 116 -195q40 -110 40 -239q0 -163 -52 -310q-52 -149 -153 -261q-102 -114 -246 -179q-149 -67 -335 -67h-524zM438 233h221q133 0 236 50t171 130q67 79 104 186q36 105 36 218q0 83 -24 152t-73 121 q-46 49 -119 80q-70 30 -161 30h-221z" />
<glyph unicode="E" horiz-adv-x="1118" d="M152 0l251 1434h869l-41 -234h-623l-61 -348h573l-41 -234h-573l-68 -385h635l-41 -233h-880z" />
<glyph unicode="F" horiz-adv-x="1079" d="M152 0l251 1434h850l-41 -234h-604l-61 -350h563l-41 -234h-563l-109 -616h-245z" />
<glyph unicode="G" horiz-adv-x="1460" d="M182 625q0 174 68 328q68 155 183 265q116 112 269 176q152 64 326 64q144 0 245 -34q103 -35 167 -74q76 -46 123 -107l-170 -160q-37 39 -90 72q-45 28 -115 51q-69 23 -160 23q-133 0 -240 -49q-108 -49 -187 -133q-77 -82 -122 -194q-43 -108 -43 -228q0 -87 29 -165 q28 -75 83 -133q53 -56 133 -89q79 -33 177 -33q78 0 133 9q57 9 92 19q41 11 74 31l55 314h-325l41 229h567l-123 -694q-68 -42 -145 -70q-62 -24 -164 -47q-95 -21 -205 -21q-160 0 -290 51q-126 50 -212 137q-87 88 -130 206q-44 120 -44 256z" />
<glyph unicode="H" horiz-adv-x="1406" d="M152 0l251 1434h246l-102 -584h612l103 584h245l-252 -1434h-245l108 616h-612l-109 -616h-245z" />
<glyph unicode="I" horiz-adv-x="606" d="M180 0l252 1434h246l-252 -1434h-246z" />
<glyph unicode="J" horiz-adv-x="1067" d="M43 211l178 158q24 -45 62 -80q34 -34 74 -56q43 -24 104 -24q73 0 120 20q52 22 85 55q36 36 54 75q21 45 28 83l61 356l55 318l58 318h245l-174 -983q-40 -226 -175 -352q-133 -124 -357 -124q-104 0 -182 36q-81 37 -132 81q-58 50 -104 119z" />
<glyph unicode="K" horiz-adv-x="1286" d="M152 0l251 1434h246l-110 -625l610 625h319l-686 -705l504 -729h-299l-471 684l-119 -684h-245z" />
<glyph unicode="L" horiz-adv-x="1024" d="M152 0l251 1434h246l-211 -1201h611l-41 -233h-856z" />
<glyph unicode="M" horiz-adv-x="1691" d="M152 0l251 1434h228l325 -723l582 723h254l-252 -1434h-246l170 973l-569 -692l-330 682l-168 -963h-245z" />
<glyph unicode="N" horiz-adv-x="1486" d="M152 0l251 1434h222l540 -1004l176 1004h246l-252 -1434h-221l-543 1001l-174 -1001h-245z" />
<glyph unicode="O" horiz-adv-x="1589" d="M182 625q0 165 66 317q67 154 179 266q118 118 263 183q149 67 320 67q155 0 278 -50q120 -49 203 -138q82 -88 124 -206t42 -253q0 -167 -66 -319q-68 -155 -178 -267q-113 -114 -263 -182q-151 -68 -321 -68q-154 0 -278 52q-120 50 -203 138q-81 86 -124 206 q-42 119 -42 254zM434 625q0 -86 27 -161q27 -74 77 -132q49 -56 124 -90q73 -33 167 -33q131 0 236 52q106 52 181 138q75 85 117 194q42 108 42 218q0 86 -27 161q-27 74 -76 131q-47 55 -124 89q-74 33 -168 33q-128 0 -236 -53q-107 -53 -181 -137q-76 -87 -117 -192 q-42 -108 -42 -218z" />
<glyph unicode="P" horiz-adv-x="1159" d="M152 0l251 1434h478q93 0 170 -30t129 -84q54 -55 83 -130q29 -74 29 -166q0 -99 -37 -189q-38 -93 -107 -162q-71 -71 -175 -114t-238 -43h-248l-90 -516h-245zM528 750h211q141 0 220 76t79 198q0 80 -54 128t-165 48h-211z" />
<glyph unicode="Q" horiz-adv-x="1619" d="M182 625q0 165 66 317q67 153 178 266q115 116 263 183q149 67 321 67q155 0 278 -50q120 -49 203 -138q82 -88 124 -206t42 -253q0 -157 -56 -296q-57 -142 -155 -253l160 -164l-162 -168l-174 179q-105 -67 -209 -99q-113 -35 -232 -35q-154 0 -278 52 q-120 50 -203 138q-81 86 -124 206q-42 119 -42 254zM434 625q0 -86 27 -161q27 -74 77 -132q49 -56 124 -90q73 -33 167 -33q76 0 145 18q62 16 128 54l-205 211l162 167l217 -223q60 80 95 178q34 95 34 197q0 86 -27 161q-27 74 -76 131q-47 55 -124 89q-74 33 -168 33 q-128 0 -236 -53q-107 -53 -181 -137q-76 -87 -117 -192q-42 -108 -42 -218z" />
<glyph unicode="R" horiz-adv-x="1193" d="M152 0l251 1434h465q94 0 170 -30q77 -30 129 -82q54 -54 82 -125q29 -73 29 -161q0 -92 -33 -174q-33 -83 -88 -145q-56 -64 -129 -104q-72 -40 -156 -52l265 -561h-269l-245 541h-131l-95 -541h-245zM532 774h195q131 0 215 70q82 69 82 192q0 83 -58 123 q-59 41 -163 41h-195z" />
<glyph unicode="S" horiz-adv-x="1218" d="M141 258l185 168q39 -65 88 -109q42 -39 104 -74q61 -34 139 -34q48 0 95 10q51 11 90 34q43 25 68 62q28 40 28 95q0 39 -15 66t-45 48q-26 18 -72 38l-95 38q-74 26 -136 58q-69 35 -121 83q-53 49 -88 117q-34 67 -34 160q0 81 37 158q38 79 103 141t160 102 q93 39 208 39q122 0 211 -36t145 -79q69 -52 113 -112l-172 -160q-42 45 -82 76q-41 30 -94 53q-58 25 -121 25q-50 0 -100 -16q-43 -14 -80 -43q-32 -25 -54 -64q-20 -36 -20 -80q0 -42 20 -68q21 -27 58 -48q43 -24 88 -40q51 -18 114 -45q69 -29 127 -61q62 -34 104 -79 q43 -46 69 -110t26 -151q0 -109 -45 -192q-45 -82 -120 -139q-74 -56 -171 -85q-98 -29 -199 -29q-132 0 -228 44q-90 41 -161 98q-75 61 -127 141z" />
<glyph unicode="T" horiz-adv-x="1093" d="M240 1200l41 234h1036l-41 -234h-395l-211 -1200h-246l211 1200h-395z" />
<glyph unicode="U" horiz-adv-x="1409" d="M240 510l163 924h246l-47 -269l-51 -284l-59 -340q-9 -50 -10 -93q0 -90 42 -150q62 -89 215 -89q157 0 248 94q93 96 121 248l58 337l51 281l47 265h245l-163 -924q-21 -116 -71 -217q-49 -97 -128 -169q-80 -72 -182 -110q-105 -39 -236 -39q-139 0 -241 39 q-98 38 -163 110q-63 71 -84 169q-11 52 -11 107q0 53 10 110z" />
<glyph unicode="V" horiz-adv-x="1290" d="M256 1434h260l219 -914l529 914h274l-903 -1483z" />
<glyph unicode="W" horiz-adv-x="2013" d="M260 1434h275l147 -836l471 836h217l166 -836l446 836h275l-825 -1483l-242 1075l-625 -1075z" />
<glyph unicode="X" horiz-adv-x="1253" d="M25 0l591 741l-311 693h281l202 -490l367 490h293l-551 -703l332 -731h-279l-221 524l-401 -524h-303z" />
<glyph unicode="Y" horiz-adv-x="1257" d="M268 1434h258l236 -639l459 639h272l-643 -869l-98 -565h-246l98 565z" />
<glyph unicode="Z" horiz-adv-x="1222" d="M29 0l954 1200h-674l41 234h1096l-950 -1201h698l-41 -233h-1124z" />
<glyph unicode="[" horiz-adv-x="675" d="M68 -471l356 2019h459l-35 -196h-234l-286 -1626h233l-35 -197h-458z" />
<glyph unicode="\" d="M305 1561l221 69l494 -1839l-221 -70z" />
<glyph unicode="]" horiz-adv-x="675" d="M-18 -471l34 197h234l287 1626h-234l35 196h459l-357 -2019h-458z" />
<glyph unicode="^" horiz-adv-x="1099" d="M145 717l570 831h215l274 -831h-246l-170 561l-368 -561h-275z" />
<glyph unicode="_" horiz-adv-x="1024" d="M2 -471l41 233h852l-41 -233h-852z" />
<glyph unicode="`" horiz-adv-x="557" d="M231 1409l181 152l307 -377l-172 -140z" />
<glyph unicode="a" horiz-adv-x="1097" d="M125 281q0 82 36 145q38 67 95 108q61 44 135 66q78 23 156 23q59 0 116 -13q55 -12 87 -28q39 -17 73 -39l13 65q3 17 3 31q0 28 -10 49q-15 32 -42 52q-29 21 -66 28q-42 8 -78 8q-55 0 -105 -10q-46 -9 -96 -23q-72 -21 -96 -30l-63 209q47 18 120 36q46 12 126 26 q65 11 149 11q104 0 186 -27t135 -77q54 -51 76 -118q14 -42 14 -88q0 -30 -6 -62l-108 -623h-227l20 123q-39 -43 -88 -74q-44 -29 -103 -51q-61 -23 -133 -23q-75 0 -135 24q-59 24 -100 66q-43 45 -63 97q-21 55 -21 119zM379 289q0 -33 14 -53q15 -21 37 -33 q26 -14 50 -18q30 -5 55 -5q54 0 100 17q45 17 78 39q36 23 67 57l19 100q-21 13 -58 25q-23 9 -67 17q-36 7 -88 7q-28 0 -68 -8q-36 -7 -67 -26q-31 -18 -52 -49q-20 -29 -20 -70z" />
<glyph unicode="b" horiz-adv-x="1202" d="M152 0l272 1548h246l-121 -680q36 36 80 64q36 21 93 43q51 20 124 20q89 0 160 -34q70 -33 122 -95q52 -61 80 -142q29 -84 29 -177q0 -119 -45 -222q-45 -104 -120 -182t-172 -123q-98 -45 -200 -45q-78 0 -137 25q-56 23 -92 55q-43 37 -70 82l-22 -137h-227zM457 340 q17 -41 43 -68q22 -26 62 -47q39 -20 102 -20q69 0 129 27q55 25 102 75q42 45 67 109q23 59 23 131q0 99 -57 159t-166 60q-60 0 -109 -22q-44 -20 -80 -46q-36 -29 -65 -67z" />
<glyph unicode="c" horiz-adv-x="1017" d="M133 430q0 122 49 224q50 104 130 180q77 73 186 118q104 43 215 43q110 0 188 -27q75 -26 125 -63q53 -38 92 -90l-176 -149q-22 26 -57 49q-30 19 -72 35t-100 16q-65 0 -127 -28q-60 -27 -104 -74q-42 -45 -69 -108q-26 -61 -26 -126q0 -96 63 -161q63 -64 164 -64 q63 0 110 16q51 18 83 37q42 24 70 55l133 -186q-44 -41 -109 -76q-49 -27 -125 -52q-72 -24 -162 -24q-117 0 -206 37q-92 38 -152 100q-63 64 -92 145q-31 85 -31 173z" />
<glyph unicode="d" horiz-adv-x="1202" d="M133 426q0 127 48 232q49 108 127 181q80 75 177 115q100 41 199 41q71 0 121 -19q52 -20 86 -42q38 -26 67 -60l119 674h246l-272 -1548h-228l21 127q-34 -42 -84 -76q-38 -27 -101 -52q-60 -24 -135 -24q-78 0 -151 32t-125 90q-54 61 -84 142q-31 85 -31 187zM387 426 q0 -99 55 -160t166 -61q62 0 110 21q47 20 81 50q35 31 67 74l51 291q-16 34 -45 61q-22 21 -65 43q-41 21 -100 21q-67 0 -128 -28q-59 -27 -102 -73q-41 -44 -66 -109q-24 -63 -24 -130z" />
<glyph unicode="e" horiz-adv-x="1091" d="M133 436q0 120 46 221q47 103 123 179q74 74 175 117q99 42 203 42q105 0 185 -29q83 -30 142 -83t90 -129q31 -75 31 -168q0 -17 -1 -26q-2 -14 -3 -34q-1 -17 -8 -51q-7 -37 -14 -78h-729q0 -34 16 -67q17 -35 47 -64t76 -47q45 -18 102 -18q64 0 115 15q44 13 88 34 q44 23 76 49l115 -188q-47 -39 -109 -68q-47 -24 -125 -47q-72 -21 -160 -21q-122 0 -213 38q-86 36 -149 102q-58 61 -89 147q-30 84 -30 174zM399 575h490q0 7 1 10t1 9q0 30 -12 62t-38 58q-25 26 -66 42q-39 16 -95 16q-60 0 -107 -18q-45 -18 -81 -47q-34 -28 -59 -64 q-23 -33 -34 -68z" />
<glyph unicode="f" horiz-adv-x="759" d="M164 750l39 221h192l43 237q17 98 60 170q41 69 95 113q52 42 117 62t121 20q53 0 98 -8q36 -6 70 -19q40 -13 58 -24l-105 -207q-6 2 -16 7l-14 7l-36 9q-22 5 -48 5q-18 0 -42 -6t-46 -22q-22 -17 -42 -45q-21 -30 -28 -74l-39 -225h238l-39 -221h-238l-131 -750h-246 l131 750h-192z" />
<glyph unicode="g" horiz-adv-x="1173" d="M12 -317l138 192q41 -44 88 -72q40 -27 101 -48q60 -21 132 -21q143 0 226 69t104 181l20 116q-16 -17 -41 -37q-19 -15 -64 -40q-35 -20 -86 -34q-50 -14 -106 -14q-80 0 -153 32q-71 31 -124 90t-83 142q-31 85 -31 187q0 127 48 232q49 108 127 181q80 75 177 115 q100 41 199 41q77 0 130 -22q56 -24 89 -49q41 -30 70 -70l20 117h228l-172 -979q-22 -126 -77 -219q-55 -92 -132 -152q-77 -59 -172 -88q-96 -29 -197 -29q-103 0 -189 27t-145 61q-67 38 -125 91zM387 426q0 -98 54 -160q54 -61 165 -61q64 0 111 21t82 50q35 31 67 74 l52 291q-15 32 -46 61q-23 22 -64 43q-40 21 -99 21q-67 0 -129 -28q-60 -27 -103 -73q-41 -44 -66 -109q-24 -63 -24 -130z" />
<glyph unicode="h" horiz-adv-x="1150" d="M152 0l272 1548h246l-123 -694q22 24 41 41q32 28 63 47q40 24 83 38q46 15 102 15q74 0 135 -27q60 -26 102 -79q41 -52 59 -122q10 -39 10 -83q0 -36 -7 -76l-107 -608h-246l99 567q5 31 5 57q0 62 -30 95q-44 47 -123 47q-50 0 -88 -17q-44 -20 -70 -40 q-32 -22 -63 -58l-115 -651h-245z" />
<glyph unicode="i" horiz-adv-x="569" d="M162 0l170 971h246l-170 -971h-246zM338 1284q0 68 47 115t115 47q67 0 114 -47q48 -48 48 -115t-48 -115q-47 -47 -114 -47q-68 0 -115 47t-47 115z" />
<glyph unicode="j" horiz-adv-x="679" d="M-147 -432l96 211q18 -16 37 -23q20 -9 40 -14q24 -6 50 -6q23 0 47 4q28 5 53 24q25 20 50 60q24 39 36 110l182 1037h246l-186 -1059q-21 -118 -66 -198q-44 -78 -103 -125q-56 -45 -123 -65q-66 -20 -126 -20q-54 0 -102 10q-44 9 -72 21q-36 16 -59 33zM451 1284 q0 68 47 115t114 47q68 0 115 -47t47 -115t-47 -115t-115 -47q-67 0 -114 47t-47 115z" />
<glyph unicode="k" horiz-adv-x="1095" d="M152 0l272 1548h246l-166 -940l391 363h338l-506 -459l365 -512h-304l-313 446l-78 -446h-245z" />
<glyph unicode="l" horiz-adv-x="548" d="M152 0l272 1548h246l-273 -1548h-245z" />
<glyph unicode="m" horiz-adv-x="1712" d="M123 0l170 971h229l-24 -142q29 44 75 82q41 33 93 58q53 26 127 26q83 0 135 -28q54 -29 84 -64q36 -39 53 -92q35 52 84 92q43 37 99 64q57 28 134 28q78 0 141 -28q64 -28 108 -80t62 -123q10 -39 9 -83q0 -37 -6 -77l-107 -604h-246l99 561q5 33 5 60q0 56 -21 92 q-32 53 -123 53q-53 0 -88 -17q-39 -19 -66 -40q-31 -22 -55 -58l-115 -651h-246l98 561q6 35 6 64q0 55 -21 89q-31 52 -124 52q-52 0 -87 -17q-39 -19 -66 -40q-33 -24 -56 -58l-114 -651h-246z" />
<glyph unicode="n" horiz-adv-x="1122" d="M123 0l170 971h229l-24 -142q36 43 84 82q45 33 97 58q55 26 128 26t135 -27q60 -26 102 -79q41 -52 59 -122q10 -39 10 -83q0 -36 -7 -76l-107 -608h-245l98 567q5 31 5 57q0 62 -30 95q-44 47 -122 47q-51 0 -89 -17q-42 -19 -69 -40q-35 -24 -64 -58l-114 -651h-246z " />
<glyph unicode="o" horiz-adv-x="1150" d="M133 430q0 119 50 224q49 102 130 180q75 72 183 118q101 43 206 43q120 0 210 -37q95 -39 152 -99q62 -65 91 -145q31 -85 31 -173q0 -120 -50 -225q-48 -100 -130 -179q-76 -74 -183 -119q-101 -43 -207 -43q-121 0 -210 37q-92 39 -151 100q-62 65 -91 145 q-31 85 -31 173zM387 430q0 -95 58 -160t171 -65q70 0 128 27t100 75q38 44 64 108q24 60 24 126q0 92 -59 159q-59 66 -171 66q-67 0 -128 -28q-58 -27 -99 -74q-38 -44 -64 -108q-24 -60 -24 -126z" />
<glyph unicode="p" horiz-adv-x="1173" d="M39 -471l254 1442h227l-20 -117q36 41 84 70q39 26 99 49q57 22 134 22q89 0 160 -34t123 -95t80 -142t28 -177q0 -127 -45 -232q-44 -102 -120 -180q-75 -76 -172 -118t-199 -42q-56 0 -106 14q-49 14 -85 34q-42 24 -61 40q-26 23 -35 37l-100 -571h-246zM426 330 q15 -37 43 -64q23 -22 65 -42q39 -19 101 -19q69 0 129 27q55 25 102 75q42 45 67 109q23 59 23 131q0 99 -57 159t-166 60q-59 0 -108 -22q-44 -20 -80 -46q-38 -31 -66 -67z" />
<glyph unicode="q" horiz-adv-x="1173" d="M133 426q0 127 48 232q49 108 127 181q80 75 177 115q100 41 199 41q77 0 130 -22q56 -24 89 -49q41 -30 70 -70l20 117h228l-254 -1442h-246l98 563q-17 -16 -42 -36q-29 -22 -62 -38q-38 -18 -85 -30q-52 -13 -106 -13q-78 0 -151 32t-125 90q-54 61 -84 142 q-31 85 -31 187zM387 426q0 -99 55 -160t166 -61q64 0 111 24q44 23 82 54q38 35 67 77l50 281q-15 32 -46 61q-22 21 -65 43q-41 21 -100 21q-67 0 -128 -28q-59 -27 -102 -73q-41 -44 -66 -109q-24 -63 -24 -130z" />
<glyph unicode="r" horiz-adv-x="792" d="M123 0l170 971h233l-24 -142q32 44 78 82q43 33 93 58q52 26 122 26q29 0 62 -5q25 -4 52 -11q8 -2 24.5 -7t24.5 -7l-104 -222l-41 11q-5 1 -12 2.5t-16 3l-15 2.5q-21 4 -51 4q-59 0 -102 -21q-45 -22 -74 -45q-38 -29 -64 -65l-110 -635h-246z" />
<glyph unicode="s" horiz-adv-x="989" d="M88 152l143 176q41 -43 82 -70q35 -24 92 -47q53 -21 119 -21q81 0 142 23q59 22 59 78q0 42 -44 59q-43 16 -140 39q-66 16 -120 37q-55 22 -98 57q-43 36 -67 83q-25 50 -25 110q0 66 30 124q29 57 84 101q54 43 131 69q75 25 171 25q94 0 164 -19q71 -19 121 -42 q57 -27 102 -60l-127 -186q-41 25 -82 45q-45 20 -83 32q-46 15 -95 15q-26 0 -59 -5q-34 -5 -57 -16q-26 -12 -42 -31t-16 -48q0 -36 46 -57q47 -21 157 -45q52 -11 108 -32t97 -52q42 -32 68 -81t26 -116q0 -79 -39 -139q-40 -61 -102 -101q-61 -39 -145 -61 q-81 -21 -165 -21q-102 0 -182 27q-83 28 -137 61q-66 37 -117 89z" />
<glyph unicode="t" horiz-adv-x="851" d="M156 750l39 221h211l51 289h245l-51 -289h293l-39 -221h-293l-71 -402q-5 -27 -5 -47q0 -15 3 -26q6 -28 21 -43t38 -21t47 -6q19 0 39 5q15 4 35 11q14 6 33 19l69 -205q-34 -20 -67 -31q-29 -9 -76 -19q-48 -10 -96 -10q-69 0 -129 27q-58 26 -100 74q-38 44 -57 111 q-10 35 -10 75q0 33 7 68l74 420h-211z" />
<glyph unicode="u" horiz-adv-x="1122" d="M186 362l107 609h246l-99 -561q-7 -35 -7 -65q0 -60 29 -92q42 -48 134 -48q50 0 89 19t69 44q33 28 57 66l113 637h245l-170 -971h-229l23 131q-34 -43 -80 -78q-40 -29 -95 -53q-58 -25 -126 -25t-133 28q-58 25 -105 78q-43 48 -64 122q-12 39 -12 83q0 36 8 76z" />
<glyph unicode="v" horiz-adv-x="1036" d="M174 971h264l158 -525l330 525h276l-692 -1012z" />
<glyph unicode="w" horiz-adv-x="1572" d="M178 971h266l111 -488l291 488h225l109 -488l284 488h271l-648 -1020l-190 692l-428 -692z" />
<glyph unicode="x" horiz-adv-x="1075" d="M33 0l446 506l-250 465h275l145 -297l248 297h295l-422 -471l272 -500h-278l-160 322l-270 -322h-301z" />
<glyph unicode="y" horiz-adv-x="1140" d="M-27 -397l115 194q17 -17 41 -33q22 -12 46 -21q25 -9 56 -9q32 0 56 6q26 7 46 22q22 18 44 45q18 23 49 76l57 101l-297 987h267l198 -707l377 707h279l-680 -1188q-46 -79 -91 -133q-42 -50 -92 -86q-45 -32 -98 -46t-108 -14q-57 0 -108 16q-44 14 -83 34 q-44 24 -74 49z" />
<glyph unicode="z" horiz-adv-x="1013" d="M61 0l603 741h-439l41 230h864l-604 -742h451l-39 -229h-877z" />
<glyph unicode="{" horiz-adv-x="716" d="M129 438l33 180q33 0 77 7q37 6 70 27t58 63q24 40 36 110l74 426q11 62 36 116q24 51 64 94q36 39 88 64q47 23 109 23h141l-38 -221q-23 0 -57 -2q-24 -1 -46 -14q-21 -12 -36 -39q-16 -28 -23 -76l-72 -401q-15 -80 -42 -131q-27 -52 -63 -80q-36 -29 -76 -39 q-45 -12 -79 -13v-8q36 -1 74 -12q37 -10 61 -39q25 -29 35 -80q11 -53 -4 -131l-64 -360q-10 -49 -2 -81q7 -30 29 -45q24 -17 48 -21q30 -5 59 -5l-39 -221h-111q-59 0 -109 24q-48 23 -82 63q-35 41 -48 94q-14 54 -3 116l70 405q12 71 2 111q-11 41 -35 62 q-25 22 -60 28q-36 6 -75 6z" />
<glyph unicode="|" horiz-adv-x="532" d="M63 -471l351 1987h237l-350 -1987h-238z" />
<glyph unicode="}" horiz-adv-x="716" d="M-8 -471l37 221q22 0 56 2q22 1 46 15q22 12 36 38q16 28 23 76l68 381q15 80 42 131q27 50 64 80q37 29 75 39q41 11 79 12v8q-32 1 -74 13q-37 10 -61 39q-25 29 -35 80q-11 53 4 131l68 381q7 50 0 80q-8 30 -28 46t-47 20q-30 5 -58 5l39 221h110q62 0 109 -23 q49 -24 83 -64q33 -39 47 -94q14 -54 3 -116l-74 -426q-12 -70 -2 -110q11 -42 35 -63t60 -27q42 -7 75 -7l-33 -180q-39 0 -76 -6q-36 -6 -71 -28q-33 -21 -57 -62q-25 -42 -37 -111l-74 -426q-23 -123 -97 -199q-75 -77 -196 -77h-139z" />
<glyph unicode="~" horiz-adv-x="1001" d="M152 647q28 65 69 111q41 44 95 76q58 34 145 34q45 0 90 -15q47 -16 86 -33l79 -33q38 -15 68 -15q42 0 70 18q31 19 45 39q20 23 31 58l166 -121q-26 -60 -68 -111q-33 -38 -93 -74q-58 -34 -144 -34q-47 0 -94 15q-44 14 -88 33l-79 33q-38 15 -63 15q-43 0 -70 -17 q-29 -18 -45 -40q-20 -23 -33 -58z" />
<glyph unicode="&#xa1;" horiz-adv-x="626" d="M104 -463l191 1024h233l-170 -1024h-254zM289 834q0 67 47 114t115 47q67 0 114 -47t47 -114q0 -68 -47 -115t-114 -47q-68 0 -115 47t-47 115z" />
<glyph unicode="&#xa2;" horiz-adv-x="1187" d="M219 430q0 118 46 216q47 101 122 174q77 76 173 120q99 46 200 53l31 174h129l-33 -178q86 -12 148 -41q63 -30 100 -57q42 -32 71 -76l-178 -151q-18 20 -45 43q-22 16 -55 31q-38 17 -80 24l-98 -553q47 7 89 27q41 20 66 38q35 26 56 50l149 -170q-44 -49 -109 -88 q-53 -35 -127 -62q-75 -28 -165 -29l-29 -168h-129l31 181q-88 17 -154 58q-69 43 -114 101t-70 133t-25 150zM473 430q0 -78 39 -135q39 -58 111 -80l94 541q-56 -16 -99 -46q-41 -29 -77 -76q-33 -44 -51 -96q-17 -50 -17 -108z" />
<glyph unicode="&#xa3;" horiz-adv-x="1187" d="M106 90q28 49 72 98q34 39 87 75q51 35 120 52q5 5 25 29q12 15 26 42q16 32 22 50q9 27 9 51q0 17 -3 32q-4 20 -7 30l-11 31h-253l30 172h160q-19 50 -35 110q-18 68 -18 135q0 95 39 178q40 84 106 146q66 61 160 100q90 37 196 37q125 0 208 -36q87 -38 135 -79 q58 -49 92 -114l-191 -131q-22 35 -59 65q-29 23 -76 45q-45 21 -109 21q-45 0 -95 -16q-46 -15 -82 -45q-37 -31 -57 -72q-22 -46 -22 -99q0 -22 9 -60q9 -37 19 -65q12 -34 25 -62l23 -52q0 -2 1 -3t1 -3h379l-31 -172h-292l4 -21q0 -2 1 -6t1.5 -7.5t0.5 -7.5q1 -8 1 -22 q0 -43 -9 -79t-21 -63q-15 -34 -23 -46q-13 -19 -19 -27q31 -11 60 -29l51 -31q24 -15 49 -26q23 -10 53 -10q39 0 65 19t48 44q23 28 39 64l186 -119q-30 -66 -80 -119q-39 -43 -104 -82q-62 -37 -154 -37q-74 0 -121 18q-50 19 -85 39q-56 31 -74 40q-38 18 -86 18 q-58 0 -95 -20q-39 -21 -63 -45q-29 -29 -47 -66z" />
<glyph unicode="&#xa4;" horiz-adv-x="1187" d="M106 268l173 148q-52 98 -52 205q0 83 31 165q29 77 84 146l-115 141l160 135l115 -139q62 36 124 53q68 19 130 19q74 0 146 -25q69 -24 122 -65l186 157l129 -155l-188 -160q45 -95 45 -188q0 -99 -34 -180q-35 -83 -91 -148l107 -129l-160 -135l-111 133 q-115 -62 -239 -62q-75 0 -138 21q-68 23 -116 57l-178 -149zM459 621q0 -89 58 -148t151 -59q60 0 113 22q55 23 95 63q38 38 63 93q24 52 24 113q0 39 -16 79q-15 38 -42 66q-28 29 -65 45q-38 16 -84 16q-63 0 -113 -23q-55 -25 -94 -64q-43 -43 -66 -93 q-24 -53 -24 -110z" />
<glyph unicode="&#xa5;" horiz-adv-x="1187" d="M133 473l31 172h375l-56 143h-295l31 173h197l-183 473h254l238 -641l463 641h270l-350 -473h197l-31 -173h-293l-107 -143h375l-30 -172h-420l-82 -473h-246l82 473h-420z" />
<glyph unicode="&#xa6;" horiz-adv-x="532" d="M63 -471l142 799h237l-141 -799h-238zM272 717l142 799h237l-141 -799h-238z" />
<glyph unicode="&#xa7;" horiz-adv-x="1040" d="M98 -231l164 161q22 -28 53 -51q27 -21 63 -36t83 -15q65 0 112 42q48 43 48 99q0 46 -46 83q-36 29 -137 95q-2 1 -6 5q-3 3 -6 4q-49 31 -88 62q-42 33 -77 76q-32 39 -54 94q-21 53 -21 118q0 52 23 104t60 95q33 38 88 75q47 32 106 49q-69 56 -98 125 q-29 70 -29 140q0 76 36 142q37 68 94 116q58 49 131 78q71 28 148 28q99 0 165 -26q64 -25 112 -58q51 -38 84 -84l-168 -151q-24 26 -51 47q-23 16 -60 32q-35 15 -82 15q-27 0 -55 -9q-25 -8 -52 -28q-23 -18 -39 -44q-15 -26 -15 -58q0 -48 46 -85q57 -46 136 -96 q54 -35 92 -64q47 -36 81 -77q37 -44 57 -95q22 -55 22 -120q0 -52 -23 -104q-24 -54 -60 -96q-35 -41 -88 -76q-51 -34 -106 -52q63 -51 94 -118q31 -68 31 -142q0 -78 -30 -144q-30 -65 -85 -116q-54 -49 -129 -78q-74 -28 -161 -28q-98 0 -164 25q-63 24 -113 57 q-54 38 -86 84zM440 506q0 -41 27 -74q29 -35 104 -80l9 -6q73 28 130 78q56 49 56 133q0 39 -27 72q-29 35 -104 80l-10 4q-71 -23 -129 -75q-56 -50 -56 -132z" />
<glyph unicode="&#xa8;" horiz-adv-x="802" d="M252 1272q0 67 47 114q48 48 115 48q66 0 114 -48q47 -47 47 -114q0 -68 -47 -115t-114 -47q-68 0 -115 47t-47 115zM674 1272q0 67 47 114q48 48 115 48q66 0 114 -48q47 -47 47 -114q0 -68 -47 -115t-114 -47q-68 0 -115 47t-47 115z" />
<glyph unicode="&#xa9;" horiz-adv-x="1677" d="M213 623q0 168 65 322q64 152 178 266q116 116 270 181q156 66 339 66q157 0 278 -51t204 -138q84 -88 125 -205q42 -118 42 -249q0 -169 -63 -322q-64 -155 -177 -268q-115 -115 -270 -182q-157 -68 -338 -68q-155 0 -279 52q-122 51 -205 140q-82 88 -126 206 q-43 116 -43 250zM391 623q0 -101 34 -185q36 -89 96 -149q64 -64 150 -101q84 -36 195 -36q148 0 272 54q122 53 212 146q86 89 137 212q49 119 49 251q0 100 -34 184q-36 88 -95 149q-60 61 -149 98q-87 36 -193 36q-145 0 -271 -53q-122 -51 -213 -144q-93 -94 -140 -209 q-50 -121 -50 -253zM557 674q0 94 39 176t102 142q61 58 147 94q81 34 171 34q88 0 149 -21t99 -48q40 -28 73 -72l-139 -119q-17 20 -47 39q-22 15 -56 28q-33 13 -79 13q-56 0 -101 -22q-47 -22 -81 -60q-36 -39 -56 -85t-20 -99q0 -79 49 -129q50 -51 131 -51q51 0 87 13 q39 14 65 30q30 18 55 43l106 -148q-34 -29 -86 -59q-46 -24 -99 -42q-58 -20 -128 -20q-92 0 -164 30t-121 79q-47 47 -72 116q-24 66 -24 138z" />
<glyph unicode="&#xaa;" horiz-adv-x="665" d="M211 1012q0 48 21 89q19 38 59 66q35 25 84 41q47 15 100 15q39 0 74 -11q38 -12 55 -20q22 -11 45 -29l8 45q11 54 -23 77q-35 24 -95 24q-35 0 -68 -6q-13 -2 -61 -15q-34 -8 -62 -18l-41 139q30 14 74 25q27 8 83 17q45 7 107 7q126 0 193 -64t49 -163l-70 -400h-143 l14 80q-20 -23 -53 -47q-28 -19 -61 -33q-32 -14 -82 -14q-41 0 -75 11q-41 13 -67 35q-30 25 -47 61q-18 38 -18 88zM375 1012q0 -35 29 -48q31 -14 63 -14q35 0 62 12q41 18 51 25q26 18 45 37l8 45q-25 11 -39 16q-27 9 -43 12q-27 5 -55 5q-40 0 -81 -21 q-40 -21 -40 -69z" />
<glyph unicode="&#xab;" horiz-adv-x="1083" d="M94 512l441 483l151 -151l-326 -346l222 -365l-187 -127zM545 512l440 483l152 -151l-326 -346l221 -365l-186 -127z" />
<glyph unicode="&#xac;" horiz-adv-x="1380" d="M178 807l41 233h1229l-115 -647h-241l73 414h-987z" />
<glyph unicode="&#xad;" horiz-adv-x="681" d="M135 389l41 234h547l-41 -234h-547z" />
<glyph unicode="&#xae;" horiz-adv-x="870" d="M186 993q0 96 37 182q38 88 103 153q68 68 153 107q87 40 193 40q96 0 170 -31q71 -30 120 -83q47 -52 70 -121q23 -71 23 -144q0 -99 -37 -183q-37 -85 -103 -151t-154 -105q-89 -39 -194 -39q-96 0 -170 31q-70 29 -118 82q-48 52 -70 119q-23 69 -23 143zM322 993 q0 -105 61 -173t184 -68q81 0 143 26t110 74q46 46 72 110t26 134q0 104 -62 174q-62 69 -184 69q-78 0 -143 -27q-60 -25 -110 -75q-46 -46 -72 -110q-25 -62 -25 -134zM430 854l70 389h180q66 0 97 -37q32 -38 32 -82q0 -54 -36 -88t-77 -39l78 -143h-123l-59 125h-29 l-22 -125h-111zM580 1073h49q30 0 50 7q21 8 21 44q0 26 -19 30q-22 5 -36 5h-51z" />
<glyph unicode="&#xaf;" horiz-adv-x="684" d="M217 1171l39 222h659l-38 -222h-660z" />
<glyph unicode="&#xb0;" horiz-adv-x="731" d="M240 1112q0 72 29 133q32 67 79 111q53 50 112 75q63 27 128 27q76 0 133 -24q56 -24 95 -67q38 -43 56 -95q19 -55 19 -109q0 -71 -30 -134q-30 -62 -78 -109q-52 -50 -110 -75q-65 -28 -128 -28q-75 0 -134 25q-57 24 -96 66q-38 41 -57 96q-18 52 -18 108zM418 1112 q0 -53 37 -87t90 -34q34 0 65 14q35 16 54 36q20 21 35 55q14 31 14 67q0 53 -36 86t-89 33q-37 0 -66 -13q-30 -13 -54 -36q-23 -21 -37 -53q-13 -29 -13 -68z" />
<glyph unicode="&#xb1;" d="M78 0l35 209h909l-35 -209h-909zM174 551l37 209h342l47 266h225l-47 -266h342l-37 -209h-342l-45 -252h-225l45 252h-342z" />
<glyph unicode="&#xb2;" horiz-adv-x="741" d="M31 807l379 377l39 39q18 18 41 48q17 22 34 53q15 27 15 58q0 40 -31 68q-30 27 -84 27q-47 0 -78 -20t-47 -42q-24 -29 -31 -59l-157 61q30 70 69 117q37 43 96 80t148 37q81 0 142 -25q58 -24 94 -63q38 -41 52 -87q15 -48 15 -94q0 -60 -28 -118q-26 -54 -68 -99 l-174 -190h227l-31 -168h-622z" />
<glyph unicode="&#xb3;" horiz-adv-x="753" d="M59 991l142 84q11 -35 32 -57q16 -20 49 -40q28 -17 74 -17q23 0 50 6q28 6 49 19t37 35q14 20 14 52q0 41 -36 62q-34 20 -95 20h-45l24 143h31q22 0 52 5q29 5 50 16q23 12 38 33q16 22 16 53q0 34 -29 57t-78 23q-41 0 -68 -15q-31 -18 -44 -30q-22 -22 -33 -43 l-142 84q27 44 70 84q32 30 89 59q54 27 128 27q60 0 114 -15q53 -15 94 -45q39 -29 64 -77q23 -45 23 -109q0 -50 -34 -103q-36 -56 -89 -73q23 -11 43 -31q16 -16 30 -47q13 -29 13 -78q0 -69 -30 -122q-29 -51 -79 -87q-46 -33 -109 -52q-57 -17 -118 -17q-89 0 -146 30 q-55 29 -91 68q-40 44 -60 98z" />
<glyph unicode="&#xb4;" horiz-adv-x="557" d="M240 1198l397 354l151 -180l-407 -336z" />
<glyph unicode="&#xb5;" horiz-adv-x="1122" d="M39 -471l254 1442h246l-99 -561q-21 -108 22 -157q42 -48 134 -48q48 0 85 18q38 18 67 41q29 21 61 60l115 647h245l-170 -971h-229l25 141q-38 -45 -86 -84q-41 -31 -98 -56q-58 -26 -128 -26q-59 0 -116 23l-82 -469h-246z" />
<glyph unicode="&#xb6;" horiz-adv-x="1376" d="M236 874q0 269 149 414q151 146 430 146h662l-322 -1819h-229l284 1610h-204l-285 -1610h-227l149 848q-76 0 -151 32q-74 32 -131 87t-91 130q-34 74 -34 162z" />
<glyph unicode="&#xb7;" horiz-adv-x="536" d="M231 717q0 66 48 114t114 48q67 0 115 -48q47 -47 47 -114q0 -68 -47 -115t-115 -47q-67 0 -114 47q-48 48 -48 115z" />
<glyph unicode="&#xb8;" horiz-adv-x="645" d="M45 -496l207 404l223 -19l-203 -444z" />
<glyph unicode="&#xb9;" horiz-adv-x="661" d="M70 1380l356 258h201l-148 -831h-190l104 592l-227 -164z" />
<glyph unicode="&#xba;" horiz-adv-x="731" d="M240 1112q0 72 29 133q32 67 79 111q52 49 113 75q63 27 129 27q73 0 128 -23q57 -24 94 -64t58 -94t21 -114q0 -75 -30 -140t-79 -111q-48 -45 -112 -71t-129 -26q-71 0 -128 24q-59 25 -95 64t-58 95q-20 51 -20 114zM416 1112q0 -52 36 -86q37 -35 89 -35q69 0 122 50 q52 49 52 122q0 51 -36 85q-35 34 -89 34q-70 0 -122 -49t-52 -121z" />
<glyph unicode="&#xbb;" horiz-adv-x="1083" d="M111 164l329 350l-221 344l182 127l301 -493l-434 -486zM561 164l330 350l-221 344l182 127l305 -504l-438 -475z" />
<glyph unicode="&#xbc;" horiz-adv-x="1699" d="M246 1176l356 258h201l-148 -832h-190l104 592l-227 -164zM373 18l1222 1483l105 -90l-1225 -1483zM946 160l545 671h201l-90 -512h102l-29 -159h-102l-29 -160h-176l29 160h-451zM1253 319h172l48 275z" />
<glyph unicode="&#xbd;" horiz-adv-x="1699" d="M225 1176l357 258h200l-147 -832h-191l105 592l-227 -164zM250 18l1223 1483l104 -90l-1225 -1483zM981 0l379 377l39 39q23 22 42 48q17 22 34 53q14 25 14 58q0 40 -31 68q-30 27 -84 27q-47 0 -78 -20t-47 -42q-23 -27 -30 -59l-158 61q30 70 69 117q36 42 97 80 q59 37 147 37q82 0 143 -25q58 -24 94 -63t51 -87t15 -94q0 -63 -27 -118q-25 -52 -69 -99l-174 -190h227l-30 -168h-623z" />
<glyph unicode="&#xbe;" horiz-adv-x="1699" d="M219 786l141 84q10 -33 33 -57q17 -22 48 -40q28 -17 75 -17q22 0 49 6q28 6 49 19t37 35q15 21 15 52q0 41 -36 62q-34 20 -95 20h-46l25 144h31q28 0 52 4q29 5 50 16q23 12 38 33t15 53q0 35 -28 57q-29 23 -78 23q-44 0 -69 -14q-29 -16 -44 -31q-19 -19 -32 -43 l-142 84q27 44 70 84q32 30 89 59q54 27 128 27q64 0 114 -14q51 -14 94 -46q38 -29 63 -76q24 -47 24 -110q0 -50 -34 -103q-36 -56 -89 -73q22 -10 43 -31q16 -16 30 -47q13 -29 13 -78q0 -68 -31 -122q-29 -51 -79 -87q-47 -34 -108 -52q-57 -17 -118 -17q-87 0 -146 31 q-57 30 -91 67q-40 44 -60 98zM391 18l1223 1483l104 -90l-1224 -1483zM946 160l545 671h201l-90 -512h102l-29 -159h-102l-29 -160h-176l29 160h-451zM1253 319h172l48 275z" />
<glyph unicode="&#xbf;" horiz-adv-x="1001" d="M62 -104q0 124 73 222q71 95 228 197q35 22 51 37q19 17 27 31q10 17 14 30q5 15 6 33l18 105h246l-27 -152q-8 -55 -19 -87q-11 -33 -34 -60t-59 -52q-38 -26 -99 -63q-35 -22 -64 -43q-33 -23 -56 -51q-26 -31 -40 -64q-16 -38 -16 -83q0 -63 47 -107q46 -43 127 -43 q72 0 125 31q54 32 82 67q37 42 58 99l206 -101q-41 -92 -106 -163q-56 -61 -144 -114q-88 -52 -221 -52q-94 0 -170 25t-134 75q-57 49 -88 121q-31 71 -31 162zM481 834q0 67 47 114t115 47t115 -47t47 -114q0 -68 -47 -115t-115 -47t-115 47t-47 115z" />
<glyph unicode="&#xc0;" horiz-adv-x="1388" d="M12 0l809 1434h250l305 -1434h-241l-72 340h-598l-191 -340h-262zM592 565h422l-115 553zM684 1896l180 152l307 -377l-172 -139z" />
<glyph unicode="&#xc1;" horiz-adv-x="1388" d="M12 0l809 1434h250l305 -1434h-241l-72 340h-598l-191 -340h-262zM592 565h422l-115 553zM727 1686l397 354l152 -180l-408 -336z" />
<glyph unicode="&#xc2;" horiz-adv-x="1388" d="M12 0l809 1434h250l305 -1434h-241l-72 340h-598l-191 -340h-262zM567 1694l408 268l371 -287l-150 -155l-233 198l-273 -194zM592 565h422l-115 553z" />
<glyph unicode="&#xc3;" horiz-adv-x="1388" d="M12 0l809 1434h250l305 -1434h-241l-72 340h-598l-191 -340h-262zM522 1708q26 58 68 109q32 38 92 74q56 34 137 34q45 0 84 -18q38 -18 74 -41l65 -41q32 -19 60 -19q32 0 58 20q25 19 42 44q22 29 33 65l162 -125q-26 -59 -66 -110q-36 -43 -90 -76q-56 -35 -133 -35 q-43 0 -84 19q-34 16 -74 40l-66 40q-32 18 -61 18q-36 0 -59 -17q-26 -19 -41 -40q-18 -21 -35 -58zM592 565h422l-115 553z" />
<glyph unicode="&#xc4;" horiz-adv-x="1388" d="M12 0l809 1434h250l305 -1434h-241l-72 340h-598l-191 -340h-262zM592 565h422l-115 553zM606 1759q0 68 47 115t115 47t115 -47t47 -115q0 -67 -47 -114q-48 -48 -115 -48t-115 48q-47 47 -47 114zM1028 1759q0 68 47 115t115 47t115 -47t47 -115q0 -67 -47 -114 q-48 -48 -115 -48t-115 48q-47 47 -47 114z" />
<glyph unicode="&#xc5;" horiz-adv-x="1388" d="M12 0l809 1434h250l305 -1434h-241l-72 340h-598l-191 -340h-262zM592 565h422l-115 553zM723 1749q0 56 22 103t62 84q39 36 87 57q46 20 101 20q60 0 102 -19q43 -19 73 -51q29 -31 45 -73q16 -43 16 -84q0 -56 -24 -104q-24 -49 -61 -84q-35 -33 -88 -56 q-47 -20 -102 -20q-59 0 -101 19q-45 20 -73 51q-29 32 -44 73t-15 84zM864 1749q0 -38 26 -66q25 -26 66 -26q58 0 96 38t38 91q0 40 -27 66q-28 26 -68 26q-56 0 -94 -38q-37 -37 -37 -91z" />
<glyph unicode="&#xc6;" horiz-adv-x="1873" d="M12 0l1098 1434h918l-41 -230h-500l-62 -352h451l-41 -234h-451l-69 -389h512l-39 -229h-758l51 293h-557l-225 -293h-287zM700 526h422l125 713z" />
<glyph unicode="&#xc7;" horiz-adv-x="1384" d="M182 637q0 172 69 322q70 152 183 262q114 111 264 174t314 63q136 0 237 -36t166 -76q77 -50 129 -113l-162 -162q-40 43 -96 78q-44 27 -117 54q-70 26 -157 26q-124 0 -229 -48q-107 -49 -182 -130q-78 -84 -121 -189q-44 -108 -44 -225q0 -82 25 -165q23 -76 74 -138 q50 -60 123 -94q76 -35 173 -35t171 26q79 28 131 62q63 37 112 88l144 -180q-67 -63 -154 -113q-73 -43 -176 -78t-228 -35q-159 0 -283 55q-123 55 -203 145q-82 93 -122 211q-41 121 -41 251zM438 -504l207 404l223 -19l-202 -444z" />
<glyph unicode="&#xc8;" horiz-adv-x="1118" d="M152 0l251 1434h869l-41 -234h-623l-61 -348h573l-41 -234h-573l-68 -385h635l-41 -233h-880zM532 1896l181 152l307 -377l-172 -139z" />
<glyph unicode="&#xc9;" horiz-adv-x="1118" d="M152 0l251 1434h869l-41 -234h-623l-61 -348h573l-41 -234h-573l-68 -385h635l-41 -233h-880zM649 1686l398 354l151 -180l-407 -336z" />
<glyph unicode="&#xca;" horiz-adv-x="1118" d="M152 0l251 1434h869l-41 -234h-623l-61 -348h573l-41 -234h-573l-68 -385h635l-41 -233h-880zM465 1694l407 268l371 -287l-149 -155l-234 198l-272 -194z" />
<glyph unicode="&#xcb;" horiz-adv-x="1118" d="M152 0l251 1434h869l-41 -234h-623l-61 -348h573l-41 -234h-573l-68 -385h635l-41 -233h-880zM504 1759q0 68 47 115t115 47q67 0 114 -47t47 -115q0 -67 -47 -114q-48 -48 -114 -48q-67 0 -115 48q-47 47 -47 114zM926 1759q0 68 47 115t114 47q68 0 115 -47t47 -115 q0 -67 -47 -114q-48 -48 -115 -48q-66 0 -114 48q-47 47 -47 114z" />
<glyph unicode="&#xcc;" horiz-adv-x="606" d="M180 0l252 1434h246l-252 -1434h-246zM221 1896l180 152l308 -377l-172 -139z" />
<glyph unicode="&#xcd;" horiz-adv-x="606" d="M176 0l252 1434h246l-252 -1434h-246zM342 1686l397 354l152 -180l-408 -336z" />
<glyph unicode="&#xce;" horiz-adv-x="606" d="M180 0l252 1434h246l-252 -1434h-246zM195 1714l407 268l371 -286l-150 -156l-233 199l-273 -195z" />
<glyph unicode="&#xcf;" horiz-adv-x="606" d="M154 0l252 1434h245l-252 -1434h-245zM186 1759q0 68 47 115t115 47t115 -47t47 -115q0 -67 -47 -114q-48 -48 -115 -48t-115 48q-47 47 -47 114zM608 1759q0 68 47 115t115 47t115 -47t47 -115q0 -67 -47 -114q-48 -48 -115 -48t-115 48q-47 47 -47 114z" />
<glyph unicode="&#xd0;" horiz-adv-x="1449" d="M133 625l39 213h184l105 596h463q135 0 247 -50q113 -50 188 -133q77 -85 119 -195q42 -111 42 -239q0 -160 -53 -310t-152 -261q-102 -114 -247 -179q-149 -67 -335 -67h-524l108 625h-184zM496 233h221q132 0 235 50t171 130q69 81 105 186t36 218q0 80 -25 152 q-24 69 -73 121q-47 50 -118 80q-70 30 -161 30h-221l-64 -362h414l-39 -213h-414z" />
<glyph unicode="&#xd1;" horiz-adv-x="1486" d="M152 0l251 1434h222l540 -1004l176 1004h246l-252 -1434h-221l-543 1001l-174 -1001h-245zM578 1708q27 60 67 109q32 38 92 74q56 34 137 34q45 0 84 -18q38 -18 74 -41l66 -41q32 -19 59 -19q32 0 58 20q25 19 42 44q22 29 33 65l162 -125q-26 -59 -66 -110 q-36 -43 -90 -76q-56 -35 -133 -35q-43 0 -84 19q-30 14 -73 40l-67 40q-31 18 -60 18q-37 0 -60 -17q-26 -19 -41 -40q-18 -21 -35 -58z" />
<glyph unicode="&#xd2;" horiz-adv-x="1589" d="M182 625q0 165 66 317q67 154 179 266q118 118 263 183q149 67 320 67q155 0 278 -50q120 -49 203 -138q82 -88 124 -206t42 -253q0 -167 -66 -319q-68 -155 -178 -267q-113 -114 -263 -182q-151 -68 -321 -68q-154 0 -278 52q-120 50 -203 138q-81 86 -124 206 q-42 119 -42 254zM434 625q0 -86 27 -161q27 -74 77 -132q49 -56 124 -90q73 -33 167 -33q131 0 236 52q106 52 181 138q75 85 117 194q42 108 42 218q0 86 -27 161q-27 74 -76 131q-47 55 -124 89q-74 33 -168 33q-128 0 -236 -53q-107 -53 -181 -137q-76 -87 -117 -192 q-42 -108 -42 -218zM844 1896l180 152l307 -377l-172 -139z" />
<glyph unicode="&#xd3;" horiz-adv-x="1589" d="M182 625q0 165 66 317q67 154 179 266q118 118 263 183q149 67 320 67q155 0 278 -50q120 -49 203 -138q82 -88 124 -206t42 -253q0 -167 -66 -319q-68 -155 -178 -267q-113 -114 -263 -182q-151 -68 -321 -68q-154 0 -278 52q-120 50 -203 138q-81 86 -124 206 q-42 119 -42 254zM434 625q0 -86 27 -161q27 -74 77 -132q49 -56 124 -90q73 -33 167 -33q131 0 236 52q106 52 181 138q75 85 117 194q42 108 42 218q0 86 -27 161q-27 74 -76 131q-47 55 -124 89q-74 33 -168 33q-128 0 -236 -53q-107 -53 -181 -137q-76 -87 -117 -192 q-42 -108 -42 -218zM731 1686l397 354l152 -180l-408 -336z" />
<glyph unicode="&#xd4;" horiz-adv-x="1589" d="M182 625q0 165 66 317q67 154 179 266q118 118 263 183q149 67 320 67q155 0 278 -50q120 -49 203 -138q82 -88 124 -206t42 -253q0 -167 -66 -319q-68 -155 -178 -267q-113 -114 -263 -182q-151 -68 -321 -68q-154 0 -278 52q-120 50 -203 138q-81 86 -124 206 q-42 119 -42 254zM434 625q0 -86 27 -161q27 -74 77 -132q49 -56 124 -90q73 -33 167 -33q131 0 236 52q106 52 181 138q75 85 117 194q42 108 42 218q0 86 -27 161q-27 74 -76 131q-47 55 -124 89q-74 33 -168 33q-128 0 -236 -53q-107 -53 -181 -137q-76 -87 -117 -192 q-42 -108 -42 -218zM676 1714l407 268l371 -286l-149 -156l-234 199l-272 -195z" />
<glyph unicode="&#xd5;" horiz-adv-x="1589" d="M182 625q0 165 66 317q67 154 179 266q118 118 263 183q149 67 320 67q155 0 278 -50q120 -49 203 -138q82 -88 124 -206t42 -253q0 -167 -66 -319q-68 -155 -178 -267q-113 -114 -263 -182q-151 -68 -321 -68q-154 0 -278 52q-120 50 -203 138q-81 86 -124 206 q-42 119 -42 254zM434 625q0 -86 27 -161q27 -74 77 -132q49 -56 124 -90q73 -33 167 -33q131 0 236 52q106 52 181 138q75 85 117 194q42 108 42 218q0 86 -27 161q-27 74 -76 131q-47 55 -124 89q-74 33 -168 33q-128 0 -236 -53q-107 -53 -181 -137q-76 -87 -117 -192 q-42 -108 -42 -218zM641 1708q26 58 68 109q32 38 92 74q56 34 137 34q45 0 84 -18q38 -18 74 -41l65 -41q32 -19 60 -19q32 0 58 20q25 19 42 44q22 29 33 65l162 -125q-26 -59 -66 -110q-36 -43 -90 -76q-56 -35 -133 -35q-43 0 -84 19q-34 16 -74 40l-67 40 q-32 18 -60 18q-36 0 -59 -17q-26 -19 -41 -40q-18 -21 -35 -58z" />
<glyph unicode="&#xd6;" horiz-adv-x="1589" d="M182 625q0 165 66 317q67 154 179 266q118 118 263 183q149 67 320 67q155 0 278 -50q120 -49 203 -138q82 -88 124 -206t42 -253q0 -167 -66 -319q-68 -155 -178 -267q-113 -114 -263 -182q-151 -68 -321 -68q-154 0 -278 52q-120 50 -203 138q-81 86 -124 206 q-42 119 -42 254zM434 625q0 -86 27 -161q27 -74 77 -132q49 -56 124 -90q73 -33 167 -33q131 0 236 52q106 52 181 138q75 85 117 194q42 108 42 218q0 86 -27 161q-27 74 -76 131q-47 55 -124 89q-74 33 -168 33q-128 0 -236 -53q-107 -53 -181 -137q-76 -87 -117 -192 q-42 -108 -42 -218zM690 1759q0 68 47 115t115 47t115 -47t47 -115q0 -67 -47 -114q-48 -48 -115 -48t-115 48q-47 47 -47 114zM1112 1759q0 68 47 115t115 47t115 -47t47 -115q0 -67 -47 -114q-48 -48 -115 -48t-115 48q-47 47 -47 114z" />
<glyph unicode="&#xd7;" d="M88 215l373 317l-252 308l180 151l252 -307l373 317l143 -172l-373 -317l252 -307l-178 -152l-252 307l-373 -317z" />
<glyph unicode="&#xd8;" horiz-adv-x="1605" d="M133 31l180 176q-64 83 -98 191q-33 105 -33 227q0 165 66 317q67 154 179 266q118 118 263 183q149 67 320 67q137 0 245 -39q112 -40 189 -106l188 186l90 -96l-190 -186q61 -83 93 -187t32 -219q0 -167 -66 -319q-68 -155 -178 -267q-113 -114 -263 -182 q-151 -68 -321 -68q-133 0 -239 36t-184 102l-183 -179zM434 625q0 -61 16 -127q15 -59 46 -113l768 754q-46 40 -112 63t-142 23q-128 0 -236 -53q-107 -53 -181 -137q-76 -87 -117 -192q-42 -108 -42 -218zM584 287q45 -37 108 -58q59 -20 137 -20q131 0 236 52 q106 52 181 138q75 85 117 194q42 108 42 218q0 123 -57 225z" />
<glyph unicode="&#xd9;" horiz-adv-x="1409" d="M242 510l164 924h245l-47 -269l-51 -284l-59 -340q-29 -155 32 -243q62 -89 215 -89q157 0 248 94q93 96 121 248l58 337l51 281l47 265h245l-163 -924q-21 -116 -71 -217q-49 -97 -128 -169q-80 -72 -182 -110q-105 -39 -236 -39q-139 0 -241 39q-98 38 -163 110 q-63 71 -84 169q-21 101 -1 217zM659 1896l181 152l307 -377l-172 -139z" />
<glyph unicode="&#xda;" horiz-adv-x="1409" d="M240 510l163 924h246l-47 -269l-51 -284l-59 -340q-29 -155 32 -243q62 -89 215 -89q157 0 248 94q93 96 121 248l58 337l51 281l47 265h245l-163 -924q-21 -116 -71 -217q-49 -97 -128 -169q-80 -72 -182 -110q-105 -39 -236 -39q-139 0 -241 39q-98 38 -163 110 q-63 71 -84 169q-21 101 -1 217zM756 1686l397 354l152 -180l-408 -336z" />
<glyph unicode="&#xdb;" horiz-adv-x="1409" d="M240 510l163 924h246l-47 -269l-51 -284l-59 -340q-29 -155 32 -243q62 -89 215 -89q157 0 248 94q93 96 121 248l58 337l51 281l47 265h245l-163 -924q-21 -116 -71 -217q-49 -97 -128 -169q-80 -72 -182 -110q-105 -39 -236 -39q-139 0 -241 39q-98 38 -163 110 q-63 71 -84 169q-21 101 -1 217zM586 1714l407 268l371 -286l-150 -156l-233 199l-272 -195z" />
<glyph unicode="&#xdc;" horiz-adv-x="1409" d="M240 510l163 924h246l-47 -269l-51 -284l-59 -340q-29 -155 32 -243q62 -89 215 -89q157 0 248 94q93 96 121 248l58 337l51 281l47 265h245l-163 -924q-21 -116 -71 -217q-49 -97 -128 -169q-80 -72 -182 -110q-105 -39 -236 -39q-139 0 -241 39q-98 38 -163 110 q-63 71 -84 169q-21 101 -1 217zM600 1759q0 68 47 115t115 47t115 -47t47 -115q0 -67 -47 -114q-48 -48 -115 -48t-115 48q-47 47 -47 114zM1022 1759q0 68 47 115t115 47q67 0 114 -47q48 -48 48 -115q0 -66 -48 -114t-114 -48q-67 0 -115 48q-47 47 -47 114z" />
<glyph unicode="&#xdd;" horiz-adv-x="1257" d="M268 1434h258l236 -639l459 639h272l-643 -869l-98 -565h-246l98 565zM680 1686l397 354l152 -180l-408 -336z" />
<glyph unicode="&#xde;" horiz-adv-x="1116" d="M152 0l251 1434h246l-41 -228h170q208 0 327 -105q118 -105 118 -286q0 -129 -48 -221q-49 -93 -128 -151q-80 -59 -186 -86q-105 -27 -220 -27h-186l-58 -330h-245zM496 559h176q68 0 121 13q55 13 95 43q39 29 62 79q23 51 23 121q0 96 -71 129q-70 33 -177 33h-156z " />
<glyph unicode="&#xdf;" horiz-adv-x="1230" d="M131 0l64 356l63 358l70 398q38 213 162 336q127 125 339 125q91 0 172 -26q80 -26 139 -77q58 -50 92 -125q34 -74 34 -174q0 -49 -17 -102q-16 -50 -47 -96q-30 -44 -73 -80q-41 -34 -93 -49q57 -18 105 -58q40 -34 73 -97t33 -167q0 -123 -41 -226q-40 -100 -121 -172 q-80 -71 -195 -110q-116 -39 -265 -39h-93l41 230h41q80 0 149 15q70 15 120 52q51 37 81 98q29 58 29 152q0 42 -15 80t-52 63q-39 26 -97 41q-60 15 -147 15l37 217q52 0 100 14q51 15 93 42t70 72t28 105q0 28 -11 59t-31 54q-21 25 -57 40q-35 15 -82 15 q-109 0 -174 -61q-66 -62 -84 -166l-194 -1112h-246z" />
<glyph unicode="&#xe0;" horiz-adv-x="1097" d="M125 281q0 82 36 145q38 67 95 108q61 44 135 66q78 23 156 23q59 0 116 -13q55 -12 87 -28q39 -17 73 -39l13 65q8 48 -7 80t-42 52q-29 21 -66 28q-42 8 -78 8q-55 0 -105 -10q-46 -9 -96 -23q-72 -21 -96 -30l-63 209q47 18 120 36q46 12 126 26q65 11 149 11 q104 0 186 -27t135 -77q54 -51 76 -118q23 -69 8 -150l-108 -623h-227l20 123q-39 -43 -88 -74q-44 -29 -103 -51q-61 -23 -133 -23q-75 0 -135 24q-59 24 -100 66q-43 45 -63 97q-21 55 -21 119zM379 289q0 -33 14 -53q15 -21 37 -33q26 -14 50 -18q30 -5 55 -5 q54 0 100 17q45 17 78 39q36 23 67 57l19 100q-21 13 -58 25q-23 9 -67 17q-36 7 -88 7q-28 0 -68 -8q-36 -7 -67 -26q-31 -18 -52 -49q-20 -29 -20 -70zM504 1468l180 152l307 -377l-172 -139z" />
<glyph unicode="&#xe1;" horiz-adv-x="1097" d="M125 281q0 82 36 145q38 67 95 108q61 44 135 66q78 23 156 23q59 0 116 -13q55 -12 87 -28q39 -17 73 -39l13 65q8 48 -7 80t-42 52q-29 21 -66 28q-42 8 -78 8q-55 0 -105 -10q-46 -9 -96 -23q-72 -21 -96 -30l-63 209q47 18 120 36q46 12 126 26q65 11 149 11 q104 0 186 -27t135 -77q54 -51 76 -118q23 -69 8 -150l-108 -623h-227l20 123q-39 -43 -88 -74q-44 -29 -103 -51q-61 -23 -133 -23q-75 0 -135 24q-59 24 -100 66q-43 45 -63 97q-21 55 -21 119zM379 289q0 -33 14 -53q15 -21 37 -33q26 -14 50 -18q30 -5 55 -5 q54 0 100 17q45 17 78 39q36 23 67 57l19 100q-21 13 -58 25q-23 9 -67 17q-36 7 -88 7q-28 0 -68 -8q-36 -7 -67 -26q-31 -18 -52 -49q-20 -29 -20 -70zM492 1260l397 354l151 -180l-407 -336z" />
<glyph unicode="&#xe2;" horiz-adv-x="1097" d="M125 281q0 82 36 145q38 67 95 108q61 44 135 66q78 23 156 23q59 0 116 -13q55 -12 87 -28q39 -17 73 -39l13 65q8 48 -7 80t-42 52q-29 21 -66 28q-42 8 -78 8q-55 0 -105 -10q-46 -9 -96 -23q-72 -21 -96 -30l-63 209q47 18 120 36q46 12 126 26q65 11 149 11 q104 0 186 -27t135 -77q54 -51 76 -118q23 -69 8 -150l-108 -623h-227l20 123q-39 -43 -88 -74q-44 -29 -103 -51q-61 -23 -133 -23q-75 0 -135 24q-59 24 -100 66q-43 45 -63 97q-21 55 -21 119zM348 1245l408 268l370 -286l-149 -156l-234 199l-272 -195zM379 289 q0 -33 14 -53q15 -21 37 -33q26 -14 50 -18q30 -5 55 -5q54 0 100 17q45 17 78 39q36 23 67 57l19 100q-21 13 -58 25q-23 9 -67 17q-36 7 -88 7q-28 0 -68 -8q-36 -7 -67 -26q-31 -18 -52 -49q-20 -29 -20 -70z" />
<glyph unicode="&#xe3;" horiz-adv-x="1097" d="M125 281q0 82 36 145q38 67 95 108q61 44 135 66q78 23 156 23q59 0 116 -13q55 -12 87 -28q39 -17 73 -39l13 65q8 48 -7 80t-42 52q-29 21 -66 28q-42 8 -78 8q-55 0 -105 -10q-46 -9 -96 -23q-72 -21 -96 -30l-63 209q47 18 120 36q46 12 126 26q65 11 149 11 q104 0 186 -27t135 -77q54 -51 76 -118q23 -69 8 -150l-108 -623h-227l20 123q-39 -43 -88 -74q-44 -29 -103 -51q-61 -23 -133 -23q-75 0 -135 24q-59 24 -100 66q-43 45 -63 97q-21 55 -21 119zM338 1255q26 58 68 109q34 40 92 75q56 34 137 34q43 0 84 -19 q38 -18 74 -41l65 -41q30 -18 60 -18q33 0 58 19t42 44q21 29 33 66l161 -125q-28 -64 -65 -111q-36 -43 -90 -76q-55 -34 -133 -34q-45 0 -84 18q-34 16 -74 40l-67 40q-31 18 -60 18q-36 0 -59 -17q-26 -19 -41 -40q-19 -22 -35 -57zM379 289q0 -33 14 -53q15 -21 37 -33 q26 -14 50 -18q30 -5 55 -5q54 0 100 17q45 17 78 39q36 23 67 57l19 100q-21 13 -58 25q-23 9 -67 17q-36 7 -88 7q-28 0 -68 -8q-36 -7 -67 -26q-31 -18 -52 -49q-20 -29 -20 -70z" />
<glyph unicode="&#xe4;" horiz-adv-x="1097" d="M125 281q0 82 36 145q38 67 95 108q61 44 135 66q78 23 156 23q59 0 116 -13q55 -12 87 -28q39 -17 73 -39l13 65q8 48 -7 80t-42 52q-29 21 -66 28q-42 8 -78 8q-55 0 -105 -10q-46 -9 -96 -23q-72 -21 -96 -30l-63 209q47 18 120 36q46 12 126 26q65 11 149 11 q104 0 186 -27t135 -77q54 -51 76 -118q23 -69 8 -150l-108 -623h-227l20 123q-39 -43 -88 -74q-44 -29 -103 -51q-61 -23 -133 -23q-75 0 -135 24q-59 24 -100 66q-43 45 -63 97q-21 55 -21 119zM377 1292q0 68 47 115t115 47q67 0 114 -47t47 -115q0 -67 -47 -114 q-48 -48 -114 -48q-67 0 -115 48q-47 47 -47 114zM379 289q0 -33 14 -53q15 -21 37 -33q26 -14 50 -18q30 -5 55 -5q54 0 100 17q45 17 78 39q36 23 67 57l19 100q-21 13 -58 25q-23 9 -67 17q-36 7 -88 7q-28 0 -68 -8q-36 -7 -67 -26q-31 -18 -52 -49q-20 -29 -20 -70z M799 1292q0 68 47 115t115 47q67 0 114 -47t47 -115q0 -67 -47 -114q-48 -48 -114 -48q-67 0 -115 48q-47 47 -47 114z" />
<glyph unicode="&#xe5;" horiz-adv-x="1097" d="M125 281q0 82 36 145q38 67 95 108q61 44 135 66q78 23 156 23q59 0 116 -13q55 -12 87 -28q39 -17 73 -39l13 65q8 48 -7 80t-42 52q-29 21 -66 28q-42 8 -78 8q-55 0 -105 -10q-46 -9 -96 -23q-72 -21 -96 -30l-63 209q47 18 120 36q46 12 126 26q65 11 149 11 q104 0 186 -27t135 -77q54 -51 76 -118q23 -69 8 -150l-108 -623h-227l20 123q-39 -43 -88 -74q-44 -29 -103 -51q-61 -23 -133 -23q-75 0 -135 24q-59 24 -100 66q-43 45 -63 97q-21 55 -21 119zM379 289q0 -33 14 -53q15 -21 37 -33q26 -14 50 -18q30 -5 55 -5 q54 0 100 17q45 17 78 39q36 23 67 57l19 100q-21 13 -58 25q-23 9 -67 17q-36 7 -88 7q-28 0 -68 -8q-36 -7 -67 -26q-31 -18 -52 -49q-20 -29 -20 -70zM506 1307q0 56 22 103t62 84q37 34 87 56q48 21 101 21q57 0 102 -20q43 -19 73 -51q29 -31 45 -73q16 -43 16 -84 q0 -55 -24 -103q-24 -49 -61 -84q-35 -33 -88 -56q-50 -21 -102 -21q-56 0 -101 20t-73 51q-29 32 -44 73t-15 84zM647 1307q0 -38 26 -66q25 -27 66 -27q58 0 96 38q37 37 37 91q0 42 -26 67q-28 26 -68 26q-56 0 -94 -38q-37 -37 -37 -91z" />
<glyph unicode="&#xe6;" horiz-adv-x="1771" d="M123 276q0 61 23 111q24 53 71 94q48 42 118 67q69 25 167 25h344q2 10 2 16v13q0 80 -61 124t-158 44q-61 0 -112 -10q-46 -9 -97 -23q-72 -21 -96 -30l-66 211q47 17 123 38q55 15 126 27t142 12q91 0 147 -14q59 -15 100 -36q37 -19 63 -47q20 -21 38 -50 q71 71 167 109t200 38q105 0 185 -29q83 -30 142 -83t90 -129q31 -75 31 -168q0 -17 -1 -26q-2 -14 -3 -34q-1 -17 -8 -51q-7 -37 -14 -78h-729q0 -34 16 -67q17 -35 47 -64t76 -47q45 -18 102 -18q64 0 115 15q44 13 88 34q44 23 76 49l115 -188q-47 -39 -109 -68 q-47 -24 -125 -47q-72 -21 -160 -21q-149 0 -246 54q-95 53 -155 137q-61 -75 -166 -134q-102 -57 -239 -57q-177 0 -273 84t-96 217zM373 293q0 -53 41 -77q39 -23 108 -23q135 0 211 61t92 143h-303q-64 0 -106 -23q-43 -24 -43 -81zM1083 575h490q0 7 1 10t1 9 q0 30 -12 62t-38 58q-25 26 -66 42q-39 16 -95 16q-60 0 -107 -18q-45 -18 -81 -47q-34 -28 -59 -64q-23 -33 -34 -68z" />
<glyph unicode="&#xe7;" horiz-adv-x="1017" d="M133 430q0 122 49 224q50 104 130 180q77 73 186 118q104 43 215 43q110 0 188 -27q75 -26 125 -63q53 -38 92 -90l-176 -149q-22 26 -57 49q-30 19 -72 35t-100 16q-65 0 -127 -28q-60 -27 -104 -74q-42 -45 -69 -108q-26 -61 -26 -126q0 -96 63 -161q63 -64 164 -64 q63 0 110 16q51 18 83 37q42 24 70 55l133 -186q-44 -41 -109 -76q-49 -27 -125 -52q-72 -24 -162 -24q-117 0 -206 37q-92 38 -152 100q-63 64 -92 145q-31 85 -31 173zM266 -504l207 404l223 -19l-202 -444z" />
<glyph unicode="&#xe8;" horiz-adv-x="1091" d="M133 436q0 120 46 221q47 103 123 179q74 74 175 117q99 42 203 42q105 0 185 -29q83 -30 142 -83t90 -129q31 -75 31 -168q0 -17 -1 -26q-2 -14 -3 -34q-1 -17 -8 -51q-7 -37 -14 -78h-729q0 -34 16 -67q17 -35 47 -64t76 -47q45 -18 102 -18q64 0 115 15q44 13 88 34 q44 23 76 49l115 -188q-47 -39 -109 -68q-47 -24 -125 -47q-72 -21 -160 -21q-122 0 -213 38q-86 36 -149 102q-58 61 -89 147q-30 84 -30 174zM399 575h490q0 7 1 10t1 9q0 30 -12 62t-38 58q-25 26 -66 42q-39 16 -95 16q-60 0 -107 -18q-45 -18 -81 -47q-34 -28 -59 -64 q-23 -33 -34 -68zM502 1448l180 151l307 -376l-172 -140z" />
<glyph unicode="&#xe9;" horiz-adv-x="1091" d="M133 436q0 120 46 221q47 103 123 179q74 74 175 117q99 42 203 42q105 0 185 -29q83 -30 142 -83t90 -129q31 -75 31 -168q0 -17 -1 -26q-2 -14 -3 -34q-1 -17 -8 -51q-7 -37 -14 -78h-729q0 -34 16 -67q17 -35 47 -64t76 -47q45 -18 102 -18q64 0 115 15q44 13 88 34 q44 23 76 49l115 -188q-47 -39 -109 -68q-47 -24 -125 -47q-72 -21 -160 -21q-122 0 -213 38q-86 36 -149 102q-58 61 -89 147q-30 84 -30 174zM399 575h490q0 7 1 10t1 9q0 30 -12 62t-38 58q-25 26 -66 42q-39 16 -95 16q-60 0 -107 -18q-45 -18 -81 -47q-34 -28 -59 -64 q-23 -33 -34 -68zM494 1239l397 354l151 -180l-407 -336z" />
<glyph unicode="&#xea;" horiz-adv-x="1091" d="M133 436q0 120 46 221q47 103 123 179q74 74 175 117q99 42 203 42q105 0 185 -29q83 -30 142 -83t90 -129q31 -75 31 -168q0 -17 -1 -26q-2 -14 -3 -34q-1 -17 -8 -51q-7 -37 -14 -78h-729q0 -34 16 -67q17 -35 47 -64t76 -47q45 -18 102 -18q64 0 115 15q44 13 88 34 q44 23 76 49l115 -188q-47 -39 -109 -68q-47 -24 -125 -47q-72 -21 -160 -21q-122 0 -213 38q-86 36 -149 102q-58 61 -89 147q-30 84 -30 174zM346 1245l408 268l370 -286l-149 -156l-234 199l-272 -195zM399 575h490q0 7 1 10t1 9q0 30 -12 62t-38 58q-25 26 -66 42 q-39 16 -95 16q-60 0 -107 -18q-45 -18 -81 -47q-34 -28 -59 -64q-23 -33 -34 -68z" />
<glyph unicode="&#xeb;" horiz-adv-x="1091" d="M133 436q0 120 46 221q47 103 123 179q74 74 175 117q99 42 203 42q105 0 185 -29q83 -30 142 -83t90 -129q31 -75 31 -168q0 -17 -1 -26q-2 -14 -3 -34q-1 -17 -8 -51q-7 -37 -14 -78h-729q0 -34 16 -67q17 -35 47 -64t76 -47q45 -18 102 -18q64 0 115 15q44 13 88 34 q44 23 76 49l115 -188q-47 -39 -109 -68q-47 -24 -125 -47q-72 -21 -160 -21q-122 0 -213 38q-86 36 -149 102q-58 61 -89 147q-30 84 -30 174zM375 1292q0 68 47 115t115 47q67 0 114 -47t47 -115q0 -67 -47 -114q-48 -48 -114 -48q-67 0 -115 48q-47 47 -47 114zM399 575 h490q0 7 1 10t1 9q0 30 -12 62t-38 58q-25 26 -66 42q-39 16 -95 16q-60 0 -107 -18q-45 -18 -81 -47q-34 -28 -59 -64q-23 -33 -34 -68zM797 1292q0 68 47 115t114 47q68 0 115 -47t47 -115q0 -67 -47 -114q-48 -48 -115 -48q-66 0 -114 48q-47 47 -47 114z" />
<glyph unicode="&#xec;" horiz-adv-x="569" d="M160 0l166 946h245l-165 -946h-246zM193 1450l180 152l307 -377l-172 -140z" />
<glyph unicode="&#xed;" horiz-adv-x="569" d="M152 0l165 946h246l-166 -946h-245zM252 1239l397 354l152 -180l-408 -336z" />
<glyph unicode="&#xee;" horiz-adv-x="630" d="M127 1272l408 268l370 -287l-149 -155l-234 198l-272 -194zM193 0l165 946h246l-166 -946h-245z" />
<glyph unicode="&#xef;" horiz-adv-x="569" d="M100 1292q0 68 47 115t115 47t115 -47t47 -115q0 -67 -47 -114q-48 -48 -115 -48t-115 48q-47 47 -47 114zM162 0l166 946h245l-165 -946h-246zM522 1292q0 68 47 115t115 47t115 -47t47 -115q0 -67 -47 -114q-48 -48 -115 -48t-115 48q-47 47 -47 114z" />
<glyph unicode="&#xf0;" horiz-adv-x="1181" d="M133 430q0 115 45 217q45 103 124 180q80 79 182 123q104 45 221 45q44 0 109 -12q63 -12 110 -43q-28 77 -75 139q-52 68 -95 109l-312 -131l-63 151l227 99q-52 35 -92 54l-84 44l105 190l150 -83q89 -51 155 -105l280 121l66 -150l-215 -94q51 -56 93 -117t72 -132 t45 -153t15 -184q0 -136 -37 -265q-37 -130 -110 -231q-72 -100 -185 -164q-111 -63 -258 -63q-118 0 -205 37t-147 100t-90 145q-31 85 -31 173zM383 430q0 -96 57 -161q57 -64 166 -64q66 0 121 26q58 27 102 73q45 46 72 107q27 60 27 130q0 94 -58 160q-57 65 -165 65 q-63 0 -122 -27q-63 -29 -103 -72q-42 -45 -70 -107q-27 -60 -27 -130z" />
<glyph unicode="&#xf1;" horiz-adv-x="1122" d="M123 0l170 971h229l-24 -142q36 43 84 82q45 33 97 58q55 26 128 26t135 -27q60 -26 102 -79q41 -52 59 -122q18 -71 3 -159l-107 -608h-245l98 567q18 106 -25 152q-44 47 -122 47q-51 0 -89 -17q-42 -19 -69 -40q-35 -24 -64 -58l-114 -651h-246zM338 1255 q26 58 68 109q34 40 92 75q56 34 137 34q43 0 84 -19q38 -18 74 -41l65 -41q30 -18 60 -18q33 0 58 19t42 44q21 29 33 66l161 -125q-28 -64 -65 -111q-36 -43 -90 -76q-55 -34 -133 -34q-45 0 -84 18q-34 16 -74 40l-67 40q-31 18 -60 18q-36 0 -59 -17q-26 -19 -41 -40 q-19 -22 -35 -57z" />
<glyph unicode="&#xf2;" horiz-adv-x="1150" d="M133 430q0 119 50 224q49 102 130 180q75 72 183 118q101 43 206 43q120 0 210 -37q95 -39 152 -99q62 -65 91 -145q31 -85 31 -173q0 -120 -50 -225q-48 -100 -130 -179q-76 -74 -183 -119q-101 -43 -207 -43q-121 0 -210 37q-92 39 -151 100q-62 65 -91 145 q-31 85 -31 173zM387 430q0 -95 58 -160t171 -65q70 0 128 27t100 75q38 44 64 108q24 60 24 126q0 92 -59 159q-59 66 -171 66q-67 0 -128 -28q-58 -27 -99 -74q-38 -44 -64 -108q-24 -60 -24 -126zM487 1450l181 152l307 -377l-172 -140z" />
<glyph unicode="&#xf3;" horiz-adv-x="1150" d="M133 430q0 119 50 224q49 102 130 180q75 72 183 118q101 43 206 43q120 0 210 -37q95 -39 152 -99q62 -65 91 -145q31 -85 31 -173q0 -120 -50 -225q-48 -100 -130 -179q-76 -74 -183 -119q-101 -43 -207 -43q-121 0 -210 37q-92 39 -151 100q-62 65 -91 145 q-31 85 -31 173zM387 430q0 -95 58 -160t171 -65q70 0 128 27t100 75q38 44 64 108q24 60 24 126q0 92 -59 159q-59 66 -171 66q-67 0 -128 -28q-58 -27 -99 -74q-38 -44 -64 -108q-24 -60 -24 -126zM537 1239l397 354l151 -180l-407 -336z" />
<glyph unicode="&#xf4;" horiz-adv-x="1150" d="M133 430q0 119 50 224q49 102 130 180q75 72 183 118q101 43 206 43q120 0 210 -37q95 -39 152 -99q62 -65 91 -145q31 -85 31 -173q0 -120 -50 -225q-48 -100 -130 -179q-76 -74 -183 -119q-101 -43 -207 -43q-121 0 -210 37q-92 39 -151 100q-62 65 -91 145 q-31 85 -31 173zM365 1245l407 268l371 -286l-150 -156l-233 199l-273 -195zM387 430q0 -95 58 -160t171 -65q70 0 128 27t100 75q38 44 64 108q24 60 24 126q0 92 -59 159q-59 66 -171 66q-67 0 -128 -28q-58 -27 -99 -74q-38 -44 -64 -108q-24 -60 -24 -126z" />
<glyph unicode="&#xf5;" horiz-adv-x="1150" d="M133 430q0 119 50 224q49 102 130 180q75 72 183 118q101 43 206 43q120 0 210 -37q95 -39 152 -99q62 -65 91 -145q31 -85 31 -173q0 -120 -50 -225q-48 -100 -130 -179q-76 -74 -183 -119q-101 -43 -207 -43q-121 0 -210 37q-92 39 -151 100q-62 65 -91 145 q-31 85 -31 173zM352 1255q26 58 68 109q34 40 92 75q56 34 137 34q43 0 84 -19q38 -18 74 -41l65 -41q30 -18 60 -18q33 0 58 19t42 44q21 29 33 66l162 -125q-27 -62 -66 -111q-36 -43 -90 -76q-55 -34 -133 -34q-45 0 -84 18q-34 16 -74 40l-66 40q-32 18 -61 18 q-36 0 -59 -17q-26 -19 -41 -40q-19 -22 -35 -57zM387 430q0 -95 58 -160t171 -65q70 0 128 27t100 75q38 44 64 108q24 60 24 126q0 92 -59 159q-59 66 -171 66q-67 0 -128 -28q-58 -27 -99 -74q-38 -44 -64 -108q-24 -60 -24 -126z" />
<glyph unicode="&#xf6;" horiz-adv-x="1150" d="M133 430q0 119 50 224q49 102 130 180q75 72 183 118q101 43 206 43q120 0 210 -37q95 -39 152 -99q62 -65 91 -145q31 -85 31 -173q0 -120 -50 -225q-48 -100 -130 -179q-76 -74 -183 -119q-101 -43 -207 -43q-121 0 -210 37q-92 39 -151 100q-62 65 -91 145 q-31 85 -31 173zM385 1292q0 68 47 115t115 47q67 0 114 -47q48 -48 48 -115q0 -66 -48 -114t-114 -48q-67 0 -115 48q-47 47 -47 114zM387 430q0 -95 58 -160t171 -65q70 0 128 27t100 75q38 44 64 108q24 60 24 126q0 92 -59 159q-59 66 -171 66q-67 0 -128 -28 q-58 -27 -99 -74q-38 -44 -64 -108q-24 -60 -24 -126zM807 1292q0 68 47 115t115 47q67 0 114 -47t47 -115q0 -67 -47 -114q-48 -48 -114 -48q-67 0 -115 48q-47 47 -47 114z" />
<glyph unicode="&#xf7;" d="M137 373l39 225h922l-39 -225h-922zM414 137q0 68 47 115t114 47q68 0 115 -47t47 -115q0 -67 -47 -114q-48 -48 -115 -48q-66 0 -114 48q-47 47 -47 114zM494 834q0 67 47 114t114 47q68 0 115 -47t47 -114q0 -68 -47 -115t-115 -47q-67 0 -114 47t-47 115z" />
<glyph unicode="&#xf8;" horiz-adv-x="1167" d="M109 31l116 114q-46 59 -69 133t-23 152q0 119 50 224q49 102 130 180q75 72 183 118q101 43 206 43q96 0 169 -22q72 -22 135 -64l118 117l93 -90l-119 -117q42 -58 65 -130t23 -148q0 -120 -50 -225q-48 -100 -130 -179q-76 -74 -183 -119q-101 -43 -207 -43 q-88 0 -165 22q-76 22 -132 60l-118 -116zM387 430q0 -60 21 -106l419 411q-25 16 -56 23q-34 8 -69 8q-67 0 -128 -28q-58 -27 -99 -74q-38 -44 -64 -108q-24 -60 -24 -126zM498 231q45 -26 118 -26q70 0 128 27t100 75q38 44 64 108q24 60 24 126q0 49 -19 98z" />
<glyph unicode="&#xf9;" horiz-adv-x="1122" d="M186 362l107 609h246l-99 -561q-21 -108 22 -157q42 -48 134 -48q50 0 89 19t69 44q33 28 57 66l113 637h245l-170 -971h-229l23 131q-34 -43 -80 -78q-40 -29 -95 -53q-58 -25 -126 -25t-133 28q-58 25 -105 78q-43 48 -64 122q-21 70 -4 159zM449 1450l180 152 l307 -377l-172 -140z" />
<glyph unicode="&#xfa;" horiz-adv-x="1122" d="M186 362l107 609h246l-99 -561q-21 -108 22 -157q42 -48 134 -48q50 0 89 19t69 44q33 28 57 66l113 637h245l-170 -971h-229l23 131q-34 -43 -80 -78q-40 -29 -95 -53q-58 -25 -126 -25t-133 28q-58 25 -105 78q-43 48 -64 122q-21 70 -4 159zM565 1239l398 354 l151 -180l-407 -336z" />
<glyph unicode="&#xfb;" horiz-adv-x="1122" d="M186 362l107 609h246l-99 -561q-21 -108 22 -157q42 -48 134 -48q50 0 89 19t69 44q33 28 57 66l113 637h245l-170 -971h-229l23 131q-34 -43 -80 -78q-40 -29 -95 -53q-58 -25 -126 -25t-133 28q-58 25 -105 78q-43 48 -64 122q-21 70 -4 159zM369 1245l407 268 l371 -286l-150 -156l-233 199l-272 -195z" />
<glyph unicode="&#xfc;" horiz-adv-x="1122" d="M186 362l107 609h246l-99 -561q-21 -108 22 -157q42 -48 134 -48q50 0 89 19t69 44q33 28 57 66l113 637h245l-170 -971h-229l23 131q-34 -43 -80 -78q-40 -29 -95 -53q-58 -25 -126 -25t-133 28q-58 25 -105 78q-43 48 -64 122q-21 70 -4 159zM381 1292q0 68 47 115 t115 47q67 0 114 -47q48 -48 48 -115q0 -66 -48 -114t-114 -48q-67 0 -115 48q-47 47 -47 114zM803 1292q0 68 47 115t115 47q67 0 114 -47t47 -115q0 -67 -47 -114q-48 -48 -114 -48q-67 0 -115 48q-47 47 -47 114z" />
<glyph unicode="&#xfd;" horiz-adv-x="1140" d="M-27 -397l115 194q17 -17 41 -33q22 -12 46 -21q25 -9 56 -9q32 0 56 6q26 7 46 22q22 18 44 45q18 23 49 76l57 101l-297 987h267l198 -707l377 707h279l-680 -1188q-46 -79 -91 -133q-42 -50 -92 -86q-45 -32 -98 -46t-108 -14q-57 0 -108 16q-44 14 -83 34 q-44 24 -74 49zM561 1239l397 354l152 -180l-408 -336z" />
<glyph unicode="&#xfe;" horiz-adv-x="1193" d="M68 -471l356 2019h246l-119 -669q11 12 43 36q26 20 63 38t84 30t105 12q89 0 160 -34q70 -33 122 -95q52 -61 80 -142q29 -84 29 -177q0 -127 -45 -232q-44 -102 -120 -180q-75 -76 -172 -118t-200 -42q-55 0 -105 14q-47 13 -85 33q-40 21 -61 39q-26 23 -35 37 l-101 -569h-245zM455 330q15 -37 43 -64q25 -23 64 -42t102 -19q69 0 129 27q55 25 102 75q42 45 67 109q23 59 23 131q0 99 -57 159t-166 60q-60 0 -109 -22q-44 -20 -80 -46q-36 -29 -65 -67z" />
<glyph unicode="&#xff;" horiz-adv-x="1140" d="M-25 -397l115 194q17 -17 41 -33q22 -12 46 -21q25 -9 56 -9q32 0 56 6q26 7 46 22q22 18 44 45q18 23 49 76l57 101l-297 987h267l198 -707l377 707h279l-680 -1188q-46 -79 -91 -133q-42 -50 -92 -86q-45 -32 -98 -46t-108 -14q-57 0 -108 16q-44 14 -83 34 q-44 24 -74 49zM401 1292q0 67 48 115q47 47 114 47q68 0 115 -47t47 -115q0 -67 -47 -114q-48 -48 -115 -48q-66 0 -114 48t-48 114zM823 1292q0 68 47 115t115 47t115 -47t47 -115q0 -67 -47 -114q-48 -48 -115 -48t-115 48q-47 47 -47 114z" />
<glyph unicode="&#x152;" horiz-adv-x="1691" d="M174 627q0 175 64 326q63 148 173 255q109 106 258 166t318 60h858l-41 -230h-520l-61 -352h471l-41 -234h-471l-70 -389h533l-39 -229h-791q-132 0 -250 41q-117 41 -204 120q-89 81 -137 195q-50 118 -50 271zM428 627q0 -183 103 -290q103 -108 284 -108h51l172 975 h-51q-112 0 -214 -39q-103 -39 -178 -113q-77 -76 -122 -183q-45 -108 -45 -242z" />
<glyph unicode="&#x153;" horiz-adv-x="1875" d="M133 430q0 119 50 224q49 102 130 180q75 72 183 118q101 43 206 43q133 0 228 -46q96 -46 157 -118q76 76 173 120t204 44q106 0 186 -29q82 -30 141 -83t90 -129q32 -78 32 -168q0 -17 -1 -26q-2 -14 -3 -34q-1 -17 -8 -51q-12 -63 -15 -78h-729q0 -34 16 -67 q16 -34 48 -64q31 -29 75 -47q45 -18 103 -18q63 0 114 15q47 14 89 34q41 21 75 49l115 -188q-47 -39 -109 -68q-49 -25 -124 -47q-72 -21 -160 -21q-127 0 -228 49q-97 47 -159 126q-84 -81 -185 -127q-105 -48 -211 -48q-121 0 -210 37q-92 39 -151 100q-62 65 -91 145 q-31 85 -31 173zM387 430q0 -95 58 -160t171 -65q70 0 128 27t100 75q38 44 64 108q24 60 24 126q0 92 -59 159q-59 66 -171 66q-67 0 -128 -28q-58 -27 -99 -74q-38 -44 -64 -108q-24 -60 -24 -126zM1184 575h489q0 7 1 10t1 9q0 30 -12 62t-38 58t-65 42t-96 16 q-60 0 -106 -18q-47 -18 -82 -47q-32 -26 -58 -64q-23 -33 -34 -68z" />
<glyph unicode="&#x178;" horiz-adv-x="1257" d="M268 1434h258l236 -639l459 639h272l-643 -869l-98 -565h-246l98 565zM520 1743q0 68 47 115t115 47t115 -47t47 -115t-47 -115t-115 -47t-115 47t-47 115zM942 1743q0 68 47 115t115 47t115 -47t47 -115t-47 -115t-115 -47t-115 47t-47 115z" />
<glyph unicode="&#x2c6;" horiz-adv-x="868" d="M254 1227l408 268l370 -287l-149 -155l-234 198l-272 -194z" />
<glyph unicode="&#x2dc;" horiz-adv-x="870" d="M221 1221q25 55 68 108q34 40 92 75q56 34 137 34q43 0 84 -19q38 -18 74 -41l65 -41q30 -18 60 -18q33 0 58 19t42 44q21 28 33 66l162 -125q-27 -61 -66 -111q-34 -40 -90 -75t-133 -35q-45 0 -84 18q-34 16 -74 40l-66 40q-33 19 -61 19q-35 0 -59 -18 q-26 -19 -41 -40q-19 -22 -35 -57z" />
<glyph unicode="&#x2000;" horiz-adv-x="1024" />
<glyph unicode="&#x2001;" horiz-adv-x="2048" />
<glyph unicode="&#x2002;" horiz-adv-x="1024" />
<glyph unicode="&#x2003;" horiz-adv-x="2048" />
<glyph unicode="&#x2004;" horiz-adv-x="682" />
<glyph unicode="&#x2005;" horiz-adv-x="512" />
<glyph unicode="&#x2006;" horiz-adv-x="341" />
<glyph unicode="&#x2007;" horiz-adv-x="341" />
<glyph unicode="&#x2008;" horiz-adv-x="256" />
<glyph unicode="&#x2009;" horiz-adv-x="409" />
<glyph unicode="&#x200a;" horiz-adv-x="113" />
<glyph unicode="&#x2010;" horiz-adv-x="681" d="M135 389l41 234h547l-41 -234h-547z" />
<glyph unicode="&#x2011;" horiz-adv-x="681" d="M135 389l41 234h547l-41 -234h-547z" />
<glyph unicode="&#x2012;" horiz-adv-x="681" d="M135 389l41 234h547l-41 -234h-547z" />
<glyph unicode="&#x2013;" horiz-adv-x="1024" d="M70 397l39 226h1024l-39 -226h-1024z" />
<glyph unicode="&#x2014;" horiz-adv-x="2048" d="M70 397l39 226h2048l-39 -226h-2048z" />
<glyph unicode="&#x2018;" horiz-adv-x="380" d="M246 930l88 504h217l-88 -504h-217z" />
<glyph unicode="&#x2019;" horiz-adv-x="380" d="M246 930l88 504h217l-88 -504h-217z" />
<glyph unicode="&#x201c;" horiz-adv-x="819" d="M285 926l90 508h217l-90 -508h-217zM641 926l90 508h217l-90 -508h-217z" />
<glyph unicode="&#x201d;" horiz-adv-x="819" d="M285 926l90 508h217l-90 -508h-217zM641 926l90 508h217l-90 -508h-217z" />
<glyph unicode="&#x201e;" horiz-adv-x="819" d="M72 -287l90 508h217l-90 -508h-217zM428 -287l90 508h217l-90 -508h-217z" />
<glyph unicode="&#x2022;" horiz-adv-x="1024" d="M342 717q0 61 24 114q26 57 63 94q38 38 93 63q52 24 115 24t115 -24q55 -25 93 -63q37 -37 63 -94q24 -53 24 -114q0 -63 -24 -115q-25 -55 -63 -93q-40 -40 -93 -64q-50 -23 -115 -23t-115 23q-53 24 -93 64q-38 38 -63 93q-24 53 -24 115z" />
<glyph unicode="&#x2026;" horiz-adv-x="2048" d="M227 137q0 68 47 115t115 47t115 -47t47 -115q0 -67 -47 -114q-48 -48 -115 -48t-115 48q-47 47 -47 114zM883 137q0 68 47 115t114 47q68 0 115 -47t47 -115q0 -67 -47 -114q-48 -48 -115 -48q-66 0 -114 48q-47 47 -47 114zM1538 137q0 68 47 115t115 47t115 -47 t47 -115q0 -67 -47 -114q-48 -48 -115 -48t-115 48q-47 47 -47 114z" />
<glyph unicode="&#x202f;" horiz-adv-x="409" />
<glyph unicode="&#x2039;" horiz-adv-x="659" d="M94 512l441 483l151 -151l-326 -346l222 -365l-187 -127z" />
<glyph unicode="&#x203a;" horiz-adv-x="659" d="M150 164l329 350l-221 344l182 127l301 -493l-434 -486z" />
<glyph unicode="&#x205f;" horiz-adv-x="512" />
<glyph unicode="&#x20ac;" horiz-adv-x="1187" d="M127 473l31 172h155q0 5 1.5 17t2.5 18q1 13 7 37q3 12 7 36q3 21 7 35h-156l31 173h174q44 110 117 203q71 90 165 157q90 64 204 101q111 36 235 36q65 0 113 -7q59 -9 90 -17q44 -11 80 -25l-82 -211q-33 10 -58 16q-51 11 -65 13q-38 6 -78 6q-80 0 -152 -21 q-75 -22 -132 -56q-60 -36 -107 -86q-48 -51 -74 -109h434l-30 -173h-463q-1 -11 -6 -22q-5 -13 -8 -23q-4 -16 -5 -26q-3 -9 -5 -29q-1 -8 -3 -22t-2 -21h467l-31 -172h-436q6 -52 35 -101q27 -45 76 -85q47 -38 112 -60t148 -22q44 0 75 4q57 7 60 8q24 5 49 14l61 -206 q-32 -14 -75 -25q-27 -8 -83 -17q-51 -8 -108 -8q-126 0 -231 36q-103 35 -180 102q-77 66 -123 157q-47 93 -62 203h-182z" />
<glyph unicode="&#x2122;" horiz-adv-x="1648" d="M264 1264l31 170h600l-31 -170h-211l-102 -588h-178l102 588h-211zM854 676l133 758h162l168 -377l301 377h176l-133 -758h-178l76 432l-281 -344l-168 354l-78 -442h-178z" />
<glyph unicode="&#x25fc;" horiz-adv-x="972" d="M0 0v973h973v-973h-973z" />
</font>
</defs>
</svg>
