<?xml version="1.0" standalone="no"?>
<!DOCTYPE svg PUBLIC "-//W3C//DTD SVG 1.1//EN" "http://www.w3.org/Graphics/SVG/1.1/DTD/svg11.dtd" >
<svg xmlns="http://www.w3.org/2000/svg">
<metadata></metadata>
<defs>
<font id="europaitalic" horiz-adv-x="1064" >
<font-face units-per-em="2048" ascent="1548" descent="-500" />
<missing-glyph horiz-adv-x="573" />
<glyph horiz-adv-x="0" />
<glyph horiz-adv-x="682" />
<glyph unicode=" "  horiz-adv-x="573" />
<glyph unicode="&#x09;" horiz-adv-x="573" />
<glyph unicode="&#xa0;" horiz-adv-x="573" />
<glyph unicode="!" horiz-adv-x="567" d="M186 90q0 45 35 80t80 35q47 0 80 -33q35 -35 35 -80l-2 -2q0 -47 -33 -80q-35 -35 -80 -35t-80 35t-35 80zM264 371l187 1063h172l-187 -1063h-172z" />
<glyph unicode="&#x22;" horiz-adv-x="679" d="M291 946l84 488h147l-84 -488h-147zM578 946l84 488h147l-84 -488h-147z" />
<glyph unicode="#" horiz-adv-x="1298" d="M131 455l23 131h258l94 295h-240l23 131h262l145 461l121 -31l-137 -430h278l146 461l119 -31l-136 -430h244l-22 -131h-258l-97 -295h242l-22 -131h-265l-155 -492l-117 31l145 461h-278l-156 -492l-119 31l146 461h-244zM541 586h288l95 295h-289z" />
<glyph unicode="$" horiz-adv-x="1187" d="M188 262l150 90q22 -54 55 -96q25 -38 74 -74q46 -34 111 -43l92 520q-50 26 -115 66q-57 36 -96 80q-44 51 -66 104q-24 59 -24 138t30 153q29 71 90 129q54 52 140 92q76 36 182 39l31 168h104l-31 -176q83 -16 140 -45q52 -26 98 -66q47 -41 76 -86l-135 -104 q-17 27 -54 61q-56 43 -63 48q-40 26 -86 34l-88 -491l14 -6q84 -45 121 -70q57 -38 92 -82q41 -51 60 -104q22 -61 22 -135q0 -93 -33 -166q-37 -82 -94 -136q-60 -57 -143 -92q-81 -34 -180 -37l-29 -168h-105l31 175l-2 -7q-100 15 -172 62q-68 45 -113 96 q-55 62 -84 129zM543 1032q0 -67 43 -110q42 -43 119 -86l77 444q-48 -6 -92 -27t-74 -51q-31 -31 -49 -74q-18 -44 -18 -94zM690 135q45 8 92 31q44 21 78 55q35 35 53 78q19 46 19 96l-2 -4q0 74 -43 123q-42 48 -115 90z" />
<glyph unicode="%" horiz-adv-x="1458" d="M180 -4l1227 1491l86 -68l-1227 -1491zM238 1104q0 87 32 147q35 66 86 111q55 49 117 72q65 24 125 24v-2q133 0 215 -76t82 -202q0 -86 -33 -148q-34 -64 -86 -110t-117 -70q-67 -25 -124 -25q-134 0 -216 76q-81 75 -81 203zM360 1100q0 -69 50 -119q49 -49 127 -49 v-2q51 0 92 20q42 20 73 56q35 40 50 77q18 43 18 93q0 71 -49 120q-50 50 -127 50q-48 0 -92 -21q-45 -22 -74 -55q-32 -37 -49 -78q-19 -46 -19 -92zM803 252q0 85 33 147q35 66 86 111q56 50 116 72q64 24 125 24v-2q133 0 215 -76t82 -202q0 -86 -33 -148 q-34 -64 -86 -110t-116 -70q-67 -25 -125 -25q-133 0 -215 76t-82 203zM926 248q0 -70 49 -119t127 -49v-2q51 0 92 20q44 21 74 56q33 38 49 77q18 43 18 93q0 71 -49 120q-50 50 -127 50q-49 0 -92 -21q-45 -22 -74 -55q-32 -37 -49 -78q-18 -43 -18 -92z" />
<glyph unicode="&#x26;" horiz-adv-x="1435" d="M174 268q0 62 23 123t69 115q52 62 123 121q70 58 182 141q-165 165 -165 317q0 55 22 123q21 63 72 121q47 53 127 92q75 37 188 37q81 0 143 -24q61 -24 103 -66q40 -40 61 -92t21 -111q0 -55 -15 -98t-51 -88q-34 -42 -98 -100q-33 -30 -158 -131l297 -324 q23 26 43 74q22 58 37 110q23 77 37 178h160l-9 -4q-13 -126 -38 -209q-23 -76 -56 -147q-36 -74 -73 -119l200 -213l-116 -117l-195 205q-50 -46 -111 -84q-65 -40 -131 -65q-75 -29 -145 -43q-73 -15 -148 -15q-88 0 -165 25q-72 23 -127 66q-54 42 -80 92q-27 52 -27 110 zM334 293q0 -46 24 -76q26 -32 64 -49q49 -22 86 -29q41 -8 92 -8v-4q54 0 109 12t108 33q42 17 98 53q45 29 84 68l-321 358q-170 -128 -252 -205q-92 -86 -92 -153zM569 1075q0 -30 13 -59q13 -30 30 -55q20 -31 43 -56q44 -50 50 -57l129 102q49 40 77 68q30 30 41 55 q13 29 13 74q0 26 -13 55q-14 31 -32 49q-22 22 -54 35q-30 12 -67 12l-6 -4q-46 0 -84 -14q-43 -16 -72 -45q-32 -32 -49 -70q-19 -43 -19 -90z" />
<glyph unicode="'" horiz-adv-x="307" d="M250 946l84 488h143l-84 -488h-143z" />
<glyph unicode="(" horiz-adv-x="630" d="M219 328q0 177 35 338q36 165 98 307q67 153 156 287q87 131 207 270l112 -90q-100 -115 -184 -240q-83 -123 -141 -258q-56 -129 -92 -283q-33 -141 -33 -313q0 -161 41 -301q43 -146 110 -289l-141 -71v-2q-81 163 -125 325q-43 157 -43 320z" />
<glyph unicode=")" horiz-adv-x="630" d="M16 -233v-3q101 116 185 244q83 126 141 264q61 143 90 287q31 152 31 311q0 165 -41 308q-40 141 -111 288l138 68q82 -166 129 -326q47 -161 47 -334q0 -174 -35 -335q-36 -166 -98 -310q-62 -145 -154 -288q-90 -140 -203 -271z" />
<glyph unicode="*" horiz-adv-x="815" d="M258 1159l45 119l254 -90l47 270h123l-47 -270l246 86l41 -119l-269 -80l121 -215l-108 -65l-113 217l-195 -224l-94 76l193 215z" />
<glyph unicode="+" d="M135 418l27 151h393l70 402h155l-69 -402h401l-27 -151h-401l-74 -418h-155l73 418h-393z" />
<glyph unicode="," horiz-adv-x="468" d="M0 -281l242 469l145 -73l-254 -465z" />
<glyph unicode="-" horiz-adv-x="681" d="M141 418l29 164h547l-29 -164h-547z" />
<glyph unicode="." horiz-adv-x="471" d="M133 92q0 45 35 80t80 35t80 -35q34 -34 34 -80t-34 -80q-35 -35 -80 -35t-80 35t-35 80z" />
<glyph unicode="/" horiz-adv-x="1017" d="M8 -207l1135 1837l125 -78l-1137 -1837z" />
<glyph unicode="0" horiz-adv-x="1212" d="M199 494q0 109 14 213q15 111 45 219q29 105 80 202t121 170t166 117q93 43 215 43l-4 -2q108 0 188 -41q81 -41 135 -110t82 -166q29 -101 29 -203q0 -104 -15 -215q-14 -107 -45 -217q-30 -107 -80 -203q-50 -95 -120 -168t-166 -117q-93 -43 -215 -43q-107 0 -187 41 q-80 40 -135 111q-54 69 -82 166q-26 91 -26 203zM362 516q0 -76 15 -147q15 -72 49 -123q35 -53 86 -82q54 -31 129 -31l-6 2q82 0 149 37q69 38 117 98q46 57 86 142t60 166q21 85 30 172q10 95 10 163q0 82 -14 148q-15 71 -45 123q-31 53 -84 84q-52 30 -129 30 q-85 0 -147 -36q-66 -39 -115 -99q-47 -58 -86 -141q-36 -75 -61 -166q-24 -86 -33 -174q-11 -108 -11 -166z" />
<glyph unicode="1" horiz-adv-x="829" d="M223 1124l445 310h168l-252 -1434h-172l213 1208l-312 -217z" />
<glyph unicode="2" horiz-adv-x="1089" d="M106 0l623 672l57 65q36 39 80 99q47 65 72 118q31 67 31 129q0 90 -62 152q-61 61 -178 61q-85 0 -143 -34t-92 -74q-43 -52 -66 -109l-152 58q35 91 95 159q37 41 61 60q39 30 80 49q55 25 100 37q52 14 121 14q98 0 172 -26q77 -27 129 -76q55 -52 84 -117 q31 -70 31 -150q0 -69 -21 -131q-16 -48 -53 -112q-27 -48 -65 -92l-58 -72q-8 -11 -37 -43l-61 -68l-76 -84l-82 -90l-215 -235h541l-27 -160h-889z" />
<glyph unicode="3" horiz-adv-x="1114" d="M178 301l152 72q21 -66 61 -117q32 -42 90 -82q55 -37 144 -37q75 0 139 25q59 23 104 65t66 97q22 58 22 116q0 98 -73 156q-72 57 -209 57h-88l28 158h64l-21 8q56 0 121 19q60 18 111 53q51 36 80 86q30 53 30 127q0 89 -65 145t-166 56q-80 0 -137 -31 q-52 -28 -88 -64q-40 -40 -64 -92l-143 68q39 79 96 139q52 53 135 96q82 43 203 43q75 0 152 -22q70 -20 129 -66q56 -44 90 -110q35 -68 35 -160q0 -78 -27 -143q-25 -61 -66 -111q-40 -49 -77 -74q-45 -30 -64 -37q14 -3 43 -18q34 -17 62 -49q34 -39 55 -88 q24 -56 24 -137q0 -105 -39 -187q-42 -89 -106 -147q-69 -63 -160 -97q-90 -34 -196 -34q-67 0 -123 12q-48 10 -99 35q-38 18 -77 49q-29 23 -58 59q-61 73 -90 162z" />
<glyph unicode="4" horiz-adv-x="1150" d="M70 377l931 1057h175l-158 -897h178l-29 -160h-178l-65 -377h-168l65 377h-751zM406 537h444l113 634z" />
<glyph unicode="5" horiz-adv-x="1177" d="M178 295l152 72q21 -66 61 -117q33 -44 92 -82q58 -37 148 -37q69 0 139 25q68 24 117 73q50 50 80 123t30 170q0 64 -24 113q-25 51 -64 80q-46 34 -92 47q-56 16 -110 16q-70 0 -144 -22q-63 -19 -125 -49q-71 -38 -123 -74l140 803h819l-27 -160h-653l-68 -379 q31 15 60 23q32 11 71 16q43 6 99 6q78 0 151 -24q72 -24 133 -78q58 -52 95 -131q36 -76 36 -185v2q0 -118 -41 -221t-112 -174q-72 -72 -172 -113t-213 -41q-63 0 -123 13q-43 9 -100 35q-41 19 -80 49q-34 27 -60 59q-62 71 -92 162z" />
<glyph unicode="6" horiz-adv-x="1110" d="M160 387q0 91 41 184q42 95 98 174q13 16 45 62l74 98l92 121l100 129l256 328l135 -94l-370 -474l-13 3q21 0 31 2q16 4 29 4h31q94 0 170 -31q74 -30 127 -86q52 -55 79 -131t27 -166q0 -106 -39 -197q-42 -98 -110 -172q-70 -76 -166 -123q-91 -45 -209 -45 q-98 0 -180 31q-80 30 -136 86q-58 58 -84 131q-28 79 -28 166zM322 385q0 -105 67 -178q68 -74 191 -74q76 0 141 35q64 34 110 86q47 53 74 121q27 67 27 135q0 107 -64 180q-65 74 -186 74l-4 -6q-79 0 -141 -33q-64 -34 -113 -86t-76 -119q-26 -65 -26 -135z" />
<glyph unicode="7" horiz-adv-x="1036" d="M141 43l848 1231h-713l29 160h995l-1021 -1471z" />
<glyph unicode="8" horiz-adv-x="1130" d="M193 360q0 68 18 132q18 66 55 120q39 57 92 99q57 45 123 71q-56 41 -86 105t-30 139q0 87 32 158q36 80 95 139q60 60 143 98q81 37 180 37l-16 -6q95 0 168 -31q68 -29 116 -80t68 -110t20 -125q0 -112 -61 -203q-63 -94 -168 -139q72 -40 119 -123q45 -80 45 -184 q0 -98 -37 -185q-37 -89 -104 -155q-65 -65 -160 -107q-88 -39 -203 -39q-99 0 -178 31q-76 30 -129 86q-55 59 -78 125q-24 71 -24 147zM352 354q0 -40 17 -86q14 -38 47 -71q34 -34 73 -50q44 -18 103 -18v-4q69 0 135 29q61 27 104 73q44 47 68 105q25 61 25 121 q0 47 -15 90t-45 73q-34 34 -76 50q-47 18 -104 18q-69 0 -135 -29q-62 -27 -105 -73t-67 -105q-25 -61 -25 -123zM524 1016q0 -83 56 -133q55 -49 141 -49l-2 -5q53 0 102 21q50 21 86 57q41 41 60 86q22 52 22 107q0 81 -55 133q-56 53 -137 53q-58 0 -105 -20 q-49 -21 -86 -58q-39 -39 -59 -86q-23 -54 -23 -106z" />
<glyph unicode="9" horiz-adv-x="1110" d="M242 924q0 97 39 188q42 98 110 172q73 80 168 127q98 49 215 49q102 0 182 -30q79 -30 136 -87q58 -58 84 -131q28 -79 28 -165q0 -92 -35 -179q-36 -89 -92 -168q-9 -12 -49 -63l-76 -98l-96 -121l-102 -129l-269 -332l-127 94l390 475l-35 -6q-21 -6 -54 -6 q-103 0 -182 31q-76 30 -129 86t-80 129q-26 71 -26 164zM414 924q0 -110 63 -179q65 -71 187 -71l2 -4q76 0 141 30q64 30 115 84q46 49 75 121q27 67 27 142q0 104 -68 178q-67 73 -190 73q-72 0 -137 -30q-60 -28 -113 -84q-48 -51 -76 -121q-26 -65 -26 -139z" />
<glyph unicode=":" horiz-adv-x="483" d="M139 92q0 45 35 80t80 35t80 -35t35 -80t-35 -80t-80 -35t-80 35t-35 80zM274 854q0 45 35 80t80 35t80 -35t35 -80t-35 -80t-80 -35t-80 35t-35 80z" />
<glyph unicode=";" horiz-adv-x="471" d="M-2 -281l242 469l145 -73l-254 -465zM289 854q0 45 35 80t79 35q45 0 80 -35t35 -80t-35 -80t-80 -35q-44 0 -79 35t-35 80z" />
<glyph unicode="&#x3c;" d="M121 481l26 146l1016 395l-28 -170l-799 -305l690 -303l-27 -160z" />
<glyph unicode="=" d="M158 256l26 152h840l-27 -152h-839zM215 580l27 151h839l-26 -151h-840z" />
<glyph unicode="&#x3e;" d="M98 88l29 172l797 303l-688 305l28 166l875 -407l-25 -142z" />
<glyph unicode="?" horiz-adv-x="987" d="M242 1171q39 86 100 150q51 54 139 102q86 47 213 47q74 0 148 -22q70 -21 123 -68t86 -112q32 -63 32 -154q0 -51 -8 -92q-9 -45 -33 -92q-26 -50 -69 -96q-47 -50 -123 -105l-105 -76q-36 -24 -61 -49q-21 -21 -27 -43t-12 -55l-22 -131h-162l24 141q7 38 19 86 q10 38 26 62q18 27 54 55q55 43 98 72l-8 14q76 53 123 90q45 36 69 74t33 71q8 31 8 80q0 38 -12 72q-11 31 -41 61q-28 28 -68 43q-46 17 -92 17q-89 0 -145 -33q-61 -36 -96 -74q-45 -48 -68 -104zM391 102q0 45 35 80t80 35t80 -35t35 -80q0 -44 -35 -79 q-33 -33 -80 -33q-45 0 -80 35q-33 33 -33 79z" />
<glyph unicode="@" horiz-adv-x="1636" d="M209 582q0 189 67 344q66 153 183 270q115 115 264 176q151 62 315 62q131 0 244 -39q116 -40 205 -117q90 -78 141 -186q53 -112 53 -252q0 -169 -36 -273q-38 -110 -95 -170q-60 -63 -125 -86q-67 -24 -129 -24t-120 28q-56 27 -68 103q-26 -41 -61 -66 q-38 -27 -86 -43q-53 -18 -125 -18q-40 0 -86 16q-36 13 -76 47q-35 30 -56 74q-20 41 -20 98q0 60 25 115q23 50 71 92q47 41 109 62q64 22 135 22q48 0 86 -12q41 -13 66 -27q31 -16 57 -39l4 41l4 33q2 10 2 23q0 48 -14 73q-15 27 -37 43q-25 18 -49 23q-27 6 -56 6 q-50 0 -94 -12q-38 -10 -76 -27q-23 -11 -69 -39l-60 109q55 33 89 47q52 23 96 35q59 16 114 16q134 0 213 -61q80 -62 80 -170v-21q0 -11 -6 -49l-18 -107l-33 -190q-2 -6 -2 -25q0 -35 25 -51q22 -14 57 -14q27 0 67 18t78 68q40 53 66 135t26 217q0 109 -36 191 q-38 85 -105 147t-162 96q-96 35 -204 35q-143 0 -273 -53q-126 -51 -223 -148q-94 -94 -150 -227q-55 -131 -55 -291q0 -110 37 -200q39 -95 104 -160q64 -64 164 -107q91 -39 213 -39q115 0 207 25q80 22 148 53l51 -110l-17 -29q-79 -39 -172 -66q-102 -30 -233 -30 q-134 0 -252 47t-203 129q-84 81 -135 201q-49 116 -49 258zM727 520q0 -61 39 -90q42 -31 98 -31v-2q58 0 105 21q45 21 73 45q35 27 56 65l14 82q-26 22 -49 35q-29 15 -59 25q-34 12 -80 12q-88 0 -142 -45q-55 -46 -55 -117z" />
<glyph unicode="A" horiz-adv-x="1314" d="M16 0l815 1434h160l307 -1434h-174l-82 387h-618l-217 -387h-191zM516 551h492l-134 643z" />
<glyph unicode="B" horiz-adv-x="1153" d="M168 0l252 1434l401 2q177 0 277 -86q98 -85 98 -226q0 -84 -18 -145q-17 -58 -50 -109q-29 -44 -67 -75q-46 -37 -76 -50q14 -3 43 -18q34 -17 62 -49q36 -41 53 -82q22 -52 22 -113q0 -106 -35 -196q-36 -92 -98 -154t-160 -98q-96 -35 -215 -35h-489zM371 166h286h5 q81 0 145 22q61 21 102 62q43 43 62 94q20 53 20 117q0 86 -61 141t-197 55h-276zM489 817h263l-4 -2q124 0 202 78q76 76 76 197q0 85 -51 133q-52 49 -172 49h-234z" />
<glyph unicode="C" horiz-adv-x="1357" d="M188 621q0 175 68 329t178 264q113 113 256 177q145 65 301 65q138 0 238 -35q107 -37 164 -73q69 -46 125 -109l-123 -104l-9 -7q-40 43 -98 80q-70 36 -125 54q-73 24 -174 24q-105 0 -215 -43t-199 -129t-147 -211q-57 -123 -57 -289q0 -126 32 -208q36 -93 95 -152 q63 -63 143 -92q85 -31 184 -31q92 0 174 31q83 31 136 67q62 42 116 99l111 -123q-58 -65 -141 -117q-65 -43 -168 -82q-98 -37 -224 -37q-159 0 -276 51q-118 51 -199 142q-79 87 -123 207q-43 116 -43 252z" />
<glyph unicode="D" horiz-adv-x="1366" d="M168 0l252 1434h432l-2 -2q137 0 246 -50q110 -51 182 -131q71 -80 113 -194q39 -107 39 -238q0 -189 -58 -338q-59 -151 -166 -258q-108 -108 -260 -166q-149 -57 -346 -57h-432zM367 162h241h-4q140 0 256 43q118 44 201 127q82 82 129 207q47 124 47 278 q0 101 -27 184q-27 82 -84 142q-53 56 -139 92q-79 33 -196 33h-230z" />
<glyph unicode="E" horiz-adv-x="1114" d="M168 0l252 1434h827l-28 -164h-656l-80 -453h607l-29 -164h-606l-86 -489h667l-28 -164h-840z" />
<glyph unicode="F" horiz-adv-x="1071" d="M168 0l252 1434h809l-29 -164h-637l-80 -453h596l-28 -164h-596l-115 -653h-172z" />
<glyph unicode="G" horiz-adv-x="1464" d="M188 629q0 174 62 325q64 156 168 263q110 113 254 176t321 63q136 0 232 -35q102 -37 159 -73q72 -48 123 -109l-123 -113h-8q-46 50 -100 84q-54 33 -123 58q-71 26 -168 26q-117 0 -227 -43t-197 -127q-83 -81 -137 -206q-51 -119 -51 -285q0 -126 41 -219 q42 -95 104 -154q64 -61 152 -92t178 -31q84 0 160 13q62 11 116 28q56 21 99 45l67 395h-358l29 164h528l-115 -653q-55 -43 -139 -80q-81 -32 -166 -53q-103 -25 -221 -25q-139 0 -258 43t-209 127q-89 83 -141 205t-52 283z" />
<glyph unicode="H" horiz-adv-x="1398" d="M168 0l252 1434h172l-109 -617h719l109 617h172l-252 -1434h-172l115 653h-719l-115 -653h-172z" />
<glyph unicode="I" horiz-adv-x="565" d="M197 0l252 1434h172l-252 -1434h-172z" />
<glyph unicode="J" horiz-adv-x="970" d="M35 174l125 115q27 -39 67 -76q39 -30 80 -49q51 -23 105 -23q66 0 123 23q52 21 86 55q32 32 51 78q16 38 26 84l23 178l33 184l30 179l31 163l62 349h172l-185 -1051q-35 -196 -149 -301q-116 -107 -307 -107q-89 0 -162 31q-69 29 -117 68q-54 42 -94 100z" />
<glyph unicode="K" horiz-adv-x="1206" d="M168 0l252 1434h172l-117 -664l688 664h228l-729 -703l544 -731h-219l-522 705l-125 -705h-172z" />
<glyph unicode="L" horiz-adv-x="999" d="M168 0l252 1434h172l-223 -1270h643l-29 -164h-815z" />
<glyph unicode="M" horiz-adv-x="1658" d="M168 0l252 1434h162l372 -801l596 801h193l-252 -1434h-172l197 1120l-603 -794l-376 794l-197 -1120h-172z" />
<glyph unicode="N" horiz-adv-x="1454" d="M168 0l252 1434h162l581 -1147l203 1147h172l-252 -1434h-162l-581 1147l-203 -1147h-172z" />
<glyph unicode="O" horiz-adv-x="1572" d="M188 629q0 153 60 307q57 147 164 266q106 118 247 187t316 69h-8q166 0 288 -55q121 -54 205 -148q83 -92 123 -208q41 -118 41 -246q0 -161 -57 -307q-60 -153 -162 -267q-103 -115 -248 -186q-143 -70 -315 -70q-165 0 -289 56t-203 147q-81 93 -121 209 q-41 118 -41 246zM371 631q0 -113 30 -201t93 -154q58 -61 147 -100q84 -37 197 -37v-2q123 0 233 49q107 48 193 140q81 87 131 211q49 122 49 266q0 116 -33 201q-36 92 -94 153t-150 100q-87 37 -198 37q-124 0 -234 -49q-112 -50 -190 -137q-82 -91 -127 -211 q-47 -124 -47 -266z" />
<glyph unicode="P" horiz-adv-x="1081" d="M168 0l252 1434h371q192 0 307 -95q114 -95 114 -276q0 -124 -41 -217q-42 -96 -112 -154q-75 -63 -174 -92q-105 -31 -223 -31h-222l-100 -569h-172zM469 733h211h2q66 0 139 17q65 15 115 53q52 39 78 96q28 61 28 141q0 68 -24 111q-26 46 -64 72q-43 29 -92 37 q-58 10 -110 10h-189z" />
<glyph unicode="Q" horiz-adv-x="1619" d="M188 629q0 153 60 307q57 147 164 266q106 118 247 187t316 69l-6 -2q166 0 288 -55q121 -54 205 -148q82 -91 123 -209t41 -245q0 -161 -57 -301q-60 -147 -160 -262l172 -183l-123 -114l-172 182q-95 -71 -205 -111q-107 -39 -239 -39q-165 0 -289 56t-203 147 q-81 93 -121 209q-41 118 -41 246zM375 627q0 -110 31 -201q30 -89 92 -154q58 -61 147 -100q84 -37 197 -37q94 0 176 27q81 27 153 80l-182 194l121 115l186 -197q71 86 111 199q41 115 41 246q0 115 -33 200q-37 94 -94 154q-58 61 -150 100q-87 37 -198 37 q-124 0 -234 -49q-112 -50 -190 -137q-82 -91 -127 -211q-47 -124 -47 -266z" />
<glyph unicode="R" horiz-adv-x="1132" d="M166 0l252 1434l379 -2q92 0 174 -29q74 -26 129 -78q54 -51 78 -115t24 -139q0 -130 -43 -217q-43 -88 -104 -143q-62 -56 -135 -80q-77 -25 -140 -31l293 -600h-194l-285 586h-154l-102 -586h-172zM471 750h221h-2q160 0 252 77t92 213q0 111 -65 170q-66 60 -195 60 h-211z" />
<glyph unicode="S" horiz-adv-x="1110" d="M152 264l151 90q26 -60 68 -108q33 -38 90 -74q53 -33 137 -33l-2 -6q56 0 111 19q54 18 92 51q43 37 65 82q25 52 25 112q0 90 -64 148q-63 57 -161 106q-83 44 -123 68q-59 35 -105 78q-47 44 -74 102q-26 56 -26 141q0 79 35 154t96 133q59 56 145 92q84 35 179 35 q105 0 184 -31q78 -31 125 -69q54 -43 94 -105l-133 -102q-34 40 -74 74q-37 29 -84 49q-52 22 -112 22q-55 0 -105 -18q-49 -18 -88 -51t-63 -80q-25 -48 -25 -105q0 -45 18 -75q21 -35 56 -60q46 -33 86 -55l110 -57q69 -37 121 -72q53 -36 92 -84q40 -50 60 -105 q22 -61 22 -135q0 -95 -37 -170q-40 -81 -100 -133q-58 -50 -152 -88q-82 -33 -186 -33q-132 0 -215 45q-85 46 -137 101q-62 65 -96 147z" />
<glyph unicode="T" horiz-adv-x="1052" d="M252 1270l29 164h995l-29 -164h-411l-224 -1270h-172l224 1270h-412z" />
<glyph unicode="U" horiz-adv-x="1380" d="M256 307q-8 44 -8 94q0 61 12 131l160 906h172l-47 -271l-51 -286l-60 -340q-12 -67 -12 -122q0 -21 2 -40q6 -70 37 -125q29 -51 92 -82q64 -31 158 -31q90 0 166 31q69 28 124 86q51 53 86 129q35 75 50 160l57 338l51 282l47 267h172l-159 -906q-21 -122 -70 -223 q-48 -99 -123 -174q-73 -73 -174 -113q-103 -41 -227 -41q-134 0 -230 41q-95 41 -151 115q-56 75 -74 174z" />
<glyph unicode="V" horiz-adv-x="1212" d="M260 1434h178l230 -1051l600 1051h188l-858 -1475z" />
<glyph unicode="W" horiz-adv-x="1945" d="M268 1434h183l186 -1000l532 1000h119l174 -1000l549 1000h187l-814 -1475l-213 1128l-612 -1128z" />
<glyph unicode="X" horiz-adv-x="1208" d="M37 0l592 741l-310 693h191l244 -557l438 557h201l-551 -693l332 -741h-195l-262 602l-475 -602h-205z" />
<glyph unicode="Y" horiz-adv-x="1187" d="M276 1434h181l262 -705l502 705h194l-637 -871l-98 -563h-172l98 563z" />
<glyph unicode="Z" horiz-adv-x="1171" d="M37 0l1016 1270h-760l29 164h1062l-1017 -1270h755l-28 -164h-1057z" />
<glyph unicode="[" horiz-adv-x="641" d="M72 -471l348 1987h385l-25 -136h-233l-301 -1716h233l-24 -135h-383z" />
<glyph unicode="\" horiz-adv-x="1017" d="M293 1581l149 45l496 -1853l-150 -45z" />
<glyph unicode="]" horiz-adv-x="641" d="M20 -471l25 135h231l302 1716h-234l25 136h385l-351 -1987h-383z" />
<glyph unicode="^" horiz-adv-x="1097" d="M186 717l566 831h139l276 -831h-176l-196 618l-418 -618h-191z" />
<glyph unicode="_" horiz-adv-x="1024" d="M0 -471l31 164h852l-31 -164h-852z" />
<glyph unicode="`" horiz-adv-x="540" d="M281 1384l106 107l305 -305l-104 -96z" />
<glyph unicode="a" horiz-adv-x="1048" d="M141 270q0 69 31 136q28 61 90 110q60 47 135 74q74 26 166 26q65 0 117 -12q36 -8 88 -29q26 -12 76 -43l10 60q5 30 5 54q0 37 -11 63q-17 42 -49 67t-70 31q-41 6 -67 6q-56 0 -111 -12q-49 -11 -100 -27q-33 -9 -99 -35l-53 150q67 30 100 41q54 17 111 28 q70 13 141 13l4 -2q112 0 191 -31q77 -30 121 -80t59 -115q8 -33 8 -68q0 -30 -6 -61l-106 -612h-158l22 137q-38 -43 -92 -82q-48 -33 -104 -55q-64 -25 -139 -25q-60 0 -119 19q-56 18 -99 55t-67 92q-25 58 -25 127zM311 268q0 -36 17 -67q14 -24 41 -45q26 -19 59 -25 q34 -6 68 -6v-2q58 0 116 22q51 19 97 50q48 29 90 71l22 133q-26 17 -65 33q-37 15 -74 25q-44 12 -96 12q-50 0 -99 -12q-43 -10 -88 -37q-38 -22 -63 -62q-25 -39 -25 -90z" />
<glyph unicode="b" horiz-adv-x="1169" d="M172 0l272 1548h172l-124 -708q36 40 83 65q41 24 99 45t135 21l2 -2q81 0 154 -31q68 -29 122 -86q52 -55 82 -135q31 -82 31 -174q0 -120 -39 -221q-41 -106 -110 -181q-72 -78 -168 -123t-219 -45q-78 0 -136 27t-98 61q-47 38 -76 86l-24 -147h-158zM393 297l4 -4 q20 -44 58 -82q31 -31 80 -55q52 -25 122 -25q86 0 154 35q69 35 115 90q47 56 71 129q25 77 25 154q0 115 -68 192q-67 76 -192 76q-69 0 -127 -25q-52 -23 -96 -55q-51 -41 -84 -82z" />
<glyph unicode="c" horiz-adv-x="976" d="M139 395q0 119 45 221q46 104 123 181t178 123q99 45 215 45q96 0 164 -27q70 -28 115 -57q56 -40 90 -82l-127 -109q-21 34 -55 58q-29 23 -74 40q-49 19 -111 19q-82 0 -149 -33q-71 -34 -123 -90q-52 -55 -82 -129q-31 -76 -31 -154q0 -115 68 -192q67 -76 195 -76 q62 0 120 23q52 21 91 49q39 27 75 69l107 -116l-8 -11q-44 -50 -105 -92q-51 -33 -123 -61q-70 -27 -166 -27q-107 0 -188 35t-135 92q-55 58 -82 135t-27 166z" />
<glyph unicode="d" horiz-adv-x="1169" d="M141 401q0 108 37 209q38 103 109 183q70 79 170 129q98 49 219 49l-4 -4q72 0 133 -23q50 -19 92 -49q48 -38 72 -74l129 723h172l-273 -1548h-157l24 139q-35 -43 -86 -82q-48 -33 -104 -55q-64 -25 -144 -25q-75 0 -151 29q-68 26 -123 84t-84 135q-31 82 -31 180z M313 393q0 -114 68 -188t192 -74q67 0 125 25q55 24 97 55q44 32 79 80l66 366l2 -6q-23 39 -61 74q-44 35 -82 53q-52 25 -119 25q-83 0 -148 -33q-67 -34 -116 -92t-76 -131t-27 -154z" />
<glyph unicode="e" d="M145 397q0 120 43 224q44 106 117 182q74 77 172 123q96 45 209 45l-6 -4q90 0 166 -27q74 -26 131 -80t86 -125q31 -76 31 -168q0 -31 -7 -78q-3 -21 -16 -79h-754q-1 -11 -1 -23q0 -37 12 -78q14 -47 49 -88q33 -39 86 -63q55 -25 117 -25q67 0 131 23q53 19 98 49 q43 28 80 71l108 -116q-50 -53 -112 -92q-59 -36 -131 -62q-82 -29 -174 -29q-97 0 -179 31q-77 29 -137 86q-57 54 -88 133t-31 170zM332 551h592v-4q1 8 1 16q0 33 -10 70q-12 47 -38 86q-25 37 -78 63q-52 25 -119 25q-78 0 -139 -25q-63 -26 -103 -63q-41 -39 -69 -86 q-30 -51 -37 -82z" />
<glyph unicode="f" horiz-adv-x="702" d="M170 791l27 155l209 -2l57 326q27 150 117 225q89 74 202 74q46 0 84 -6q29 -5 66 -17q26 -8 51 -22l-68 -144l-36 15q-13 5 -37 12q-21 6 -43 6q-69 0 -113 -41q-43 -40 -55 -110l-56 -316h246l-26 -155h-246l-139 -791h-172l139 791h-207z" />
<glyph unicode="g" horiz-adv-x="1132" d="M31 -315l110 131q39 -42 88 -76q41 -27 99 -51q61 -25 129 -25q145 0 243 82q100 83 127 242l23 125h-10q-35 -41 -80 -70q-45 -30 -98 -49q-58 -21 -140 -21q-71 0 -147 29q-66 25 -125 84q-56 56 -86 135q-31 82 -31 180q0 106 37 207q38 103 109 183q70 79 170 129 q98 49 219 49q80 0 141 -25q53 -22 98 -55q49 -39 74 -80l25 137h157l-168 -950q-46 -248 -184 -371t-358 -123q-97 0 -179 29q-81 28 -133 61q-62 39 -110 93zM303 401q0 -113 68 -190q67 -76 194 -76q67 0 125 25q52 23 96 55q49 36 84 80l66 367l-2 -3q-22 37 -62 74 q-46 36 -81 53q-52 25 -121 25q-83 0 -148 -33q-67 -34 -116 -92t-76 -131t-27 -154z" />
<glyph unicode="h" horiz-adv-x="1105" d="M168 2l272 1548h172l-127 -719l41 39q30 30 62 48q39 22 86 36q56 17 106 17l-2 2q67 0 131 -25t105 -69q43 -46 61 -113q11 -39 11 -83q0 -35 -7 -73l-106 -608h-172l102 580q6 35 6 64q0 73 -37 112q-52 55 -153 55q-59 0 -111 -25q-44 -21 -82 -51q-40 -34 -69 -73 l-117 -662h-172z" />
<glyph unicode="i" horiz-adv-x="495" d="M162 0l166 946h172l-166 -946h-172zM330 1249q0 45 35 80t79 35q45 0 80 -35t35 -80t-35 -80q-34 -34 -80 -34q-45 0 -79 34q-35 35 -35 80z" />
<glyph unicode="j" horiz-adv-x="526" d="M-109 -455l66 144l2 -8q6 -4 35 -15q21 -8 49 -8q13 0 37 4q19 3 35 19q17 17 28 45q16 40 23 79l199 1137h172l-203 -1153q-15 -81 -43 -139q-25 -51 -68 -88q-38 -33 -86 -45q-50 -13 -92 -13q-34 0 -74 9q-42 9 -80 32zM365 1241q0 46 34 80q35 35 80 35t80 -35 t35 -80t-35 -80t-80 -35t-80 35q-34 34 -34 80z" />
<glyph unicode="k" horiz-adv-x="1011" d="M168 0l272 1548h172l-178 -1007l459 405h244l-523 -452l394 -494h-220l-368 459l-80 -459h-172z" />
<glyph unicode="l" horiz-adv-x="507" d="M168 0l272 1548h172l-272 -1548h-172z" />
<glyph unicode="m" horiz-adv-x="1589" d="M133 -4l166 946h160l-27 -145q26 45 68 84q35 35 86 61q52 27 129 27q83 0 135 -27q54 -28 80 -61q34 -37 49 -86q29 48 76 86q40 34 98 61q63 29 141 29l2 -8q63 0 121 -25q55 -24 92 -70q40 -50 54 -112q8 -34 8 -73t-8 -83l-107 -608h-172l102 581q7 38 7 71 q0 159 -166 159q-49 0 -94 -25t-74 -51q-38 -35 -64 -74l-114 -659h-172l102 581q7 38 7 70q0 160 -167 160q-49 0 -94 -25t-74 -51q-35 -33 -63 -74l-115 -659h-172z" />
<glyph unicode="n" horiz-adv-x="1069" d="M131 2l166 946h160l-23 -133q39 45 86 78q50 33 98 53q61 25 130 25v-2q65 0 129 -25q61 -24 104 -70q44 -47 61 -112q11 -41 11 -87q0 -33 -6 -69l-107 -608h-172l102 580q6 35 6 65q0 75 -38 113q-55 55 -156 55q-53 0 -107 -23q-40 -17 -81 -49q-43 -37 -74 -73 l-117 -664h-172z" />
<glyph unicode="o" horiz-adv-x="1105" d="M150 410q0 106 38 202q40 101 111 181t172 129t227 49v-2q109 0 185 -33q81 -35 135 -92q57 -60 84 -139q28 -82 28 -177q0 -105 -38 -198q-40 -98 -111 -178t-172 -129q-103 -50 -227 -50q-103 0 -185 31q-77 29 -135 90q-57 60 -84 139q-28 82 -28 177zM315 412 q0 -66 23 -123q20 -50 59 -86q35 -32 84 -51t99 -19l-7 2q88 0 160 35t121 90q50 56 74 127t24 141q0 73 -20 123q-21 52 -58 86q-41 38 -83 54q-47 18 -99 18q-90 0 -160 -37q-68 -36 -118 -92t-74 -127q-25 -73 -25 -141z" />
<glyph unicode="p" horiz-adv-x="1132" d="M47 -469l250 1417h158l-23 -129q34 40 86 74q52 32 105 53q64 25 147 25h6q81 0 154 -31q70 -30 123 -86t80 -135q28 -82 28 -174q0 -120 -39 -221q-41 -106 -110 -181q-70 -76 -166 -123q-91 -45 -209 -45q-71 0 -135 23q-55 20 -99 49q-39 25 -79 72l-105 -588h-172z M354 285q22 -36 66 -76q38 -30 82 -51q52 -25 114 -25q86 0 154 35q68 34 117 90q50 56 74 129q24 74 24 154q0 116 -67 192t-193 76q-69 0 -127 -25q-52 -23 -96 -55q-48 -38 -80 -82l-64 -360z" />
<glyph unicode="q" horiz-adv-x="1132" d="M139 399q0 108 37 209q38 103 109 183q72 81 168 129q98 49 221 49q80 0 141 -25q56 -23 96 -55q48 -41 72 -80l25 137h157l-252 -1423h-172l101 571q-34 -34 -84 -63q-50 -26 -99 -41q-62 -19 -131 -19q-75 0 -151 29q-68 26 -123 84t-84 135q-31 82 -31 180zM311 391 q0 -114 68 -188t192 -74q67 0 125 25q55 24 97 55q44 32 79 80l66 366l4 -6q-23 39 -61 74q-44 35 -82 53q-52 25 -119 25q-85 0 -150 -33q-67 -34 -116 -92t-76 -131t-27 -154z" />
<glyph unicode="r" horiz-adv-x="696" d="M133 -2l166 946h160l-25 -145q28 43 72 84q35 35 86 61q52 27 123 27l4 -6q27 0 59 -4q4 -1 43 -7q25 -7 37 -12l-70 -156l-34 11q-15 3 -39 6q-32 4 -51 4q-56 0 -101 -25q-28 -15 -76 -53q-38 -38 -67 -80l-115 -651h-172z" />
<glyph unicode="s" horiz-adv-x="931" d="M98 166l119 115l-12 -15q26 -38 74 -76q41 -29 90 -49q55 -22 123 -22q34 0 79 10q34 7 74 25q33 14 53 41q19 25 19 59q0 55 -45 78q-54 28 -154 53q-64 15 -117 39q-54 25 -92 57q-40 34 -61 78q-23 48 -23 103q0 54 25 112q23 53 72 96t114 66q70 25 154 25 q88 0 155 -21q65 -20 113 -45q49 -25 90 -66l-100 -122q-40 31 -74 49q-46 24 -80 35q-50 16 -98 16q-97 0 -145 -39q-50 -41 -50 -92q0 -50 43 -74q50 -27 152 -53q24 -6 113 -35q51 -16 98 -49q43 -30 67 -76q25 -48 25 -110q0 -77 -35 -136q-34 -59 -90 -96 q-54 -36 -127 -55q-74 -19 -145 -19q-101 0 -180 31q-69 27 -125 66q-59 40 -99 96z" />
<glyph unicode="t" horiz-adv-x="770" d="M168 791l27 155h200l51 289h172l-51 -289h295l-26 -155h-295l-90 -510q-4 -23 -4 -43q0 -39 16 -64q24 -37 84 -37q23 0 47 6q18 5 43 17q25 11 41 24l61 -141q-28 -19 -61 -33q-34 -14 -72 -22q-50 -11 -92 -11q-41 0 -90 19q-44 17 -82 55q-37 37 -55 96q-11 34 -11 73 q0 30 7 63l90 508h-205z" />
<glyph unicode="u" horiz-adv-x="1069" d="M190 274q0 11 3 29q2 10 12 84q2 17 31 197q17 108 65 362h172q-37 -196 -61 -340q-28 -165 -31 -190q-2 -16 -5 -36.5t-4.5 -32t-2.5 -17.5q-2 -14 -2 -27q0 -89 49 -129q50 -41 135 -41q56 0 108 25q43 21 84 53q37 32 74 78l115 655h172l-166 -946h-160l25 145 q-34 -49 -80 -86q-38 -32 -98 -57q-61 -25 -131 -25l4 7q-57 0 -113 18q-55 18 -98 55t-70 92q-27 56 -27 127z" />
<glyph unicode="v" horiz-adv-x="970" d="M178 946h182l179 -631l397 631h188l-647 -987z" />
<glyph unicode="w" horiz-adv-x="1519" d="M182 946h176l144 -612l360 612h123l141 -604l361 604h182l-606 -987l-186 711l-437 -711z" />
<glyph unicode="x" horiz-adv-x="1001" d="M45 0l432 485l-246 461h193l180 -350l293 350h203l-404 -465l260 -481h-194l-191 365l-311 -365h-215z" />
<glyph unicode="y" horiz-adv-x="1024" d="M-10 -438l73 145h-2q15 -15 33 -24q12 -7 35 -15q18 -6 41 -6q58 0 92 37q32 35 74 108l108 189l-274 948h192l199 -747l416 747h197l-349 -604l-129 -225l-114 -201l-84 -150l-39 -69q-58 -104 -129 -148q-70 -43 -154 -43q-38 0 -80 11q-30 8 -57 18q-22 10 -49 29z " />
<glyph unicode="z" horiz-adv-x="962" d="M70 0l659 786h-493l28 160h801l-657 -786h514l-29 -160h-823z" />
<glyph unicode="{" horiz-adv-x="638" d="M137 461l23 119q40 0 78 6q35 6 67 28q31 22 55 62q26 43 37 110l84 471q21 123 101 191t223 68h41l-27 -148l-24 -8q-60 0 -105 -31q-43 -30 -61 -131l-74 -418q-14 -75 -43 -131q-27 -52 -66 -80q-40 -29 -77 -37q-41 -9 -80 -12l-2 -8q41 -3 78 -12t65 -37 q27 -27 39 -80q12 -54 -2 -131l-74 -418q-9 -55 -4 -82q6 -31 21 -49q16 -19 41 -25q24 -6 55 -6h20l-26 -147h-41q-69 0 -119 24q-49 24 -76 64q-27 41 -33 94q-5 48 5 117l75 430q12 70 0 111q-11 39 -37 61q-27 24 -61 29q-38 6 -76 6z" />
<glyph unicode="|" horiz-adv-x="532" d="M100 -471l351 1987h163l-350 -1987h-164z" />
<glyph unicode="}" horiz-adv-x="638" d="M-25 -471l27 147h21q27 0 55 7q27 7 47 24q22 19 37 49q15 29 24 84l74 418q14 75 43 131q27 52 66 80q40 29 77 37q41 9 80 12l2 8q-30 2 -75 13q-37 9 -64 36t-39 80q-12 54 2 131l74 418q9 53 6 84t-18 49q-16 19 -39 25q-24 6 -56 6h-20l27 148h28q63 0 111 -25 q46 -24 76 -64q30 -41 39 -94q9 -55 0 -116l-76 -431q-12 -70 0 -110t37 -62q23 -20 61 -26t76 -6l-23 -119q-37 0 -75 -6t-68 -27q-32 -23 -55 -61q-25 -43 -37 -111l-84 -471q-21 -122 -92 -190t-228 -68h-41z" />
<glyph unicode="~" horiz-adv-x="880" d="M129 639l2 -10q24 52 64 92q37 37 86 65q54 31 129 31q42 0 77 -14q37 -15 72 -33l64 -33q28 -14 59 -14q46 0 76 18q29 17 49 41q22 29 31 62l114 -80q-20 -50 -59 -92q-37 -37 -86 -62q-54 -28 -129 -28q-43 0 -86 16q-37 14 -74 33l-63 33q-32 16 -58 16 q-43 0 -73 -18q-28 -16 -45 -41q-22 -29 -31 -62z" />
<glyph unicode="&#xa1;" horiz-adv-x="567" d="M113 -487l186 1062h172l-186 -1062h-172zM319 854q0 45 35 80t80 35t80 -35t35 -80l-2 -2q0 -47 -33 -80t-80 -33q-45 0 -80 35t-35 80z" />
<glyph unicode="&#xa2;" horiz-adv-x="1187" d="M258 408q0 108 41 208q42 102 111 177q70 76 161 122q93 47 197 56l31 174h104l-31 -176q71 -8 136 -35q48 -20 98 -53q47 -35 76 -74l-127 -109q-24 31 -51 50q-23 18 -68 38q-46 20 -94 23l-119 -674q54 3 108 29q38 18 82 49q40 29 68 61l106 -116l-4 4 q-46 -52 -104 -92q-54 -36 -123 -62q-73 -28 -166 -28l-28 -168h-105l31 178q-82 15 -142 55q-63 41 -104 94q-41 52 -63 123q-21 67 -21 146zM426 403q0 -97 49 -167q51 -72 141 -93l115 658q-69 -16 -121 -51q-54 -36 -96 -91q-40 -52 -61 -116q-23 -71 -23 -135z" />
<glyph unicode="&#xa3;" horiz-adv-x="1187" d="M139 66q19 43 56 86q22 28 71 67q42 33 103 49q32 28 61 68q27 45 41 78q18 44 18 102q0 39 -2 59q-3 34 -12 60h-225l22 131h154q-38 99 -47 127q-19 59 -19 121q0 90 33 166q35 80 99 141q63 60 153 98q87 37 203 37q103 0 176 -31q74 -31 117 -69q52 -46 86 -101 l-137 -106q-26 39 -64 74q-39 30 -80 49q-49 22 -104 22l-8 -4q-56 0 -111 -18q-53 -17 -98 -53q-44 -35 -70 -86q-27 -53 -27 -123q0 -30 7 -62q3 -14 16 -57q10 -35 24 -62l31 -69h355l-23 -131h-293l6 -31q3 -13 6 -37q2 -14 2 -49q0 -61 -14 -104q-11 -34 -31 -80 q-22 -39 -45 -68q34 -6 64 -27l61 -40q18 -13 62 -39q32 -19 65 -19q44 0 74 21q35 25 53 45q27 31 41 65l131 -88q-26 -55 -71 -104q-37 -39 -93 -70q-57 -31 -135 -31q-70 0 -121 23q-43 19 -84 49q-51 37 -73 49q-41 23 -86 23t-80 -21q-32 -20 -55 -49q-29 -33 -46 -70z " />
<glyph unicode="&#xa4;" horiz-adv-x="1187" d="M106 250l175 147q-50 92 -50 207q0 104 37 191q38 89 99 159l-113 133l125 105l115 -133l-2 -2q56 34 133 57q71 21 147 21q84 0 154 -25q67 -24 118 -63l168 143l99 -119l-166 -141q51 -96 51 -211q0 -106 -37 -193q-39 -93 -100 -159l110 -131l-125 -105l-108 131 q-128 -78 -281 -78q-82 0 -155 25q-72 24 -123 67l-170 -145zM383 600q0 -56 18 -106q17 -47 56 -86q37 -37 86 -58q47 -20 110 -20q77 0 148 30q66 28 125 84q52 49 88 123q33 67 33 152q0 116 -76 192t-199 76v2q-74 0 -147 -31t-123 -81q-51 -51 -86 -123 q-33 -67 -33 -154z" />
<glyph unicode="&#xa5;" horiz-adv-x="1187" d="M164 514l22 131h392l-56 143h-309l23 132h237l-194 514h180l262 -705l502 705h194l-375 -514h238l-23 -132h-311l-106 -143h391l-23 -131h-436l-90 -514h-172l90 514h-436z" />
<glyph unicode="&#xa6;" horiz-adv-x="532" d="M100 -471l142 799h164l-142 -799h-164zM309 717l142 799h163l-141 -799h-164z" />
<glyph unicode="&#xa7;" horiz-adv-x="1040" d="M141 -227l131 102q19 -31 50 -55q27 -23 61 -37q40 -16 90 -16h-12q39 0 80 12q35 10 73 37q36 25 56 61t20 84q0 42 -18 72t-49 55q-34 27 -72 47q-15 8 -86 49q-19 11 -90 60q-46 31 -74 67q-32 40 -49 84q-19 49 -19 105t23 110q20 47 59 86q38 38 86 64q55 30 105 49 q-71 53 -111 125q-41 74 -41 160q0 74 31 141q30 65 86 115t129 77q79 29 158 29q91 0 153 -26q61 -26 105 -58q50 -40 78 -84l-131 -102q-22 31 -50 53q-27 23 -61 37q-40 16 -90 16q-48 0 -94 -16q-41 -14 -70 -43t-43 -64q-16 -40 -16 -75q0 -42 18 -72t49 -55 q31 -24 72 -49l86 -50q28 -16 90 -59q44 -30 74 -68q34 -42 49 -79q18 -44 18 -95q0 -63 -20 -110t-60 -90q-38 -41 -86 -70q-58 -35 -104 -55q71 -52 109 -113q40 -64 40 -166q0 -75 -30 -139q-30 -65 -86 -115q-58 -52 -129 -78q-76 -28 -156 -28q-89 0 -151 24 q-60 23 -103 60q-51 41 -78 86zM397 526q0 -32 13 -61q14 -31 32 -49q23 -23 56 -43l73 -45l11 -6q34 8 80 28q30 13 73 47q35 27 56 68q22 42 22 88q0 55 -43 92q-37 32 -127 86l-8 4l-6 -2q-43 -10 -80 -26q-38 -17 -74 -45q-33 -26 -55 -62q-23 -38 -23 -74z" />
<glyph unicode="&#xa8;" horiz-adv-x="800" d="M319 1249q0 45 35 80t80 35t80 -35t35 -80t-35 -80q-34 -34 -80 -34t-80 34q-35 35 -35 80zM690 1249q0 45 35 80t80 35t80 -35t35 -80t-35 -80q-34 -34 -80 -34t-80 34q-35 35 -35 80z" />
<glyph unicode="&#xa9;" horiz-adv-x="1677" d="M223 604q0 175 62 332q61 155 172 272q112 118 264 185t336 67q145 0 264 -49t205 -135t133 -201t47 -244q0 -176 -61 -331q-62 -157 -172 -273q-109 -115 -265 -184q-154 -68 -334 -68q-143 0 -264 50q-117 48 -204 135q-89 89 -134 200q-47 115 -47 244h-2zM336 602 q0 -106 37 -196q38 -93 108 -160q73 -70 168 -109t217 -39q166 0 299 62q135 63 224 162q92 103 141 233q49 131 49 276q0 107 -37 197q-39 96 -106 160q-70 67 -166 108t-215 41l-8 -2q-166 0 -297 -61q-135 -63 -224 -162q-92 -103 -141 -233q-49 -131 -49 -277zM578 662 q0 82 30 165q30 81 90 148q55 61 140 104q80 41 176 41q79 0 135 -20q52 -19 94 -49q47 -32 72 -70l-98 -86q-22 25 -50 47q-30 19 -63 31q-43 16 -92 16q-66 0 -119 -26q-51 -25 -94 -74q-41 -47 -62 -105q-22 -61 -22 -118q0 -46 12 -86q13 -43 39 -72q29 -32 70 -49 q46 -19 100 -19q40 0 86 17q39 14 68 37q29 18 61 53l84 -96l2 -2q-34 -39 -84 -70q-45 -30 -98 -49q-59 -21 -129 -21q-75 0 -142 25q-61 23 -110 72t-72 110q-24 64 -24 146z" />
<glyph unicode="&#xaa;" horiz-adv-x="671" d="M246 1042q0 89 67 144t181 55q34 0 61 -6q34 -8 49 -14q27 -11 41 -21l8 37q9 54 -20 74q-31 22 -84 22q-35 0 -70 -6q-37 -6 -57 -14q-33 -11 -53 -21l-43 113q29 16 63 27q29 9 74 18q39 8 96 8l-6 -4q122 0 188 -57q69 -60 54 -154l-66 -364h-131l14 71 q-22 -25 -49 -43q-24 -17 -55 -28q-37 -13 -74 -13q-25 0 -67 11q-35 9 -62 30q-28 22 -43 56q-16 37 -16 79zM393 1049q0 -36 31 -48q30 -12 59 -12h-2q32 0 62 10q21 7 45 23q23 17 37 33l10 59q-13 5 -37 12q-30 6 -37 7q-28 4 -49 4q-40 0 -80 -21q-39 -20 -39 -67z" />
<glyph unicode="&#xab;" horiz-adv-x="999" d="M117 502l424 473l108 -103l-352 -378l235 -381l-129 -88zM492 492l458 483l109 -103l-385 -389l229 -370l-129 -88z" />
<glyph unicode="&#xac;" horiz-adv-x="1388" d="M197 864l28 160h1229l-108 -614h-156l80 454h-1073z" />
<glyph unicode="&#xad;" horiz-adv-x="681" d="M141 418l29 164h547l-29 -164h-547z" />
<glyph unicode="&#xae;" horiz-adv-x="923" d="M223 1028q0 108 41 195t107 147q67 62 153 96q87 35 183 35q84 0 149 -26q68 -27 117 -76t76 -117q26 -65 26 -143q0 -111 -39 -193q-41 -87 -104 -147q-65 -62 -152 -97q-79 -32 -180 -32q-79 0 -149 28q-68 27 -117 76q-48 48 -76 115q-27 65 -27 141zM326 1034 q0 -112 69 -184q71 -74 193 -74q75 0 145 25q68 24 121 71q51 45 82 115t31 154q0 111 -70 184q-71 74 -192 74l-3 4q-75 0 -145 -25q-67 -24 -119 -73t-82 -117t-30 -154zM475 895l70 393l180 -2q59 0 86 -37q29 -40 29 -75q0 -58 -35 -93q-34 -34 -78 -43l78 -143h-109 l-63 133h-37l-23 -133h-98zM612 1108h47h-2h27q17 0 29 6t22 19t10 32q0 29 -18 35t-39 6h-57z" />
<glyph unicode="&#xaf;" horiz-adv-x="643" d="M219 1171l25 142h618l-26 -142h-617z" />
<glyph unicode="&#xb0;" horiz-adv-x="679" d="M244 1135q0 66 26 122q27 58 72 103q46 46 102 72t123 26q64 0 119 -22q49 -19 86 -60q36 -39 53 -86q19 -52 19 -102l-2 -8q0 -64 -27 -123q-26 -56 -74 -101q-46 -43 -104 -67q-61 -25 -123 -25q-63 0 -117 23q-49 21 -84 59q-33 35 -51 86q-18 49 -18 103zM391 1122 q0 -55 33 -88t92 -33q30 0 62 13t55 33q28 24 41 55q16 37 16 76q0 57 -33 90q-35 35 -92 35l-2 -5q-31 0 -61 -12q-34 -13 -56 -33q-26 -23 -40 -55q-15 -34 -15 -76z" />
<glyph unicode="&#xb1;" d="M92 0l25 139h880l-24 -139h-881zM186 535l25 143h364l52 293h151l-51 -293h365l-25 -143h-365l-55 -306h-151l55 306h-365z" />
<glyph unicode="&#xb2;" horiz-adv-x="716" d="M203 803l401 371q52 49 98 104q48 57 48 129q0 52 -37 92q-38 41 -107 41q-52 0 -94 -22q-34 -18 -63 -50q-36 -46 -48 -73l-96 43q25 55 68 104q34 40 92 74q56 33 143 33q52 0 99 -15q43 -14 79 -45t56 -73q20 -41 20 -101q0 -85 -33 -141q-37 -63 -106 -129l-43 -47 l-80 -76l-113 -109h306l-21 -110h-569z" />
<glyph unicode="&#xb3;" horiz-adv-x="720" d="M246 993l100 49q9 -39 31 -71q19 -28 53 -49q35 -21 86 -21q30 0 68 10q29 7 61 29q28 18 43 49q17 34 17 70q0 55 -33 84q-36 31 -107 31h-49l19 106h34l-20 2q32 0 63 8q35 9 62 27q25 16 45 47q18 27 18 68q0 47 -37 81q-36 33 -96 33q-52 0 -86 -18q-33 -17 -55 -39 q-25 -25 -39 -57l-92 47q24 49 61 86q35 35 86 61q56 29 129 29q107 0 178 -62q72 -63 72 -161q0 -66 -39 -119q-40 -55 -104 -82q27 -9 49 -31q23 -23 35 -51q16 -37 16 -86q0 -58 -20 -105t-62 -86q-38 -35 -96 -57q-53 -20 -125 -20q-82 0 -135 30t-80 68q-36 42 -51 100 z" />
<glyph unicode="&#xb4;" horiz-adv-x="540" d="M279 1194l342 289l94 -113l-346 -280z" />
<glyph unicode="&#xb5;" horiz-adv-x="1081" d="M53 -475l166 934l33 190l53 295h172l-96 -538q-10 -65 -10 -78v-25q0 -89 49 -129q50 -41 135 -41q57 0 109 25q43 21 84 53q34 29 73 78l115 655h172l-166 -946h-154l25 145q-36 -47 -84 -86q-38 -32 -98 -57q-61 -25 -131 -25l2 -4q-104 0 -189 58l-88 -504h-172z" />
<glyph unicode="&#xb6;" horiz-adv-x="1265" d="M236 877q0 268 149 411q152 146 430 146h537l-322 -1819h-172l293 1659h-193l-292 -1659l-174 4l149 848q-76 0 -152 31q-73 30 -129 86t-90 129q-34 72 -34 164z" />
<glyph unicode="&#xb7;" horiz-adv-x="471" d="M244 717q0 45 35 80q34 34 79 34q46 0 80 -34q35 -35 35 -80t-35 -80t-80 -35q-44 0 -79 35t-35 80z" />
<glyph unicode="&#xb8;" horiz-adv-x="645" d="M102 -477l179 381l157 -13l-178 -411z" />
<glyph unicode="&#xb9;" horiz-adv-x="589" d="M268 1386l346 252h99l-146 -831h-114l116 666l-245 -177z" />
<glyph unicode="&#xba;" horiz-adv-x="679" d="M250 1128q0 64 24 123q24 58 68 105t102 74q56 26 127 26q124 0 199 -72q74 -71 74 -190q0 -62 -25 -123q-24 -58 -67 -104q-44 -47 -105 -74t-129 -27q-124 0 -196 72t-72 190zM375 1133q0 -67 43 -97q44 -30 102 -30q77 0 133 53t56 135q0 64 -43 98q-42 33 -101 33 l-4 2q-76 0 -131 -55t-55 -139z" />
<glyph unicode="&#xbb;" horiz-adv-x="999" d="M133 129l375 393l-236 363l131 90l293 -463l-452 -487zM518 119l365 393l-226 373l131 90l283 -473l-442 -488z" />
<glyph unicode="&#xbc;" horiz-adv-x="1699" d="M301 1182l346 252h98l-145 -832h-115l117 666l-246 -176zM385 2l1239 1499l78 -69l-1235 -1502zM981 190l555 641h111l-93 -530h111l-20 -111h-111l-33 -190h-115l33 190h-438zM1208 301h232l59 336z" />
<glyph unicode="&#xbd;" horiz-adv-x="1699" d="M287 -4l1239 1499l78 -70l-1235 -1501zM301 1176l346 251h98l-145 -831h-115l117 666l-246 -177zM1008 -4l401 371q52 49 98 104q47 56 47 129q0 53 -36 92q-38 41 -107 41q-52 0 -94 -22q-38 -20 -64 -49q-33 -42 -47 -74l-96 43q25 55 68 104q34 40 92 74q56 33 143 33 q51 0 98 -15q45 -14 80 -45q36 -31 56 -73q20 -41 20 -101q0 -85 -33 -141q-37 -63 -106 -129l-43 -47l-80 -76l-113 -109h305l-20 -110h-569z" />
<glyph unicode="&#xbe;" horiz-adv-x="1699" d="M231 788l101 50q9 -43 30 -72q18 -27 54 -49q35 -21 86 -21q25 0 67 11q33 9 62 28q28 19 43 49q16 32 16 70q0 55 -33 84q-36 31 -106 31h-49l18 106h35l-20 2q32 0 63 8q34 9 61 27q26 18 46 47q18 27 18 68q0 48 -37 82q-35 32 -96 32q-52 0 -86 -18q-33 -17 -55 -39 q-25 -25 -39 -57l-93 47q23 47 62 86q35 35 86 61q56 29 129 29q108 0 178 -61q72 -63 72 -162q0 -66 -39 -119q-40 -55 -105 -82q28 -10 50 -31q21 -21 34 -51q17 -39 17 -86q0 -55 -21 -104t-61 -86t-96 -58q-53 -20 -125 -20q-82 0 -136 31q-52 30 -79 67q-38 44 -52 100 zM385 2l1239 1499l78 -69l-1235 -1502zM983 190l555 641h111l-93 -530h111l-20 -111h-111l-33 -190h-114l32 190h-438zM1210 301h232l59 336z" />
<glyph unicode="&#xbf;" horiz-adv-x="987" d="M66 -168q0 51 8 92q9 48 32 92q23 45 72 97q44 46 123 104l105 76q36 24 61 49q23 23 29 43q6 22 12 55l22 131h162l-24 -141q-7 -38 -19 -86q-9 -36 -26 -61q-21 -32 -52 -56q-45 -35 -98 -71l2 -19q-93 -64 -123 -88q-45 -36 -69 -74q-25 -40 -33 -69q-8 -31 -8 -80 q0 -38 12 -72q11 -31 41 -61q29 -29 67 -43q46 -17 93 -17q89 0 145 33q61 36 96 74q45 48 68 104l143 -69q-39 -86 -100 -150q-51 -54 -139 -102q-86 -47 -213 -47q-74 0 -148 22q-70 21 -123 68t-86 112q-32 63 -32 154zM526 836q0 44 35 79t80 35q48 0 80 -32 q35 -35 35 -80l-2 -2q0 -47 -33 -80q-35 -35 -80 -35t-80 35t-35 80z" />
<glyph unicode="&#xc0;" horiz-adv-x="1314" d="M16 0l815 1434h160l307 -1434h-174l-82 387h-618l-217 -387h-191zM516 551h492l-134 643zM623 1817l106 106l305 -305l-104 -96z" />
<glyph unicode="&#xc1;" horiz-adv-x="1314" d="M16 0l815 1434h160l307 -1434h-174l-82 387h-618l-217 -387h-191zM516 551h492l-134 643zM795 1626l342 289l94 -113l-346 -280z" />
<glyph unicode="&#xc2;" horiz-adv-x="1314" d="M16 0l815 1434h160l307 -1434h-174l-82 387h-618l-217 -387h-191zM516 551h492l-134 643zM578 1647l362 241l320 -248l-99 -110l-231 188l-268 -192z" />
<glyph unicode="&#xc3;" horiz-adv-x="1314" d="M16 0l815 1434h160l307 -1434h-174l-82 387h-618l-217 -387h-191zM516 551h492l-134 643zM580 1655h4q21 49 55 86q26 33 74 61q47 27 110 27q42 0 74 -14q24 -10 61 -31l56 -31q25 -14 51 -14q33 0 55 16q19 14 37 35q19 22 31 49l110 -76q-21 -49 -55 -86 q-26 -33 -74 -61q-47 -27 -110 -27q-39 0 -74 15q-23 10 -63 30l-56 31q-22 14 -49 14q-31 0 -57 -16q-21 -13 -39 -35q-21 -24 -29 -49z" />
<glyph unicode="&#xc4;" horiz-adv-x="1314" d="M16 0l815 1434h160l307 -1434h-174l-82 387h-618l-217 -387h-191zM516 551h492l-134 643zM616 1716q0 45 35 80t80 35t80 -35t35 -80t-35 -80q-34 -34 -80 -34t-80 34q-35 35 -35 80zM987 1716q0 45 35 80t80 35t80 -35t35 -80t-35 -80q-34 -34 -80 -34t-80 34 q-35 35 -35 80z" />
<glyph unicode="&#xc5;" horiz-adv-x="1314" d="M16 0l815 1434h160l307 -1434h-174l-82 387h-618l-217 -387h-191zM516 551h492l-134 643zM713 1694q0 54 20 98q22 50 55 78q37 32 78 49q44 18 88 18q52 0 93 -18q40 -18 67 -45q29 -29 41 -66t12 -73q0 -56 -20 -97q-21 -43 -55 -73q-39 -33 -76 -49q-46 -19 -88 -19 q-49 0 -92 19q-41 18 -68 45q-28 28 -39 63q-12 37 -12 74zM829 1700q0 -29 23 -62q21 -30 74 -30q52 0 92 37q39 36 39 96q0 30 -25 61t-76 31q-53 0 -90 -37t-37 -96z" />
<glyph unicode="&#xc6;" horiz-adv-x="1812" d="M16 0l1086 1434h842l-29 -164h-553l-80 -453h504l-29 -164h-504l-86 -489h566l-29 -164h-737l67 387h-516l-293 -387h-209zM641 551h422l127 721z" />
<glyph unicode="&#xc7;" horiz-adv-x="1357" d="M188 621q0 175 68 329t178 264q113 113 256 177q145 65 301 65q138 0 238 -35q107 -37 164 -73q69 -46 125 -109l-123 -104l-9 -7q-40 43 -98 80q-70 36 -125 54q-73 24 -174 24q-105 0 -215 -43t-199 -129t-147 -211q-57 -123 -57 -289q0 -126 32 -208q36 -93 95 -152 q63 -63 143 -92q85 -31 184 -31q92 0 174 31q83 31 136 67q62 42 116 99l111 -123q-58 -65 -141 -117q-65 -43 -168 -82q-98 -37 -224 -37q-159 0 -276 51q-118 51 -199 142q-79 87 -123 207q-43 116 -43 252zM451 -477l178 381l157 -13l-178 -411z" />
<glyph unicode="&#xc8;" horiz-adv-x="1114" d="M168 0l252 1434h827l-28 -164h-656l-80 -453h607l-29 -164h-606l-86 -489h667l-28 -164h-840zM567 1817l107 106l305 -305l-105 -96z" />
<glyph unicode="&#xc9;" horiz-adv-x="1114" d="M168 0l252 1434h827l-28 -164h-656l-80 -453h607l-29 -164h-606l-86 -489h667l-28 -164h-840zM692 1626l342 289l94 -113l-346 -280z" />
<glyph unicode="&#xca;" horiz-adv-x="1114" d="M168 0l252 1434h827l-28 -164h-656l-80 -453h607l-29 -164h-606l-86 -489h667l-28 -164h-840zM514 1667l363 242l319 -248l-98 -111l-232 189l-268 -193z" />
<glyph unicode="&#xcb;" horiz-adv-x="1114" d="M168 0l252 1434h827l-28 -164h-656l-80 -453h607l-29 -164h-606l-86 -489h667l-28 -164h-840zM557 1716q0 45 35 80t80 35t80 -35q34 -34 34 -80t-34 -80t-80 -34t-80 34q-35 35 -35 80zM928 1716q0 45 35 80t79 35q45 0 80 -35t35 -80t-35 -80q-34 -34 -80 -34 q-45 0 -79 34q-35 35 -35 80z" />
<glyph unicode="&#xcc;" horiz-adv-x="565" d="M197 0l252 1434h172l-252 -1434h-172zM285 1817l106 106l305 -305l-104 -96z" />
<glyph unicode="&#xcd;" horiz-adv-x="565" d="M197 0l252 1434h172l-252 -1434h-172zM395 1628l342 289l94 -113l-346 -280z" />
<glyph unicode="&#xce;" horiz-adv-x="565" d="M197 0l252 1434h172l-252 -1434h-172zM221 1647l363 241l319 -248l-98 -110l-232 188l-268 -192z" />
<glyph unicode="&#xcf;" horiz-adv-x="565" d="M197 0l252 1434h172l-252 -1434h-172zM256 1716q0 45 35 80t80 35t80 -35q34 -34 34 -80t-34 -80t-80 -34t-80 34q-35 35 -35 80zM627 1716q0 45 35 80t79 35q45 0 80 -35t35 -80t-35 -80q-34 -34 -80 -34q-45 0 -79 34q-35 35 -35 80z" />
<glyph unicode="&#xd0;" horiz-adv-x="1376" d="M119 668l26 143l195 -2l109 623h432q136 0 245 -50q112 -51 183 -131q70 -78 112 -194q39 -107 39 -238q0 -192 -57 -338q-59 -151 -166 -258q-108 -108 -260 -166q-149 -57 -346 -57h-432l116 668h-196zM397 162h242h-4q140 0 256 43q118 44 201 127q82 82 129 207 q47 124 47 278q0 101 -27 184q-27 82 -84 142q-53 56 -139 92q-79 33 -197 33h-229l-80 -459h373l-27 -143h-373z" />
<glyph unicode="&#xd1;" horiz-adv-x="1454" d="M168 0l252 1434h162l581 -1147l203 1147h172l-252 -1434h-162l-581 1147l-203 -1147h-172zM639 1696h4q21 49 55 86q26 33 74 61q46 27 111 27q39 0 73 -15q37 -16 62 -30l55 -31q25 -14 51 -14q34 0 56 16q19 14 37 35q17 20 30 49l111 -76q-21 -49 -55 -86 q-26 -33 -74 -61q-47 -27 -111 -27q-40 0 -74 15q-23 10 -63 30l-55 31q-22 14 -49 14q-32 0 -58 -16q-21 -13 -39 -35q-19 -22 -28 -49z" />
<glyph unicode="&#xd2;" horiz-adv-x="1572" d="M188 629q0 153 60 307q57 147 164 266q106 118 247 187t316 69h-8q166 0 288 -55q121 -54 205 -148q83 -92 123 -208q41 -118 41 -246q0 -161 -57 -307q-60 -153 -162 -267q-103 -115 -248 -186q-143 -70 -315 -70q-165 0 -289 56t-203 147q-81 93 -121 209 q-41 118 -41 246zM371 631q0 -113 30 -201t93 -154q58 -61 147 -100q84 -37 197 -37v-2q123 0 233 49q107 48 193 140q81 87 131 211q49 122 49 266q0 116 -33 201q-36 92 -94 153t-150 100q-87 37 -198 37q-124 0 -234 -49q-112 -50 -190 -137q-82 -91 -127 -211 q-47 -124 -47 -266zM797 1835l106 107l305 -306l-104 -96z" />
<glyph unicode="&#xd3;" horiz-adv-x="1572" d="M188 629q0 153 60 307q57 147 164 266q106 118 247 187t316 69h-8q166 0 288 -55q121 -54 205 -148q83 -92 123 -208q41 -118 41 -246q0 -161 -57 -307q-60 -153 -162 -267q-103 -115 -248 -186q-143 -70 -315 -70q-165 0 -289 56t-203 147q-81 93 -121 209 q-41 118 -41 246zM371 631q0 -113 30 -201t93 -154q58 -61 147 -100q84 -37 197 -37v-2q123 0 233 49q107 48 193 140q81 87 131 211q49 122 49 266q0 116 -33 201q-36 92 -94 153t-150 100q-87 37 -198 37q-124 0 -234 -49q-112 -50 -190 -137q-82 -91 -127 -211 q-47 -124 -47 -266zM893 1651l342 288l94 -112l-346 -281z" />
<glyph unicode="&#xd4;" horiz-adv-x="1572" d="M188 629q0 153 60 307q57 147 164 266q106 118 247 187t316 69h-8q166 0 288 -55q121 -54 205 -148q83 -92 123 -208q41 -118 41 -246q0 -161 -57 -307q-60 -153 -162 -267q-103 -115 -248 -186q-143 -70 -315 -70q-165 0 -289 56t-203 147q-81 93 -121 209 q-41 118 -41 246zM371 631q0 -113 30 -201t93 -154q58 -61 147 -100q84 -37 197 -37v-2q123 0 233 49q107 48 193 140q81 87 131 211q49 122 49 266q0 116 -33 201q-36 92 -94 153t-150 100q-87 37 -198 37q-124 0 -234 -49q-112 -50 -190 -137q-82 -91 -127 -211 q-47 -124 -47 -266zM688 1645l363 241l319 -248l-98 -110l-232 188l-268 -192z" />
<glyph unicode="&#xd5;" horiz-adv-x="1572" d="M188 629q0 153 60 307q57 147 164 266q106 118 247 187t316 69h-8q166 0 288 -55q121 -54 205 -148q83 -92 123 -208q41 -118 41 -246q0 -161 -57 -307q-60 -153 -162 -267q-103 -115 -248 -186q-143 -70 -315 -70q-165 0 -289 56t-203 147q-81 93 -121 209 q-41 118 -41 246zM371 631q0 -113 30 -201t93 -154q58 -61 147 -100q84 -37 197 -37v-2q123 0 233 49q107 48 193 140q81 87 131 211q49 122 49 266q0 116 -33 201q-36 92 -94 153t-150 100q-87 37 -198 37q-124 0 -234 -49q-112 -50 -190 -137q-82 -91 -127 -211 q-47 -124 -47 -266zM680 1653h4q21 49 55 86q26 33 74 61q47 27 111 27q38 0 73 -15q37 -16 62 -30l55 -31q25 -14 51 -14q34 0 56 16q17 12 36 35q19 22 31 49l111 -76q-20 -47 -56 -86q-27 -34 -73 -61t-111 -27q-39 0 -74 15q-23 10 -63 30l-55 31q-22 14 -49 14 q-32 0 -58 -16q-21 -13 -39 -35q-19 -22 -28 -49z" />
<glyph unicode="&#xd6;" horiz-adv-x="1572" d="M188 629q0 153 60 307q57 147 164 266q106 118 247 187t316 69h-8q166 0 288 -55q121 -54 205 -148q83 -92 123 -208q41 -118 41 -246q0 -161 -57 -307q-60 -153 -162 -267q-103 -115 -248 -186q-143 -70 -315 -70q-165 0 -289 56t-203 147q-81 93 -121 209 q-41 118 -41 246zM371 631q0 -113 30 -201t93 -154q58 -61 147 -100q84 -37 197 -37v-2q123 0 233 49q107 48 193 140q81 87 131 211q49 122 49 266q0 116 -33 201q-36 92 -94 153t-150 100q-87 37 -198 37q-124 0 -234 -49q-112 -50 -190 -137q-82 -91 -127 -211 q-47 -124 -47 -266zM739 1714q0 45 35 80t80 35t80 -35t35 -80t-35 -80t-80 -35t-80 35t-35 80zM1110 1714q0 45 35 80t80 35t80 -35q34 -34 34 -80t-34 -80q-35 -35 -80 -35t-80 35t-35 80z" />
<glyph unicode="&#xd7;" d="M12 176l414 352l-283 342l109 93l287 -345l413 353l90 -107l-405 -346l283 -344l-111 -96l-287 350l-428 -362z" />
<glyph unicode="&#xd8;" horiz-adv-x="1589" d="M152 20l188 185q-64 84 -100 196q-33 103 -33 228q0 161 57 307q58 149 160 266q100 115 244 187q138 69 313 69h-4q149 0 264 -47t195 -127l209 205l75 -78l-213 -209q62 -90 90 -186q31 -105 31 -211q0 -161 -57 -307q-60 -153 -162 -267q-103 -114 -246 -186 q-140 -70 -313 -70q-141 0 -250 41q-107 40 -184 111l-189 -184zM379 629q0 -89 18 -166q18 -78 58 -135l850 833q-58 64 -142 99q-81 34 -190 34q-123 0 -230 -49t-186 -137q-78 -87 -125 -211q-45 -119 -45 -266zM524 244q59 -53 138 -80q80 -27 178 -27l-2 -4 q124 0 231 49q106 48 188 140t127 210q48 127 48 267q0 156 -64 272z" />
<glyph unicode="&#xd9;" horiz-adv-x="1380" d="M256 307q-17 99 4 225l160 906h172l-47 -271l-51 -286l-60 -340q-16 -92 -10 -162t37 -125q29 -51 92 -82q64 -31 158 -31q90 0 166 31q69 28 124 86q51 53 86 129q35 75 50 160l57 338l51 282l47 267h172l-159 -906q-21 -122 -70 -223q-48 -99 -123 -174 q-73 -73 -174 -113q-103 -41 -227 -41q-134 0 -230 41q-95 41 -151 115q-56 75 -74 174zM678 1817l106 106l306 -305l-105 -96z" />
<glyph unicode="&#xda;" horiz-adv-x="1380" d="M256 307q-17 99 4 225l160 906h172l-47 -271l-51 -286l-60 -340q-16 -92 -10 -162t37 -125q29 -51 92 -82q64 -31 158 -31q90 0 166 31q69 28 124 86q51 53 86 129q35 75 50 160l57 338l51 282l47 267h172l-159 -906q-21 -122 -70 -223q-48 -99 -123 -174 q-73 -73 -174 -113q-103 -41 -227 -41q-134 0 -230 41q-95 41 -151 115q-56 75 -74 174zM831 1626l343 289l94 -113l-346 -280z" />
<glyph unicode="&#xdb;" horiz-adv-x="1380" d="M256 307q-17 99 4 225l160 906h172l-47 -271l-51 -286l-60 -340q-16 -92 -10 -162t37 -125q29 -51 92 -82q64 -31 158 -31q90 0 166 31q69 28 124 86q51 53 86 129q35 75 50 160l57 338l51 282l47 267h172l-159 -906q-21 -122 -70 -223q-48 -99 -123 -174 q-73 -73 -174 -113q-103 -41 -227 -41q-134 0 -230 41q-95 41 -151 115q-56 75 -74 174zM625 1645l362 241l320 -248l-99 -110l-231 188l-268 -192z" />
<glyph unicode="&#xdc;" horiz-adv-x="1380" d="M256 307q-17 99 4 225l160 906h172l-47 -271l-51 -286l-60 -340q-16 -92 -10 -162t37 -125q29 -51 92 -82q64 -31 158 -31q90 0 166 31q69 28 124 86q51 53 86 129q35 75 50 160l57 338l51 282l47 267h172l-159 -906q-21 -122 -70 -223q-48 -99 -123 -174 q-73 -73 -174 -113q-103 -41 -227 -41q-134 0 -230 41q-95 41 -151 115q-56 75 -74 174zM649 1716q0 45 35 80t80 35t80 -35t35 -80t-35 -80q-34 -34 -80 -34t-80 34q-35 35 -35 80zM1020 1716q0 45 35 80t80 35q44 0 79 -35t35 -80t-35 -80q-34 -34 -79 -34q-46 0 -80 34 q-35 35 -35 80z" />
<glyph unicode="&#xdd;" horiz-adv-x="1187" d="M276 1434h181l262 -705l502 705h194l-637 -871l-98 -563h-172l98 563zM733 1626l342 289l94 -113l-346 -280z" />
<glyph unicode="&#xde;" horiz-adv-x="1105" d="M168 0l252 1434l172 -2l-45 -261h246q185 0 288 -86t103 -233q0 -237 -140 -365q-137 -125 -385 -125h-256l-63 -362h-172zM432 524h225q178 0 265 72q86 71 86 227q0 98 -68 142q-67 43 -195 43h-227z" />
<glyph unicode="&#xdf;" horiz-adv-x="1163" d="M127 -4q30 194 61 366l66 365l72 401q15 98 53 179t96 139q61 61 135 90q79 31 176 31q77 0 154 -23q70 -21 123 -65t80 -109q28 -67 28 -151q0 -107 -38 -168q-42 -66 -86 -105q-55 -46 -125 -67q7 -2 67 -29q43 -19 78 -57q37 -40 61 -105q25 -67 25 -166 q0 -146 -49 -250t-129 -172t-189 -98q-112 -31 -227 -31h-88l27 160h51q110 0 199 29q82 27 135 80q51 51 75 122q25 73 25 158q0 54 -20 101q-21 49 -64 86q-46 39 -106 59q-68 22 -154 22l27 152q93 3 157 27q67 25 105 63q39 39 57 88q19 52 19 101q0 31 -9 65 q-9 35 -30 62q-23 30 -62 47q-41 18 -102 18q-68 0 -123 -25q-50 -23 -88 -67t-58 -94q-21 -53 -30 -105l-197 -1120h-170z" />
<glyph unicode="&#xe0;" horiz-adv-x="1048" d="M141 270q0 69 31 136q28 61 90 110q60 47 135 74q74 26 166 26q65 0 117 -12q36 -8 88 -29q26 -12 76 -43l10 60q12 74 -6 117q-17 42 -49 67t-70 31q-41 6 -67 6q-56 0 -111 -12q-49 -11 -100 -27q-33 -9 -99 -35l-53 150q67 30 100 41q54 17 111 28q70 13 141 13l4 -2 q112 0 191 -31q77 -30 121 -80t59 -115q14 -62 2 -129l-106 -612h-158l22 137q-38 -43 -92 -82q-48 -33 -104 -55q-64 -25 -139 -25q-60 0 -119 19q-56 18 -99 55t-67 92q-25 58 -25 127zM311 268q0 -36 17 -67q14 -24 41 -45q26 -19 59 -25q34 -6 68 -6v-2q58 0 116 22 q51 19 97 50q48 29 90 71l22 133q-26 17 -65 33q-37 15 -74 25q-44 12 -96 12q-50 0 -99 -12q-43 -10 -88 -37q-38 -22 -63 -62q-25 -39 -25 -90zM514 1368l107 107l305 -306l-105 -96z" />
<glyph unicode="&#xe1;" horiz-adv-x="1048" d="M141 270q0 69 31 136q28 61 90 110q60 47 135 74q74 26 166 26q65 0 117 -12q36 -8 88 -29q26 -12 76 -43l10 60q12 74 -6 117q-17 42 -49 67t-70 31q-41 6 -67 6q-56 0 -111 -12q-49 -11 -100 -27q-33 -9 -99 -35l-53 150q67 30 100 41q54 17 111 28q70 13 141 13l4 -2 q112 0 191 -31q77 -30 121 -80t59 -115q14 -62 2 -129l-106 -612h-158l22 137q-38 -43 -92 -82q-48 -33 -104 -55q-64 -25 -139 -25q-60 0 -119 19q-56 18 -99 55t-67 92q-25 58 -25 127zM311 268q0 -36 17 -67q14 -24 41 -45q26 -19 59 -25q34 -6 68 -6v-2q58 0 116 22 q51 19 97 50q48 29 90 71l22 133q-26 17 -65 33q-37 15 -74 25q-44 12 -96 12q-50 0 -99 -12q-43 -10 -88 -37q-38 -22 -63 -62q-25 -39 -25 -90zM549 1182l342 288l94 -112l-346 -281z" />
<glyph unicode="&#xe2;" horiz-adv-x="1048" d="M141 270q0 69 31 136q28 61 90 110q60 47 135 74q74 26 166 26q65 0 117 -12q36 -8 88 -29q26 -12 76 -43l10 60q12 74 -6 117q-17 42 -49 67t-70 31q-41 6 -67 6q-56 0 -111 -12q-49 -11 -100 -27q-33 -9 -99 -35l-53 150q67 30 100 41q54 17 111 28q70 13 141 13l4 -2 q112 0 191 -31q77 -30 121 -80t59 -115q14 -62 2 -129l-106 -612h-158l22 137q-38 -43 -92 -82q-48 -33 -104 -55q-64 -25 -139 -25q-60 0 -119 19q-56 18 -99 55t-67 92q-25 58 -25 127zM311 268q0 -36 17 -67q14 -24 41 -45q26 -19 59 -25q34 -6 68 -6v-2q58 0 116 22 q51 19 97 50q48 29 90 71l22 133q-26 17 -65 33q-37 15 -74 25q-44 12 -96 12q-50 0 -99 -12q-43 -10 -88 -37q-38 -22 -63 -62q-25 -39 -25 -90zM369 1192l362 242l320 -248l-99 -111l-231 189l-268 -193z" />
<glyph unicode="&#xe3;" horiz-adv-x="1048" d="M141 270q0 69 31 136q28 61 90 110q60 47 135 74q74 26 166 26q65 0 117 -12q36 -8 88 -29q26 -12 76 -43l10 60q12 74 -6 117q-17 42 -49 67t-70 31q-41 6 -67 6q-56 0 -111 -12q-49 -11 -100 -27q-33 -9 -99 -35l-53 150q67 30 100 41q54 17 111 28q70 13 141 13l4 -2 q112 0 191 -31q77 -30 121 -80t59 -115q14 -62 2 -129l-106 -612h-158l22 137q-38 -43 -92 -82q-48 -33 -104 -55q-64 -25 -139 -25q-60 0 -119 19q-56 18 -99 55t-67 92q-25 58 -25 127zM311 268q0 -36 17 -67q14 -24 41 -45q26 -19 59 -25q34 -6 68 -6v-2q58 0 116 22 q51 19 97 50q48 29 90 71l22 133q-26 17 -65 33q-37 15 -74 25q-44 12 -96 12q-50 0 -99 -12q-43 -10 -88 -37q-38 -22 -63 -62q-25 -39 -25 -90zM354 1204h4q20 47 56 86q28 36 73 62t111 26q42 0 74 -14q24 -10 61 -31l55 -30q27 -15 52 -15q31 0 55 17q21 15 37 34 q18 21 31 50l110 -76q-21 -49 -55 -86q-27 -35 -74 -62q-45 -26 -110 -26q-42 0 -74 14q-15 7 -64 31l-55 30q-24 15 -49 15q-30 0 -57 -17q-22 -14 -39 -34q-20 -24 -29 -50z" />
<glyph unicode="&#xe4;" horiz-adv-x="1048" d="M141 270q0 69 31 136q28 61 90 110q60 47 135 74q74 26 166 26q65 0 117 -12q36 -8 88 -29q26 -12 76 -43l10 60q12 74 -6 117q-17 42 -49 67t-70 31q-41 6 -67 6q-56 0 -111 -12q-49 -11 -100 -27q-33 -9 -99 -35l-53 150q67 30 100 41q54 17 111 28q70 13 141 13l4 -2 q112 0 191 -31q77 -30 121 -80t59 -115q14 -62 2 -129l-106 -612h-158l22 137q-38 -43 -92 -82q-48 -33 -104 -55q-64 -25 -139 -25q-60 0 -119 19q-56 18 -99 55t-67 92q-25 58 -25 127zM311 268q0 -36 17 -67q14 -24 41 -45q26 -19 59 -25q34 -6 68 -6v-2q58 0 116 22 q51 19 97 50q48 29 90 71l22 133q-26 17 -65 33q-37 15 -74 25q-44 12 -96 12q-50 0 -99 -12q-43 -10 -88 -37q-38 -22 -63 -62q-25 -39 -25 -90zM418 1245q0 45 35 80t79 35q45 0 80 -35t35 -80t-35 -80t-80 -35q-44 0 -79 35t-35 80zM788 1245q0 45 35 80t80 35t80 -35 t35 -80t-35 -80t-80 -35t-80 35t-35 80z" />
<glyph unicode="&#xe5;" horiz-adv-x="1048" d="M141 270q0 69 31 136q28 61 90 110q60 47 135 74q74 26 166 26q65 0 117 -12q36 -8 88 -29q26 -12 76 -43l10 60q12 74 -6 117q-17 42 -49 67t-70 31q-41 6 -67 6q-56 0 -111 -12q-49 -11 -100 -27q-33 -9 -99 -35l-53 150q67 30 100 41q54 17 111 28q70 13 141 13l4 -2 q112 0 191 -31q77 -30 121 -80t59 -115q14 -62 2 -129l-106 -612h-158l22 137q-38 -43 -92 -82q-48 -33 -104 -55q-64 -25 -139 -25q-60 0 -119 19q-56 18 -99 55t-67 92q-25 58 -25 127zM311 268q0 -36 17 -67q14 -24 41 -45q26 -19 59 -25q34 -6 68 -6v-2q58 0 116 22 q51 19 97 50q48 29 90 71l22 133q-26 17 -65 33q-37 15 -74 25q-44 12 -96 12q-50 0 -99 -12q-43 -10 -88 -37q-38 -22 -63 -62q-25 -39 -25 -90zM500 1290q0 55 20 99q22 48 55 77q39 34 78 50q43 18 88 18q53 0 93 -18q38 -17 67 -46q30 -30 41 -65q12 -37 12 -74 q0 -55 -20 -96q-22 -45 -55 -74q-39 -33 -76 -49q-43 -18 -88 -18q-51 0 -92 18t-68 45t-39 64t-12 73zM616 1296q0 -28 23 -61q22 -31 74 -31t92 37q39 36 39 96q0 31 -25 62t-76 31q-53 0 -90 -37t-37 -97z" />
<glyph unicode="&#xe6;" horiz-adv-x="1679" d="M131 258q0 61 29 121q24 50 78 94q51 41 114 62q68 22 142 22h344l6 33q12 74 -6 117q-17 41 -54 67t-73 31q-41 6 -74 6q-55 0 -107 -12q-36 -8 -92 -29q-50 -18 -90 -39l-63 148q49 24 108 45q53 15 123 30q80 17 150 17l-2 -8q123 0 206 -50t117 -122q58 70 154 120 q95 50 207 50q184 0 282 -107q99 -108 99 -295q0 -31 -7 -78q-4 -24 -16 -80h-719q-6 -55 8 -102t49 -88t82 -61q54 -23 115 -23q66 0 123 23q49 20 90 49q47 32 74 69l110 -114q-45 -54 -104 -93q-50 -33 -127 -61q-79 -29 -172 -29q-130 0 -221 54q-90 54 -142 151 q-21 -27 -55 -61q-41 -41 -82 -66q-56 -34 -117 -53q-74 -23 -155 -23q-66 0 -131 19q-61 18 -107 55t-69 88q-25 55 -25 123zM309 250q0 -63 53 -98q50 -33 136 -33h2q121 0 211 78q89 77 110 206h-289q-50 0 -86 -8q-41 -9 -69 -26q-30 -18 -49 -50t-19 -69zM1018 547h553 l6 -6q3 40 -6 86q-8 43 -37 86q-25 38 -74 63q-48 25 -117 25t-124 -27q-61 -30 -97 -63q-42 -39 -67 -82q-30 -51 -37 -82z" />
<glyph unicode="&#xe7;" horiz-adv-x="976" d="M139 395q0 119 45 221q46 104 123 181t178 123q99 45 215 45q96 0 164 -27q70 -28 115 -57q56 -40 90 -82l-127 -109q-21 34 -55 58q-29 23 -74 40q-49 19 -111 19q-82 0 -149 -33q-71 -34 -123 -90q-52 -55 -82 -129q-31 -76 -31 -154q0 -115 68 -192q67 -76 195 -76 q62 0 120 23q52 21 91 49q39 27 75 69l107 -116l-8 -11q-44 -50 -105 -92q-51 -33 -123 -61q-70 -27 -166 -27q-107 0 -188 35t-135 92q-55 58 -82 135t-27 166zM244 -487l178 381l158 -13l-179 -411z" />
<glyph unicode="&#xe8;" d="M145 397q0 120 43 224q44 106 117 182q74 77 172 123q96 45 209 45l-6 -4q90 0 166 -27q74 -26 131 -80t86 -125q31 -76 31 -168q0 -31 -7 -78q-3 -21 -16 -79h-754q-5 -47 11 -101q14 -47 49 -88q33 -39 86 -63q55 -25 117 -25q67 0 131 23q53 19 98 49q43 28 80 71 l108 -116q-50 -53 -112 -92q-59 -36 -131 -62q-82 -29 -174 -29q-97 0 -179 31q-77 29 -137 86q-57 54 -88 133t-31 170zM332 551h592v-4q3 40 -9 86q-12 47 -38 86q-25 37 -78 63q-52 25 -119 25q-78 0 -139 -25q-63 -26 -103 -63q-41 -39 -69 -86q-30 -51 -37 -82z M514 1366l107 107l305 -306l-105 -96z" />
<glyph unicode="&#xe9;" d="M145 397q0 120 43 224q44 106 117 182q74 77 172 123q96 45 209 45l-6 -4q90 0 166 -27q74 -26 131 -80t86 -125q31 -76 31 -168q0 -31 -7 -78q-3 -21 -16 -79h-754q-5 -47 11 -101q14 -47 49 -88q33 -39 86 -63q55 -25 117 -25q67 0 131 23q53 19 98 49q43 28 80 71 l108 -116q-50 -53 -112 -92q-59 -36 -131 -62q-82 -29 -174 -29q-97 0 -179 31q-77 29 -137 86q-57 54 -88 133t-31 170zM332 551h592v-4q3 40 -9 86q-12 47 -38 86q-25 37 -78 63q-52 25 -119 25q-78 0 -139 -25q-63 -26 -103 -63q-41 -39 -69 -86q-30 -51 -37 -82z M518 1182l342 288l94 -112l-346 -281z" />
<glyph unicode="&#xea;" d="M145 397q0 120 43 224q44 106 117 182q74 77 172 123q96 45 209 45l-6 -4q90 0 166 -27q74 -26 131 -80t86 -125q31 -76 31 -168q0 -31 -7 -78q-3 -21 -16 -79h-754q-5 -47 11 -101q14 -47 49 -88q33 -39 86 -63q55 -25 117 -25q67 0 131 23q53 19 98 49q43 28 80 71 l108 -116q-50 -53 -112 -92q-59 -36 -131 -62q-82 -29 -174 -29q-97 0 -179 31q-77 29 -137 86q-57 54 -88 133t-31 170zM332 551h592v-4q3 40 -9 86q-12 47 -38 86q-25 37 -78 63q-52 25 -119 25q-78 0 -139 -25q-63 -26 -103 -63q-41 -39 -69 -86q-30 -51 -37 -82z M381 1188l362 242l320 -248l-98 -111l-232 189l-268 -193z" />
<glyph unicode="&#xeb;" d="M145 397q0 120 43 224q44 106 117 182q74 77 172 123q96 45 209 45l-6 -4q90 0 166 -27q74 -26 131 -80t86 -125q31 -76 31 -168q0 -31 -7 -78q-3 -21 -16 -79h-754q-5 -47 11 -101q14 -47 49 -88q33 -39 86 -63q55 -25 117 -25q67 0 131 23q53 19 98 49q43 28 80 71 l108 -116q-50 -53 -112 -92q-59 -36 -131 -62q-82 -29 -174 -29q-97 0 -179 31q-77 29 -137 86q-57 54 -88 133t-31 170zM332 551h592v-4q3 40 -9 86q-12 47 -38 86q-25 37 -78 63q-52 25 -119 25q-78 0 -139 -25q-63 -26 -103 -63q-41 -39 -69 -86q-30 -51 -37 -82z M432 1241q0 45 35 80t80 35t80 -35t35 -80t-35 -80t-80 -35t-80 35t-35 80zM803 1241q0 45 35 80t80 35q44 0 79 -35t35 -80t-35 -80t-79 -35q-45 0 -80 35t-35 80z" />
<glyph unicode="&#xec;" horiz-adv-x="458" d="M143 0l166 946h172l-166 -946h-172zM197 1372l106 107l305 -305l-104 -97z" />
<glyph unicode="&#xed;" horiz-adv-x="468" d="M143 0l166 946h172l-166 -946h-172zM236 1182l342 288l94 -112l-346 -281z" />
<glyph unicode="&#xee;" horiz-adv-x="524" d="M119 1217l362 241l320 -248l-99 -110l-231 188l-268 -192zM176 0l166 946h172l-166 -946h-172z" />
<glyph unicode="&#xef;" horiz-adv-x="501" d="M150 1249q0 46 34 80q35 35 80 35t80 -35t35 -80t-35 -80q-34 -34 -80 -34t-80 34t-34 80zM164 0l166 946h172l-166 -946h-172zM520 1249q0 45 35 80t80 35t80 -35t35 -80t-35 -80q-34 -34 -80 -34t-80 34q-35 35 -35 80z" />
<glyph unicode="&#xf0;" horiz-adv-x="1114" d="M135 377q0 124 43 231q44 109 121 189q78 81 182 127q106 47 226 47q63 0 112 -15q43 -13 82 -30q42 -23 66 -45q-21 102 -76 178q-58 79 -137 153l-301 -131l-54 119l234 98q-44 34 -105 74l-100 60l78 137q79 -42 147 -86q87 -56 148 -107l260 117l55 -125l-211 -90 q100 -106 168 -248t68 -321q0 -157 -39 -287q-41 -136 -113 -236t-184 -159q-110 -58 -254 -58q-89 0 -168 31q-74 29 -131 86q-56 56 -86 129q-31 76 -31 162zM307 399q0 -115 68 -192q67 -76 192 -76l-2 -2q82 0 152 37q74 39 123 94q52 58 82 131q30 74 30 148 q0 116 -67 192t-193 76q-76 0 -149 -31q-70 -30 -123 -86q-52 -55 -82 -129q-31 -76 -31 -162z" />
<glyph unicode="&#xf1;" horiz-adv-x="1069" d="M131 2l166 946h160l-23 -133q39 45 86 78q50 33 98 53q61 25 130 25v-2q65 0 129 -25q61 -24 104 -70q44 -47 61 -112q19 -72 5 -156l-107 -608h-172l102 580q21 125 -32 178q-55 55 -156 55q-53 0 -107 -23q-40 -17 -81 -49q-43 -37 -74 -73l-117 -664h-172zM365 1206h4 q21 49 55 86q27 35 74 62q45 26 110 26q42 0 74 -14q24 -10 61 -31l56 -30q27 -15 51 -15q31 0 55 17q21 15 37 34q18 21 31 50l110 -76q-21 -49 -55 -86q-27 -35 -74 -62q-45 -26 -110 -26q-42 0 -74 14q-8 3 -63 31l-56 31q-22 14 -49 14q-30 0 -57 -17q-22 -14 -39 -34 q-20 -24 -29 -50z" />
<glyph unicode="&#xf2;" horiz-adv-x="1105" d="M152 410q0 106 38 202q40 101 111 181t172 129t227 49v-2q109 0 185 -33q81 -35 135 -92q57 -60 84 -139q29 -85 29 -177q0 -103 -39 -198q-40 -98 -111 -178t-172 -129q-103 -50 -227 -50q-103 0 -185 31q-77 29 -135 90q-57 60 -84 139q-28 82 -28 177zM317 412 q0 -66 23 -123q20 -50 59 -86q35 -32 84 -51t99 -19l-7 2q88 0 160 35t121 90q50 56 74 127t24 141q0 73 -20 123q-21 53 -57 86q-40 37 -84 54q-47 18 -99 18q-89 0 -159 -37t-119 -92q-50 -56 -74 -127q-25 -73 -25 -141zM481 1372l107 107l305 -305l-105 -97z" />
<glyph unicode="&#xf3;" horiz-adv-x="1105" d="M150 410q0 106 38 202q40 101 111 181t172 129t227 49v-2q109 0 185 -33q81 -35 135 -92q57 -60 84 -139q28 -82 28 -177q0 -105 -38 -198q-40 -98 -111 -178t-172 -129q-103 -50 -227 -50q-103 0 -185 31q-77 29 -135 90q-57 60 -84 139q-28 82 -28 177zM315 412 q0 -66 23 -123q20 -50 59 -86q35 -32 84 -51t99 -19l-7 2q88 0 160 35t121 90q50 56 74 127t24 141q0 73 -20 123q-21 52 -58 86q-41 38 -83 54q-47 18 -99 18q-90 0 -160 -37q-68 -36 -118 -92t-74 -127q-25 -73 -25 -141zM537 1182l342 288l94 -112l-346 -281z" />
<glyph unicode="&#xf4;" horiz-adv-x="1105" d="M150 410q0 106 38 202q40 101 111 181t172 129t227 49v-2q109 0 185 -33q81 -35 135 -92q57 -60 84 -139q28 -82 28 -177q0 -105 -38 -198q-40 -98 -111 -178t-172 -129q-103 -50 -227 -50q-103 0 -185 31q-77 29 -135 90q-57 60 -84 139q-28 82 -28 177zM315 412 q0 -66 23 -123q20 -50 59 -86q35 -32 84 -51t99 -19l-7 2q88 0 160 35t121 90q50 56 74 127t24 141q0 73 -20 123q-21 52 -58 86q-41 38 -83 54q-47 18 -99 18q-90 0 -160 -37q-68 -36 -118 -92t-74 -127q-25 -73 -25 -141zM399 1196l363 242l319 -248l-98 -111l-231 189 l-269 -193z" />
<glyph unicode="&#xf5;" horiz-adv-x="1105" d="M150 410q0 106 38 202q40 101 111 181t172 129t227 49v-2q109 0 185 -33q81 -35 135 -92q57 -60 84 -139q28 -82 28 -177q0 -105 -38 -198q-40 -98 -111 -178t-172 -129q-103 -50 -227 -50q-103 0 -185 31q-77 29 -135 90q-57 60 -84 139q-28 82 -28 177zM315 412 q0 -66 23 -123q20 -50 59 -86q35 -32 84 -51t99 -19l-7 2q88 0 160 35t121 90q50 56 74 127t24 141q0 73 -20 123q-21 52 -58 86q-41 38 -83 54q-47 18 -99 18q-90 0 -160 -37q-68 -36 -118 -92t-74 -127q-25 -73 -25 -141zM377 1208h4q21 49 55 86q27 35 74 62 q45 26 111 26q41 0 73 -14q29 -12 62 -31l55 -30q27 -15 51 -15q32 0 56 17q19 14 36 34q18 21 31 50l111 -76q-20 -47 -56 -86q-28 -36 -73 -62t-111 -26q-42 0 -74 14q-8 3 -63 31l-55 31q-22 14 -50 14q-31 0 -57 -16q-21 -13 -39 -35q-21 -24 -29 -49z" />
<glyph unicode="&#xf6;" horiz-adv-x="1105" d="M150 410q0 106 38 202q40 101 111 181t172 129t227 49v-2q109 0 185 -33q81 -35 135 -92q57 -60 84 -139q28 -82 28 -177q0 -105 -38 -198q-40 -98 -111 -178t-172 -129q-103 -50 -227 -50q-103 0 -185 31q-77 29 -135 90q-57 60 -84 139q-28 82 -28 177zM315 412 q0 -66 23 -123q20 -50 59 -86q35 -32 84 -51t99 -19l-7 2q88 0 160 35t121 90q50 56 74 127t24 141q0 73 -20 123q-21 52 -58 86q-41 38 -83 54q-47 18 -99 18q-90 0 -160 -37q-68 -36 -118 -92t-74 -127q-25 -73 -25 -141zM444 1249q0 45 35 80t80 35t80 -35t35 -80 t-35 -80q-34 -34 -80 -34t-80 34q-35 35 -35 80zM815 1249q0 45 35 80t80 35t80 -35q34 -34 34 -80t-34 -80t-80 -34t-80 34q-35 35 -35 80z" />
<glyph unicode="&#xf7;" d="M170 438l27 152h880l-26 -152h-881zM446 195q0 44 35 79t80 35t80 -35t35 -79q0 -45 -35 -80t-80 -35t-80 35t-35 80zM563 854q0 45 35 80t80 35t80 -35t35 -80t-35 -80t-80 -35t-80 35t-35 80z" />
<glyph unicode="&#xf8;" horiz-adv-x="1122" d="M127 37l104 102q-77 109 -77 271q0 104 39 202q42 105 112 181q75 81 174 129q101 49 228 49q84 0 157 -25q74 -25 123 -63l105 102l73 -76l-104 -102q80 -115 80 -277q0 -103 -39 -198q-41 -100 -113 -178q-75 -81 -174 -129q-103 -50 -227 -50q-175 0 -285 88 l-102 -102zM322 412q0 -91 32 -148l506 498q-67 49 -158 49q-89 0 -159 -37t-119 -92q-50 -56 -74 -127t-24 -141zM428 184q67 -49 160 -49v2q88 0 160 35q70 34 120 90t74 127q25 73 25 141q0 46 -9 84t-24 68z" />
<glyph unicode="&#xf9;" horiz-adv-x="1069" d="M190 274q0 11 3 29q2 10 12 84q2 17 31 197q17 108 65 362h172q-37 -196 -61 -340q-28 -165 -31 -190q-2 -16 -5 -36.5t-4.5 -32t-2.5 -17.5q-2 -14 -2 -27q0 -89 49 -129q50 -41 135 -41q56 0 108 25q43 21 84 53q37 32 74 78l115 655h172l-166 -946h-160l25 145 q-34 -49 -80 -86q-38 -32 -98 -57q-61 -25 -131 -25l4 7q-57 0 -113 18q-55 18 -98 55t-70 92q-27 56 -27 127zM467 1378l106 107l306 -305l-105 -97z" />
<glyph unicode="&#xfa;" horiz-adv-x="1069" d="M190 274q0 11 3 29q2 10 12 84q2 17 31 197q17 108 65 362h172q-37 -196 -61 -340q-28 -165 -31 -190q-2 -16 -5 -36.5t-4.5 -32t-2.5 -17.5q-2 -14 -2 -27q0 -89 49 -129q50 -41 135 -41q56 0 108 25q43 21 84 53q37 32 74 78l115 655h172l-166 -946h-160l25 145 q-34 -49 -80 -86q-38 -32 -98 -57q-61 -25 -131 -25l4 7q-57 0 -113 18q-55 18 -98 55t-70 92q-27 56 -27 127zM553 1182l342 288l94 -112l-346 -281z" />
<glyph unicode="&#xfb;" horiz-adv-x="1069" d="M190 274q0 11 3 29q2 10 12 84q2 17 31 197q17 108 65 362h172q-37 -196 -61 -340q-28 -165 -31 -190q-2 -16 -5 -36.5t-4.5 -32t-2.5 -17.5q-2 -14 -2 -27q0 -89 49 -129q50 -41 135 -41q56 0 108 25q43 21 84 53q37 32 74 78l115 655h172l-166 -946h-160l25 145 q-34 -49 -80 -86q-38 -32 -98 -57q-61 -25 -131 -25l4 7q-57 0 -113 18q-55 18 -98 55t-70 92q-27 56 -27 127zM393 1223l363 241l319 -247l-98 -111l-232 188l-268 -192z" />
<glyph unicode="&#xfc;" horiz-adv-x="1069" d="M190 274q0 11 3 29q2 10 12 84q2 17 31 197q17 108 65 362h172q-37 -196 -61 -340q-28 -165 -31 -190q-2 -16 -5 -36.5t-4.5 -32t-2.5 -17.5q-2 -14 -2 -27q0 -89 49 -129q50 -41 135 -41q56 0 108 25q43 21 84 53q37 32 74 78l115 655h172l-166 -946h-160l25 145 q-34 -49 -80 -86q-38 -32 -98 -57q-61 -25 -131 -25l4 7q-57 0 -113 18q-55 18 -98 55t-70 92q-27 56 -27 127zM436 1255q0 45 35 80t80 35t80 -35t35 -80q0 -44 -35 -79t-80 -35t-80 35t-35 79zM807 1255q0 45 35 80t80 35q44 0 79 -35t35 -80q0 -44 -35 -79t-79 -35 q-45 0 -80 35t-35 79z" />
<glyph unicode="&#xfd;" horiz-adv-x="1024" d="M-10 -438l73 145h-2q15 -15 33 -24q12 -7 35 -15q18 -6 41 -6q58 0 92 37q32 35 74 108l108 189l-274 948h192l199 -747l416 747h197l-349 -604l-129 -225l-114 -201l-84 -150l-39 -69q-58 -104 -129 -148q-70 -43 -154 -43q-38 0 -80 11q-30 8 -57 18q-22 10 -49 29z M559 1182l342 288l94 -112l-346 -281z" />
<glyph unicode="&#xfe;" horiz-adv-x="1161" d="M86 -471l352 2019h172l-127 -721l-4 -4q8 10 37 39q24 24 66 49q48 28 92 41q59 17 121 17q77 0 153 -31q73 -30 129 -86q57 -57 86 -131q31 -79 31 -168q0 -119 -37 -223q-39 -108 -104 -185q-65 -76 -164 -125q-91 -45 -215 -45q-54 0 -113 17q-46 13 -92 37 q-36 19 -68 47q-18 16 -43 41l-102 -588h-170zM381 283q24 -38 68 -76q36 -28 83 -51q52 -25 121 -25q78 0 148 31q67 30 114 86q48 58 72 127q25 73 25 151q0 124 -68 201q-69 78 -190 78q-69 0 -127 -25q-55 -24 -97 -55q-43 -35 -79 -80l-64 -362h-6z" />
<glyph unicode="&#xff;" horiz-adv-x="1024" d="M-6 -438l74 145h-2q16 -16 32 -24q12 -7 35 -15q18 -6 41 -6q58 0 92 37q32 35 74 108l109 189l-275 948h193l198 -747l416 747h197l-349 -604l-129 -225l-114 -201l-84 -150l-39 -69q-58 -104 -129 -148q-70 -43 -154 -43q-38 0 -80 11q-30 8 -57 18q-22 10 -49 29z M389 1249q0 45 35 80t80 35t80 -35q34 -34 34 -80t-34 -80t-80 -34t-80 34q-35 35 -35 80zM760 1249q0 45 35 80t79 35q45 0 80 -35t35 -80t-35 -80q-34 -34 -80 -34q-45 0 -79 34q-35 35 -35 80z" />
<glyph unicode="&#x152;" horiz-adv-x="1712" d="M190 637q0 147 54 295q53 147 151 256q99 111 236 178q139 68 307 68h907l-28 -164h-574l-80 -453h525l-29 -164h-524l-86 -489h585l-28 -164h-844h-2q-139 0 -248 53q-106 51 -178 142q-69 87 -107 202q-37 112 -37 240zM371 631q0 -93 20 -172q21 -81 68 -150 q45 -65 119 -106q71 -39 182 -39h114l193 1106h-133q-125 0 -229 -49t-179 -136q-74 -86 -114 -202q-41 -118 -41 -252z" />
<glyph unicode="&#x153;" horiz-adv-x="1847" d="M147 410q0 101 37 202t105 181t166 129t225 49v-10q142 0 240 -64t147 -168q23 40 68 88q37 40 92 76q49 32 116 51q68 19 142 19q177 0 284 -107t107 -295q0 -37 -6 -78q-2 -10 -17 -80h-727q-6 -53 9 -102q14 -47 49 -88t82 -61q54 -23 114 -23q68 0 129 23 q53 20 93 49q45 31 73 69l109 -112q-46 -52 -107 -92q-54 -36 -129 -62q-82 -29 -174 -29q-129 0 -229 62q-97 60 -141 153q-67 -93 -175 -155q-109 -62 -251 -62q-101 0 -183 31q-77 29 -135 90q-57 60 -84 139q-29 85 -29 177zM315 403q0 -65 23 -122q20 -50 59 -86 q38 -35 82 -52q47 -18 96 -18l-6 2q88 0 156 35q69 35 115 90q47 56 71 127q25 73 25 141q0 66 -23 123q-20 50 -59 86q-40 37 -82 53q-49 19 -94 19q-89 0 -156 -37q-65 -36 -112 -92q-45 -54 -70 -127t-25 -142zM1145 547h553l-2 -6q3 40 -6 86q-9 45 -33 86 q-22 37 -72 63q-48 25 -117 25q-76 0 -131 -27q-59 -29 -96 -63q-40 -37 -63 -82q-25 -48 -33 -82z" />
<glyph unicode="&#x178;" horiz-adv-x="1187" d="M276 1434h181l262 -705l502 705h194l-637 -871l-98 -563h-172l98 563zM553 1716q0 45 35 80t80 35t80 -35q34 -34 34 -80t-34 -80t-80 -34t-80 34q-35 35 -35 80zM924 1716q0 46 34 80q35 35 80 35t80 -35t35 -80t-35 -80q-34 -34 -80 -34t-80 34t-34 80z" />
<glyph unicode="&#x2c6;" horiz-adv-x="868" d="M297 1159l362 242l320 -248l-98 -111l-232 189l-268 -193z" />
<glyph unicode="&#x2dc;" horiz-adv-x="798" d="M260 1208h4q21 49 55 86q27 35 74 62q45 26 111 26q42 0 74 -14q24 -10 61 -31l55 -30q27 -15 51 -15q32 0 56 17q21 15 37 34t30 50l111 -76q-21 -49 -55 -86q-27 -35 -74 -62q-45 -26 -111 -26q-41 0 -73 14q-15 7 -64 31l-55 31q-22 14 -49 14q-32 0 -58 -16 q-21 -13 -39 -35q-19 -22 -28 -49z" />
<glyph unicode="&#x2000;" horiz-adv-x="971" />
<glyph unicode="&#x2001;" horiz-adv-x="1942" />
<glyph unicode="&#x2002;" horiz-adv-x="971" />
<glyph unicode="&#x2003;" horiz-adv-x="1942" />
<glyph unicode="&#x2004;" horiz-adv-x="647" />
<glyph unicode="&#x2005;" horiz-adv-x="485" />
<glyph unicode="&#x2006;" horiz-adv-x="323" />
<glyph unicode="&#x2007;" horiz-adv-x="323" />
<glyph unicode="&#x2008;" horiz-adv-x="242" />
<glyph unicode="&#x2009;" horiz-adv-x="388" />
<glyph unicode="&#x200a;" horiz-adv-x="107" />
<glyph unicode="&#x2010;" horiz-adv-x="681" d="M141 418l29 164h547l-29 -164h-547z" />
<glyph unicode="&#x2011;" horiz-adv-x="681" d="M141 418l29 164h547l-29 -164h-547z" />
<glyph unicode="&#x2012;" horiz-adv-x="681" d="M141 418l29 164h547l-29 -164h-547z" />
<glyph unicode="&#x2013;" horiz-adv-x="1024" d="M74 418l28 164h1024l-30 -164h-1022z" />
<glyph unicode="&#x2014;" horiz-adv-x="2048" d="M74 418l28 164h2048l-30 -164h-2046z" />
<glyph unicode="&#x2018;" horiz-adv-x="307" d="M248 946l84 488h143l-84 -488h-143z" />
<glyph unicode="&#x2019;" horiz-adv-x="307" d="M248 946l84 488h143l-84 -488h-143z" />
<glyph unicode="&#x201c;" horiz-adv-x="679" d="M289 946l84 488h147l-84 -488h-147zM575 946l84 488h148l-84 -488h-148z" />
<glyph unicode="&#x201d;" horiz-adv-x="679" d="M289 946l84 488h147l-84 -488h-147zM575 946l84 488h148l-84 -488h-148z" />
<glyph unicode="&#x201e;" horiz-adv-x="679" d="M74 -287l84 488h147l-84 -488h-147zM360 -287l84 488h148l-84 -488h-148z" />
<glyph unicode="&#x2022;" horiz-adv-x="1024" d="M389 717q0 49 19 98q17 44 53 80t80 53q49 19 98 19t98 -19q44 -17 80 -53t53 -80q19 -49 19 -98q0 -50 -19 -99q-16 -42 -53 -79q-38 -38 -80 -54q-47 -18 -98 -18t-98 18q-42 16 -80 54q-37 37 -53 79q-19 49 -19 99z" />
<glyph unicode="&#x2026;" horiz-adv-x="2048" d="M246 92q0 45 35 80t79 35q45 0 80 -35t35 -80t-35 -80t-80 -35q-44 0 -79 35t-35 80zM922 92q0 46 34 80q35 35 80 35t80 -35t35 -80t-35 -80t-80 -35t-80 35q-34 34 -34 80zM1597 92q0 45 35 80t80 35t80 -35t35 -80t-35 -80t-80 -35t-80 35t-35 80z" />
<glyph unicode="&#x202f;" horiz-adv-x="388" />
<glyph unicode="&#x2039;" horiz-adv-x="624" d="M117 502l424 473l108 -103l-352 -378l235 -381l-129 -88z" />
<glyph unicode="&#x203a;" horiz-adv-x="624" d="M131 119l365 393l-226 373l131 90l283 -473l-442 -488z" />
<glyph unicode="&#x205f;" horiz-adv-x="485" />
<glyph unicode="&#x20ac;" horiz-adv-x="1187" d="M156 512l22 131h152q2 21 10 72q4 25 16 71h-151l22 132h166q42 112 115 215q70 98 162 172q87 70 202 112q112 41 236 41q76 0 123 -8q50 -8 86 -18q37 -8 67 -25l-61 -152v-8q-43 14 -61 19q-21 7 -68 14q-40 6 -88 6q-87 0 -172 -29q-80 -27 -148 -77 q-63 -46 -118 -117q-49 -63 -86 -148h479l-23 -131h-495q-14 -55 -17 -73q-9 -62 -10 -70h496l-23 -131h-477q0 -69 25 -139q23 -65 71 -119q49 -55 117 -84q73 -31 170 -31q45 0 86 6q31 5 68 17q34 9 61 24l47 -157q-47 -18 -86 -25q-44 -10 -92 -18q-53 -9 -111 -9 q-140 0 -243 50q-101 49 -168 125q-69 79 -99 172q-30 94 -30 190h-172z" />
<glyph unicode="&#x2122;" horiz-adv-x="1570" d="M274 1325l19 109h526l-18 -109h-199l-115 -649h-112l114 649h-215zM825 676l133 758h103l186 -441l334 441h119l-133 -758h-113l96 547l-327 -428l-189 428l-96 -547h-113z" />
<glyph unicode="&#x25fc;" horiz-adv-x="942" d="M0 0v942h942v-942h-942z" />
</font>
</defs>
</svg>
