<?xml version="1.0" encoding="utf-8"?>
<!-- Generator: Adobe Illustrator 20.0.0, SVG Export Plug-In . SVG Version: 6.00 Build 0)  -->
<svg version="1.1" id="Layer_1" xmlns="http://www.w3.org/2000/svg" xmlns:xlink="http://www.w3.org/1999/xlink" x="0px" y="0px"
	 viewBox="0 0 500 500" style="enable-background:new 0 0 500 500;" xml:space="preserve">
<style type="text/css">
	.st0{fill:#333333;}
	.st1{fill:#FFFFFF;}
</style>
<rect class="st0" width="500" height="500"/>
<g>
	<path class="st1" d="M90.5,307.7v-99.9h15.8l32.5,50.2l32.5-50.2h15.8v99.9h-17.1v-67.1l-31.2,47.5l-31.3-47.5v67.1H90.5z"/>
</g>
<g>
	<path class="st1" d="M215.8,257.8c0-7.5,1.3-14.3,3.8-20.5c2.6-6.4,6.1-11.8,10.6-16.3c4.5-4.6,9.9-8.2,16.1-10.9
		c6.1-2.6,12.7-3.9,20-3.9c4.6,0,8.7,0.5,12.4,1.4c3.7,0.9,7.2,2.2,10.4,3.8c3.4,1.7,6.2,3.4,8.3,5c2.5,2,4.5,3.8,6,5.5l-11.6,11.3
		c-2.5-2.8-5.9-5.3-10-7.5c-4.4-2.3-9.5-3.5-15.3-3.5c-4.9,0-9.4,1-13.6,2.9c-3.9,1.8-7.4,4.4-10.4,7.8c-2.9,3.3-5.2,7.1-6.8,11.3
		c-1.6,4.3-2.4,8.9-2.4,13.6c0,4.8,0.8,9.4,2.4,13.7c1.6,4.2,3.9,8,6.9,11.3c2.9,3.3,6.4,5.9,10.5,7.7c4.2,1.9,8.7,2.9,13.6,2.9
		c6,0,11.3-1.3,15.9-3.8c4.6-2.6,8.3-5.4,10.9-8.5l11.4,11.3c-1.8,2.1-4,4.2-6.6,6.3c-2.6,2-5.5,3.8-8.7,5.4
		c-3.1,1.5-6.7,2.8-10.7,3.8c-3.9,1-8,1.5-12.4,1.5c-7.2,0-13.9-1.3-20.1-4c-6.3-2.7-11.6-6.3-16.1-10.8c-4.4-4.5-7.9-10-10.6-16.4
		C217.1,272.1,215.8,265.3,215.8,257.8z"/>
</g>
<g>
	<path class="st1" d="M332.5,271.5v-63.7h17.1v61.5c0,7.1,1.8,12.9,5.4,17.3c3.5,4.4,8.9,6.5,16.1,6.5c7.2,0,12.5-2.2,16-6.5
		c3.6-4.4,5.4-10.2,5.4-17.3v-61.5h17.1v63.7c0,5.7-0.9,10.7-2.6,15.2c-1.9,4.7-4.4,8.7-7.7,12c-3.4,3.4-7.5,6.1-12.1,7.9
		c-4.8,1.9-10.1,2.9-16,2.9c-5.9,0-11.2-1-16-2.9c-4.6-1.9-8.7-4.5-12.1-7.9c-3.3-3.3-5.9-7.3-7.7-12
		C333.4,282.2,332.5,277.2,332.5,271.5z"/>
</g>
</svg>
