<svg xmlns="http://www.w3.org/2000/svg" xmlns:xlink="http://www.w3.org/1999/xlink" version="1.2" baseProfile="tiny" x="0px" y="0px" viewBox="0 0 100 125" xml:space="preserve"><path d="M92.526,77.526h-6.981c6.107-7.853,9.429-17.444,9.429-27.552c0-24.813-20.187-45-45-45s-45,20.187-45,45s20.187,45,45,45   c1.381,0,2.5-1.119,2.5-2.5s-1.119-2.5-2.5-2.5c-22.056,0-40-17.944-40-40s17.944-40,40-40s40,17.944,40,40   c0,9.176-3.077,17.876-8.729,24.937l-2.038-7.606c-0.357-1.334-1.732-2.121-3.063-1.768c-1.333,0.357-2.125,1.729-1.768,3.062   l3.235,12.074c0.289,1.075,1.303,1.853,2.417,1.853h12.498c1.381,0,2.5-1.119,2.5-2.5S93.907,77.526,92.526,77.526z"/><path d="M52.5,42.5V25c0-1.381-1.119-2.5-2.5-2.5s-2.5,1.119-2.5,2.5v17.5c0,1.381,1.119,2.5,2.5,2.5S52.5,43.881,52.5,42.5z"/><path d="M61.431,33.6c-1.131-0.789-2.689-0.513-3.48,0.619c-0.79,1.132-0.514,2.691,0.619,3.481C62.596,40.511,65,45.109,65,50   c0,8.271-6.729,15-15,15s-15-6.729-15-15c0-4.891,2.404-9.489,6.431-12.3c1.133-0.79,1.409-2.349,0.619-3.481   c-0.791-1.132-2.349-1.408-3.48-0.619C33.203,37.346,30,43.477,30,50c0,11.028,8.972,20,20,20s20-8.972,20-20   C70,43.477,66.797,37.346,61.431,33.6z"/></svg>