<?xml version="1.0" encoding="utf-8"?>
<!-- Generator: Adobe Illustrator 18.1.1, SVG Export Plug-In . SVG Version: 6.00 Build 0)  -->
<svg version="1.1" id="Layer_1" xmlns="http://www.w3.org/2000/svg" xmlns:xlink="http://www.w3.org/1999/xlink" x="0px" y="0px"
	 viewBox="0 0 500 418" enable-background="new 0 0 500 418" xml:space="preserve">
<g>
	<rect x="328.9" y="168.5" fill="#F26768" width="78.9" height="157.8"/>
	<rect x="92.2" y="89.6" fill="#F26768" width="78.9" height="157.8"/>
	<rect x="92.2" y="247.4" fill="#C04E4E" width="78.9" height="78.9"/>
	<rect x="328.9" y="89.6" fill="#C04E4E" width="78.9" height="78.9"/>
	<g>
		<polygon fill="#383535" points="467,10.7 328.9,10.7 328.9,89.6 467,89.6 427.5,50.1 		"/>
		<path fill="none" stroke="#FFFFFF" stroke-width="2" stroke-miterlimit="10" d="M378.2,40.3c5.4,0,9.9,4.4,9.9,9.9
			c0,5.5-4.4,9.9-9.9,9.9s-9.9-4.4-9.9-9.9C368.4,44.7,372.8,40.3,378.2,40.3z"/>
		<polygon fill="#F26768" points="447.3,50.1 486.7,69.9 476.8,50.1 486.7,30.4 		"/>
	</g>
	<g>
		<polygon fill="#383535" points="467,326.3 328.9,326.3 328.9,405.2 467,405.2 427.5,365.8 		"/>
		<path fill="none" stroke="#FFFFFF" stroke-width="2" stroke-miterlimit="10" d="M378.2,355.9c5.4,0,9.9,4.4,9.9,9.9
			c0,5.4-4.4,9.9-9.9,9.9s-9.9-4.4-9.9-9.9C368.4,360.3,372.8,355.9,378.2,355.9z"/>
		<polygon fill="#F26768" points="447.3,365.8 486.7,385.5 476.8,365.8 486.7,346 		"/>
	</g>
	<g>
		<polygon fill="#383535" points="33,10.7 171.1,10.7 171.1,89.6 33,89.6 72.5,50.1 		"/>
		<path fill="none" stroke="#FFFFFF" stroke-width="2" stroke-miterlimit="10" d="M121.8,40.3c5.4,0,9.9,4.4,9.9,9.9
			c0,5.5-4.4,9.9-9.9,9.9s-9.9-4.4-9.9-9.9C111.9,44.7,116.3,40.3,121.8,40.3z"/>
		<polygon fill="#F26768" points="52.7,50.1 13.3,69.9 23.2,50.1 13.3,30.4 		"/>
	</g>
	<g>
		<polygon fill="#383535" points="33,326.3 171.1,326.3 171.1,405.2 33,405.2 72.5,365.8 		"/>
		<path fill="none" stroke="#FFFFFF" stroke-width="2" stroke-miterlimit="10" d="M121.8,355.9c5.4,0,9.9,4.4,9.9,9.9
			c0,5.4-4.4,9.9-9.9,9.9s-9.9-4.4-9.9-9.9C111.9,360.3,116.3,355.9,121.8,355.9z"/>
		<polygon fill="#F26768" points="52.7,365.8 13.3,385.5 23.2,365.8 13.3,346 		"/>
	</g>
	<rect x="92.2" y="168.5" fill="#F26768" width="315.6" height="78.9"/>
</g>
</svg>
