<?xml version="1.0" standalone="no"?>
<!DOCTYPE svg PUBLIC "-//W3C//DTD SVG 1.1//EN" "http://www.w3.org/Graphics/SVG/1.1/DTD/svg11.dtd" >
<svg xmlns="http://www.w3.org/2000/svg">
<metadata>
This is a custom SVG webfont generated by Font Squirrel.
Copyright   : Copyright 19881991 Adobe Systems Inc
</metadata>
<defs>
<font id="Frutiger55RomanRegular" horiz-adv-x="1139" >
<font-face units-per-em="2048" ascent="1638" descent="-410" />
<missing-glyph horiz-adv-x="569" />
<glyph unicode=" "  horiz-adv-x="569" />
<glyph unicode="&#x09;" horiz-adv-x="569" />
<glyph unicode="&#xa0;" horiz-adv-x="569" />
<glyph unicode="!" horiz-adv-x="797" d="M285 0h229v229h-229v-229zM285 1429l26 -1028h176l27 1028h-229z" />
<glyph unicode="&#x22;" d="M326 928h180v501h-180v-501zM633 928h180v501h-180v-501z" />
<glyph unicode="#" d="M57 426h195l-60 -426h156l60 426h241l-59 -426h155l60 426h217v156h-195l37 266h217v155h-194l59 426h-156l-59 -426h-242l60 426h-156l-59 -426h-219v-155h196l-37 -266h-217v-156zM430 582l37 266h242l-37 -266h-242z" />
<glyph unicode="$" d="M154 1065q0 -146 82 -232q79 -86 200 -145l70 -35v-497h-29h-9q-168 0 -273 75l-25 -196q137 -60 311 -60h25v-192h119v205q352 65 360 411q0 140 -61 221q-62 84 -181 144l-118 65v445h20q141 0 244 -60l28 189q-141 49 -292 51v197h-119v-205q-152 -23 -250 -123 q-100 -100 -102 -258zM371 1071q0 76 37 121q34 43 98 65v-366q-51 31 -90 74q-45 43 -45 106zM625 178v416q63 -29 104 -76q39 -47 39 -131q0 -70 -39 -127q-39 -59 -104 -82z" />
<glyph unicode="%" horiz-adv-x="2048" d="M225 1044q0 -77 17 -149q14 -72 51 -131q67 -127 239 -129q177 2 244 129q64 117 64 271v9v10q0 162 -60 277q-63 121 -248 123q-182 -2 -245 -121q-33 -55 -47 -131q-15 -74 -15 -158zM405 1044v14q0 69 17 152q12 43 39 72q26 29 71 29q52 0 78 -27q29 -29 37 -70 q12 -41 14 -86q-2 -47 -2 -84v-14q0 -64 -16 -147q-12 -43 -37 -72q-26 -33 -74 -33q-45 0 -69 33q-27 29 -39 72q-12 45 -14 88q-5 41 -5 73zM506 -45h147l887 1519h-147zM1208 385q0 -78 17 -149q14 -72 51 -132q67 -124 239 -129q177 5 244 129q64 117 64 272v9v10 q0 162 -60 277q-63 121 -248 123q-182 -2 -245 -121q-33 -56 -47 -131q-15 -74 -15 -158zM1388 385v14q0 69 17 152q12 43 39 72q26 28 71 28q52 0 78 -26q29 -29 37 -70q12 -41 14 -86q-2 -47 -2 -84v-14q0 -65 -16 -148q-12 -43 -37 -71q-26 -33 -74 -33q-45 0 -69 33 q-27 28 -39 71q-12 45 -14 88q-5 41 -5 74z" />
<glyph unicode="&#x26;" horiz-adv-x="1479" d="M170 375q8 -389 461 -400h6q260 0 403 164l117 -139h256l-250 283q64 92 107 206q45 115 57 283h-192q-11 -229 -89 -346l-290 332q120 51 215 145q96 92 98 227q-2 168 -107 248q-102 76 -247 76q-158 0 -262 -82q-109 -82 -111 -254q0 -100 47 -178q43 -78 100 -147 q-145 -56 -231 -156q-88 -100 -88 -262zM387 389q2 107 61 168q58 61 140 115l344 -404q-33 -41 -99 -86q-30 -22 -71 -35q-43 -16 -94 -16q-115 0 -195 72q-84 69 -86 186zM534 1114q0 92 52 139q49 45 121 45q75 0 122 -37q47 -40 47 -139q-2 -88 -73 -153 q-70 -66 -142 -97q-47 52 -86 113q-41 59 -41 129z" />
<glyph unicode="'" horiz-adv-x="569" d="M195 928h180v501h-180v-501z" />
<glyph unicode="(" horiz-adv-x="682" d="M133 631q2 -256 100 -484q95 -225 236 -434h184q-127 209 -217 441q-96 231 -98 477q2 250 100 479q94 229 215 438h-184q-141 -209 -236 -432q-98 -223 -100 -485z" />
<glyph unicode=")" horiz-adv-x="682" d="M29 -287h184q141 213 238 436q96 224 98 482q-2 258 -96 483q-95 227 -240 434h-184q127 -209 221 -438q92 -229 94 -479q-2 -246 -96 -475q-94 -230 -219 -443z" />
<glyph unicode="*" d="M147 1057l328 -68l-225 -252l151 -102l168 282l166 -282l154 102l-219 252l321 68l-55 174l-299 -127l31 325h-187l33 -325l-309 127z" />
<glyph unicode="+" horiz-adv-x="1229" d="M96 428h428v-428h180v428h428v180h-428v428h-180v-428h-428v-180z" />
<glyph unicode="," horiz-adv-x="569" d="M41 -272h184l174 501h-229z" />
<glyph unicode="-" horiz-adv-x="682" d="M78 473h526v156h-526v-156z" />
<glyph unicode="." horiz-adv-x="569" d="M170 0h229v229h-229v-229z" />
<glyph unicode="/" horiz-adv-x="569" d="M-51 -25h180l491 1479h-180z" />
<glyph unicode="0" d="M84 715q0 -119 22 -246q21 -127 74 -240q56 -112 150 -182t239 -72q150 2 246 72q94 70 145 182q56 113 76 240q19 127 19 246q0 123 -19 250q-20 129 -76 237q-51 113 -145 182q-96 68 -246 70q-145 -2 -239 -70q-94 -69 -150 -182q-53 -108 -74 -237q-22 -127 -22 -250 zM301 715q0 69 10 168q11 94 37 186q27 94 82 156q55 59 139 61q88 -2 144 -61q53 -62 80 -156q45 -193 45 -341v-13q0 -68 -7 -162q-8 -96 -34 -191q-27 -92 -80 -153q-56 -66 -148 -66t-143 66q-55 61 -82 153q-27 95 -35 191q-8 94 -8 162z" />
<glyph unicode="1" d="M223 1143l109 -138l219 189v-1194h205v1429h-183z" />
<glyph unicode="2" d="M102 0h906v168h-686q118 102 251 229q131 123 269 295q63 86 104 176t41 178q-2 203 -135 306q-131 102 -330 102q-194 -2 -375 -84l21 -176q59 35 147 63q43 13 88 23q48 6 93 6q120 -2 196 -61q76 -64 78 -166q0 -86 -41 -170t-104 -164q-136 -162 -267 -277l-256 -229 v-219z" />
<glyph unicode="3" d="M104 31q146 -51 328 -56h10q215 0 379 82q170 84 174 324q-2 153 -86 242q-88 86 -233 112v4q127 25 217 109q88 82 90 217q-2 203 -139 297q-133 92 -330 92q-199 -4 -358 -64l12 -182q63 35 143 58q80 20 174 20q117 0 197 -49q82 -53 84 -176q0 -68 -33 -111 q-35 -45 -88 -71q-109 -52 -224 -52h-9h-115v-168h125h10q137 0 238 -55q106 -59 108 -217q-4 -133 -114 -188q-105 -56 -226 -56h-8q-92 0 -174 27q-82 22 -139 51z" />
<glyph unicode="4" d="M39 326h665v-326h205v326h180v168h-180v935h-293l-577 -935v-168zM254 494l446 767h4v-767h-450z" />
<glyph unicode="5" d="M166 23q41 -15 117 -29q73 -17 190 -19q231 2 387 125q156 121 160 357q-2 194 -135 317q-131 123 -328 125q-125 -2 -184 -20l12 382h594v168h-787l-12 -751l62 24q28 11 61 17q64 12 154 12q149 0 247 -74q97 -77 99 -231q-2 -135 -103 -207q-96 -76 -231 -76 q-176 0 -297 72z" />
<glyph unicode="6" d="M106 661q0 -120 21 -243q20 -121 72 -221q53 -101 147 -160q94 -60 242 -62q200 2 327 127q129 125 131 346q0 197 -108 324q-111 125 -322 127h-5q-171 0 -308 -131l-4 -2q4 213 102 364q99 152 297 156q142 0 254 -59l29 182q-41 20 -129 33q-88 12 -166 12 q-332 -6 -459 -250q-121 -230 -121 -524v-19zM324 444q0 123 71 205q68 80 195 82q61 0 108 -24q43 -25 74 -68q57 -88 57 -195q0 -118 -61 -206q-64 -93 -193 -95q-124 2 -186 103q-65 92 -65 198z" />
<glyph unicode="7" d="M100 1261h697l-545 -1261h225l528 1261v168h-905v-168z" />
<glyph unicode="8" d="M78 375q4 -197 153 -297q146 -103 334 -103q209 0 350 99q144 98 146 311q-2 145 -84 240q-86 96 -217 139q143 76 202 164q56 88 56 204q0 125 -115 222q-115 96 -328 100q-219 -2 -339 -100q-123 -99 -123 -242v-7q0 -98 57 -194q57 -98 211 -155v-4 q-131 -43 -215 -138q-88 -94 -88 -239zM295 387q0 64 22 107q19 43 54 71q34 31 77 58q41 24 84 53q60 -27 117 -49q58 -25 101 -56q47 -28 71 -77q23 -46 23 -114v-11q-6 -107 -80 -166q-74 -60 -180 -60q-113 0 -197 64q-90 63 -92 180zM317 1083q0 54 27 92q23 37 59 62 q80 49 156 49q84 0 160 -39q37 -20 59 -55q23 -33 23 -86v-8q0 -65 -31 -119q-35 -62 -158 -156q-293 127 -295 260z" />
<glyph unicode="9" d="M92 981q0 -195 113 -320q110 -129 317 -131h5q171 0 309 131l4 3q-2 -211 -101 -363q-98 -156 -299 -158q-141 0 -254 60l-28 -183q45 -16 131 -28q86 -17 164 -17q335 9 460 252q119 234 119 531v10q0 125 -18 246q-21 121 -72 221t-145 160q-95 57 -246 59 q-199 0 -326 -125q-131 -125 -133 -348zM309 985q0 121 64 209q61 90 190 92q127 -4 191 -98q61 -94 61 -203q0 -123 -68 -203q-67 -82 -198 -84q-60 0 -103 29q-45 25 -75 66q-62 88 -62 192z" />
<glyph unicode=":" horiz-adv-x="569" d="M170 0h229v229h-229v-229zM170 815h229v229h-229v-229z" />
<glyph unicode=";" horiz-adv-x="569" d="M41 -272h184l174 501h-229zM170 815h229v229h-229v-229z" />
<glyph unicode="&#x3c;" horiz-adv-x="1229" d="M94 440l1041 -456v180l-807 354l807 354v181l-1041 -457v-156z" />
<glyph unicode="=" horiz-adv-x="1229" d="M96 213h1036v180h-1036v-180zM96 643h1036v180h-1036v-180z" />
<glyph unicode="&#x3e;" horiz-adv-x="1229" d="M94 -16l1041 456v156l-1041 457v-181l807 -354l-807 -354v-180z" />
<glyph unicode="?" horiz-adv-x="1024" d="M152 1386l14 -194q100 80 303 82q100 0 174 -47q72 -52 74 -160q-2 -98 -58 -174q-55 -80 -114 -143q-70 -80 -99 -144q-28 -67 -28 -162v-43h192v37v7q0 78 43 143q45 63 94 119q48 55 91 110q45 57 69 121q27 63 27 143q-4 185 -135 281q-131 92 -308 92 q-204 -2 -339 -68zM399 0h230v229h-230v-229z" />
<glyph unicode="@" horiz-adv-x="1638" d="M102 715q4 -353 224 -545q213 -193 536 -195q391 7 608 326h-155q-172 -180 -445 -182q-262 0 -428 151q-170 148 -172 441q2 258 162 428q156 168 418 172q231 0 385 -127q155 -127 158 -369q-3 -160 -80 -268q-35 -53 -78 -82q-45 -33 -92 -33q-39 0 -37 51q0 41 16 86 l137 520h-153l-31 -106q-89 135 -229 135h-4q-201 -4 -318 -160q-121 -151 -123 -354q2 -135 90 -229q84 -96 213 -99q66 0 125 37q58 33 99 78h4q4 -55 39 -84q32 -31 80 -31q61 0 143 35t160 105q77 71 129 178q51 108 53 252q-4 276 -205 440q-199 166 -479 168 q-315 -2 -526 -201q-220 -198 -224 -538zM582 631q0 114 77 215q37 47 86 76q50 28 109 28q70 -2 113 -49q45 -47 45 -123q-2 -114 -74 -219q-35 -49 -82 -82q-49 -33 -106 -33q-78 0 -121 54q-47 51 -47 133z" />
<glyph unicode="A" horiz-adv-x="1479" d="M25 0h215l145 360h700l146 -360h223l-604 1429h-215zM451 528l284 709l285 -709h-569z" />
<glyph unicode="B" horiz-adv-x="1251" d="M170 0h381h11q218 0 372 76q76 43 119 119q43 73 43 186q-2 151 -91 242q-92 90 -241 102v4q289 57 295 340q-2 197 -140 281q-132 79 -351 79h-11h-387v-1429zM375 168v483h133q67 0 135 -6q66 -8 119 -35q53 -26 86 -76q31 -51 31 -135q0 -69 -27 -116q-29 -45 -78 -70 q-98 -45 -234 -45h-12h-153zM375 819v442h215q96 0 178 -40q41 -23 63 -66q23 -43 23 -106q0 -76 -29 -123q-28 -45 -78 -70q-49 -20 -114 -29q-68 -8 -146 -8h-112z" />
<glyph unicode="C" horiz-adv-x="1251" d="M109 721q2 -344 208 -543q203 -201 545 -203q68 0 156 11q88 8 170 41l-13 198q-55 -30 -141 -49q-90 -20 -170 -20q-227 2 -379 155q-157 148 -159 404q2 247 151 401q148 156 397 158q158 0 295 -80l17 199q-149 61 -312 61h-10q-332 -2 -540 -199q-213 -198 -215 -534 z" />
<glyph unicode="D" horiz-adv-x="1479" d="M170 0h422q747 2 762 727q-4 334 -222 518q-213 182 -540 184h-422v-1429zM375 180v1069h239q228 -2 373 -139q148 -137 150 -391q-5 -539 -539 -539h-8h-215z" />
<glyph unicode="E" d="M192 0h801v180h-596v471h543v180h-543v418h596v180h-801v-1429z" />
<glyph unicode="F" horiz-adv-x="1024" d="M170 0h205v651h530v180h-530v418h555v180h-760v-1429z" />
<glyph unicode="G" horiz-adv-x="1479" d="M109 721q2 -344 208 -543q203 -201 545 -203q168 2 275 23q104 20 161 41v743h-505v-168h301v-434q-17 -2 -35 -6q-21 -4 -45 -8q-45 -10 -150 -10q-227 2 -379 155q-157 148 -159 404q2 245 151 401q148 156 397 158q138 0 230 -25q92 -24 164 -74l16 207 q-84 31 -174 54q-94 18 -246 18q-332 -2 -540 -199q-213 -198 -215 -534z" />
<glyph unicode="H" horiz-adv-x="1479" d="M192 0h205v651h684v-651h205v1429h-205v-598h-684v598h-205v-1429z" />
<glyph unicode="I" horiz-adv-x="569" d="M182 0h205v1429h-205v-1429z" />
<glyph unicode="J" horiz-adv-x="797" d="M43 0q66 -25 166 -25q229 5 317 123q47 56 68 127q8 35 14 72q2 35 2 72v1060h-205v-995q0 -131 -47 -203q-49 -75 -186 -75q-59 -2 -129 20v-176z" />
<glyph unicode="K" horiz-adv-x="1366" d="M192 0h205v700l637 -700h299l-725 754l672 675h-272l-611 -628v628h-205v-1429z" />
<glyph unicode="L" horiz-adv-x="1024" d="M180 0h803v180h-598v1249h-205v-1429z" />
<glyph unicode="M" horiz-adv-x="1933" d="M184 0h205v1237h4l473 -1237h201l473 1237h4v-1237h205v1429h-338l-440 -1187l-449 1187h-338v-1429z" />
<glyph unicode="N" horiz-adv-x="1479" d="M180 0h205v1175h4l647 -1175h262v1429h-204v-1150h-5l-630 1150h-279v-1429z" />
<glyph unicode="O" horiz-adv-x="1593" d="M109 715q0 -332 182 -531q178 -204 506 -209q329 5 510 209q176 199 178 531q-2 325 -181 530q-180 205 -507 209q-328 -4 -506 -209q-182 -205 -182 -530zM326 715q0 227 118 391q117 162 353 168q237 -6 354 -168q117 -164 117 -391q0 -219 -111 -385 q-113 -170 -360 -174q-244 4 -357 174q-114 166 -114 385z" />
<glyph unicode="P" d="M170 0h205v571h200q99 0 189 25q90 22 162 74q151 98 155 331q-4 242 -155 338q-151 90 -371 90h-10h-375v-1429zM375 752v497h174q104 0 207 -55q47 -27 80 -74q28 -49 28 -117q0 -69 -24 -116q-25 -47 -70 -78q-43 -31 -92 -43q-49 -14 -101 -14h-202z" />
<glyph unicode="Q" horiz-adv-x="1593" d="M109 715q0 -332 182 -531q178 -204 506 -209q61 0 114 9l267 -248h253l-331 301q381 180 385 678q-2 325 -181 530q-180 205 -507 209q-328 -4 -506 -209q-182 -205 -182 -530zM326 715q0 227 118 391q117 162 353 168q237 -6 354 -168q117 -164 117 -391 q0 -219 -111 -385q-113 -170 -360 -174q-244 4 -357 174q-114 166 -114 385z" />
<glyph unicode="R" horiz-adv-x="1251" d="M170 0h205v635h123h15q72 0 124 -17q55 -22 100 -122l219 -496h234l-271 569q-32 66 -61 99q-29 28 -78 45v4q129 22 211 110q82 84 84 215q0 129 -45 207q-47 78 -125 117t-178 53q-98 10 -207 10h-350v-1429zM375 815v434h196q285 -4 287 -211q-4 -219 -309 -223h-174z " />
<glyph unicode="S" horiz-adv-x="1024" d="M96 1065q0 -82 29 -139q27 -62 70 -107q90 -86 208 -137l115 -53q55 -27 98 -60q45 -32 70 -75t25 -105q0 -61 -27 -104q-25 -45 -70 -74q-85 -55 -178 -55h-6q-80 0 -160 24q-82 23 -137 45l-20 -190q141 -55 292 -60q222 0 371 101q150 100 152 325q-2 174 -95 269 q-90 92 -213 147q-55 31 -108 57q-55 25 -100 56q-43 30 -70 67q-29 37 -29 86q0 58 25 95q22 36 59 57q37 22 80 31q43 8 86 8q78 0 135 -13q60 -16 133 -47l29 189q-156 51 -305 51q-199 0 -326 -98q-131 -99 -133 -291z" />
<glyph unicode="T" d="M23 1249h444v-1249h205v1249h444v180h-1093v-180z" />
<glyph unicode="U" horiz-adv-x="1479" d="M184 592q6 -612 555 -617q549 5 555 617v837h-205v-811v-16q0 -197 -73 -317q-80 -127 -277 -129q-194 2 -272 129q-78 122 -78 323v10v811h-205v-837z" />
<glyph unicode="V" horiz-adv-x="1366" d="M12 1429l539 -1429h256l547 1429h-215l-453 -1249h-4l-440 1249h-230z" />
<glyph unicode="W" horiz-adv-x="2048" d="M4 1429l432 -1429h275l313 1249h4l311 -1249h264l441 1429h-217l-342 -1224h-4l-310 1224h-290l-306 -1224h-4l-342 1224h-225z" />
<glyph unicode="X" horiz-adv-x="1366" d="M16 0h246l408 606l422 -606h258l-529 747l481 682h-233l-379 -548l-381 548h-246l480 -686z" />
<glyph unicode="Y" horiz-adv-x="1366" d="M23 1429l559 -831v-598h204v598l557 831h-239l-416 -641l-426 641h-239z" />
<glyph unicode="Z" d="M66 0h989v180h-752l739 1065v184h-952v-180h717l-741 -1065v-184z" />
<glyph unicode="[" horiz-adv-x="682" d="M195 -287h387v144h-207v1548h207v143h-387v-1835z" />
<glyph unicode="\" horiz-adv-x="569" d="M-51 1454l491 -1479h180l-491 1479h-180z" />
<glyph unicode="]" horiz-adv-x="682" d="M100 -143v-144h387v1835h-387v-143h207v-1548h-207z" />
<glyph unicode="^" horiz-adv-x="1229" d="M123 602h184l307 639l308 -639h184l-408 827h-168z" />
<glyph unicode="_" horiz-adv-x="1024" d="M0 -154v-102h1024v102h-1024z" />
<glyph unicode="`" horiz-adv-x="569" d="M14 1485l269 -295h137l-182 295h-224z" />
<glyph unicode="a" d="M94 301q2 -168 109 -248q104 -78 274 -78q131 2 211 58q80 53 113 102h4v-135h180q-8 37 -8 205v432v12q0 418 -420 420q-199 -4 -344 -98l10 -164q129 104 303 106q144 0 203 -67q55 -68 55 -205q-102 4 -204 4h-8q-156 0 -308 -74q-74 -39 -121 -104q-49 -68 -49 -166z M299 301q0 70 43 113q41 39 100 57q62 20 121 27q60 4 98 4q62 -4 123 -4v-93q0 -118 -71 -194q-74 -78 -219 -80q-70 0 -129 45q-64 43 -66 125z" />
<glyph unicode="b" horiz-adv-x="1251" d="M164 0h184v147h4q41 -61 129 -114q90 -56 228 -58q235 5 344 177q104 165 104 389q0 219 -111 370q-112 154 -339 158q-136 0 -218 -45q-84 -47 -129 -123h-4v635h-192v-1536zM356 520q0 154 78 270q76 119 232 123q155 -4 225 -120q61 -110 61 -250v-17v-15 q0 -123 -63 -243q-35 -59 -90 -96q-56 -41 -135 -41q-162 4 -234 131q-74 118 -74 251v7z" />
<glyph unicode="c" horiz-adv-x="909" d="M78 522q2 -229 149 -383q144 -159 383 -164q54 0 119 9q64 8 123 34l-14 172q-99 -59 -207 -59q-183 2 -264 127q-43 55 -62 127q-22 70 -22 137q0 156 88 273q88 114 247 118q97 0 209 -45l17 160q-101 39 -234 41q-243 -2 -385 -154q-145 -149 -147 -393z" />
<glyph unicode="d" horiz-adv-x="1251" d="M94 541q0 -222 109 -387q106 -172 340 -179q141 2 229 58q90 53 127 114h4v-147h184v1536h-192v-635h-4q-43 76 -125 123q-84 45 -221 45q-228 -4 -338 -158q-113 -151 -113 -370zM299 526v16q0 140 66 251q65 116 221 120q157 -4 233 -123q76 -116 76 -270 q0 -137 -72 -258q-73 -127 -235 -131q-76 0 -131 41q-56 37 -92 96q-66 120 -66 244v14z" />
<glyph unicode="e" d="M94 541q0 -258 133 -410q131 -154 408 -156q127 2 203 25q73 23 127 43v193q-39 -31 -129 -66q-93 -39 -193 -39q-139 2 -240 98q-102 95 -104 250h745q0 127 -20 236q-23 106 -78 186q-104 164 -362 168q-224 -2 -355 -145q-133 -146 -135 -383zM299 623q10 108 76 196 q65 90 205 94q127 -2 194 -84q66 -84 66 -206h-541z" />
<glyph unicode="f" horiz-adv-x="797" d="M43 889h246v-889h192v889h277v155h-277v113v12q0 101 33 166q35 68 154 70q53 0 92 -12l8 155q-57 10 -129 12q-207 -2 -281 -112q-69 -110 -69 -296v-11v-97h-246v-155z" />
<glyph unicode="g" horiz-adv-x="1251" d="M94 514q0 -209 113 -356q110 -156 334 -158q102 0 196 41q90 41 154 121h4v-103q-6 -350 -324 -358h-8q-180 0 -368 94l-21 -178q225 -72 367 -72h8q538 7 538 488v12v999h-178v-155h-4q-41 86 -123 133q-84 47 -221 47q-235 -6 -350 -176q-117 -166 -117 -379zM299 524 q0 144 74 264q73 121 217 125q153 -2 231 -118q74 -117 74 -285q-2 -148 -84 -248q-82 -104 -221 -106q-135 2 -211 110q-80 107 -80 258z" />
<glyph unicode="h" horiz-adv-x="1251" d="M164 0h192v483q0 195 78 312q78 116 240 118q229 -10 221 -372v-541h192v620q5 441 -391 449q-108 0 -194 -43q-88 -47 -142 -131h-4v641h-192v-1536z" />
<glyph unicode="i" horiz-adv-x="569" d="M176 1278h217v217h-217v-217zM188 0h193v1044h-193v-1044z" />
<glyph unicode="j" horiz-adv-x="569" d="M-33 -446q49 -9 119 -9q111 2 170 47q61 41 88 107t33 137q4 70 4 127v1081h-193v-1110q0 -102 -32 -159q-37 -60 -105 -62q-47 0 -78 6zM176 1278h217v217h-217v-217z" />
<glyph unicode="k" d="M164 0h192v537l467 -537h277l-547 582l485 462h-262l-420 -424v916h-192v-1536z" />
<glyph unicode="l" horiz-adv-x="569" d="M188 0h193v1536h-193v-1536z" />
<glyph unicode="m" horiz-adv-x="1821" d="M162 0h192v526q0 154 66 269q63 114 209 118q59 0 96 -24q37 -25 57 -70q21 -43 29 -94q4 -53 4 -102v-623h193v526q0 154 65 269q64 114 209 118q59 0 96 -24q37 -25 58 -70q20 -43 28 -94q4 -53 4 -102v-623h193v670q2 176 -80 286q-84 111 -283 113q-73 0 -168 -43 q-96 -47 -155 -160q-41 107 -121 156q-82 47 -176 47q-225 0 -332 -176h-4v151h-180v-1044z" />
<glyph unicode="n" horiz-adv-x="1251" d="M164 0h192v483q0 195 78 312q78 116 240 118q229 -10 221 -372v-541h192v620q5 441 -391 449q-110 0 -202 -49q-95 -51 -140 -141h-4v165h-186v-1044z" />
<glyph unicode="o" horiz-adv-x="1251" d="M94 522q2 -229 150 -383q143 -159 383 -164q239 5 385 164q143 154 145 383q-2 244 -145 393q-142 152 -385 154q-244 -2 -385 -154q-146 -149 -148 -393zM299 522q0 156 88 273q84 114 240 118q155 -4 241 -118q84 -117 84 -273q0 -145 -78 -264q-79 -125 -247 -127 q-168 2 -248 127q-80 119 -80 264z" />
<glyph unicode="p" horiz-adv-x="1251" d="M164 -430h192v573h4q45 -71 129 -118q82 -48 220 -50q235 5 344 177q104 165 104 389q0 219 -111 370q-112 154 -339 158q-140 -2 -226 -55q-88 -56 -129 -117h-4v147h-184v-1474zM356 520q0 154 78 270q76 119 232 123q155 -4 225 -120q61 -110 61 -250v-17v-15 q0 -123 -63 -243q-35 -59 -90 -96q-56 -41 -135 -41q-162 4 -234 131q-74 118 -74 251v7z" />
<glyph unicode="q" horiz-adv-x="1251" d="M94 541q0 -222 109 -387q106 -172 340 -179q245 5 348 162h4v-567h192v1474h-184v-149h-4q-37 63 -127 119q-88 53 -227 55q-228 -4 -338 -158q-113 -151 -113 -370zM299 526v16q0 140 66 251q65 116 221 120q157 -4 233 -123q76 -116 76 -270q0 -137 -72 -258 q-73 -127 -235 -131q-76 0 -131 41q-56 37 -92 96q-66 120 -66 244v14z" />
<glyph unicode="r" horiz-adv-x="797" d="M164 0h192v475q0 199 80 311q76 113 205 115q51 0 106 -18v172q-51 14 -127 14q-83 0 -157 -51q-72 -51 -115 -135h-4v161h-180v-1044z" />
<glyph unicode="s" horiz-adv-x="797" d="M70 747q2 -104 71 -167q35 -31 74 -56l82 -47q90 -41 158 -82q32 -20 51 -49q16 -29 16 -65q-2 -82 -63 -115q-62 -35 -133 -35q-43 0 -111 18q-68 19 -129 56l-10 -172q67 -33 141 -45q72 -13 145 -13q148 0 254 80q109 80 111 246q0 66 -16 111q-19 45 -52 77 q-30 33 -71 58q-43 24 -86 43l-82 41q-39 18 -74 39q-31 20 -51 51q-21 26 -21 65q0 66 58 97q51 30 127 30q39 0 104 -14q64 -16 98 -39l17 168q-109 39 -240 41q-157 0 -260 -78q-106 -80 -108 -244z" />
<glyph unicode="t" horiz-adv-x="797" d="M14 889h236v-610q6 -304 317 -304h4q47 0 90 11q43 10 74 18v164q-43 -35 -131 -37q-67 0 -113 49q-49 47 -49 137v572h277v155h-277v303l-192 -61v-242h-236v-155z" />
<glyph unicode="u" horiz-adv-x="1251" d="M164 424v-9q0 -431 391 -440q113 2 205 52q92 49 137 139h4v-166h186v1044h-192v-483q0 -192 -76 -309q-76 -119 -242 -121q-221 12 -221 349v24v540h-192v-620z" />
<glyph unicode="v" horiz-adv-x="1024" d="M23 1044l374 -1044h230l374 1044h-192l-289 -852h-4l-283 852h-210z" />
<glyph unicode="w" horiz-adv-x="1706" d="M25 1044l335 -1044h224l264 876h4l270 -876h223l336 1044h-188l-254 -864h-4l-262 864h-228l-266 -864h-4l-239 864h-211z" />
<glyph unicode="x" horiz-adv-x="1024" d="M20 0h230l258 410l258 -410h237l-368 547l336 497h-215l-232 -372l-227 372h-240l340 -497z" />
<glyph unicode="y" horiz-adv-x="1024" d="M14 1044l355 -974q10 -27 24 -60q10 -30 12 -51q0 -29 -49 -135q-26 -47 -69 -84q-45 -37 -111 -39q-51 2 -90 16l-12 -157q45 -13 131 -15q94 2 162 43q67 39 108 101q45 61 76 139q31 76 55 149l385 1067h-194l-287 -864h-4l-281 864h-211z" />
<glyph unicode="z" horiz-adv-x="1024" d="M88 0h848v156h-625l602 720v168h-796v-155h573l-602 -721v-168z" />
<glyph unicode="{" horiz-adv-x="682" d="M76 559q65 0 121 -53q53 -55 55 -162v-373q2 -125 80 -190q35 -33 76 -49q38 -19 75 -19h160v144h-109q-59 2 -79 51q-23 47 -23 104v365q0 76 -20 125q-23 49 -54 75q-30 27 -61 39q-31 13 -53 13v4q22 6 53 20q31 13 61 41q31 29 54 74q20 43 20 111v370q0 62 23 109 q20 45 79 47h109v143h-160q-78 0 -151 -63q-78 -66 -80 -195v-383q-2 -96 -55 -149q-56 -56 -121 -56v-143z" />
<glyph unicode="|" horiz-adv-x="455" d="M137 -512h180v2048h-180v-2048z" />
<glyph unicode="}" horiz-adv-x="682" d="M39 -143v-144h160q80 0 153 68q76 65 78 190v383q2 99 59 152q54 53 117 53v143q-63 0 -117 58q-57 53 -59 157v373q-2 129 -78 195q-33 35 -73 49q-41 14 -80 14h-160v-143h108q64 -2 84 -47q19 -47 19 -109v-364q0 -72 24 -121q21 -49 52 -76q32 -27 63 -39 q29 -12 49 -16v-4q-47 -4 -112 -58q-31 -26 -52 -73q-24 -47 -24 -115v-371q0 -57 -19 -104q-20 -49 -84 -51h-108z" />
<glyph unicode="~" horiz-adv-x="1229" d="M141 498l74 -144q37 58 78 103q43 45 102 47q43 -2 99 -25l110 -51q60 -27 119 -43q55 -20 108 -20q105 2 164 55q60 51 92 119l-73 143q-33 -55 -76 -100q-43 -48 -105 -50q-40 0 -94 27l-114 49q-60 29 -115 47q-59 17 -113 17q-100 -2 -161 -54q-62 -53 -95 -120z" />
<glyph unicode="&#xa1;" horiz-adv-x="797" d="M285 -385h229l-27 1028h-176zM285 815h229v229h-229v-229z" />
<glyph unicode="&#xa2;" d="M182 522q4 -319 266 -475l-92 -319h117l80 272q76 -25 162 -25q53 0 118 9q64 8 123 34l-14 172q-98 -59 -207 -59q-78 0 -137 25l215 747q59 -10 119 -35l16 160q-35 14 -92 27l72 243h-117l-68 -231q-16 2 -28 2q-244 -2 -385 -154q-146 -149 -148 -393zM387 522 q0 150 82 262q78 113 229 127l-198 -688q-58 62 -86 139q-27 78 -27 160z" />
<glyph unicode="&#xa3;" d="M121 0h897v180h-506v533h330v118h-330v101q-2 336 311 342q64 0 115 -15q49 -16 90 -34l16 190q-90 37 -241 39q-242 -2 -369 -143q-127 -140 -127 -365v-115h-162v-118h162v-533h-186v-180z" />
<glyph unicode="&#xa4;" d="M49 299l105 -104l112 116q125 -104 303 -104q183 0 307 104l111 -116l102 104l-110 117q98 125 98 299q0 182 -98 303l110 110l-102 107l-111 -113q-129 99 -307 101q-174 -2 -303 -101l-112 113l-105 -107l115 -110q-51 -60 -76 -137q-27 -82 -27 -166q0 -176 103 -299z M242 715q2 145 96 241q92 97 231 99q144 -2 236 -101q90 -100 92 -239q-2 -140 -92 -236q-92 -102 -236 -104q-139 2 -231 100q-94 96 -96 240z" />
<glyph unicode="&#xa5;" d="M12 1429l375 -679h-207v-119h273l16 -33v-147h-289v-119h289v-332h205v332h288v119h-288v147l16 33h272v119h-206l370 679h-227l-324 -641l-335 641h-228z" />
<glyph unicode="&#xa6;" horiz-adv-x="455" d="M137 358v-716h180v716h-180zM137 666h180v716h-180v-716z" />
<glyph unicode="&#xa7;" d="M172 625q0 -70 29 -123q26 -51 69 -88q90 -74 209 -113t209 -80q45 -20 70 -49q24 -29 24 -72q-2 -94 -75 -141q-74 -45 -168 -45q-185 0 -338 72l-19 -189q166 -51 318 -51h12q162 0 307 82q70 43 113 113q41 67 43 165q-4 152 -131 234q67 53 108 113q37 55 37 145 q0 74 -24 125q-25 49 -70 86q-43 37 -98 63q-56 25 -115 43l-111 43q-55 19 -100 41q-43 25 -70 56q-28 30 -28 75q0 50 30 82q25 31 66 45q41 19 86 25q45 4 82 4q129 -2 250 -57l18 186q-145 39 -295 39q-155 0 -286 -78q-140 -82 -144 -254q0 -164 142 -243 q-150 -84 -150 -254zM352 669q0 96 76 154q45 -20 109 -41q63 -20 124 -49q64 -26 105 -67q41 -43 43 -107q0 -47 -21 -84q-22 -37 -53 -70q-41 19 -104 39q-64 23 -127 50q-64 26 -105 69q-47 39 -47 106z" />
<glyph unicode="&#xa8;" horiz-adv-x="569" d="M20 1204h193v205h-193v-205zM356 1204h193v205h-193v-205z" />
<glyph unicode="&#xa9;" horiz-adv-x="1638" d="M80 715q4 -312 219 -520q209 -215 520 -220q316 5 524 220q211 208 215 520q-4 315 -215 524q-208 211 -524 215q-311 -4 -520 -215q-215 -209 -219 -524zM260 715q2 266 166 430q158 164 393 166q240 -2 397 -166q158 -164 162 -430q-4 -264 -162 -426 q-157 -168 -397 -170q-235 2 -393 170q-164 162 -166 426zM418 715q0 -195 114 -320q113 -129 306 -131q135 0 231 86q96 82 123 234h-150q-30 -174 -204 -176q-123 2 -193 90q-72 86 -72 221q0 133 68 215q63 82 192 84q170 -4 209 -164h150q-23 151 -121 229 q-100 78 -240 78q-194 -2 -303 -125q-110 -123 -110 -321z" />
<glyph unicode="&#xaa;" horiz-adv-x="739" d="M47 991q0 -57 29 -94q26 -39 67 -61q41 -21 88 -31q45 -10 82 -10q62 0 115 22q53 21 86 72h4v-78h172q-4 18 -6 121v262q-2 156 -84 211q-39 31 -98 41q-60 8 -133 8q-119 0 -240 -57l6 -129q95 67 214 67h7q70 0 115 -26q45 -29 45 -111q-55 4 -125 4q-45 0 -102 -6 q-60 -8 -113 -33q-53 -20 -90 -63q-39 -41 -39 -109zM215 985q2 72 80 94q74 17 139 17q55 -4 82 -4v-56q-4 -123 -174 -123h-6q-45 0 -80 19q-41 18 -41 53z" />
<glyph unicode="&#xab;" d="M104 551l293 -414h180l-266 414l266 414h-180zM518 551l293 -414h180l-266 414l266 414h-180z" />
<glyph unicode="&#xac;" horiz-adv-x="1229" d="M96 643h856v-430h180v610h-1036v-180z" />
<glyph unicode="&#xad;" horiz-adv-x="682" d="M78 473h526v156h-526v-156z" />
<glyph unicode="&#xae;" horiz-adv-x="1638" d="M80 715q4 -312 219 -520q209 -215 520 -220q316 5 524 220q211 208 215 520q-4 315 -215 524q-208 211 -524 215q-311 -4 -520 -215q-215 -209 -219 -524zM260 715q2 266 166 430q158 164 393 166q240 -2 397 -166q158 -164 162 -430q-4 -264 -162 -426 q-157 -168 -397 -170q-235 2 -393 170q-164 162 -166 426zM534 299h156v360h94l217 -360h160l-225 367q215 14 219 225q-2 246 -299 246h-10h-312v-838zM690 778v240h139q66 0 117 -21q51 -22 53 -94q-2 -80 -49 -102q-47 -23 -112 -23h-11h-137z" />
<glyph unicode="&#xaf;" horiz-adv-x="569" d="M-18 1259h606v119h-606v-119z" />
<glyph unicode="&#xb0;" horiz-adv-x="819" d="M117 1161q2 -123 86 -207t207 -86q127 2 208 86q82 84 84 207q-2 127 -84 209q-81 82 -208 84q-123 -2 -207 -84t-86 -209zM248 1161q0 70 49 117q45 45 113 45q69 0 116 -45q45 -47 45 -117q0 -67 -45 -112q-47 -50 -116 -50q-68 0 -113 50q-49 45 -49 112z" />
<glyph unicode="&#xb1;" horiz-adv-x="1229" d="M96 0h1036v180h-1036v-180zM96 555h428v-301h180v301h428v180h-428v301h-180v-301h-428v-180z" />
<glyph unicode="&#xb2;" horiz-adv-x="739" d="M63 577h613v144h-408v4q90 47 234 199q67 71 112 145q45 76 47 137q-2 135 -96 193q-92 55 -217 55q-133 0 -256 -51l12 -152q99 58 213 60q56 0 109 -25q53 -27 55 -88q-2 -55 -51 -125q-51 -68 -125 -137q-160 -141 -242 -203v-156z" />
<glyph unicode="&#xb3;" horiz-adv-x="739" d="M66 598q92 -31 231 -33h11q135 0 247 45q117 49 121 199q-2 96 -60 151q-59 52 -153 64v4q80 14 141 64q62 45 64 131q-2 122 -97 178q-94 53 -221 53q-151 -2 -252 -41l8 -147q86 43 199 45q57 0 119 -19q61 -20 63 -78q-2 -61 -71 -88q-68 -28 -131 -28h-95v-144h101 q71 0 137 -32q66 -33 68 -105q-5 -63 -78 -86q-74 -22 -139 -22q-62 0 -117 16q-56 12 -76 29z" />
<glyph unicode="&#xb4;" horiz-adv-x="569" d="M149 1190h138l268 295h-223z" />
<glyph unicode="&#xb5;" horiz-adv-x="1251" d="M164 -430h192v446q82 -41 199 -41q113 2 205 52q92 49 137 139h4v-166h186v1044h-192v-483q0 -192 -76 -309q-76 -119 -242 -121q-221 12 -221 349v24v540h-192v-1474z" />
<glyph unicode="&#xb6;" horiz-adv-x="1229" d="M41 1049q0 -164 121 -263q117 -102 321 -104v-911h181v1515h235v-1515h180v1658h-555q-219 0 -348 -84q-133 -90 -135 -296z" />
<glyph unicode="&#xb8;" horiz-adv-x="569" d="M207 -412q80 -43 172 -43q98 0 180 45q41 23 66 60q22 35 22 84q-2 71 -49 112q-47 37 -121 37q-33 0 -61 -10l-4 4l94 123h-96l-131 -176l34 -39q37 16 84 16q39 0 68 -18q26 -21 26 -61q-2 -54 -36 -74q-35 -21 -78 -21q-72 2 -133 31z" />
<glyph unicode="&#xb9;" horiz-adv-x="739" d="M102 1268l70 -95l143 113v-709h181v865h-166z" />
<glyph unicode="&#xba;" horiz-adv-x="813" d="M53 1124q2 -139 99 -231q94 -96 253 -98q162 2 256 98q95 92 97 231q0 148 -94 240q-95 88 -259 90q-161 -2 -256 -90q-96 -92 -96 -240zM221 1124q0 88 45 150q45 59 139 61q99 -2 144 -61q41 -62 41 -150q0 -84 -37 -145q-41 -64 -148 -66q-102 2 -143 66 q-41 61 -41 145z" />
<glyph unicode="&#xbb;" d="M147 137h181l292 414l-292 414h-181l267 -414zM561 137h180l293 414l-293 414h-180l266 -414z" />
<glyph unicode="&#xbc;" horiz-adv-x="1708" d="M68 1268l69 -95l144 113v-709h180v865h-166zM293 -45h147l887 1519h-147zM919 170h435v-170h180v170h106v143h-106v551h-238l-377 -569v-125zM1087 313l263 408h4v-408h-267z" />
<glyph unicode="&#xbd;" horiz-adv-x="1708" d="M68 1268l69 -95l144 113v-709h180v865h-166zM229 -45h148l887 1519h-148zM1028 0h612v143h-407v4q90 48 233 199q68 72 113 145q45 76 47 138q-2 135 -96 192q-92 55 -217 55q-133 0 -256 -51l12 -151q98 57 213 59q55 0 108 -24q54 -27 56 -89q-2 -55 -51 -124 q-52 -68 -125 -138q-160 -141 -242 -202v-156z" />
<glyph unicode="&#xbe;" horiz-adv-x="1708" d="M66 598q92 -31 231 -33h11q135 0 247 45q117 49 121 199q-2 96 -60 151q-59 52 -153 64v4q80 14 141 64q62 45 64 131q-2 122 -97 178q-94 53 -221 53q-151 -2 -252 -41l8 -147q86 43 199 45q57 0 119 -19q61 -20 63 -78q-2 -61 -71 -88q-68 -28 -131 -28h-95v-144h101 q71 0 137 -32q66 -33 68 -105q-5 -63 -78 -86q-74 -22 -139 -22q-62 0 -117 16q-56 12 -76 29zM381 -45h147l887 1519h-147zM919 170h435v-170h180v170h106v143h-106v551h-238l-377 -569v-125zM1087 313l263 408h4v-408h-267z" />
<glyph unicode="&#xbf;" horiz-adv-x="1024" d="M90 -37q2 -180 139 -276q131 -97 303 -97q205 2 340 68l-14 195q-100 -80 -303 -82q-98 0 -170 51q-76 49 -78 155q2 101 60 179q53 75 112 139q74 82 103 147q24 64 24 158v43h-192v-37v-7q0 -76 -43 -142q-41 -60 -88 -115q-50 -55 -93 -113q-43 -55 -69 -118 q-31 -66 -31 -148zM395 815h230v229h-230v-229z" />
<glyph unicode="&#xc0;" horiz-adv-x="1479" d="M25 0h215l145 360h700l146 -360h223l-604 1429h-215zM451 528l284 709l285 -709h-569zM482 1829l269 -295h137l-182 295h-224z" />
<glyph unicode="&#xc1;" horiz-adv-x="1479" d="M25 0h215l145 360h700l146 -360h223l-604 1429h-215zM451 528l284 709l285 -709h-569zM623 1534h138l268 295h-223z" />
<glyph unicode="&#xc2;" horiz-adv-x="1479" d="M25 0h215l145 360h700l146 -360h223l-604 1429h-215zM451 528l284 709l285 -709h-569zM456 1534h161l134 200l135 -200h164l-205 295h-187z" />
<glyph unicode="&#xc3;" horiz-adv-x="1479" d="M25 0h215l145 360h700l146 -360h223l-604 1429h-215zM404 1544h94q6 39 28 68q20 26 60 26h6q67 -2 151 -45q41 -18 84 -33q41 -16 80 -16q51 0 88 27q37 22 58 57q20 35 32 76q13 39 15 69h-94q-2 -34 -25 -65q-25 -29 -70 -29q-65 6 -149 49q-41 21 -82 33 q-43 12 -84 12q-51 0 -86 -22q-37 -23 -57 -57q-21 -35 -31 -74q-12 -41 -18 -76zM451 528l284 709l285 -709h-569z" />
<glyph unicode="&#xc4;" horiz-adv-x="1479" d="M25 0h215l145 360h700l146 -360h223l-604 1429h-215zM451 528l284 709l285 -709h-569zM490 1548h193v205h-193v-205zM826 1548h193v205h-193v-205z" />
<glyph unicode="&#xc5;" horiz-adv-x="1479" d="M25 0h215l145 360h700l146 -360h223l-604 1429h-215zM451 528l284 709l285 -709h-569zM547 1706q0 -88 63 -146q62 -63 146 -63q88 0 149 63q57 62 60 146q-3 88 -60 149q-61 58 -149 60q-88 -2 -146 -60q-63 -61 -63 -149zM629 1706q0 55 41 90q34 35 86 37 q55 -2 90 -37t37 -90q-2 -51 -37 -86q-39 -41 -90 -41q-52 0 -86 41q-41 35 -41 86z" />
<glyph unicode="&#xc6;" horiz-adv-x="1933" d="M4 0h227l215 360h609l22 -360h711v180h-522l-29 471h493v180h-503l-27 418h567v180h-899zM545 528l450 758h4l45 -758h-499z" />
<glyph unicode="&#xc7;" horiz-adv-x="1251" d="M109 721q12 -631 614 -735l-119 -162l35 -39q37 16 84 16q39 0 67 -18q27 -21 27 -61q-2 -54 -37 -74q-35 -21 -78 -21q-71 2 -133 31l-37 -70q80 -43 172 -43q99 0 181 45q41 23 65 60q23 35 23 84q-2 71 -49 112q-48 37 -121 37q-33 0 -62 -10l-4 4l78 103q25 -5 47 -5 q68 0 156 11q88 8 170 41l-13 198q-55 -30 -141 -49q-90 -20 -170 -20q-227 2 -379 155q-157 148 -159 404q2 247 151 401q148 156 397 158q158 0 295 -80l17 199q-149 61 -312 61h-10q-332 -2 -540 -199q-213 -198 -215 -534z" />
<glyph unicode="&#xc8;" d="M192 0h801v180h-596v471h543v180h-543v418h596v180h-801v-1429zM301 1829l269 -295h137l-182 295h-224z" />
<glyph unicode="&#xc9;" d="M192 0h801v180h-596v471h543v180h-543v418h596v180h-801v-1429zM442 1534h138l268 295h-223z" />
<glyph unicode="&#xca;" d="M192 0h801v180h-596v471h543v180h-543v418h596v180h-801v-1429zM275 1534h161l134 200l135 -200h164l-205 295h-187z" />
<glyph unicode="&#xcb;" d="M192 0h801v180h-596v471h543v180h-543v418h596v180h-801v-1429zM309 1548h193v205h-193v-205zM645 1548h193v205h-193v-205z" />
<glyph unicode="&#xcc;" horiz-adv-x="569" d="M9 1829l269 -295h137l-182 295h-224zM182 0h205v1429h-205v-1429z" />
<glyph unicode="&#xcd;" horiz-adv-x="569" d="M148 1534h138l268 295h-223zM182 0h205v1429h-205v-1429z" />
<glyph unicode="&#xce;" horiz-adv-x="569" d="M-19 1534h161l134 200l135 -200h164l-205 295h-187zM182 0h205v1429h-205v-1429z" />
<glyph unicode="&#xcf;" horiz-adv-x="569" d="M15 1548h193v205h-193v-205zM182 0h205v1429h-205v-1429zM351 1548h193v205h-193v-205z" />
<glyph unicode="&#xd0;" horiz-adv-x="1479" d="M31 700h139v-700h422q747 2 762 727q-4 334 -222 518q-213 182 -540 184h-422v-598h-139v-131zM375 180v520h375v131h-375v418h235q242 -2 383 -149q142 -146 144 -381q-5 -539 -539 -539h-8h-215z" />
<glyph unicode="&#xd1;" horiz-adv-x="1479" d="M180 0h205v1175h4l647 -1175h262v1429h-204v-1150h-5l-630 1150h-279v-1429zM398 1544h94q6 39 28 68q20 26 60 26h6q67 -2 151 -45q41 -18 84 -33q41 -16 80 -16q51 0 88 27q37 22 58 57q20 35 32 76q13 39 15 69h-94q-2 -34 -25 -65q-25 -29 -70 -29q-65 6 -149 49 q-41 21 -82 33q-43 12 -84 12q-51 0 -86 -22q-37 -23 -57 -57q-21 -35 -31 -74q-12 -41 -18 -76z" />
<glyph unicode="&#xd2;" horiz-adv-x="1593" d="M109 715q0 -332 182 -531q178 -204 506 -209q329 5 510 209q176 199 178 531q-2 325 -181 530q-180 205 -507 209q-328 -4 -506 -209q-182 -205 -182 -530zM326 715q0 227 118 391q117 162 353 168q237 -6 354 -168q117 -164 117 -391q0 -219 -111 -385 q-113 -170 -360 -174q-244 4 -357 174q-114 166 -114 385zM540 1829l269 -295h137l-182 295h-224z" />
<glyph unicode="&#xd3;" horiz-adv-x="1593" d="M109 715q0 -332 182 -531q178 -204 506 -209q329 5 510 209q176 199 178 531q-2 325 -181 530q-180 205 -507 209q-328 -4 -506 -209q-182 -205 -182 -530zM326 715q0 227 118 391q117 162 353 168q237 -6 354 -168q117 -164 117 -391q0 -219 -111 -385 q-113 -170 -360 -174q-244 4 -357 174q-114 166 -114 385zM679 1534h138l268 295h-223z" />
<glyph unicode="&#xd4;" horiz-adv-x="1593" d="M109 715q0 -332 182 -531q178 -204 506 -209q329 5 510 209q176 199 178 531q-2 325 -181 530q-180 205 -507 209q-328 -4 -506 -209q-182 -205 -182 -530zM326 715q0 227 118 391q117 162 353 168q237 -6 354 -168q117 -164 117 -391q0 -219 -111 -385 q-113 -170 -360 -174q-244 4 -357 174q-114 166 -114 385zM512 1534h161l134 200l135 -200h164l-205 295h-187z" />
<glyph unicode="&#xd5;" horiz-adv-x="1593" d="M109 715q0 -332 182 -531q178 -204 506 -209q329 5 510 209q176 199 178 531q-2 325 -181 530q-180 205 -507 209q-328 -4 -506 -209q-182 -205 -182 -530zM326 715q0 227 118 391q117 162 353 168q237 -6 354 -168q117 -164 117 -391q0 -219 -111 -385 q-113 -170 -360 -174q-244 4 -357 174q-114 166 -114 385zM460 1544h94q6 39 28 68q20 26 60 26h6q67 -2 151 -45q41 -18 84 -33q41 -16 80 -16q51 0 88 27q37 22 58 57q20 35 32 76q13 39 15 69h-94q-2 -34 -25 -65q-25 -29 -70 -29q-65 6 -149 49q-41 21 -82 33 q-43 12 -84 12q-51 0 -86 -22q-37 -23 -57 -57q-21 -35 -31 -74q-12 -41 -18 -76z" />
<glyph unicode="&#xd6;" horiz-adv-x="1593" d="M109 715q0 -332 182 -531q178 -204 506 -209q329 5 510 209q176 199 178 531q-2 325 -181 530q-180 205 -507 209q-328 -4 -506 -209q-182 -205 -182 -530zM326 715q0 227 118 391q117 162 353 168q237 -6 354 -168q117 -164 117 -391q0 -219 -111 -385 q-113 -170 -360 -174q-244 4 -357 174q-114 166 -114 385zM546 1548h193v205h-193v-205zM882 1548h193v205h-193v-205z" />
<glyph unicode="&#xd7;" horiz-adv-x="1229" d="M139 170l127 -127l348 350l348 -350l127 127l-350 348l350 348l-127 127l-348 -350l-348 350l-127 -127l348 -348z" />
<glyph unicode="&#xd8;" horiz-adv-x="1593" d="M109 715q0 -350 200 -553l-117 -152l78 -53l111 143q166 -123 416 -125q329 5 510 209q176 199 178 531q-2 342 -203 551l111 145l-74 57l-109 -141q-166 125 -413 127q-328 -4 -506 -209q-182 -205 -182 -530zM326 715q0 227 118 391q117 162 353 168q184 -2 292 -103 l-651 -843q-112 163 -112 379v8zM504 258l649 842q115 -162 115 -385q0 -219 -111 -385q-113 -170 -360 -174q-185 2 -293 102z" />
<glyph unicode="&#xd9;" horiz-adv-x="1479" d="M184 592q6 -612 555 -617q549 5 555 617v837h-205v-811v-16q0 -197 -73 -317q-80 -127 -277 -129q-194 2 -272 129q-78 122 -78 323v10v811h-205v-837zM478 1829l269 -295h137l-182 295h-224z" />
<glyph unicode="&#xda;" horiz-adv-x="1479" d="M184 592q6 -612 555 -617q549 5 555 617v837h-205v-811v-16q0 -197 -73 -317q-80 -127 -277 -129q-194 2 -272 129q-78 122 -78 323v10v811h-205v-837zM617 1534h138l268 295h-223z" />
<glyph unicode="&#xdb;" horiz-adv-x="1479" d="M184 592q6 -612 555 -617q549 5 555 617v837h-205v-811v-16q0 -197 -73 -317q-80 -127 -277 -129q-194 2 -272 129q-78 122 -78 323v10v811h-205v-837zM450 1534h161l134 200l135 -200h164l-205 295h-187z" />
<glyph unicode="&#xdc;" horiz-adv-x="1479" d="M184 592q6 -612 555 -617q549 5 555 617v837h-205v-811v-16q0 -197 -73 -317q-80 -127 -277 -129q-194 2 -272 129q-78 122 -78 323v10v811h-205v-837zM484 1548h193v205h-193v-205zM820 1548h193v205h-193v-205z" />
<glyph unicode="&#xdd;" horiz-adv-x="1366" d="M23 1429l559 -831v-598h204v598l557 831h-239l-416 -641l-426 641h-239zM565 1534h138l268 295h-223z" />
<glyph unicode="&#xde;" d="M170 0h205v362h200q99 0 189 25q90 23 162 74q151 98 155 332q-4 241 -155 337q-151 91 -371 91h-10h-170v208h-205v-1429zM375 543v497h174q104 0 207 -55q47 -27 80 -74q28 -49 28 -116q0 -70 -24 -117q-25 -47 -70 -78q-43 -31 -92 -43q-49 -14 -101 -14h-202z" />
<glyph unicode="&#xdf;" horiz-adv-x="1251" d="M164 0h192v1001q0 72 15 144q14 69 47 129q33 59 90 96q55 35 139 35q111 -2 170 -76t59 -176q-2 -154 -86 -211q-85 -55 -223 -55h-10v-156h11q165 0 268 -57q104 -64 106 -238q-2 -141 -82 -217q-82 -76 -203 -76q-84 0 -161 35v-162q100 -28 198 -28q219 2 336 135 q115 129 117 321q0 140 -78 248q-80 109 -227 129v4q239 76 239 334q-4 203 -133 303q-127 98 -282 98q-502 -8 -502 -563v-26v-971z" />
<glyph unicode="&#xe0;" d="M94 301q2 -168 109 -248q104 -78 274 -78q131 2 211 58q80 53 113 102h4v-135h180q-8 37 -8 205v432v12q0 418 -420 420q-199 -4 -344 -98l10 -164q129 104 303 106q144 0 203 -67q55 -68 55 -205q-102 4 -204 4h-8q-156 0 -308 -74q-74 -39 -121 -104q-49 -68 -49 -166z M299 301q0 70 43 113q41 39 100 57q62 20 121 27q60 4 98 4q62 -4 123 -4v-93q0 -118 -71 -194q-74 -78 -219 -80q-70 0 -129 45q-64 43 -66 125zM306 1485l269 -295h137l-182 295h-224z" />
<glyph unicode="&#xe1;" d="M94 301q2 -168 109 -248q104 -78 274 -78q131 2 211 58q80 53 113 102h4v-135h180q-8 37 -8 205v432v12q0 418 -420 420q-199 -4 -344 -98l10 -164q129 104 303 106q144 0 203 -67q55 -68 55 -205q-102 4 -204 4h-8q-156 0 -308 -74q-74 -39 -121 -104q-49 -68 -49 -166z M299 301q0 70 43 113q41 39 100 57q62 20 121 27q60 4 98 4q62 -4 123 -4v-93q0 -118 -71 -194q-74 -78 -219 -80q-70 0 -129 45q-64 43 -66 125zM445 1190h138l268 295h-223z" />
<glyph unicode="&#xe2;" d="M94 301q2 -168 109 -248q104 -78 274 -78q131 2 211 58q80 53 113 102h4v-135h180q-8 37 -8 205v432v12q0 418 -420 420q-199 -4 -344 -98l10 -164q129 104 303 106q144 0 203 -67q55 -68 55 -205q-102 4 -204 4h-8q-156 0 -308 -74q-74 -39 -121 -104q-49 -68 -49 -166z M277 1190h161l134 200l135 -200h164l-205 295h-187zM299 301q0 70 43 113q41 39 100 57q62 20 121 27q60 4 98 4q62 -4 123 -4v-93q0 -118 -71 -194q-74 -78 -219 -80q-70 0 -129 45q-64 43 -66 125z" />
<glyph unicode="&#xe3;" d="M94 301q2 -168 109 -248q104 -78 274 -78q131 2 211 58q80 53 113 102h4v-135h180q-8 37 -8 205v432v12q0 418 -420 420q-199 -4 -344 -98l10 -164q129 104 303 106q144 0 203 -67q55 -68 55 -205q-102 4 -204 4h-8q-156 0 -308 -74q-74 -39 -121 -104q-49 -68 -49 -166z M225 1200h94q6 39 28 68q20 26 60 26h6q67 -2 151 -45q41 -18 84 -33q41 -16 80 -16q51 0 88 27q37 22 58 57q20 35 32 76q13 39 15 69h-94q-2 -34 -25 -65q-25 -29 -70 -29q-65 6 -149 49q-41 21 -82 33q-43 12 -84 12q-51 0 -86 -22q-37 -23 -57 -57q-21 -35 -31 -74 q-12 -41 -18 -76zM299 301q0 70 43 113q41 39 100 57q62 20 121 27q60 4 98 4q62 -4 123 -4v-93q0 -118 -71 -194q-74 -78 -219 -80q-70 0 -129 45q-64 43 -66 125z" />
<glyph unicode="&#xe4;" d="M94 301q2 -168 109 -248q104 -78 274 -78q131 2 211 58q80 53 113 102h4v-135h180q-8 37 -8 205v432v12q0 418 -420 420q-199 -4 -344 -98l10 -164q129 104 303 106q144 0 203 -67q55 -68 55 -205q-102 4 -204 4h-8q-156 0 -308 -74q-74 -39 -121 -104q-49 -68 -49 -166z M299 301q0 70 43 113q41 39 100 57q62 20 121 27q60 4 98 4q62 -4 123 -4v-93q0 -118 -71 -194q-74 -78 -219 -80q-70 0 -129 45q-64 43 -66 125zM312 1204h193v205h-193v-205zM648 1204h193v205h-193v-205z" />
<glyph unicode="&#xe5;" d="M94 301q2 -168 109 -248q104 -78 274 -78q131 2 211 58q80 53 113 102h4v-135h180q-8 37 -8 205v432v12q0 418 -420 420q-199 -4 -344 -98l10 -164q129 104 303 106q144 0 203 -67q55 -68 55 -205q-102 4 -204 4h-8q-156 0 -308 -74q-74 -39 -121 -104q-49 -68 -49 -166z M299 301q0 70 43 113q41 39 100 57q62 20 121 27q60 4 98 4q62 -4 123 -4v-93q0 -118 -71 -194q-74 -78 -219 -80q-70 0 -129 45q-64 43 -66 125zM368 1362q0 -88 63 -146q62 -63 146 -63q88 0 149 63q57 62 60 146q-3 88 -60 149q-61 58 -149 60q-88 -2 -146 -60 q-63 -61 -63 -149zM450 1362q0 55 41 90q34 35 86 37q55 -2 90 -37t37 -90q-2 -51 -37 -86q-39 -41 -90 -41q-52 0 -86 41q-41 35 -41 86z" />
<glyph unicode="&#xe6;" horiz-adv-x="1821" d="M84 309q0 -80 37 -141q35 -62 94 -105q121 -86 272 -88q131 0 242 62q111 59 145 182h5q57 -137 184 -190q129 -54 266 -54q160 2 299 70v195q-55 -43 -131 -76q-78 -33 -158 -33q-151 2 -243 102q-97 99 -99 246h740v10q0 232 -95 402q-102 174 -364 178 q-113 0 -207 -41q-98 -43 -156 -141q-55 98 -153 141q-98 41 -207 41q-207 -4 -346 -100l10 -162q62 45 139 76q76 28 152 30q127 0 209 -61q84 -66 86 -217q-27 0 -80 6q-55 4 -137 4q-70 0 -154 -10t-164 -47q-80 -35 -131 -103q-55 -65 -55 -176zM289 303q0 68 39 109 q34 39 88 59q53 20 110 27q54 4 94 4q72 0 117 -2q47 -4 68 -4q-2 -148 -86 -254q-84 -109 -225 -111q-80 0 -140 43q-63 43 -65 129zM997 623q0 127 78 208q74 80 201 82q121 -2 188 -92q66 -88 68 -198h-535z" />
<glyph unicode="&#xe7;" horiz-adv-x="909" d="M78 522q2 -205 121 -350q116 -147 315 -186l-121 -162l35 -39q37 16 84 16q39 0 68 -18q26 -21 26 -61q-2 -54 -37 -74q-35 -21 -78 -21q-71 2 -133 31l-36 -70q79 -43 172 -43q98 0 180 45q41 23 65 60q23 35 23 84q-2 71 -49 112q-47 37 -121 37q-33 0 -62 -10l-4 4 l76 98h8q54 0 119 9q64 8 123 34l-14 172q-99 -59 -207 -59q-183 2 -264 127q-43 55 -62 127q-22 70 -22 137q0 156 88 273q88 114 247 118q97 0 209 -45l17 160q-101 39 -234 41q-243 -2 -385 -154q-145 -149 -147 -393z" />
<glyph unicode="&#xe8;" d="M94 541q0 -258 133 -410q131 -154 408 -156q127 2 203 25q73 23 127 43v193q-39 -31 -129 -66q-93 -39 -193 -39q-139 2 -240 98q-102 95 -104 250h745q0 127 -20 236q-23 106 -78 186q-104 164 -362 168q-224 -2 -355 -145q-133 -146 -135 -383zM299 623q10 108 76 196 q65 90 205 94q127 -2 194 -84q66 -84 66 -206h-541zM306 1485l269 -295h137l-182 295h-224z" />
<glyph unicode="&#xe9;" d="M94 541q0 -258 133 -410q131 -154 408 -156q127 2 203 25q73 23 127 43v193q-39 -31 -129 -66q-93 -39 -193 -39q-139 2 -240 98q-102 95 -104 250h745q0 127 -20 236q-23 106 -78 186q-104 164 -362 168q-224 -2 -355 -145q-133 -146 -135 -383zM299 623q10 108 76 196 q65 90 205 94q127 -2 194 -84q66 -84 66 -206h-541zM445 1190h138l268 295h-223z" />
<glyph unicode="&#xea;" d="M94 541q0 -258 133 -410q131 -154 408 -156q127 2 203 25q73 23 127 43v193q-39 -31 -129 -66q-93 -39 -193 -39q-139 2 -240 98q-102 95 -104 250h745q0 127 -20 236q-23 106 -78 186q-104 164 -362 168q-224 -2 -355 -145q-133 -146 -135 -383zM277 1190h161l134 200 l135 -200h164l-205 295h-187zM299 623q10 108 76 196q65 90 205 94q127 -2 194 -84q66 -84 66 -206h-541z" />
<glyph unicode="&#xeb;" d="M94 541q0 -258 133 -410q131 -154 408 -156q127 2 203 25q73 23 127 43v193q-39 -31 -129 -66q-93 -39 -193 -39q-139 2 -240 98q-102 95 -104 250h745q0 127 -20 236q-23 106 -78 186q-104 164 -362 168q-224 -2 -355 -145q-133 -146 -135 -383zM299 623q10 108 76 196 q65 90 205 94q127 -2 194 -84q66 -84 66 -206h-541zM312 1204h193v205h-193v-205zM648 1204h193v205h-193v-205z" />
<glyph unicode="&#xec;" horiz-adv-x="569" d="M9 1485l269 -295h137l-182 295h-224zM188 0h193v1044h-193v-1044z" />
<glyph unicode="&#xed;" horiz-adv-x="569" d="M148 1190h138l268 295h-223zM188 0h193v1044h-193v-1044z" />
<glyph unicode="&#xee;" horiz-adv-x="569" d="M-20 1190h161l134 200l135 -200h164l-205 295h-187zM188 0h193v1044h-193v-1044z" />
<glyph unicode="&#xef;" horiz-adv-x="569" d="M15 1204h193v205h-193v-205zM188 0h193v1044h-193v-1044zM351 1204h193v205h-193v-205z" />
<glyph unicode="&#xf0;" horiz-adv-x="1251" d="M94 522q2 -229 150 -383q143 -159 383 -164q239 5 385 164q143 154 145 383q0 139 -31 258q-30 121 -86 221q-114 207 -290 336l212 115l-94 108l-250 -135q-133 84 -280 135l-148 -108q127 -43 256 -119l-225 -121l94 -108l265 141q124 -88 223 -221h-4q-64 43 -172 45 q-244 -2 -385 -154q-146 -149 -148 -393zM299 522q0 156 88 273q84 114 240 118q155 -4 241 -118q84 -117 84 -273q0 -145 -78 -264q-79 -125 -247 -127q-168 2 -248 127q-80 119 -80 264z" />
<glyph unicode="&#xf1;" horiz-adv-x="1251" d="M164 0h192v483q0 195 78 312q78 116 240 118q221 -10 221 -348v-24v-541h192v620v11q0 430 -391 438q-110 0 -202 -49q-95 -51 -140 -141h-4v165h-186v-1044zM283 1200h94q6 39 28 68q20 26 60 26h6q67 -2 151 -45q41 -18 84 -33q41 -16 80 -16q51 0 88 27q37 22 58 57 q20 35 32 76q13 39 15 69h-94q-2 -34 -25 -65q-25 -29 -70 -29q-65 6 -149 49q-41 21 -82 33q-43 12 -84 12q-51 0 -86 -22q-37 -23 -57 -57q-21 -35 -31 -74q-12 -41 -18 -76z" />
<glyph unicode="&#xf2;" horiz-adv-x="1251" d="M94 522q2 -229 150 -383q143 -159 383 -164q239 5 385 164q143 154 145 383q-2 244 -145 393q-142 152 -385 154q-244 -2 -385 -154q-146 -149 -148 -393zM299 522q0 156 88 273q84 114 240 118q155 -4 241 -118q84 -117 84 -273q0 -145 -78 -264q-79 -125 -247 -127 q-168 2 -248 127q-80 119 -80 264zM364 1485l269 -295h137l-182 295h-224z" />
<glyph unicode="&#xf3;" horiz-adv-x="1251" d="M94 522q2 -229 150 -383q143 -159 383 -164q239 5 385 164q143 154 145 383q-2 244 -145 393q-142 152 -385 154q-244 -2 -385 -154q-146 -149 -148 -393zM299 522q0 156 88 273q84 114 240 118q155 -4 241 -118q84 -117 84 -273q0 -145 -78 -264q-79 -125 -247 -127 q-168 2 -248 127q-80 119 -80 264zM503 1190h138l268 295h-223z" />
<glyph unicode="&#xf4;" horiz-adv-x="1251" d="M94 522q2 -229 150 -383q143 -159 383 -164q239 5 385 164q143 154 145 383q-2 244 -145 393q-142 152 -385 154q-244 -2 -385 -154q-146 -149 -148 -393zM299 522q0 156 88 273q84 114 240 118q155 -4 241 -118q84 -117 84 -273q0 -145 -78 -264q-79 -125 -247 -127 q-168 2 -248 127q-80 119 -80 264zM338 1190h161l134 200l135 -200h164l-205 295h-187z" />
<glyph unicode="&#xf5;" horiz-adv-x="1251" d="M94 522q2 -229 150 -383q143 -159 383 -164q239 5 385 164q143 154 145 383q-2 244 -145 393q-142 152 -385 154q-244 -2 -385 -154q-146 -149 -148 -393zM283 1200h94q6 39 28 68q20 26 60 26h6q67 -2 151 -45q41 -18 84 -33q41 -16 80 -16q51 0 88 27q37 22 58 57 q20 35 32 76q13 39 15 69h-94q-2 -34 -25 -65q-25 -29 -70 -29q-65 6 -149 49q-41 21 -82 33q-43 12 -84 12q-51 0 -86 -22q-37 -23 -57 -57q-21 -35 -31 -74q-12 -41 -18 -76zM299 522q0 156 88 273q84 114 240 118q155 -4 241 -118q84 -117 84 -273q0 -145 -78 -264 q-79 -125 -247 -127q-168 2 -248 127q-80 119 -80 264z" />
<glyph unicode="&#xf6;" horiz-adv-x="1251" d="M94 522q2 -229 150 -383q143 -159 383 -164q239 5 385 164q143 154 145 383q-2 244 -145 393q-142 152 -385 154q-244 -2 -385 -154q-146 -149 -148 -393zM299 522q0 156 88 273q84 114 240 118q155 -4 241 -118q84 -117 84 -273q0 -145 -78 -264q-79 -125 -247 -127 q-168 2 -248 127q-80 119 -80 264zM370 1204h193v205h-193v-205zM706 1204h193v205h-193v-205z" />
<glyph unicode="&#xf7;" horiz-adv-x="1229" d="M96 428h1036v180h-1036v-180zM459 94q0 -63 49 -108q45 -47 110 -49q64 2 109 51q43 45 45 106q-2 66 -47 111t-109 45q-65 0 -110 -45q-47 -45 -47 -111zM459 942q0 -63 49 -109q45 -47 110 -47q64 2 109 50q43 45 45 106q-2 66 -47 111t-109 47q-65 0 -110 -45 q-47 -45 -47 -113z" />
<glyph unicode="&#xf8;" horiz-adv-x="1251" d="M94 522q2 -233 154 -389l-117 -145l61 -51l117 141q129 -101 318 -103q239 5 385 164q143 154 145 383q-2 250 -156 402l109 133l-61 51l-109 -133q-129 94 -313 94q-244 -2 -385 -154q-146 -149 -148 -393zM299 522q0 156 88 273q84 114 240 118q123 -2 198 -77 l-458 -560q-68 112 -68 239v7zM418 211l461 563q71 -108 73 -252q0 -145 -78 -264q-79 -125 -247 -127q-131 2 -209 80z" />
<glyph unicode="&#xf9;" horiz-adv-x="1251" d="M164 424v-9q0 -431 391 -440q113 2 205 52q92 49 137 139h4v-166h186v1044h-192v-483q0 -192 -76 -309q-76 -119 -242 -121q-221 12 -221 349v24v540h-192v-620zM357 1485l269 -295h137l-182 295h-224z" />
<glyph unicode="&#xfa;" horiz-adv-x="1251" d="M164 424v-9q0 -431 391 -440q113 2 205 52q92 49 137 139h4v-166h186v1044h-192v-483q0 -192 -76 -309q-76 -119 -242 -121q-221 12 -221 349v24v540h-192v-620zM499 1190h138l268 295h-223z" />
<glyph unicode="&#xfb;" horiz-adv-x="1251" d="M164 424v-9q0 -431 391 -440q113 2 205 52q92 49 137 139h4v-166h186v1044h-192v-483q0 -192 -76 -309q-76 -119 -242 -121q-221 12 -221 349v24v540h-192v-620zM331 1190h161l134 200l135 -200h164l-205 295h-187z" />
<glyph unicode="&#xfc;" horiz-adv-x="1251" d="M164 424v-9q0 -431 391 -440q113 2 205 52q92 49 137 139h4v-166h186v1044h-192v-483q0 -192 -76 -309q-76 -119 -242 -121q-221 12 -221 349v24v540h-192v-620zM366 1204h193v205h-193v-205zM702 1204h193v205h-193v-205z" />
<glyph unicode="&#xfd;" horiz-adv-x="1024" d="M14 1044l355 -974q10 -27 24 -60q10 -30 12 -51q0 -29 -49 -135q-26 -47 -69 -84q-45 -37 -111 -39q-51 2 -90 16l-12 -157q45 -13 131 -15q94 2 162 43q67 39 108 101q45 61 76 139q31 76 55 149l385 1067h-194l-287 -864h-4l-281 864h-211zM387 1190h138l268 295h-223z " />
<glyph unicode="&#xfe;" horiz-adv-x="1251" d="M164 -430h192v573h4q45 -71 129 -118q82 -48 220 -50q235 5 344 177q104 165 104 389q0 219 -111 370q-112 154 -339 158q-136 0 -218 -45q-84 -47 -129 -123h-4v635h-192v-1966zM356 520q0 154 78 270q76 119 232 123q155 -4 225 -120q61 -110 61 -250v-17v-15 q0 -123 -63 -243q-35 -59 -90 -96q-56 -41 -135 -41q-162 4 -234 131q-74 118 -74 251v7z" />
<glyph unicode="&#xff;" horiz-adv-x="1024" d="M14 1044l355 -974q10 -27 24 -60q10 -30 12 -51q0 -29 -49 -135q-26 -47 -69 -84q-45 -37 -111 -39q-51 2 -90 16l-12 -157q45 -13 131 -15q94 2 162 43q67 39 108 101q45 61 76 139q31 76 55 149l385 1067h-194l-287 -864h-4l-281 864h-211zM254 1204h193v205h-193v-205 zM590 1204h193v205h-193v-205z" />
<glyph unicode="&#x131;" horiz-adv-x="569" d="M188 0h193v1044h-193v-1044z" />
<glyph unicode="&#x152;" horiz-adv-x="1933" d="M109 733q4 -356 223 -549q215 -194 561 -196q160 8 319 12h594v180h-592v471h537v180h-537v418h578v180h-596q-147 7 -299 13q-356 -2 -567 -191q-219 -188 -221 -518zM326 733q10 524 559 528q63 -2 125 -12v-1069q-31 -6 -62 -8q-31 -4 -61 -4q-250 0 -402 147 q-157 146 -159 418z" />
<glyph unicode="&#x153;" horiz-adv-x="1933" d="M84 522q0 -239 139 -389q137 -153 379 -158q119 0 236 54q114 51 174 172q57 -115 168 -170q112 -56 262 -56q159 2 299 70v195q-56 -43 -131 -76q-78 -33 -158 -33q-152 2 -244 102q-96 99 -98 246h739v10q0 232 -94 402q-102 174 -365 178q-126 0 -223 -49 q-98 -51 -149 -156q-121 205 -416 205q-242 -4 -379 -166q-139 -162 -139 -381zM289 522q0 137 76 262q77 125 239 129q164 -4 240 -129q73 -125 73 -262q0 -145 -79 -264q-80 -125 -234 -127q-168 2 -242 121q-73 112 -73 262v8zM1110 623q0 127 78 208q73 80 200 82 q121 -2 189 -92q65 -88 67 -198h-534z" />
<glyph unicode="&#x178;" horiz-adv-x="1366" d="M23 1429l559 -831v-598h204v598l557 831h-239l-416 -641l-426 641h-239zM432 1548h193v205h-193v-205zM768 1548h193v205h-193v-205z" />
<glyph unicode="&#x2c6;" horiz-adv-x="569" d="M-12 1190h161l134 200l135 -200h164l-205 295h-187z" />
<glyph unicode="&#x2da;" horiz-adv-x="569" d="M76 1362q0 -88 63 -146q62 -63 146 -63q88 0 149 63q57 62 60 146q-3 88 -60 149q-61 58 -149 60q-88 -2 -146 -60q-63 -61 -63 -149zM158 1362q0 55 41 90q34 35 86 37q55 -2 90 -37t37 -90q-2 -51 -37 -86q-39 -41 -90 -41q-52 0 -86 41q-41 35 -41 86z" />
<glyph unicode="&#x2dc;" horiz-adv-x="569" d="M-63 1200h94q6 39 28 68q20 26 60 26h6q67 -2 151 -45q41 -18 84 -33q41 -16 80 -16q51 0 88 27q37 22 58 57q20 35 32 76q13 39 15 69h-94q-2 -34 -25 -65q-25 -29 -70 -29q-65 6 -149 49q-41 21 -82 33q-43 12 -84 12q-51 0 -86 -22q-37 -23 -57 -57q-21 -35 -31 -74 q-12 -41 -18 -76z" />
<glyph unicode="&#x2000;" horiz-adv-x="957" />
<glyph unicode="&#x2001;" horiz-adv-x="1915" />
<glyph unicode="&#x2002;" horiz-adv-x="957" />
<glyph unicode="&#x2003;" horiz-adv-x="1915" />
<glyph unicode="&#x2004;" horiz-adv-x="638" />
<glyph unicode="&#x2005;" horiz-adv-x="478" />
<glyph unicode="&#x2006;" horiz-adv-x="319" />
<glyph unicode="&#x2007;" horiz-adv-x="319" />
<glyph unicode="&#x2008;" horiz-adv-x="239" />
<glyph unicode="&#x2009;" horiz-adv-x="383" />
<glyph unicode="&#x200a;" horiz-adv-x="106" />
<glyph unicode="&#x2010;" horiz-adv-x="682" d="M78 473h526v156h-526v-156z" />
<glyph unicode="&#x2011;" horiz-adv-x="682" d="M78 473h526v156h-526v-156z" />
<glyph unicode="&#x2012;" horiz-adv-x="682" d="M78 473h526v156h-526v-156z" />
<glyph unicode="&#x2013;" horiz-adv-x="1024" d="M0 479h1024v144h-1024v-144z" />
<glyph unicode="&#x2014;" horiz-adv-x="2048" d="M0 479h2048v144h-2048v-144z" />
<glyph unicode="&#x2018;" horiz-adv-x="569" d="M106 928h228l129 501h-182z" />
<glyph unicode="&#x2019;" horiz-adv-x="569" d="M106 928h177l180 501h-230z" />
<glyph unicode="&#x201a;" horiz-adv-x="569" d="M106 -272h183l174 501h-227z" />
<glyph unicode="&#x201c;" d="M197 928h229l127 501h-180zM586 928h225l131 501h-184z" />
<glyph unicode="&#x201d;" d="M197 928h182l174 501h-227zM586 928h182l174 501h-227z" />
<glyph unicode="&#x201e;" d="M197 -272h182l174 501h-227zM586 -272h182l174 501h-227z" />
<glyph unicode="&#x2022;" horiz-adv-x="1024" d="M156 715q2 -154 106 -252q98 -105 250 -107q154 2 256 107q100 98 102 252q-2 155 -102 254q-102 100 -256 102q-152 -2 -250 -102q-104 -99 -106 -254z" />
<glyph unicode="&#x2026;" horiz-adv-x="2048" d="M227 0h230v229h-230v-229zM909 0h230v229h-230v-229zM1591 0h230v229h-230v-229z" />
<glyph unicode="&#x202f;" horiz-adv-x="383" />
<glyph unicode="&#x2039;" horiz-adv-x="569" d="M41 551l293 -414h180l-266 414l266 414h-180z" />
<glyph unicode="&#x203a;" horiz-adv-x="569" d="M55 137h181l292 414l-292 414h-181l267 -414z" />
<glyph unicode="&#x205f;" horiz-adv-x="478" />
<glyph unicode="&#x2122;" horiz-adv-x="2027" d="M111 1286h262v-709h155v709h262v143h-679v-143zM991 577h156v652h4l239 -652h127l240 652h4v-652h156v852h-242l-219 -575l-223 575h-242v-852z" />
<glyph unicode="&#xe000;" horiz-adv-x="1045" d="M0 1045h1045v-1045h-1045v1045z" />
<glyph unicode="&#xfb01;" horiz-adv-x="1366" d="M43 889h246v-889h192v889h277v155h-277v113v12q0 101 33 166q35 68 154 70q53 0 92 -12l8 155q-57 10 -129 12q-207 -2 -281 -112q-69 -110 -69 -296v-11v-97h-246v-155zM973 1278h217v217h-217v-217zM985 0h193v1044h-193v-1044z" />
<glyph unicode="&#xfb02;" horiz-adv-x="1366" d="M43 889h246v-889h192v889h277v155h-277v113v12q0 101 33 166q35 68 154 70q53 0 92 -12l8 155q-57 10 -129 12q-207 -2 -281 -112q-69 -110 -69 -296v-11v-97h-246v-155zM985 0h193v1536h-193v-1536z" />
<glyph unicode="&#xfb03;" horiz-adv-x="2163" d="M43 889h246v-889h192v889h277v155h-277v113v12q0 101 33 166q35 68 154 70q53 0 92 -12l8 155q-57 10 -129 12q-207 -2 -281 -112q-69 -110 -69 -296v-11v-97h-246v-155zM840 889h246v-889h192v889h277v155h-277v113v12q0 101 33 166q35 68 154 70q53 0 92 -12l8 155 q-57 10 -129 12q-207 -2 -281 -112q-69 -110 -69 -296v-11v-97h-246v-155zM1770 1278h217v217h-217v-217zM1782 0h193v1044h-193v-1044z" />
<glyph unicode="&#xfb04;" horiz-adv-x="2163" d="M43 889h246v-889h192v889h277v155h-277v113v12q0 101 33 166q35 68 154 70q53 0 92 -12l8 155q-57 10 -129 12q-207 -2 -281 -112q-69 -110 -69 -296v-11v-97h-246v-155zM840 889h246v-889h192v889h277v155h-277v113v12q0 101 33 166q35 68 154 70q53 0 92 -12l8 155 q-57 10 -129 12q-207 -2 -281 -112q-69 -110 -69 -296v-11v-97h-246v-155zM1782 0h193v1536h-193v-1536z" />
</font>
</defs>
</svg>
