<?xml version="1.0" standalone="no"?>
<!DOCTYPE svg PUBLIC "-//W3C//DTD SVG 1.1//EN" "http://www.w3.org/Graphics/SVG/1.1/DTD/svg11.dtd" >
<svg xmlns="http://www.w3.org/2000/svg">
<metadata>
This is a custom SVG webfont generated by Font Squirrel.
Copyright   : Copyright 19881991 Adobe Systems Inc
</metadata>
<defs>
<font id="Frutiger45LightBold" horiz-adv-x="1139" >
<font-face units-per-em="2048" ascent="1638" descent="-410" />
<missing-glyph horiz-adv-x="569" />
<glyph unicode=" "  horiz-adv-x="569" />
<glyph unicode="&#x09;" horiz-adv-x="569" />
<glyph unicode="&#xa0;" horiz-adv-x="569" />
<glyph unicode="!" horiz-adv-x="797" d="M242 1429l39 -1009h233l43 1009h-315zM256 0h287v287h-287v-287z" />
<glyph unicode="&#x22;" horiz-adv-x="985" d="M180 917h250v512h-250v-512zM555 917h250v512h-250v-512z" />
<glyph unicode="#" d="M68 420h184l-60 -420h181l61 420h209l-59 -420h180l59 420h189v164h-166l35 262h190v164h-166l57 419h-180l-57 -419h-209l57 419h-182l-57 -419h-205v-164h180l-35 -262h-206v-164zM457 584l34 262h209l-34 -262h-209z" />
<glyph unicode="$" d="M119 1018q0 -105 39 -174q39 -74 98 -119q61 -45 133 -78t141 -59v-383q-20 -4 -39 -4q-172 2 -323 88l-27 -258q103 -25 181 -39q75 -17 186 -17q10 0 22 2v-161h97v168q182 20 299 122q116 103 118 302q0 110 -39 184q-38 74 -102 121q-61 47 -133 80q-74 30 -143 55 v379q8 2 16 2q154 -2 291 -62l26 236q-153 51 -333 51v147h-97v-151q-168 -17 -286 -119q-123 -102 -125 -313zM418 1030q0 74 33 115q32 43 79 63v-319q-51 26 -79 59q-33 33 -33 82zM627 229v314q53 -25 86 -62q32 -39 32 -96q0 -55 -32 -94q-33 -39 -86 -62z" />
<glyph unicode="%" horiz-adv-x="2048" d="M217 1077q4 -373 344 -377q336 4 340 377q-4 371 -340 377q-340 -6 -344 -377zM430 1077v9q0 67 27 132q26 70 104 72q82 -2 107 -72q20 -69 20 -141q0 -69 -20 -137q-25 -74 -107 -76q-78 2 -104 76q-27 64 -27 128v9zM502 -45h168l884 1519h-168zM1149 352 q4 -370 344 -377q336 7 340 377q-4 371 -340 377q-340 -6 -344 -377zM1362 352v10q0 67 26 132q27 69 105 71q82 -2 106 -71q21 -70 21 -142q0 -69 -21 -137q-24 -74 -106 -76q-78 2 -105 76q-26 63 -26 128v9z" />
<glyph unicode="&#x26;" horiz-adv-x="1479" d="M123 391q2 -201 149 -307q144 -109 361 -109q108 0 211 39q102 37 178 113l96 -127h352l-256 287q172 211 183 489h-250q-2 -84 -19 -166q-20 -82 -71 -145l-262 287q118 65 198 151q76 84 78 227q-4 174 -129 250q-125 74 -283 74q-159 0 -290 -80q-140 -82 -144 -246 q0 -118 60 -192q55 -76 139 -152q-166 -69 -236 -166q-65 -95 -65 -220v-7zM397 399q0 86 54 140q49 55 120 90l318 -355q-47 -45 -111 -65q-65 -21 -139 -21q-100 0 -168 60q-72 57 -74 151zM500 1102q0 80 51 116q49 35 113 35q65 0 110 -35q45 -36 47 -112 q-2 -64 -65 -121q-60 -57 -121 -86q-43 43 -86 94q-47 49 -49 109z" />
<glyph unicode="'" horiz-adv-x="569" d="M160 917h250v512h-250v-512z" />
<glyph unicode="(" horiz-adv-x="682" d="M80 631q4 -512 328 -918h260q-289 406 -297 918q0 280 84 497q79 215 213 420h-260q-156 -205 -240 -420q-88 -217 -88 -497z" />
<glyph unicode=")" horiz-adv-x="682" d="M14 -287h258q324 406 330 918q0 280 -88 497q-86 215 -242 420h-258q133 -205 215 -420q80 -217 82 -497q-10 -512 -297 -918z" />
<glyph unicode="*" d="M147 1036l281 -63l-201 -219l187 -136l155 254l146 -254l188 136l-196 219l284 63l-65 213l-273 -114l35 294h-233l32 -297l-272 117z" />
<glyph unicode="+" horiz-adv-x="1229" d="M94 412h414v-412h213v412h414v213h-414v411h-213v-411h-414v-213z" />
<glyph unicode="," horiz-adv-x="569" d="M47 -225h242l186 512h-297z" />
<glyph unicode="-" horiz-adv-x="682" d="M72 438h538v226h-538v-226z" />
<glyph unicode="." horiz-adv-x="569" d="M141 0h287v287h-287v-287z" />
<glyph unicode="/" horiz-adv-x="797" d="M43 -25h213l500 1479h-213z" />
<glyph unicode="0" d="M72 711q0 -113 16 -238q16 -127 68 -240q51 -112 151 -182q98 -74 260 -76q156 2 254 70t152 176q55 111 76 238q18 127 18 252q0 127 -18 258q-21 131 -74 239q-53 109 -152 178q-100 66 -256 68q-143 0 -237 -64q-97 -65 -154 -172q-55 -106 -80 -237 q-24 -133 -24 -270zM358 711q0 73 4 163q7 88 23 172q20 86 63 140q43 53 119 55q80 -2 125 -55q43 -54 62 -140q20 -84 24 -172q2 -90 2 -163v-156q-4 -88 -24 -172q-19 -82 -62 -137q-45 -58 -127 -58q-76 0 -119 58q-43 55 -63 137q-16 84 -23 172q-4 88 -4 156z" />
<glyph unicode="1" d="M162 1094l143 -187l242 197v-1104h286v1429h-253z" />
<glyph unicode="2" d="M84 0h950v225h-583q186 172 358 379q82 103 131 211q47 109 49 221q-10 418 -448 418q-224 -2 -424 -102l22 -238q72 47 156 82q84 33 174 33q94 0 162 -45q69 -49 71 -148q-2 -100 -75 -215q-74 -114 -183 -231q-104 -115 -204 -205l-156 -145v-240z" />
<glyph unicode="3" d="M92 23q174 -48 375 -48q92 0 188 21q47 12 92 29q43 16 84 36q82 50 134 131q47 84 49 209q0 136 -68 228q-67 92 -205 112v4q115 41 191 121q73 78 76 221q-3 117 -48 189q-47 71 -120 110q-72 41 -154 56q-80 12 -149 12q-224 -2 -400 -72l17 -229q151 76 321 76 q102 0 172 -39q35 -21 55 -58q19 -36 19 -92q-2 -92 -86 -139q-84 -49 -232 -49h-131v-225h140q141 0 227 -47q86 -52 88 -177q0 -53 -29 -90q-28 -41 -75 -65q-48 -23 -97 -35q-53 -12 -100 -12q-170 2 -317 65z" />
<glyph unicode="4" d="M33 297h616v-297h275v297h182v213h-182v919h-357l-534 -901v-231zM291 510l354 620h4v-620h-358z" />
<glyph unicode="5" d="M147 16q156 -39 334 -41q277 5 418 144q139 137 139 342q0 141 -41 231q-43 90 -112 141q-70 54 -148 74q-82 19 -160 19q-81 -2 -131 -15l7 305h550v213h-821l-14 -768q65 23 129 31q61 8 127 8q129 0 225 -53q101 -57 103 -194q-2 -136 -97 -193q-90 -59 -209 -59 q-92 0 -165 26q-74 23 -127 45z" />
<glyph unicode="6" d="M90 641q0 -127 23 -244q20 -118 71 -213q101 -202 391 -209q242 2 361 142q115 139 115 372q-5 426 -418 437q-178 0 -277 -144l-4 4q4 168 82 301q78 138 258 142q74 0 133 -17q62 -16 117 -41l37 232q-146 51 -301 51q-340 -8 -465 -260q-123 -240 -123 -534v-19z M377 442q0 111 45 191q45 78 147 80q105 -2 150 -80q45 -80 45 -189q0 -98 -43 -174q-45 -80 -146 -82q-102 2 -151 78q-47 72 -47 176z" />
<glyph unicode="7" d="M102 1204h633l-530 -1204h311l508 1192v237h-922v-225z" />
<glyph unicode="8" d="M72 387q2 -217 149 -313q141 -99 354 -99q218 0 353 101q139 101 139 319q0 241 -274 371v2q118 53 180 147q57 97 57 195q-4 180 -143 264q-140 80 -336 80q-197 0 -324 -90q-129 -94 -131 -287q0 -112 66 -196q63 -86 172 -136v-4q-262 -121 -262 -354zM358 391 q0 92 54 146q51 55 129 90q94 -27 166 -84q71 -58 73 -164q-2 -90 -59 -139q-57 -52 -146 -52q-88 0 -149 60q-66 53 -68 143zM371 1069q2 86 67 129q62 43 142 43q84 -2 131 -49q45 -49 45 -131q-2 -68 -47 -125q-50 -57 -113 -82q-37 14 -74 35q-39 18 -74 43 q-32 24 -55 59q-22 33 -22 78z" />
<glyph unicode="9" d="M90 940q2 -426 418 -436h5q174 0 271 143l4 -4q-4 -168 -77 -301q-78 -137 -263 -141q-139 2 -249 57l-37 -231q145 -52 301 -52q340 9 469 263q119 243 119 540v10v21q0 250 -93 440q-51 94 -147 150q-96 53 -246 55q-241 -2 -358 -139t-117 -375zM377 985q0 100 45 178 q45 76 143 78q107 -2 154 -76q45 -73 45 -178q0 -111 -43 -188q-45 -80 -150 -82q-100 2 -147 84q-47 78 -47 184z" />
<glyph unicode=":" horiz-adv-x="569" d="M141 0h287v287h-287v-287zM141 768h287v287h-287v-287z" />
<glyph unicode=";" horiz-adv-x="569" d="M47 -225h242l186 512h-297zM141 768h287v287h-287v-287z" />
<glyph unicode="&#x3c;" horiz-adv-x="1229" d="M94 430l1041 -446v208l-764 326l764 326v209l-1041 -447v-176z" />
<glyph unicode="=" horiz-adv-x="1229" d="M94 188h1041v213h-1041v-213zM94 635h1041v213h-1041v-213z" />
<glyph unicode="&#x3e;" horiz-adv-x="1229" d="M94 -16l1041 446v176l-1041 447v-209l764 -326l-764 -326v-208z" />
<glyph unicode="?" horiz-adv-x="1024" d="M102 1386l23 -227q149 78 315 82q92 0 164 -41q70 -45 72 -145q-2 -78 -45 -133q-45 -56 -107 -119q-57 -60 -100 -150q-47 -90 -49 -235h252q-1 11 -1 23q0 86 48 157q49 78 119 149q71 72 126 154q54 82 56 186q-4 195 -144 283q-139 84 -323 84q-207 -2 -406 -68z M358 0h287v287h-287v-287z" />
<glyph unicode="@" horiz-adv-x="1638" d="M76 715q6 -369 239 -553q226 -187 504 -187h10q401 0 637 318h-174q-98 -78 -223 -105q-116 -24 -232 -24h-18q-233 2 -379 158q-149 151 -151 393q2 225 162 387q157 159 417 164q94 0 187 -17q47 -8 90 -24q43 -19 80 -43q79 -45 127 -127q47 -82 47 -209 q-2 -189 -76 -275q-74 -88 -156 -88q-32 0 -30 31q0 33 14 70l113 497h-172l-25 -98q-88 131 -238 131q-178 -4 -297 -143q-122 -142 -124 -351q2 -149 96 -241q90 -96 221 -96q65 0 117 32q53 29 90 74h4q4 -53 37 -78q28 -28 73 -28q56 0 140 32q86 31 170 97 q88 67 147 178q57 106 60 262q-7 315 -222 461q-211 141 -473 141q-350 -4 -567 -215q-223 -209 -225 -524zM620 651q0 96 66 178q61 82 164 84q72 0 112 -45q39 -43 39 -118q0 -99 -63 -181q-64 -84 -164 -86q-72 0 -113 49q-41 48 -41 119z" />
<glyph unicode="A" horiz-adv-x="1479" d="M18 0h297l125 328h580l123 -328h317l-561 1429h-324zM522 553l207 590h4l207 -590h-418z" />
<glyph unicode="B" horiz-adv-x="1251" d="M166 0h500q69 0 157 16q86 15 164 58q80 43 131 125t51 215q-2 135 -90 223t-237 102v4q131 25 207 109q75 84 77 211q-2 119 -43 192q-45 72 -116 111q-70 39 -148 53q-82 10 -153 10h-500v-1429zM453 852v352h110q51 0 101 -2q47 -4 88 -22q41 -17 65 -54 q23 -37 23 -100q0 -55 -23 -88q-24 -35 -65 -53q-79 -33 -172 -33h-11h-116zM453 225v414h135q55 0 108 -4q51 -8 94 -33q43 -20 68 -63q25 -45 25 -115q-2 -119 -97 -160q-43 -20 -94 -31q-51 -8 -104 -8h-135z" />
<glyph unicode="C" horiz-adv-x="1251" d="M96 690q2 -362 221 -536q211 -179 564 -179q165 2 325 45l-12 240q-51 -24 -137 -41q-88 -18 -176 -18q-230 2 -357 147q-129 139 -129 363q0 225 131 370q125 146 348 148q78 0 154 -13q76 -18 156 -63l20 242q-170 59 -323 59q-770 -8 -785 -764z" />
<glyph unicode="D" horiz-adv-x="1479" d="M166 0h391q168 0 315 33q148 33 263 112q116 82 182 222q65 137 65 348q0 215 -65 354q-66 137 -182 217q-232 143 -560 143h-18h-391v-1429zM453 225v979h159q189 0 328 -127t143 -362q-4 -234 -143 -361q-139 -129 -328 -129h-159z" />
<glyph unicode="E" d="M166 0h848v225h-561v402h509v225h-509v352h557v225h-844v-1429z" />
<glyph unicode="F" horiz-adv-x="1024" d="M166 0h287v627h483v225h-483v352h507v225h-794v-1429z" />
<glyph unicode="G" horiz-adv-x="1479" d="M96 690q2 -362 221 -536q211 -179 564 -179q233 5 462 74v770h-577v-225h303v-373q-72 -20 -188 -20q-230 2 -357 147q-129 139 -129 363q0 225 135 370q134 146 383 148q189 0 369 -76l18 242q-178 57 -419 59q-770 -8 -785 -764z" />
<glyph unicode="H" horiz-adv-x="1479" d="M166 0h287v627h573v-627h287v1429h-287v-577h-573v577h-287v-1429z" />
<glyph unicode="I" horiz-adv-x="569" d="M141 0h287v1429h-287v-1429z" />
<glyph unicode="J" horiz-adv-x="797" d="M45 2q111 -27 219 -27q111 2 187 37q75 35 120 90q45 58 66 119q18 64 18 119v1089h-286v-952q2 -82 -23 -162q-14 -36 -53 -63t-111 -27q-82 0 -137 25v-248z" />
<glyph unicode="K" horiz-adv-x="1366" d="M166 0h287v664h4l514 -664h374l-612 756l588 673h-352l-516 -614v614h-287v-1429z" />
<glyph unicode="L" horiz-adv-x="1024" d="M166 0h842v225h-555v1204h-287v-1429z" />
<glyph unicode="M" horiz-adv-x="1933" d="M166 0h274v1175l4 5l385 -1180h275l385 1180h4v-1180h274v1429h-458l-340 -1083h-4l-340 1083h-459v-1429z" />
<glyph unicode="N" horiz-adv-x="1479" d="M152 0h274v1069h4l547 -1069h350v1429h-274v-1069h-4l-545 1069h-352v-1429z" />
<glyph unicode="O" horiz-adv-x="1593" d="M96 719q0 -334 180 -535q177 -204 521 -209q342 5 522 211q176 203 178 533q0 332 -180 530q-180 201 -520 205q-342 -2 -521 -203q-180 -198 -180 -532zM395 719q0 198 96 350q95 156 306 160q213 -4 309 -160q92 -152 92 -350q0 -201 -90 -354q-45 -74 -123 -119 t-188 -45q-215 4 -310 164q-92 150 -92 346v8z" />
<glyph unicode="P" d="M141 0h287v543h121h9q231 0 384 104q156 105 158 350q-4 254 -181 346q-170 86 -404 86h-11h-363v-1429zM428 768v436h100q115 0 193 -49q37 -25 59 -68q21 -43 21 -106q-2 -121 -80 -168q-77 -45 -184 -45h-9h-100z" />
<glyph unicode="Q" horiz-adv-x="1593" d="M96 719q0 -334 180 -535q177 -204 521 -209q36 0 67 5l250 -250h346l-323 321q358 189 360 668q0 332 -180 530q-180 201 -520 205q-342 -2 -521 -203q-180 -198 -180 -532zM395 719q0 198 96 350q95 156 306 160q213 -4 309 -160q92 -152 92 -350q0 -201 -90 -354 q-45 -74 -123 -119t-188 -45q-215 4 -310 164q-92 150 -92 346v8z" />
<glyph unicode="R" horiz-adv-x="1251" d="M141 0h287v594h92q88 0 131 -33q41 -35 68 -115l172 -446h319l-229 559q-21 51 -57 96q-37 45 -95 52v4q140 20 217 112q78 92 78 219q-2 150 -59 230q-60 82 -160 114q-98 35 -217 41q-119 2 -237 2h-310v-1429zM428 819v385h94q55 0 111 -2q53 -6 96 -24q43 -19 72 -56 q24 -39 24 -104q0 -64 -24 -105q-29 -39 -72 -59q-43 -21 -96 -27q-56 -8 -111 -8h-94z" />
<glyph unicode="S" d="M119 1018q0 -86 28 -150q29 -63 72 -108q47 -43 103 -74q53 -33 112 -57q121 -45 215 -95q43 -24 72 -61q24 -37 24 -88q-2 -94 -84 -139q-81 -45 -170 -45q-172 2 -323 88l-27 -258q103 -25 181 -39q75 -17 186 -17q225 0 379 101q153 100 157 332q0 92 -24 157 q-29 64 -72 109q-43 47 -100 80q-55 30 -115 53l-113 47q-55 20 -102 45q-43 25 -72 55q-28 31 -28 76q0 59 22 98q23 41 56 62q34 22 73 31q37 8 74 8q154 -2 291 -62l26 236q-157 51 -342 51q-194 0 -342 -96q-153 -103 -157 -340z" />
<glyph unicode="T" d="M16 1204h410v-1204h287v1204h409v225h-1106v-225z" />
<glyph unicode="U" horiz-adv-x="1479" d="M156 516q8 -549 583 -541q576 -8 584 541v913h-287v-825q0 -184 -65 -291q-68 -112 -232 -112q-159 0 -229 112q-70 107 -68 291v825h-286v-913z" />
<glyph unicode="V" horiz-adv-x="1366" d="M20 1429l492 -1429h352l481 1429h-284l-363 -1122h-4l-366 1122h-308z" />
<glyph unicode="W" horiz-adv-x="2048" d="M20 1429l379 -1429h371l254 1143h4l258 -1143h369l372 1429h-278l-268 -1142h-4l-252 1142h-389l-244 -1142h-4l-266 1142h-302z" />
<glyph unicode="X" horiz-adv-x="1366" d="M20 0h324l334 557l330 -557h337l-469 743l431 686h-308l-305 -510l-299 510h-332l426 -686z" />
<glyph unicode="Y" horiz-adv-x="1366" d="M23 1429l522 -864v-565h286v565l512 864h-303l-344 -600l-338 600h-335z" />
<glyph unicode="Z" d="M74 0h991v225h-692l678 971v233h-951v-225h645l-671 -971v-233z" />
<glyph unicode="[" horiz-adv-x="682" d="M147 -287h459v201h-196v1433h196v201h-459v-1835z" />
<glyph unicode="\" horiz-adv-x="797" d="M41 1454l500 -1479h213l-500 1479h-213z" />
<glyph unicode="]" horiz-adv-x="682" d="M76 -86v-201h458v1835h-458v-201h196v-1433h-196z" />
<glyph unicode="^" horiz-adv-x="1229" d="M135 641h213l266 573l267 -573h213l-383 788h-193z" />
<glyph unicode="_" horiz-adv-x="1024" d="M0 -154v-102h1024v102h-1024z" />
<glyph unicode="`" horiz-adv-x="569" d="M59 1497l281 -299h170l-170 299h-281z" />
<glyph unicode="a" d="M74 289q2 -152 116 -232q109 -80 252 -82q99 0 189 50q88 47 137 133h4q0 -62 12 -158h242q-8 119 -12 236q-4 110 -4 264v135v11q0 433 -443 433h-12q-190 -2 -367 -80l9 -235q145 112 325 115q123 0 180 -50q58 -51 58 -178h-152q-86 0 -180 -10q-92 -12 -174 -51 q-78 -35 -127 -109q-53 -73 -53 -192zM336 305q0 62 33 98q28 37 75 56q47 18 101 24q24 4 49 4h47h119v-8q0 -120 -58 -209q-65 -92 -192 -94q-76 0 -123 33q-51 31 -51 96z" />
<glyph unicode="b" horiz-adv-x="1251" d="M141 0h267v129h4q63 -82 149 -119q86 -35 174 -35q240 5 344 170q99 159 99 376v8.5v9.5q0 220 -99 376q-104 160 -344 164q-209 -2 -315 -160h-4v617h-275v-1536zM418 530q0 119 57 224q57 108 189 112q67 0 112 -30q45 -31 70 -82q45 -109 45 -224q0 -53 -8 -112 q-13 -60 -39 -113q-25 -49 -70 -82q-47 -35 -115 -35q-67 0 -112 35q-45 33 -74 82q-55 103 -55 217v8z" />
<glyph unicode="c" horiz-adv-x="909" d="M74 532q0 -243 133 -397q129 -158 387 -160q86 0 151 11q66 6 123 24l-12 228q-35 -17 -92 -31q-60 -19 -119 -19q-143 2 -213 101q-72 96 -72 243q0 154 78 244q74 88 201 90q63 0 108 -10q43 -10 78 -29l25 217q-107 35 -266 35q-246 -2 -377 -157q-133 -154 -133 -390 z" />
<glyph unicode="d" horiz-adv-x="1251" d="M74 530v-9q0 -218 100 -376q102 -165 342 -170h5q193 0 319 144h4v-119h266v1536h-274v-604h-5q-116 147 -315 147q-240 -4 -342 -164q-100 -156 -100 -376v-9zM360 530q0 56 13 115q10 59 35 109q51 108 180 112q67 0 114 -30q45 -31 76 -82q55 -105 55 -224 q0 -55 -10 -114q-12 -60 -41 -111q-26 -49 -73 -82q-45 -35 -117 -35q-68 0 -111 35q-45 33 -71 82q-50 107 -50 217v8z" />
<glyph unicode="e" d="M74 522q6 -538 551 -547q217 0 362 84v224q-76 -45 -162 -74q-88 -33 -188 -33q-127 0 -209 72q-82 67 -92 194h729v11q0 276 -103 448q-110 176 -399 178q-244 -4 -366 -162q-123 -159 -123 -395zM336 631q8 108 69 178q62 67 175 70q114 -3 167 -74q52 -70 56 -174 h-467z" />
<glyph unicode="f" horiz-adv-x="797" d="M39 854h203v-854h274v854h240v201h-240v131q0 63 27 112q26 47 94 49q47 0 74 -10q26 -12 45 -26l22 227q-88 20 -201 22q-163 -2 -247 -98q-88 -98 -88 -260v-147h-203v-201z" />
<glyph unicode="g" horiz-adv-x="1251" d="M74 532v-8q0 -214 100 -362q98 -158 330 -162q119 0 205 51q84 47 122 117h5q0 -68 -5 -139q-8 -72 -38 -133q-31 -60 -95 -99q-67 -37 -180 -39q-67 2 -153 31q-86 27 -154 62l-23 -234q194 -72 356 -72h9q166 2 274 50q111 45 170 122q64 78 90 179q13 49 19 102 q4 53 4 104v953h-262v-144h-4q-114 168 -319 168h-5q-233 -6 -340 -176q-106 -167 -106 -364v-7zM360 532v9q0 123 56 221q53 100 190 104q119 -2 176 -96q54 -92 54 -231q0 -136 -56 -228q-57 -96 -186 -98q-57 0 -100 31q-43 28 -74 75q-60 99 -60 213z" />
<glyph unicode="h" horiz-adv-x="1251" d="M141 0h275v516q0 53 12 115q10 59 37 112q29 54 74 88q45 35 118 35q66 0 105 -26q37 -29 51 -76q18 -43 20 -96q3 -54 3 -105v-563h274v666q0 182 -84 296q-88 115 -274 117q-222 -4 -332 -168h-4v625h-275v-1536z" />
<glyph unicode="i" horiz-adv-x="569" d="M147 0h275v1055h-275v-1055zM147 1247h275v262h-275v-262z" />
<glyph unicode="j" horiz-adv-x="569" d="M-31 -438q60 -17 135 -17q105 2 168 39q62 39 95 95q32 59 45 124q10 64 10 119v1133h-275v-1096v-16q0 -106 -26 -142q-33 -39 -141 -43zM147 1247h275v262h-275v-262z" />
<glyph unicode="k" d="M147 0h275v512h4l352 -512h348l-442 584l393 471h-323l-328 -422h-4v903h-275v-1536z" />
<glyph unicode="l" horiz-adv-x="569" d="M147 0h275v1536h-275v-1536z" />
<glyph unicode="m" horiz-adv-x="1821" d="M137 0h275v512q0 53 8 117q6 59 26 112q21 56 64 90q39 35 106 35q62 0 95 -22q30 -23 45 -60q20 -75 18 -155v-629h275v512q0 53 8 117q6 59 26 112q21 56 64 90q39 35 106 35q62 0 94 -22q31 -23 46 -60q20 -75 18 -155v-629h274v666q2 182 -67 296q-74 115 -266 117 q-99 0 -187 -45q-92 -45 -143 -141q-90 188 -311 186q-78 0 -162 -37q-84 -39 -152 -135h-4v148h-256v-1055z" />
<glyph unicode="n" horiz-adv-x="1251" d="M141 0h275v516q0 53 12 115q10 59 37 112q29 54 74 88q45 35 118 35q66 0 105 -26q37 -29 51 -76q18 -43 20 -96q3 -54 3 -105v-563h274v666q0 182 -84 296q-88 115 -274 117q-215 2 -347 -168h-4v144h-260v-1055z" />
<glyph unicode="o" horiz-adv-x="1251" d="M74 520q0 -231 145 -385q143 -155 406 -160q266 5 409 160q144 154 144 385q-3 264 -158 412q-154 145 -395 147q-238 -2 -392 -147q-157 -148 -159 -412zM360 553q0 125 68 217q66 94 197 96q135 -2 202 -94q64 -92 64 -219q0 -66 -10 -129q-11 -66 -41 -119 q-31 -53 -82 -84q-54 -33 -133 -33q-78 0 -127 35q-52 31 -82 84q-29 53 -41 119q-6 31 -10 65q-5 31 -5 62z" />
<glyph unicode="p" horiz-adv-x="1251" d="M141 -430h275v551h4q74 -84 149 -115q74 -31 160 -31q246 5 350 170q99 159 99 376v9v9q0 220 -99 376q-104 160 -344 164q-239 -6 -327 -174h-5v150h-262v-1485zM418 530q0 119 57 224q57 108 189 112q67 0 112 -30q45 -31 70 -82q45 -109 45 -224q0 -53 -8 -112 q-13 -60 -39 -113q-25 -49 -70 -82q-47 -35 -115 -35q-67 0 -112 35q-45 33 -74 82q-55 103 -55 217v8z" />
<glyph unicode="q" horiz-adv-x="1251" d="M74 530v-8q0 -218 102 -377q103 -165 346 -170q88 0 164 31t145 115h5v-551h274v1485h-262v-150h-4q-92 170 -322 174q-243 -4 -346 -164q-102 -156 -102 -376v-9zM360 530q0 56 13 115q10 59 35 109q51 108 180 112q67 0 114 -30q45 -31 76 -82q55 -105 55 -224 q0 -55 -10 -114q-12 -60 -41 -111q-26 -49 -73 -82q-45 -35 -117 -35q-68 0 -111 35q-45 33 -71 82q-50 107 -50 217v8z" />
<glyph unicode="r" horiz-adv-x="797" d="M147 0h275v387q0 61 4 133q4 74 25 139q22 70 67 113q45 45 127 45q80 0 123 -22v276q-43 8 -84 8q-123 -4 -199 -94q-77 -88 -90 -170h-4v240h-244v-1055z" />
<glyph unicode="s" horiz-adv-x="909" d="M74 752q0 -70 22 -117q19 -49 53 -82q35 -33 78 -53q43 -21 86 -35q92 -25 164 -53q35 -15 55 -39q19 -27 19 -68q-2 -74 -64 -100q-59 -29 -116 -29q-142 0 -271 70l-16 -226q154 -43 311 -45q176 0 307 80q131 82 136 264q0 74 -19 125q-20 50 -55 84q-33 33 -74 58 q-43 22 -90 37q-43 16 -86 28q-43 13 -78 27q-74 24 -76 84q2 67 56 94q49 23 106 23q76 0 131 -11q56 -12 115 -35l18 207q-61 17 -131 29q-71 10 -168 10q-165 0 -284 -78q-127 -77 -129 -249z" />
<glyph unicode="t" horiz-adv-x="797" d="M29 854h202v-537q2 -333 334 -342q121 0 203 25l-8 217q-47 -29 -125 -29q-76 2 -103 56q-26 46 -26 109v9v492h244v201h-244v299l-275 -88v-211h-202v-201z" />
<glyph unicode="u" horiz-adv-x="1251" d="M141 389q0 -180 88 -295q84 -117 271 -119q217 5 346 168h4v-143h260v1055h-274v-516q0 -52 -9 -111q-8 -59 -37 -113q-24 -53 -71 -88q-49 -39 -125 -39q-64 0 -100 31q-35 29 -54 74q-14 47 -18 100q-2 27 -2 51q-4 25 -4 47v564h-275v-666z" />
<glyph unicode="v" d="M25 1055l391 -1055h309l389 1055h-274l-254 -768h-4l-263 768h-294z" />
<glyph unicode="w" horiz-adv-x="1821" d="M23 1055l356 -1055h313l225 805h5l229 -805h323l324 1055h-262l-219 -781h-4l-230 781h-319l-213 -781h-4l-234 781h-290z" />
<glyph unicode="x" d="M18 0h301l238 393l236 -393h327l-356 553l315 502h-291l-202 -344l-207 344h-324l326 -502z" />
<glyph unicode="y" d="M23 1055l403 -1108q0 -84 -47 -135q-47 -52 -131 -54q-94 0 -142 19l-18 -203q96 -29 195 -29q106 0 180 41q69 39 114 105q48 65 80 149q33 82 64 168l395 1047h-278l-254 -770h-4l-254 770h-303z" />
<glyph unicode="z" horiz-adv-x="1024" d="M74 0h876v213h-542l524 616v226h-836v-213h512l-534 -619v-223z" />
<glyph unicode="{" horiz-adv-x="682" d="M37 543q61 0 115 -41q51 -47 53 -164v-348q2 -139 94 -207q88 -70 209 -70h153v164h-92q-65 0 -84 41q-20 37 -18 109v340q0 84 -23 135q-22 49 -57 75q-35 27 -74 39q-41 11 -75 13v4q73 4 149 55q35 27 57 76q23 47 23 117v354q-2 72 18 110q19 39 84 39h92v164h-153 q-115 0 -207 -65q-94 -68 -96 -211v-363q0 -51 -13 -88q-16 -37 -40 -59q-54 -45 -115 -43v-176z" />
<glyph unicode="|" horiz-adv-x="455" d="M121 -512h213v2048h-213v-2048z" />
<glyph unicode="}" horiz-adv-x="682" d="M20 -123v-164h154q121 0 211 68q90 67 92 209v348q0 61 17 100q16 39 40 64q54 41 111 41v176h-5q-54 0 -106 43q-55 41 -57 147v363q-2 143 -92 211q-90 65 -211 65h-154v-164h93q65 0 86 -39q16 -38 16 -110v-354q0 -70 27 -117q22 -49 57 -76t76 -39q39 -12 69 -16v-4 q-71 0 -145 -52q-35 -26 -57 -75q-27 -51 -27 -135v-340q0 -72 -16 -109q-21 -41 -86 -41h-93z" />
<glyph unicode="~" horiz-adv-x="1229" d="M141 516l74 -180q25 57 66 102q41 43 110 45q68 0 121 -20q51 -23 102 -51q54 -29 111 -47q57 -25 127 -25q80 2 139 59q60 54 96 121l-73 180q-33 -55 -74 -98q-41 -47 -96 -49q-56 0 -107 24q-53 23 -108 50q-47 28 -105 49q-57 20 -135 20q-94 -2 -153 -57 q-62 -55 -95 -123z" />
<glyph unicode="&#xa1;" horiz-adv-x="797" d="M240 -375h315l-45 1010h-227zM252 768h287v287h-287v-287z" />
<glyph unicode="&#xa2;" d="M176 532q0 -358 268 -503l-65 -213h119l55 176q67 -17 143 -17q86 0 152 11q65 6 123 24l-13 228q-34 -17 -92 -31q-59 -19 -119 -19q-71 0 -124 27l198 645q62 -10 107 -33l24 217q-33 11 -69 15l57 186h-119l-53 -170q-37 4 -82 4q-246 -2 -377 -157 q-133 -154 -133 -390zM463 532q0 142 65 232q64 88 174 102l-174 -569q-65 94 -65 235z" />
<glyph unicode="&#xa3;" d="M111 0h923v213h-457v448h302v164h-302v137q0 109 64 187q61 78 195 80q61 0 108 -11q49 -10 90 -24l15 225q-105 35 -267 35q-209 -2 -346 -125q-143 -123 -145 -332v-172h-156v-164h156v-448h-180v-213z" />
<glyph unicode="&#xa4;" d="M37 307l121 -121l118 119q136 -94 293 -94q158 0 293 94l119 -119l121 121l-119 119q94 139 94 295q0 158 -94 291l119 118l-121 121l-119 -119q-135 95 -293 95q-157 0 -293 -95l-118 119l-121 -121l119 -118q-95 -136 -95 -293q0 -154 95 -293zM287 719q2 127 84 209 q80 84 198 86q121 -2 201 -86q80 -82 82 -209q-2 -123 -82 -207q-80 -86 -201 -88q-118 2 -198 88q-82 84 -84 207z" />
<glyph unicode="&#xa5;" d="M-20 1429l356 -673h-205v-164h285l16 -27v-100h-301v-164h301v-301h275v301h301v164h-301v100l14 27h287v164h-201l354 673h-268l-316 -630l-309 630h-288z" />
<glyph unicode="&#xa6;" horiz-adv-x="455" d="M121 358v-716h213v716h-213zM121 666h213v716h-213v-716z" />
<glyph unicode="&#xa7;" d="M135 584q2 -129 96 -199q43 -35 97 -59q51 -27 106 -50q119 -38 205 -79q43 -21 68 -52q24 -30 24 -69q-2 -78 -59 -111q-60 -31 -148 -31q-180 5 -344 80l-18 -233q186 -55 379 -59q174 0 311 96q137 92 141 274q-2 150 -139 234q149 90 151 262q-2 139 -92 211 q-88 71 -206 108q-115 37 -203 78q-43 20 -68 51q-24 27 -24 66q2 82 61 112q55 27 135 27q154 0 293 -51l23 223q-162 39 -328 41q-168 0 -301 -84q-141 -86 -146 -266q0 -82 39 -139q37 -58 105 -105q-156 -86 -158 -276zM348 633q0 51 25 92q20 41 49 59q65 -26 131 -49 q63 -20 117 -45q55 -24 90 -57q33 -33 33 -88q-3 -97 -74 -154q-39 25 -99 49q-61 21 -124 47q-60 27 -103 64q-45 33 -45 82z" />
<glyph unicode="&#xa8;" horiz-adv-x="569" d="M-45 1247h237v238h-237v-238zM377 1247h237v238h-237v-238z" />
<glyph unicode="&#xa9;" horiz-adv-x="1638" d="M80 715q4 -312 219 -520q209 -215 520 -220q316 5 524 220q211 208 215 520q-4 315 -215 524q-208 211 -524 215q-311 -4 -520 -215q-215 -209 -219 -524zM293 715q2 260 153 417q148 156 373 158q225 -2 375 -158q149 -157 151 -417q-2 -258 -151 -414 q-150 -160 -375 -162q-225 2 -373 162q-151 156 -153 414zM430 721q0 -189 115 -309q110 -125 303 -127q135 0 235 82q99 77 123 229h-170q-6 -72 -57 -109q-53 -39 -131 -39q-98 0 -156 82q-61 76 -61 193q0 121 57 196q53 72 156 74q73 0 127 -33q51 -36 65 -110h164 q-25 151 -119 229q-96 78 -237 78q-195 -2 -303 -123q-111 -121 -111 -313z" />
<glyph unicode="&#xaa;" horiz-adv-x="739" d="M57 967q0 -50 25 -82q22 -37 59 -58q78 -41 166 -41q64 0 117 23q51 22 76 80h4l6 -86h172q-10 172 -10 372q2 279 -283 279h-12q-135 0 -246 -51v-135q98 61 215 63q72 0 111 -24q39 -29 39 -111h-76q-60 0 -123 -4q-64 -8 -117 -33q-53 -24 -86 -70q-37 -45 -37 -122z M233 977q0 43 23 65q20 23 51 31q31 10 66 12h63h62q0 -71 -39 -123q-41 -53 -119 -53q-33 0 -68 15q-39 14 -39 53z" />
<glyph unicode="&#xab;" d="M100 551l242 -420h258l-225 420l225 420h-258zM557 551l242 -420h258l-226 420l226 420h-258z" />
<glyph unicode="&#xac;" horiz-adv-x="1229" d="M94 635h828v-414h213v627h-1041v-213z" />
<glyph unicode="&#xad;" horiz-adv-x="682" d="M72 438h538v226h-538v-226z" />
<glyph unicode="&#xae;" horiz-adv-x="1638" d="M80 715q4 -312 219 -520q209 -215 520 -220q316 5 524 220q211 208 215 520q-4 315 -215 524q-208 211 -524 215q-311 -4 -520 -215q-215 -209 -219 -524zM293 715q2 260 153 417q148 156 373 158q225 -2 375 -158q149 -157 151 -417q-2 -258 -151 -414 q-150 -160 -375 -162q-225 2 -373 162q-151 156 -153 414zM522 307h176v348h84l197 -348h180l-217 357q98 8 158 59q57 51 59 160q0 137 -84 192q-86 53 -244 53h-309v-821zM698 993h125q58 0 107 -14q51 -17 53 -80q0 -68 -39 -88q-34 -21 -92 -21h-10h-144v203z" />
<glyph unicode="&#xaf;" horiz-adv-x="569" d="M-10 1266h590v163h-590v-163z" />
<glyph unicode="&#xb0;" horiz-adv-x="819" d="M80 1124q0 -143 94 -235q92 -94 236 -94q143 2 235 96q92 92 94 233q-2 142 -96 234q-92 94 -233 96q-140 -2 -232 -96q-96 -92 -98 -234zM229 1124q0 82 52 131q47 47 129 49q81 -2 131 -49q47 -49 49 -131q-2 -82 -49 -129q-50 -51 -131 -51q-82 0 -129 51 q-52 47 -52 129z" />
<glyph unicode="&#xb1;" horiz-adv-x="1229" d="M94 0h1041v213h-1041v-213zM94 553h414v-272h213v272h414v213h-414v270h-213v-270h-414v-213z" />
<glyph unicode="&#xb2;" horiz-adv-x="739" d="M61 577h619v177h-350v4q100 47 221 176q55 63 90 129q35 65 35 127q-2 143 -90 205q-90 59 -226 59q-147 0 -276 -68l14 -178q97 70 215 70q125 -2 125 -107q0 -45 -45 -110q-45 -70 -110 -139q-64 -66 -125 -115q-64 -47 -97 -62v-168z" />
<glyph unicode="&#xb3;" horiz-adv-x="739" d="M53 600q139 -35 258 -35q133 0 252 60q55 30 90 82q33 49 33 120q0 78 -45 135q-47 54 -137 62v4q170 47 170 215q0 61 -31 104q-31 39 -82 64q-106 43 -213 43q-125 0 -264 -49l10 -168q53 31 113 43q59 10 110 10q58 0 95 -18q34 -21 36 -76q-2 -51 -49 -74 q-49 -24 -96 -24q-74 0 -119 2v-172q43 6 115 6q61 0 106 -19q41 -24 43 -82q-2 -51 -51 -75q-51 -29 -112 -29q-103 0 -222 41z" />
<glyph unicode="&#xb4;" horiz-adv-x="569" d="M59 1198h170l281 299h-281z" />
<glyph unicode="&#xb5;" horiz-adv-x="1251" d="M141 -430h275v475h4q47 -47 98 -57q51 -13 100 -13q82 2 144 58q61 53 84 110h4v-143h260v1055h-274v-516q0 -52 -9 -111q-8 -59 -37 -113q-24 -53 -71 -88q-49 -39 -125 -39q-64 0 -100 31q-35 29 -54 74q-14 47 -18 100q-2 27 -2 51q-4 25 -4 47v564h-275v-1485z" />
<glyph unicode="&#xb6;" horiz-adv-x="1270" d="M4 1057q4 -350 449 -359v-952h213v1520h217v-1520h213v1683h-600h-11q-209 0 -340 -77q-139 -82 -141 -295z" />
<glyph unicode="&#xb8;" horiz-adv-x="569" d="M154 -412q38 -18 96 -28q57 -13 141 -15q96 0 174 50q80 49 82 163q-2 74 -51 109q-49 33 -113 33q-47 0 -84 -13l-4 4l94 109h-129l-120 -152l30 -53q37 19 86 19q39 2 64 -17q26 -18 26 -57q-2 -39 -34 -55q-33 -17 -74 -17q-43 2 -76 13l-67 18z" />
<glyph unicode="&#xb9;" horiz-adv-x="739" d="M25 1237l106 -125l158 121v-656h213v865h-193z" />
<glyph unicode="&#xba;" horiz-adv-x="813" d="M43 1122q2 -157 109 -246q102 -90 256 -90q155 0 258 90q102 89 104 246q-2 156 -106 244q-103 88 -254 88q-150 0 -256 -88q-109 -88 -111 -244zM244 1122q0 86 39 148q39 59 131 61q88 -2 123 -65q32 -62 32 -144q0 -84 -28 -145q-35 -66 -131 -68q-97 0 -131 64 q-35 58 -35 140v9z" />
<glyph unicode="&#xbb;" d="M82 131h258l242 420l-242 420h-258l225 -420zM539 131h258l241 420l-241 420h-258l225 -420z" />
<glyph unicode="&#xbc;" horiz-adv-x="1708" d="M41 1237l106 -125l158 121v-656h213v865h-192zM336 -45h168l854 1519h-168zM932 162h411v-162h213v162h99v164h-99v538h-256l-368 -528v-174zM1106 326l233 350h4v-350h-237z" />
<glyph unicode="&#xbd;" horiz-adv-x="1708" d="M20 1235l107 -125l158 123v-656h213v865h-193zM274 -45h168l854 1519h-168zM1022 0h618v176h-350v4q100 47 221 176q56 64 90 129q35 66 35 127q-2 144 -90 205q-90 59 -225 59q-148 0 -277 -67l15 -178q96 69 215 69q125 -2 125 -106q0 -45 -45 -111q-45 -69 -111 -139 q-63 -65 -125 -115q-63 -47 -96 -61v-168z" />
<glyph unicode="&#xbe;" horiz-adv-x="1708" d="M29 600q139 -35 258 -35q133 0 252 60q55 30 90 82q32 49 32 120q0 78 -45 135q-47 54 -137 62v4q170 47 170 215q0 61 -31 104q-30 39 -81 64q-107 43 -213 43q-125 0 -265 -49l11 -168q53 31 112 43q60 10 111 10q57 0 100 -18q41 -21 43 -76q-2 -51 -51 -74 q-49 -24 -106 -24q-74 0 -119 2v-172q43 6 114 6q62 0 111 -19q49 -24 51 -82q-2 -51 -51 -75q-51 -29 -113 -29q-118 0 -233 41zM360 -45h168l854 1519h-168zM956 162h412v-162h213v162h98v164h-98v538h-256l-369 -528v-174zM1135 326l229 350h4v-350h-233z" />
<glyph unicode="&#xbf;" horiz-adv-x="1024" d="M49 -33q2 -194 146 -280q137 -86 321 -86q102 0 207 14q106 14 199 53l-23 228q-147 -80 -315 -82q-84 0 -158 41q-33 22 -55 59q-23 35 -23 86q2 82 49 137q45 58 103 117q59 61 104 151q43 91 45 232h-252q1 -10 1 -21q0 -84 -44 -155q-49 -78 -121 -152 q-69 -71 -124 -153q-58 -82 -60 -189zM377 768h287v287h-287v-287z" />
<glyph unicode="&#xc0;" horiz-adv-x="1479" d="M18 0h297l125 328h580l123 -328h317l-561 1429h-324zM469 1821l281 -299h170l-170 299h-281zM522 553l207 590h4l207 -590h-418z" />
<glyph unicode="&#xc1;" horiz-adv-x="1479" d="M18 0h297l125 328h580l123 -328h317l-561 1429h-324zM522 553l207 590h4l207 -590h-418zM588 1522h170l281 299h-281z" />
<glyph unicode="&#xc2;" horiz-adv-x="1479" d="M18 0h297l125 328h580l123 -328h317l-561 1429h-324zM427 1522h182l144 176l139 -176h182l-215 299h-207zM522 553l207 590h4l207 -590h-418z" />
<glyph unicode="&#xc3;" horiz-adv-x="1479" d="M18 0h297l125 328h580l123 -328h317l-561 1429h-324zM387 1559h111q0 33 24 61q25 27 76 29q62 -2 139 -39q39 -14 82 -25q39 -12 94 -12q97 2 150 74q49 70 49 174h-110q0 -96 -91 -100q-38 0 -73 16q-37 12 -76 29q-39 16 -80 28q-39 13 -86 13q-90 -2 -147 -76 q-60 -76 -62 -172zM522 553l207 590h4l207 -590h-418z" />
<glyph unicode="&#xc4;" horiz-adv-x="1479" d="M18 0h297l125 328h580l123 -328h317l-561 1429h-324zM421 1571h237v238h-237v-238zM522 553l207 590h4l207 -590h-418zM843 1571h237v238h-237v-238z" />
<glyph unicode="&#xc5;" horiz-adv-x="1479" d="M18 0h297l125 328h580l123 -328h317l-561 1429h-324zM522 553l207 590h4l207 -590h-418zM538 1696q2 -90 67 -152q62 -65 152 -65q94 0 155 65q60 62 62 152q-2 92 -62 155q-61 62 -155 64q-90 -2 -152 -64q-65 -63 -67 -155zM648 1696q0 47 33 80q29 28 76 28t78 -28 q28 -33 28 -80q0 -45 -28 -74q-31 -33 -78 -33t-76 33q-33 29 -33 74z" />
<glyph unicode="&#xc6;" horiz-adv-x="1933" d="M18 0h308l176 328h549l24 -328h756v225h-477l-33 402h457v225h-482l-28 352h555v225h-1022zM625 553l354 663h4l47 -663h-405z" />
<glyph unicode="&#xc7;" horiz-adv-x="1251" d="M96 690q15 -643 637 -702l-110 -140l30 -53q37 19 86 19h7q34 0 57 -17q26 -18 26 -57q-2 -39 -34 -55q-33 -17 -74 -17q-43 2 -76 13l-68 18l-40 -111q38 -18 96 -28q57 -13 141 -15q96 0 174 50q80 49 82 163q-2 74 -51 109q-49 33 -113 33q-47 0 -84 -13l-4 4l74 86 q12 -2 29 -2q165 2 325 45l-12 240q-51 -24 -137 -41q-88 -18 -176 -18q-230 2 -357 147q-129 139 -129 363q0 225 131 370q125 146 348 148q78 0 154 -13q76 -18 156 -63l20 242q-170 59 -323 59q-770 -8 -785 -764z" />
<glyph unicode="&#xc8;" d="M166 0h848v225h-561v402h509v225h-509v352h557v225h-844v-1429zM291 1821l281 -299h170l-170 299h-281z" />
<glyph unicode="&#xc9;" d="M166 0h848v225h-561v402h509v225h-509v352h557v225h-844v-1429zM410 1522h170l281 299h-281z" />
<glyph unicode="&#xca;" d="M166 0h848v225h-561v402h509v225h-509v352h557v225h-844v-1429zM249 1522h182l144 176l139 -176h182l-215 299h-207z" />
<glyph unicode="&#xcb;" d="M166 0h848v225h-561v402h509v225h-509v352h557v225h-844v-1429zM243 1571h237v238h-237v-238zM665 1571h237v238h-237v-238z" />
<glyph unicode="&#xcc;" horiz-adv-x="569" d="M-2 1821l281 -299h170l-170 299h-281zM141 0h287v1429h-287v-1429z" />
<glyph unicode="&#xcd;" horiz-adv-x="569" d="M115 1522h170l281 299h-281zM141 0h287v1429h-287v-1429z" />
<glyph unicode="&#xce;" horiz-adv-x="569" d="M-44 1522h182l144 176l139 -176h182l-215 299h-207zM141 0h287v1429h-287v-1429z" />
<glyph unicode="&#xcf;" horiz-adv-x="569" d="M-50 1571h237v238h-237v-238zM141 0h287v1429h-287v-1429zM372 1571h237v238h-237v-238z" />
<glyph unicode="&#xd0;" horiz-adv-x="1479" d="M35 688h131v-688h391q168 0 315 33q148 33 263 112q116 82 182 222q65 137 65 348q0 215 -65 354q-66 137 -182 217q-232 143 -560 143h-18h-391v-565h-131v-176zM453 225v463h299v176h-299v340h159q189 0 328 -127t143 -362q-4 -234 -143 -361q-139 -129 -328 -129h-159 z" />
<glyph unicode="&#xd1;" horiz-adv-x="1479" d="M152 0h274v1069h4l547 -1069h350v1429h-274v-1069h-4l-545 1069h-352v-1429zM384 1559h111q0 33 24 61q25 27 76 29q62 -2 139 -39q39 -14 82 -25q39 -12 94 -12q97 2 150 74q49 70 49 174h-110q0 -96 -91 -100q-38 0 -73 16q-37 12 -76 29q-39 16 -80 28q-39 13 -86 13 q-90 -2 -147 -76q-60 -76 -62 -172z" />
<glyph unicode="&#xd2;" horiz-adv-x="1593" d="M96 719q0 -334 180 -535q177 -204 521 -209q342 5 522 211q176 203 178 533q0 332 -180 530q-180 201 -520 205q-342 -2 -521 -203q-180 -198 -180 -532zM395 719q0 198 96 350q95 156 306 160q213 -4 309 -160q92 -152 92 -350q0 -201 -90 -354q-45 -74 -123 -119 t-188 -45q-215 4 -310 164q-92 150 -92 346v8zM527 1821l281 -299h170l-170 299h-281z" />
<glyph unicode="&#xd3;" horiz-adv-x="1593" d="M96 719q0 -334 180 -535q177 -204 521 -209q342 5 522 211q176 203 178 533q0 332 -180 530q-180 201 -520 205q-342 -2 -521 -203q-180 -198 -180 -532zM395 719q0 198 96 350q95 156 306 160q213 -4 309 -160q92 -152 92 -350q0 -201 -90 -354q-45 -74 -123 -119 t-188 -45q-215 4 -310 164q-92 150 -92 346v8zM644 1522h170l281 299h-281z" />
<glyph unicode="&#xd4;" horiz-adv-x="1593" d="M96 719q0 -334 180 -535q177 -204 521 -209q342 5 522 211q176 203 178 533q0 332 -180 530q-180 201 -520 205q-342 -2 -521 -203q-180 -198 -180 -532zM395 719q0 198 96 350q95 156 306 160q213 -4 309 -160q92 -152 92 -350q0 -201 -90 -354q-45 -74 -123 -119 t-188 -45q-215 4 -310 164q-92 150 -92 346v8zM485 1522h182l144 176l139 -176h182l-215 299h-207z" />
<glyph unicode="&#xd5;" horiz-adv-x="1593" d="M96 719q0 -334 180 -535q177 -204 521 -209q342 5 522 211q176 203 178 533q0 332 -180 530q-180 201 -520 205q-342 -2 -521 -203q-180 -198 -180 -532zM395 719q0 198 96 350q95 156 306 160q213 -4 309 -160q92 -152 92 -350q0 -201 -90 -354q-45 -74 -123 -119 t-188 -45q-215 4 -310 164q-92 150 -92 346v8zM445 1559h111q0 33 24 61q25 27 76 29q62 -2 139 -39q39 -14 82 -25q39 -12 94 -12q97 2 150 74q49 70 49 174h-110q0 -96 -91 -100q-38 0 -73 16q-37 12 -76 29q-39 16 -80 28q-39 13 -86 13q-90 -2 -147 -76 q-60 -76 -62 -172z" />
<glyph unicode="&#xd6;" horiz-adv-x="1593" d="M96 719q0 -334 180 -535q177 -204 521 -209q342 5 522 211q176 203 178 533q0 332 -180 530q-180 201 -520 205q-342 -2 -521 -203q-180 -198 -180 -532zM395 719q0 198 96 350q95 156 306 160q213 -4 309 -160q92 -152 92 -350q0 -201 -90 -354q-45 -74 -123 -119 t-188 -45q-215 4 -310 164q-92 150 -92 346v8zM479 1571h237v238h-237v-238zM901 1571h237v238h-237v-238z" />
<glyph unicode="&#xd7;" horiz-adv-x="1229" d="M135 186l148 -147l331 334l332 -334l148 147l-334 332l334 332l-148 147l-332 -331l-331 331l-148 -147l332 -332z" />
<glyph unicode="&#xd8;" horiz-adv-x="1593" d="M96 719q0 -350 195 -549l-121 -156l92 -73l117 151q164 -115 418 -117q342 5 522 211q176 203 178 533q-2 348 -203 551l111 143l-92 76l-111 -144q-162 107 -405 109q-342 -2 -521 -203q-180 -198 -180 -532zM395 719q0 198 96 350q95 156 306 160q153 -2 245 -90 l-575 -742q-72 144 -72 322zM541 299l577 743q80 -141 80 -323q0 -201 -90 -354q-45 -74 -123 -119t-188 -45q-164 2 -256 98z" />
<glyph unicode="&#xd9;" horiz-adv-x="1479" d="M156 516q8 -541 567 -541h16h16q560 0 568 541v913h-287v-825q0 -184 -65 -291q-68 -112 -232 -112q-159 0 -229 112q-68 104 -68 281v10v825h-286v-913zM466 1821l281 -299h170l-170 299h-281z" />
<glyph unicode="&#xda;" horiz-adv-x="1479" d="M156 516q8 -541 567 -541h16h16q560 0 568 541v913h-287v-825q0 -184 -65 -291q-68 -112 -232 -112q-159 0 -229 112q-68 104 -68 281v10v825h-286v-913zM585 1522h170l281 299h-281z" />
<glyph unicode="&#xdb;" horiz-adv-x="1479" d="M156 516q8 -541 567 -541h16h16q560 0 568 541v913h-287v-825q0 -184 -65 -291q-68 -112 -232 -112q-159 0 -229 112q-68 104 -68 281v10v825h-286v-913zM424 1522h182l144 176l139 -176h182l-215 299h-207z" />
<glyph unicode="&#xdc;" horiz-adv-x="1479" d="M156 516q8 -541 567 -541h16h16q560 0 568 541v913h-287v-825q0 -184 -65 -291q-68 -112 -232 -112q-159 0 -229 112q-68 104 -68 281v10v825h-286v-913zM418 1571h237v238h-237v-238zM840 1571h237v238h-237v-238z" />
<glyph unicode="&#xdd;" horiz-adv-x="1366" d="M23 1429l522 -864v-565h286v565l512 864h-303l-344 -600l-338 600h-335zM533 1522h170l281 299h-281z" />
<glyph unicode="&#xde;" d="M141 0h287v305h121h9q231 0 384 103q156 104 158 350q-4 254 -181 346q-170 88 -405 88h-10h-76v237h-287v-1429zM428 530v437h100q115 0 193 -50q37 -24 59 -67q21 -43 21 -107q-2 -120 -80 -168q-77 -45 -184 -45h-9h-100z" />
<glyph unicode="&#xdf;" horiz-adv-x="1251" d="M147 0h275v1057q0 110 53 198q53 90 172 92q94 -2 139 -61q43 -61 43 -149q-6 -224 -243 -224h-4v-213h11q126 0 216 -45q92 -49 94 -186q0 -86 -22 -137q-23 -56 -58 -82q-35 -27 -69 -37q-37 -12 -70 -12q-92 0 -143 22l-9 -213q68 -18 179 -22q213 2 346 123 q131 118 133 329q-2 148 -94 252q-95 105 -252 125v4q272 78 272 363q-4 188 -145 282q-140 94 -320 94q-252 -2 -377 -145q-127 -143 -127 -381v-1034z" />
<glyph unicode="&#xe0;" d="M74 289q2 -152 116 -232q109 -80 252 -82q99 0 189 50q88 47 137 133h4q0 -62 12 -158h242q-8 119 -12 236q-4 110 -4 264v135v11q0 433 -443 433h-12q-190 -2 -367 -80l9 -235q145 112 325 115q123 0 180 -50q58 -51 58 -178h-152q-86 0 -180 -10q-92 -12 -174 -51 q-78 -35 -127 -109q-53 -73 -53 -192zM257 1497l281 -299h170l-170 299h-281zM336 305q0 62 33 98q28 37 75 56q47 18 101 24q24 4 49 4h47h119v-8q0 -120 -58 -209q-65 -92 -192 -94q-76 0 -123 33q-51 31 -51 96z" />
<glyph unicode="&#xe1;" d="M74 289q2 -152 116 -232q109 -80 252 -82q99 0 189 50q88 47 137 133h4q0 -62 12 -158h242q-8 119 -12 236q-4 110 -4 264v135v11q0 433 -443 433h-12q-190 -2 -367 -80l9 -235q145 112 325 115q123 0 180 -50q58 -51 58 -178h-152q-86 0 -180 -10q-92 -12 -174 -51 q-78 -35 -127 -109q-53 -73 -53 -192zM336 305q0 62 33 98q28 37 75 56q47 18 101 24q24 4 49 4h47h119v-8q0 -120 -58 -209q-65 -92 -192 -94q-76 0 -123 33q-51 31 -51 96zM429 1198h170l281 299h-281z" />
<glyph unicode="&#xe2;" d="M74 289q2 -152 116 -232q109 -80 252 -82q99 0 189 50q88 47 137 133h4q0 -62 12 -158h242q-8 119 -12 236q-4 110 -4 264v135v11q0 433 -443 433h-12q-190 -2 -367 -80l9 -235q145 112 325 115q123 0 180 -50q58 -51 58 -178h-152q-86 0 -180 -10q-92 -12 -174 -51 q-78 -35 -127 -109q-53 -73 -53 -192zM251 1198h182l144 176l139 -176h182l-215 299h-207zM336 305q0 62 33 98q28 37 75 56q47 18 101 24q24 4 49 4h47h119v-8q0 -120 -58 -209q-65 -92 -192 -94q-76 0 -123 33q-51 31 -51 96z" />
<glyph unicode="&#xe3;" d="M74 289q2 -152 116 -232q109 -80 252 -82q99 0 189 50q88 47 137 133h4q0 -62 12 -158h242q-8 119 -12 236q-4 110 -4 264v135v11q0 433 -443 433h-12q-190 -2 -367 -80l9 -235q145 112 325 115q123 0 180 -50q58 -51 58 -178h-152q-86 0 -180 -10q-92 -12 -174 -51 q-78 -35 -127 -109q-53 -73 -53 -192zM211 1235h111q0 33 24 61q25 27 76 29q62 -2 139 -39q39 -14 82 -25q39 -12 94 -12q97 2 150 74q49 70 49 174h-110q0 -96 -91 -100q-38 0 -73 16q-37 12 -76 29q-39 16 -80 28q-39 13 -86 13q-90 -2 -147 -76q-60 -76 -62 -172z M336 305q0 62 33 98q28 37 75 56q47 18 101 24q24 4 49 4h47h119v-8q0 -120 -58 -209q-65 -92 -192 -94q-76 0 -123 33q-51 31 -51 96z" />
<glyph unicode="&#xe4;" d="M74 289q2 -152 116 -232q109 -80 252 -82q99 0 189 50q88 47 137 133h4q0 -62 12 -158h242q-8 119 -12 236q-4 110 -4 264v135v11q0 433 -443 433h-12q-190 -2 -367 -80l9 -235q145 112 325 115q123 0 180 -50q58 -51 58 -178h-152q-86 0 -180 -10q-92 -12 -174 -51 q-78 -35 -127 -109q-53 -73 -53 -192zM245 1247h237v238h-237v-238zM336 305q0 62 33 98q28 37 75 56q47 18 101 24q24 4 49 4h47h119v-8q0 -120 -58 -209q-65 -92 -192 -94q-76 0 -123 33q-51 31 -51 96zM667 1247h237v238h-237v-238z" />
<glyph unicode="&#xe5;" d="M74 289q2 -152 116 -232q109 -80 252 -82q99 0 189 50q88 47 137 133h4q0 -62 12 -158h242q-8 119 -12 236q-4 110 -4 264v135v11q0 433 -443 433h-12q-190 -2 -367 -80l9 -235q145 112 325 115q123 0 180 -50q58 -51 58 -178h-152q-86 0 -180 -10q-92 -12 -174 -51 q-78 -35 -127 -109q-53 -73 -53 -192zM336 305q0 62 33 98q28 37 75 56q47 18 101 24q24 4 49 4h47h119v-8q0 -120 -58 -209q-65 -92 -192 -94q-76 0 -123 33q-51 31 -51 96zM362 1403q2 -90 67 -152q62 -65 152 -65q94 0 155 65q60 62 62 152q-2 92 -62 155q-61 62 -155 64 q-90 -2 -152 -64q-65 -63 -67 -155zM472 1403q0 47 33 80q29 28 76 28t78 -28q28 -33 28 -80q0 -45 -28 -74q-31 -33 -78 -33t-76 33q-33 29 -33 74z" />
<glyph unicode="&#xe6;" horiz-adv-x="1821" d="M74 289q2 -170 127 -242q121 -72 276 -72h9q112 0 214 48q54 24 99 61q43 33 71 82q78 -107 197 -148q117 -43 246 -43q217 0 362 84v224q-76 -45 -162 -74q-88 -33 -188 -33q-129 0 -213 70q-88 67 -90 196h725v11q0 249 -92 432q-103 188 -379 194q-246 -2 -361 -133 q-36 43 -75 72q-41 26 -84 39q-86 22 -199 22q-201 -2 -375 -80l8 -235q146 112 326 117q137 0 193 -58q51 -57 51 -172h-158q-90 0 -182 -14q-94 -14 -172 -55q-78 -39 -125 -111q-49 -72 -49 -182zM336 289q0 61 31 102q28 39 75 60q47 22 101 30q26 4 51 6h47h119v-13 q0 -298 -269 -298q-73 0 -114 35q-41 31 -41 78zM1022 631q0 106 65 176q62 69 183 72q114 -3 166 -74q49 -74 49 -174h-463z" />
<glyph unicode="&#xe7;" horiz-adv-x="909" d="M74 532q0 -225 110 -372q111 -150 332 -178l-106 -134l30 -53q37 19 86 19h7q34 0 57 -17q26 -18 26 -57q-2 -39 -34 -55q-33 -17 -74 -17q-43 2 -76 13l-67 18l-41 -111q38 -18 96 -28q57 -13 141 -15q96 0 174 50q80 49 82 163q-2 74 -51 109q-49 33 -113 33 q-47 0 -84 -13l-4 4l76 86q131 3 227 33l-12 228q-35 -17 -92 -31q-60 -19 -119 -19q-143 2 -213 101q-72 96 -72 243q0 154 78 244q74 88 201 90q63 0 108 -10q43 -10 78 -29l25 217q-107 35 -266 35q-246 -2 -377 -157q-133 -154 -133 -390z" />
<glyph unicode="&#xe8;" d="M74 522q6 -538 551 -547q217 0 362 84v224q-76 -45 -162 -74q-88 -33 -188 -33q-127 0 -209 72q-82 67 -92 194h729v11q0 275 -103 448q-110 176 -399 178q-244 -4 -366 -162q-123 -159 -123 -395zM257 1497l281 -299h170l-170 299h-281zM336 631q8 108 69 178 q62 67 175 70q114 -3 167 -74q52 -70 56 -174h-467z" />
<glyph unicode="&#xe9;" d="M74 522q6 -538 551 -547q217 0 362 84v224q-76 -45 -162 -74q-88 -33 -188 -33q-127 0 -209 72q-82 67 -92 194h729v11q0 275 -103 448q-110 176 -399 178q-244 -4 -366 -162q-123 -159 -123 -395zM336 631q8 108 69 178q62 67 175 70q114 -3 167 -74q52 -70 56 -174 h-467zM429 1198h170l281 299h-281z" />
<glyph unicode="&#xea;" d="M74 522q6 -538 551 -547q217 0 362 84v224q-76 -45 -162 -74q-88 -33 -188 -33q-127 0 -209 72q-82 67 -92 194h729v11q0 275 -103 448q-110 176 -399 178q-244 -4 -366 -162q-123 -159 -123 -395zM251 1198h182l144 176l139 -176h182l-215 299h-207zM336 631 q8 108 69 178q62 67 175 70q114 -3 167 -74q52 -70 56 -174h-467z" />
<glyph unicode="&#xeb;" d="M74 522q6 -538 551 -547q217 0 362 84v224q-76 -45 -162 -74q-88 -33 -188 -33q-127 0 -209 72q-82 67 -92 194h729v11q0 275 -103 448q-110 176 -399 178q-244 -4 -366 -162q-123 -159 -123 -395zM245 1247h237v238h-237v-238zM336 631q8 108 69 178q62 67 175 70 q114 -3 167 -74q52 -70 56 -174h-467zM667 1247h237v238h-237v-238z" />
<glyph unicode="&#xec;" horiz-adv-x="569" d="M-38 1497l281 -299h170l-170 299h-281zM147 0h275v1055h-275v-1055z" />
<glyph unicode="&#xed;" horiz-adv-x="569" d="M133 1198h170l281 299h-281zM147 0h275v1055h-275v-1055z" />
<glyph unicode="&#xee;" horiz-adv-x="569" d="M-44 1198h182l144 176l139 -176h182l-215 299h-207zM147 0h275v1055h-275v-1055z" />
<glyph unicode="&#xef;" horiz-adv-x="569" d="M-50 1247h237v238h-237v-238zM147 0h275v1055h-275v-1055zM372 1247h237v238h-237v-238z" />
<glyph unicode="&#xf0;" horiz-adv-x="1251" d="M74 520q0 -231 145 -385q143 -155 406 -160q540 7 546 602q-10 504 -399 783l170 108l-104 97l-189 -121q-123 71 -260 121l-125 -140q92 -30 203 -98l-170 -111l104 -96l189 123q143 -106 217 -254h-4q-45 31 -105 49q-59 17 -147 17q-229 -4 -354 -160 q-123 -154 -123 -368v-7zM360 514q0 121 68 221q66 103 201 107q69 0 118 -29q50 -31 78 -80q60 -104 60 -219q0 -129 -58 -223q-59 -101 -200 -103q-74 0 -123 33q-51 29 -82 76t-45 104q-17 58 -17 113z" />
<glyph unicode="&#xf1;" horiz-adv-x="1251" d="M141 0h275v516q0 53 12 115q10 59 37 112q29 54 74 88q45 35 118 35q66 0 105 -26q37 -29 51 -76q18 -43 20 -96q3 -54 3 -105v-563h274v666q0 182 -84 296q-88 115 -274 117h-5q-212 0 -342 -168h-4v144h-260v-1055zM268 1235h111q0 33 24 61q25 27 76 29q62 -2 139 -39 q39 -14 82 -25q39 -12 94 -12q97 2 150 74q49 70 49 174h-110q0 -96 -91 -100q-38 0 -73 16q-37 12 -76 29q-39 16 -80 28q-39 13 -86 13q-90 -2 -147 -76q-60 -76 -62 -172z" />
<glyph unicode="&#xf2;" horiz-adv-x="1251" d="M74 520q0 -231 145 -385q143 -155 406 -160q266 5 409 160q144 154 144 385q-3 264 -158 412q-154 145 -395 147q-238 -2 -392 -147q-157 -148 -159 -412zM318 1497l281 -299h170l-170 299h-281zM360 553q0 125 68 217q66 94 197 96q135 -2 202 -94q64 -92 64 -219 q0 -66 -10 -129q-11 -66 -41 -119q-31 -53 -82 -84q-54 -33 -133 -33q-78 0 -127 35q-52 31 -82 84q-29 53 -41 119q-6 31 -10 65q-5 31 -5 62z" />
<glyph unicode="&#xf3;" horiz-adv-x="1251" d="M74 520q0 -231 145 -385q143 -155 406 -160q266 5 409 160q144 154 144 385q-3 264 -158 412q-154 145 -395 147q-238 -2 -392 -147q-157 -148 -159 -412zM360 553q0 125 68 217q66 94 197 96q135 -2 202 -94q64 -92 64 -219q0 -66 -10 -129q-11 -66 -41 -119 q-31 -53 -82 -84q-54 -33 -133 -33q-78 0 -127 35q-52 31 -82 84q-29 53 -41 119q-6 31 -10 65q-5 31 -5 62zM487 1198h170l281 299h-281z" />
<glyph unicode="&#xf4;" horiz-adv-x="1251" d="M74 520q0 -231 145 -385q143 -155 406 -160q266 5 409 160q144 154 144 385q-3 264 -158 412q-154 145 -395 147q-238 -2 -392 -147q-157 -148 -159 -412zM310 1198h182l144 176l139 -176h182l-215 299h-207zM360 553q0 125 68 217q66 94 197 96q135 -2 202 -94 q64 -92 64 -219q0 -66 -10 -129q-11 -66 -41 -119q-31 -53 -82 -84q-54 -33 -133 -33q-78 0 -127 35q-52 31 -82 84q-29 53 -41 119q-6 31 -10 65q-5 31 -5 62z" />
<glyph unicode="&#xf5;" horiz-adv-x="1251" d="M74 520q0 -231 145 -385q143 -155 406 -160q266 5 409 160q144 154 144 385q-3 264 -158 412q-154 145 -395 147q-238 -2 -392 -147q-157 -148 -159 -412zM269 1235h111q0 33 24 61q25 27 76 29q62 -2 139 -39q39 -14 82 -25q39 -12 94 -12q97 2 150 74q49 70 49 174 h-110q0 -96 -91 -100q-38 0 -73 16q-37 12 -76 29q-39 16 -80 28q-39 13 -86 13q-90 -2 -147 -76q-60 -76 -62 -172zM360 553q0 125 68 217q66 94 197 96q135 -2 202 -94q64 -92 64 -219q0 -66 -10 -129q-11 -66 -41 -119q-31 -53 -82 -84q-54 -33 -133 -33q-78 0 -127 35 q-52 31 -82 84q-29 53 -41 119q-6 31 -10 65q-5 31 -5 62z" />
<glyph unicode="&#xf6;" horiz-adv-x="1251" d="M74 520q0 -231 145 -385q143 -155 406 -160q266 5 409 160q144 154 144 385q-3 264 -158 412q-154 145 -395 147q-238 -2 -392 -147q-157 -148 -159 -412zM304 1247h237v238h-237v-238zM360 553q0 125 68 217q66 94 197 96q135 -2 202 -94q64 -92 64 -219q0 -66 -10 -129 q-11 -66 -41 -119q-31 -53 -82 -84q-54 -33 -133 -33q-78 0 -127 35q-52 31 -82 84q-29 53 -41 119q-6 31 -10 65q-5 31 -5 62zM726 1247h237v238h-237v-238z" />
<glyph unicode="&#xf7;" horiz-adv-x="1229" d="M94 412h1041v213h-1041v-213zM457 111q0 -68 45 -113q41 -43 112 -45q72 2 117 45q41 45 41 113q0 71 -41 114q-45 41 -117 43q-71 -2 -112 -43q-45 -43 -45 -114zM457 926q0 -68 45 -113q41 -45 112 -45q72 0 117 45q41 45 41 113q0 71 -41 114q-45 41 -117 43 q-71 -2 -112 -43q-45 -43 -45 -114z" />
<glyph unicode="&#xf8;" horiz-adv-x="1251" d="M74 520q0 -235 147 -387l-115 -137l84 -68l113 135q131 -86 322 -88q266 5 409 160q144 154 144 385q-3 260 -156 406l110 133l-81 67l-111 -133q-133 84 -315 86q-238 -2 -392 -147q-157 -148 -159 -412zM360 553q0 125 68 217q66 94 197 96q102 -2 161 -55l-389 -467 q-37 91 -37 198v11zM459 250l395 475q37 -78 37 -172q0 -66 -10 -129q-11 -66 -41 -119q-31 -53 -82 -84q-54 -33 -133 -33q-107 0 -166 62z" />
<glyph unicode="&#xf9;" horiz-adv-x="1251" d="M141 389q0 -180 88 -295q84 -117 271 -119q217 5 346 168h4v-143h260v1055h-274v-516q0 -52 -9 -111q-8 -59 -37 -113q-24 -53 -71 -88q-49 -39 -125 -39q-64 0 -100 31q-35 29 -54 74q-14 47 -18 100q-2 27 -2 51q-4 25 -4 47v564h-275v-666zM314 1497l281 -299h170 l-170 299h-281z" />
<glyph unicode="&#xfa;" horiz-adv-x="1251" d="M141 389q0 -180 88 -295q84 -117 271 -119q217 5 346 168h4v-143h260v1055h-274v-516q0 -52 -9 -111q-8 -59 -37 -113q-24 -53 -71 -88q-49 -39 -125 -39q-64 0 -100 31q-35 29 -54 74q-14 47 -18 100q-2 27 -2 51q-4 25 -4 47v564h-275v-666zM486 1198h170l281 299h-281 z" />
<glyph unicode="&#xfb;" horiz-adv-x="1251" d="M141 389q0 -180 88 -295q84 -117 271 -119q217 5 346 168h4v-143h260v1055h-274v-516q0 -52 -9 -111q-8 -59 -37 -113q-24 -53 -71 -88q-49 -39 -125 -39q-64 0 -100 31q-35 29 -54 74q-14 47 -18 100q-2 27 -2 51q-4 25 -4 47v564h-275v-666zM308 1198h182l144 176 l139 -176h182l-215 299h-207z" />
<glyph unicode="&#xfc;" horiz-adv-x="1251" d="M141 389q0 -180 88 -295q84 -117 271 -119q217 5 346 168h4v-143h260v1055h-274v-516q0 -52 -9 -111q-8 -59 -37 -113q-24 -53 -71 -88q-49 -39 -125 -39q-64 0 -100 31q-35 29 -54 74q-14 47 -18 100q-2 27 -2 51q-4 25 -4 47v564h-275v-666zM302 1247h237v238h-237 v-238zM724 1247h237v238h-237v-238z" />
<glyph unicode="&#xfd;" d="M23 1055l403 -1108q0 -84 -47 -135q-47 -52 -131 -54q-94 0 -142 19l-18 -203q96 -29 195 -29q106 0 180 41q69 39 114 105q48 65 80 149q33 82 64 168l395 1047h-278l-254 -770h-4l-254 770h-303zM430 1198h170l281 299h-281z" />
<glyph unicode="&#xfe;" horiz-adv-x="1251" d="M141 -430h275v549h4q49 -62 125 -101q75 -41 190 -43q240 5 344 170q99 159 99 376v9v9q0 220 -99 376q-104 160 -344 164q-119 -2 -196 -47q-80 -47 -119 -115h-4v619h-275v-1966zM418 530q0 119 57 224q57 108 189 112q67 0 112 -30q45 -31 70 -82q45 -109 45 -224 q0 -53 -8 -112q-13 -60 -39 -113q-25 -49 -70 -82q-47 -35 -115 -35q-67 0 -112 35q-45 33 -74 82q-55 103 -55 217v8z" />
<glyph unicode="&#xff;" d="M23 1055l403 -1108q0 -84 -47 -135q-47 -52 -131 -54q-94 0 -142 19l-18 -203q96 -29 195 -29q106 0 180 41q69 39 114 105q48 65 80 149q33 82 64 168l395 1047h-278l-254 -770h-4l-254 770h-303zM247 1247h237v238h-237v-238zM669 1247h237v238h-237v-238z" />
<glyph unicode="&#x131;" horiz-adv-x="569" d="M147 0h275v1055h-275v-1055z" />
<glyph unicode="&#x152;" horiz-adv-x="1933" d="M96 707q0 -224 68 -363q63 -143 168 -221q106 -76 237 -105q127 -30 260 -30q230 8 459 12h543v225h-541v402h488v225h-488v352h533v225h-535q-211 7 -422 13q-753 0 -770 -735zM395 707q0 233 121 372q119 135 336 137q88 -2 151 -12v-979q-55 -12 -143 -12 q-227 8 -346 143q-119 138 -119 351z" />
<glyph unicode="&#x153;" horiz-adv-x="1933" d="M74 520q0 -231 145 -385q143 -155 406 -160h11q93 0 197 33q111 35 195 141q70 -102 182 -137q113 -37 246 -37q145 2 227 35q41 15 66 27q24 14 37 20l-8 224q-140 -105 -314 -105q-125 0 -205 68q-81 63 -88 198h688v11q0 251 -92 434q-98 188 -381 192 q-108 0 -206 -43q-99 -45 -162 -137q-142 180 -393 180q-238 -2 -392 -147q-157 -148 -159 -412zM360 526q0 127 64 238q61 110 201 115q151 -5 215 -111q57 -107 57 -246q0 -65 -12 -127q-6 -30 -17 -57q-12 -29 -30 -53q-62 -107 -213 -109q-148 2 -207 113 q-58 101 -58 228v9zM1171 631q0 100 58 174q55 71 159 74q113 -3 160 -74q47 -72 49 -174h-426z" />
<glyph unicode="&#x178;" horiz-adv-x="1366" d="M23 1429l522 -864v-565h286v565l512 864h-303l-344 -600l-338 600h-335zM366 1571h237v238h-237v-238zM788 1571h237v238h-237v-238z" />
<glyph unicode="&#x2c6;" horiz-adv-x="569" d="M-39 1198h182l144 176l139 -176h182l-215 299h-207z" />
<glyph unicode="&#x2da;" horiz-adv-x="569" d="M68 1403q2 -90 67 -152q62 -65 152 -65q94 0 155 65q60 62 62 152q-2 92 -62 155q-61 62 -155 64q-90 -2 -152 -64q-65 -63 -67 -155zM178 1403q0 47 33 80q29 28 76 28t78 -28q28 -33 28 -80q0 -45 -28 -74q-31 -33 -78 -33t-76 33q-33 29 -33 74z" />
<glyph unicode="&#x2dc;" horiz-adv-x="569" d="M-78 1235h111q0 33 24 61q25 27 76 29q62 -2 139 -39q39 -14 82 -25q39 -12 94 -12q97 2 150 74q49 70 49 174h-110q0 -96 -91 -100q-38 0 -73 16q-37 12 -76 29q-39 16 -80 28q-39 13 -86 13q-90 -2 -147 -76q-60 -76 -62 -172z" />
<glyph unicode="&#x2000;" horiz-adv-x="957" />
<glyph unicode="&#x2001;" horiz-adv-x="1915" />
<glyph unicode="&#x2002;" horiz-adv-x="957" />
<glyph unicode="&#x2003;" horiz-adv-x="1915" />
<glyph unicode="&#x2004;" horiz-adv-x="638" />
<glyph unicode="&#x2005;" horiz-adv-x="478" />
<glyph unicode="&#x2006;" horiz-adv-x="319" />
<glyph unicode="&#x2007;" horiz-adv-x="319" />
<glyph unicode="&#x2008;" horiz-adv-x="239" />
<glyph unicode="&#x2009;" horiz-adv-x="383" />
<glyph unicode="&#x200a;" horiz-adv-x="106" />
<glyph unicode="&#x2010;" horiz-adv-x="682" d="M72 438h538v226h-538v-226z" />
<glyph unicode="&#x2011;" horiz-adv-x="682" d="M72 438h538v226h-538v-226z" />
<glyph unicode="&#x2012;" horiz-adv-x="682" d="M72 438h538v226h-538v-226z" />
<glyph unicode="&#x2013;" horiz-adv-x="1024" d="M0 457h1024v188h-1024v-188z" />
<glyph unicode="&#x2014;" horiz-adv-x="2048" d="M0 457h2048v188h-2048v-188z" />
<glyph unicode="&#x2018;" horiz-adv-x="569" d="M70 917h301l129 512h-244z" />
<glyph unicode="&#x2019;" horiz-adv-x="569" d="M70 917h241l189 512h-299z" />
<glyph unicode="&#x201a;" horiz-adv-x="569" d="M70 -225h241l189 512h-299z" />
<glyph unicode="&#x201c;" horiz-adv-x="985" d="M70 917h301l129 512h-244zM485 917h301l129 512h-243z" />
<glyph unicode="&#x201d;" horiz-adv-x="985" d="M70 917h241l189 512h-299zM485 917h242l188 512h-299z" />
<glyph unicode="&#x201e;" horiz-adv-x="985" d="M70 -225h241l189 512h-299zM485 -225h242l188 512h-299z" />
<glyph unicode="&#x2022;" horiz-adv-x="1024" d="M156 715q2 -150 106 -252q98 -105 250 -107q152 2 254 107q102 102 104 252q-2 151 -104 254q-102 100 -254 102q-152 -2 -250 -102q-104 -103 -106 -254z" />
<glyph unicode="&#x2026;" horiz-adv-x="2048" d="M199 0h286v287h-286v-287zM881 0h286v287h-286v-287zM1563 0h286v287h-286v-287z" />
<glyph unicode="&#x202f;" horiz-adv-x="383" />
<glyph unicode="&#x2039;" horiz-adv-x="682" d="M100 551l242 -420h258l-225 420l225 420h-258z" />
<glyph unicode="&#x203a;" horiz-adv-x="682" d="M82 131h258l242 420l-242 420h-258l225 -420z" />
<glyph unicode="&#x205f;" horiz-adv-x="478" />
<glyph unicode="&#x2122;" horiz-adv-x="2048" d="M98 1266h240v-689h213v689h239v163h-692v-163zM952 577h201v603h4l217 -603h154l217 603h4v-603h201v852h-297l-201 -532l-203 532h-297v-852z" />
<glyph unicode="&#xe000;" horiz-adv-x="1055" d="M0 1055h1055v-1055h-1055v1055z" />
<glyph unicode="&#xfb01;" horiz-adv-x="1366" d="M39 854h203v-854h274v854h240v201h-240v131q0 63 27 112q26 47 94 49q47 0 74 -10q26 -12 45 -26l22 227q-88 20 -201 22q-163 -2 -247 -98q-88 -98 -88 -260v-147h-203v-201zM944 0h275v1055h-275v-1055zM944 1247h275v262h-275v-262z" />
<glyph unicode="&#xfb02;" horiz-adv-x="1366" d="M39 854h203v-854h274v854h240v201h-240v131q0 63 27 112q26 47 94 49q47 0 74 -10q26 -12 45 -26l22 227q-88 20 -201 22q-163 -2 -247 -98q-88 -98 -88 -260v-147h-203v-201zM944 0h275v1536h-275v-1536z" />
<glyph unicode="&#xfb03;" horiz-adv-x="2163" d="M39 854h203v-854h274v854h240v201h-240v131q0 63 27 112q26 47 94 49q47 0 74 -10q26 -12 45 -26l22 227q-88 20 -201 22q-163 -2 -247 -98q-88 -98 -88 -260v-147h-203v-201zM836 854h203v-854h274v854h240v201h-240v131q0 63 27 112q26 47 94 49q47 0 74 -10 q26 -12 45 -26l22 227q-88 20 -201 22q-163 -2 -247 -98q-88 -98 -88 -260v-147h-203v-201zM1741 0h275v1055h-275v-1055zM1741 1247h275v262h-275v-262z" />
<glyph unicode="&#xfb04;" horiz-adv-x="2163" d="M39 854h203v-854h274v854h240v201h-240v131q0 63 27 112q26 47 94 49q47 0 74 -10q26 -12 45 -26l22 227q-88 20 -201 22q-163 -2 -247 -98q-88 -98 -88 -260v-147h-203v-201zM836 854h203v-854h274v854h240v201h-240v131q0 63 27 112q26 47 94 49q47 0 74 -10 q26 -12 45 -26l22 227q-88 20 -201 22q-163 -2 -247 -98q-88 -98 -88 -260v-147h-203v-201zM1741 0h275v1536h-275v-1536z" />
</font>
</defs>
</svg>
